<svg xmlns="http://www.w3.org/2000/svg" xmlns:xlink="http://www.w3.org/1999/xlink" width="1080" zoomAndPan="magnify" viewBox="0 0 810 809.999993" height="1080" preserveAspectRatio="xMidYMid meet" version="1.0"><defs><clipPath id="f952873d72"><path d="M 119.632812 129.492188 L 690.382812 129.492188 L 690.382812 680.742188 L 119.632812 680.742188 Z M 119.632812 129.492188 " clip-rule="nonzero"/></clipPath></defs><path fill="#1995ed" d="M 678.769531 624.035156 L 678.769531 670.070312 L 130.625 670.070312 L 130.625 624.035156 Z M 581.160156 522.859375 L 351.589844 522.859375 L 351.589844 580.023438 L 581.171875 580.023438 L 581.171875 522.859375 Z M 581.160156 522.859375 " fill-opacity="1" fill-rule="evenodd"/><path fill="#ffffff" d="M 352.589844 324.035156 L 581.160156 324.035156 L 581.160156 526.382812 L 352.589844 526.382812 Z M 352.589844 324.035156 " fill-opacity="1" fill-rule="evenodd"/><path fill="#7fd3ff" d="M 627.675781 302.800781 C 626.160156 316.714844 603.652344 321.265625 603.652344 321.265625 C 603.652344 321.265625 346.511719 327.089844 327.296875 323.550781 C 308.085938 320.011719 308.085938 302.300781 308.085938 302.300781 C 308.085938 302.300781 306.816406 171.273438 308.839844 154.835938 C 310.867188 138.398438 333.875 144.203125 333.875 144.203125 C 333.875 144.203125 602.398438 136.113281 610.984375 138.898438 C 619.585938 141.679688 626.917969 161.65625 626.917969 161.65625 C 626.917969 161.65625 629.1875 288.886719 627.675781 302.800781 Z M 327.824219 624.035156 L 606.449219 624.035156 L 606.449219 588.117188 L 327.824219 588.117188 Z M 340.5625 364.25 L 309.597656 364.25 L 309.597656 478.578125 L 340.5625 478.578125 Z M 192.289062 396.128906 L 234.253906 396.128906 L 234.253906 327.832031 L 192.289062 327.832031 Z M 581.160156 522.859375 L 581.160156 324.035156 L 559.078125 324.035156 L 559.078125 328.34375 L 352.589844 328.34375 L 352.589844 349.851562 L 559.089844 349.851562 L 559.089844 522.859375 Z M 351.589844 580.023438 L 373 580.023438 L 373 528.4375 L 351.589844 528.4375 Z M 351.589844 580.023438 " fill-opacity="1" fill-rule="evenodd"/><path fill="#ffffff" d="M 540.703125 438.109375 L 540.703125 485.15625 L 468.898438 485.15625 L 468.898438 438.109375 Z M 350.390625 588.117188 C 344.101562 588.660156 338.4375 591.457031 334.214844 595.679688 L 333.632812 596.320312 C 331.019531 599.105469 329.023438 602.457031 327.8125 606.152344 L 327.8125 624.035156 L 344.886719 624.035156 L 344.886719 614.117188 C 344.886719 612.132812 345.613281 610.335938 346.824219 608.980469 L 347.167969 608.652344 C 348.582031 607.238281 350.519531 606.367188 352.632812 606.367188 L 606.433594 606.367188 L 606.433594 588.117188 Z M 606.449219 606.367188 Z M 626.902344 161.65625 C 626.902344 161.65625 622.269531 149.015625 616.046875 142.449219 L 395.097656 142.449219 C 359.464844 143.433594 333.875 144.203125 333.875 144.203125 C 333.875 144.203125 333.117188 144.019531 331.890625 143.804688 C 326.757812 145.359375 322.148438 148.15625 318.441406 151.867188 L 318.398438 151.910156 C 312.589844 157.734375 308.984375 165.738281 308.984375 174.558594 L 308.984375 307.738281 C 310.582031 313.246094 315.015625 321.28125 327.285156 323.550781 C 328.652344 323.808594 331.277344 324.007812 334.902344 324.179688 C 333.574219 323.507812 332.375 322.636719 331.335938 321.609375 C 328.851562 319.113281 327.3125 315.671875 327.3125 311.878906 L 327.3125 174.542969 C 327.3125 170.746094 328.851562 167.308594 331.335938 164.8125 C 333.832031 162.328125 337.269531 160.785156 341.0625 160.785156 L 618.859375 160.785156 C 621.867188 160.785156 624.664062 161.769531 626.933594 163.414062 Z M 354.070312 201.371094 L 354.070312 257.523438 L 445.09375 257.523438 L 445.09375 201.371094 Z M 354.070312 201.371094 " fill-opacity="1" fill-rule="nonzero"/><g clip-path="url(#f952873d72)"><path fill="#0a57a2" d="M 681.121094 616.871094 L 620.511719 616.871094 L 620.511719 601.144531 C 620.511719 593.96875 617.574219 587.429688 612.851562 582.707031 C 608.132812 577.984375 601.597656 575.042969 594.425781 575.042969 L 593.539062 575.042969 L 593.539062 331.011719 L 605.949219 331.011719 C 614.765625 331.011719 622.765625 327.402344 628.585938 321.59375 L 628.628906 321.550781 C 634.433594 315.730469 638.042969 307.710938 638.042969 298.90625 L 638.042969 161.601562 C 638.042969 152.78125 634.433594 144.777344 628.628906 138.953125 L 628.585938 138.910156 C 622.765625 133.101562 614.765625 129.492188 605.949219 129.492188 L 328.167969 129.492188 C 319.367188 129.492188 311.351562 133.101562 305.53125 138.910156 L 305.488281 138.953125 C 299.683594 144.777344 296.074219 152.78125 296.074219 161.601562 L 296.074219 298.921875 C 296.074219 307.726562 299.683594 315.746094 305.488281 321.566406 L 305.53125 321.609375 C 311.351562 327.417969 319.367188 331.027344 328.167969 331.027344 L 340.578125 331.027344 L 340.578125 353.160156 L 307.441406 353.160156 C 302.378906 353.160156 298.269531 357.269531 298.269531 362.335938 L 298.269531 412.953125 C 289.753906 414.378906 282.066406 417.746094 276.019531 422.441406 C 267.175781 429.292969 261.683594 438.921875 261.683594 449.683594 L 261.683594 558.621094 C 261.683594 563.898438 259.527344 568.695312 256.089844 572.132812 L 256.046875 572.175781 C 252.597656 575.628906 247.816406 577.769531 242.527344 577.769531 C 237.261719 577.769531 232.457031 575.617188 228.988281 572.164062 C 225.539062 568.695312 223.382812 563.898438 223.382812 558.621094 L 223.382812 408.257812 L 237.261719 408.257812 C 242.328125 408.257812 246.433594 404.148438 246.433594 399.082031 L 246.433594 328.601562 C 246.433594 323.535156 242.328125 319.425781 237.261719 319.425781 L 223.355469 319.425781 L 223.355469 272.636719 C 223.355469 270.082031 222.3125 267.785156 220.628906 266.113281 L 187.566406 233.550781 C 183.972656 230.011719 178.179688 230.054688 174.628906 233.648438 C 171.089844 237.246094 171.132812 243.039062 174.726562 246.59375 L 205.054688 276.460938 L 205.054688 319.410156 L 191.132812 319.410156 C 186.066406 319.410156 181.960938 323.523438 181.960938 328.585938 L 181.960938 399.066406 C 181.960938 404.132812 186.066406 408.242188 191.132812 408.242188 L 205.011719 408.242188 L 205.011719 558.589844 C 205.011719 568.878906 209.234375 578.253906 216.023438 585.046875 L 216.066406 585.089844 C 222.855469 591.882812 232.226562 596.105469 242.511719 596.105469 C 252.78125 596.105469 262.152344 591.882812 268.972656 585.078125 L 269.015625 585.035156 C 275.789062 578.226562 279.996094 568.867188 279.996094 558.605469 L 279.996094 449.667969 C 279.996094 444.859375 282.75 440.320312 287.160156 436.898438 C 290.195312 434.542969 293.992188 432.746094 298.242188 431.660156 L 298.242188 480.363281 C 298.242188 485.429688 302.351562 489.539062 307.414062 489.539062 L 340.550781 489.539062 L 340.550781 575.058594 L 339.664062 575.058594 C 332.476562 575.058594 325.957031 578 321.234375 582.722656 L 320.652344 583.363281 C 316.273438 588.042969 313.574219 594.308594 313.574219 601.160156 L 313.574219 616.882812 L 128.898438 616.882812 C 123.832031 616.882812 119.726562 620.996094 119.726562 626.058594 L 119.726562 671.554688 C 119.726562 676.617188 123.832031 680.726562 128.898438 680.726562 L 681.121094 680.726562 C 686.1875 680.726562 690.292969 676.617188 690.292969 671.554688 L 690.292969 626.058594 C 690.292969 620.980469 686.1875 616.871094 681.121094 616.871094 Z M 318.441406 308.636719 C 315.957031 306.140625 314.417969 302.703125 314.417969 298.90625 L 314.417969 161.601562 C 314.417969 157.804688 315.957031 154.367188 318.441406 151.867188 C 320.9375 149.386719 324.375 147.84375 328.167969 147.84375 L 605.964844 147.84375 C 609.757812 147.84375 613.195312 149.386719 615.691406 151.867188 C 618.175781 154.367188 619.714844 157.804688 619.714844 161.601562 L 619.714844 298.921875 C 619.714844 302.714844 618.175781 306.15625 615.691406 308.652344 C 613.195312 311.136719 609.757812 312.675781 605.964844 312.675781 L 328.152344 312.675781 C 324.375 312.664062 320.9375 311.121094 318.441406 308.636719 Z M 200.332031 337.761719 L 228.089844 337.761719 L 228.089844 389.90625 L 200.332031 389.90625 Z M 336.855469 471.1875 L 316.601562 471.1875 L 316.601562 371.496094 L 336.855469 371.496094 Z M 358.90625 534.71875 L 575.195312 534.71875 L 575.195312 575.058594 L 358.90625 575.058594 Z M 575.195312 516.367188 L 358.90625 516.367188 L 358.90625 331.011719 L 575.195312 331.011719 Z M 331.949219 601.144531 C 331.949219 599.160156 332.675781 597.363281 333.886719 596.007812 L 334.230469 595.679688 C 335.644531 594.265625 337.582031 593.394531 339.695312 593.394531 L 594.425781 593.394531 C 596.550781 593.394531 598.488281 594.265625 599.886719 595.679688 C 601.300781 597.09375 602.167969 599.03125 602.167969 601.144531 L 602.167969 616.871094 L 331.949219 616.871094 Z M 671.949219 662.363281 L 138.070312 662.363281 L 138.070312 635.222656 L 671.949219 635.222656 Z M 449.527344 269.253906 C 454.59375 269.253906 458.699219 265.144531 458.699219 260.078125 L 458.699219 200.429688 C 458.699219 195.363281 454.59375 191.253906 449.527344 191.253906 L 354.457031 191.253906 C 349.394531 191.253906 345.285156 195.363281 345.285156 200.429688 L 345.285156 260.078125 C 345.285156 265.144531 349.394531 269.253906 354.457031 269.253906 Z M 363.628906 209.605469 L 440.355469 209.605469 L 440.355469 250.902344 L 363.628906 250.902344 Z M 475.417969 200.429688 C 475.417969 195.363281 479.527344 191.253906 484.589844 191.253906 L 579.660156 191.253906 C 584.722656 191.253906 588.832031 195.363281 588.832031 200.429688 C 588.832031 205.496094 584.722656 209.605469 579.660156 209.605469 L 484.589844 209.605469 C 479.527344 209.605469 475.417969 205.496094 475.417969 200.429688 Z M 588.816406 260.078125 C 588.816406 265.144531 584.710938 269.253906 579.644531 269.253906 L 532.117188 269.253906 C 527.054688 269.253906 522.945312 265.144531 522.945312 260.078125 C 522.945312 255.011719 527.054688 250.902344 532.117188 250.902344 L 579.644531 250.902344 C 584.710938 250.902344 588.816406 255.011719 588.816406 260.078125 Z M 467.058594 495.746094 L 544.257812 495.746094 C 549.320312 495.746094 553.429688 491.636719 553.429688 486.570312 L 553.429688 437.183594 C 553.429688 432.117188 549.320312 428.007812 544.257812 428.007812 L 467.058594 428.007812 C 461.996094 428.007812 457.886719 432.117188 457.886719 437.183594 L 457.886719 486.570312 C 457.886719 491.636719 461.996094 495.746094 467.058594 495.746094 Z M 476.230469 446.359375 L 535.085938 446.359375 L 535.085938 477.394531 L 476.230469 477.394531 Z M 476.230469 446.359375 " fill-opacity="1" fill-rule="nonzero"/></g></svg>