<svg xmlns="http://www.w3.org/2000/svg" xmlns:xlink="http://www.w3.org/1999/xlink" width="1080" zoomAndPan="magnify" viewBox="0 0 810 809.999993" height="1080" preserveAspectRatio="xMidYMid meet" version="1.0"><defs><clipPath id="79837c92ab"><path d="M 121 235 L 781.445312 235 L 781.445312 636 L 121 636 Z M 121 235 " clip-rule="nonzero"/></clipPath><clipPath id="6d92fee5b6"><path d="M 90 162.636719 L 693 162.636719 L 693 609 L 90 609 Z M 90 162.636719 " clip-rule="nonzero"/></clipPath></defs><path fill="#2d8700" d="M 575.320312 633.796875 C 536.347656 634.40625 497.367188 634.855469 458.398438 635.699219 C 441.945312 636.058594 425.480469 636.859375 409.074219 638.15625 C 382.808594 640.230469 356.554688 642.582031 330.363281 645.40625 C 314.265625 647.140625 298.328125 646.304688 282.394531 644.425781 C 268.597656 642.796875 257.035156 636.3125 247.183594 626.703125 C 243.441406 623.054688 239.761719 619.359375 235.746094 616.003906 C 227.96875 609.511719 219.050781 606.148438 208.921875 605.6875 C 195.355469 605.066406 181.921875 606.433594 168.484375 607.925781 C 147.304688 610.277344 126.074219 611.871094 104.769531 610.457031 C 88.8125 609.398438 73.140625 606.695312 58.734375 599.132812 C 51.65625 595.417969 45.351562 590.679688 40.484375 584.292969 C 30.304688 570.929688 28.609375 556.277344 34.414062 540.683594 C 39.261719 527.671875 47.742188 516.960938 56.417969 506.382812 C 63.5625 497.675781 71.917969 490.074219 79.140625 481.441406 C 80.691406 479.582031 81.90625 477.523438 83.050781 475.394531 C 86 469.898438 86.03125 464.46875 83.171875 458.910156 C 81.015625 454.71875 78.261719 450.9375 75.558594 447.117188 C 71.226562 440.996094 67.019531 434.792969 63.6875 428.054688 C 54.183594 408.832031 56.789062 392.714844 70.9375 376.15625 C 76.714844 369.398438 83.6875 363.945312 90.664062 358.507812 C 96.679688 353.816406 102.71875 349.152344 108.679688 344.386719 C 111.300781 342.296875 113.660156 339.902344 115.414062 336.996094 C 117.714844 333.171875 117.324219 329.617188 114.273438 326.375 C 111.257812 323.171875 107.34375 321.390625 103.417969 319.675781 C 93.742188 315.449219 83.761719 311.914062 74.480469 306.792969 C 69.304688 303.933594 64.378906 300.726562 59.921875 296.835938 C 43.839844 282.804688 41.914062 262.027344 54.976562 245.136719 C 62.324219 235.632812 72.238281 230.542969 83.6875 228.109375 C 97.695312 225.128906 111.96875 223.808594 126.101562 221.609375 C 141.828125 219.164062 157.617188 217.144531 173.433594 215.414062 C 185.925781 214.046875 198.445312 212.859375 210.972656 211.792969 C 224.035156 210.683594 237.105469 209.667969 250.179688 208.78125 C 290.550781 206.039062 330.972656 205.078125 371.425781 205.449219 C 397.136719 205.6875 422.808594 206.757812 448.289062 210.464844 C 469.128906 213.5 489.644531 217.828125 508.746094 227.203125 C 516.601562 231.058594 523.96875 235.632812 530.285156 241.753906 C 542.804688 253.894531 546.765625 268.84375 544.753906 285.769531 C 543.945312 292.585938 541.882812 299.09375 540.027344 305.652344 C 537.015625 316.316406 539.035156 320.542969 549.371094 324.691406 C 558.753906 328.453125 568.6875 330.019531 578.589844 331.617188 C 601.820312 335.363281 625.246094 338.011719 648.132812 343.722656 C 663.882812 347.65625 679.28125 352.535156 693.292969 361.007812 C 696.625 363.019531 699.773438 365.277344 702.707031 367.839844 C 715.53125 379.042969 719.683594 393.816406 714.316406 409.945312 C 708.445312 427.578125 697.25 441.273438 682.476562 452.246094 C 677.75 455.761719 672.996094 459.234375 668.277344 462.761719 C 665.15625 465.089844 662.242188 467.65625 659.6875 470.601562 C 653.65625 477.554688 653.085938 484.914062 658.039062 492.6875 C 662.671875 499.964844 669.292969 505.234375 676.277344 509.992188 C 687.117188 517.378906 698.242188 524.339844 709.066406 531.746094 C 722.105469 540.664062 733.644531 551.144531 741.976562 564.800781 C 749.652344 577.382812 750.707031 590.84375 746.558594 604.617188 C 742.175781 619.183594 731.074219 626.472656 716.902344 629.871094 C 709.199219 631.71875 701.347656 632.667969 693.46875 632.992188 C 681.023438 633.503906 668.574219 633.949219 656.109375 633.820312 C 629.183594 633.542969 602.253906 633.402344 575.320312 633.796875 Z M 575.320312 633.796875 " fill-opacity="1" fill-rule="nonzero"/><path fill="#40c3ff" d="M 578.277344 608.390625 C 564.226562 608.4375 550.164062 609.117188 536.136719 609.992188 C 521.058594 610.929688 506.015625 612.457031 490.953125 613.691406 C 479.621094 614.625 468.269531 615.339844 456.957031 616.445312 C 443.636719 617.742188 430.292969 618.636719 416.941406 619.417969 C 389.523438 621.023438 362.078125 621.765625 334.621094 620.929688 C 319.378906 620.460938 304.148438 619.375 289.296875 615.480469 C 282.144531 613.605469 275.273438 611.050781 269.070312 606.917969 C 259.617188 600.617188 257.210938 593.347656 261.128906 582.742188 C 262.515625 578.980469 264.164062 575.300781 265.308594 571.46875 C 267.0625 565.589844 265.539062 562.1875 260.171875 559.09375 C 255.945312 556.65625 251.277344 555.421875 246.578125 554.363281 C 235.859375 551.949219 224.941406 550.867188 214.054688 549.5625 C 192.539062 546.976562 170.996094 544.480469 150.328125 537.4375 C 142.175781 534.660156 134.4375 530.988281 127.800781 525.402344 C 121.289062 519.921875 116.792969 513.289062 117.382812 504.296875 C 117.785156 498.1875 120.578125 493.042969 124.386719 488.402344 C 130.425781 481.039062 138.101562 475.691406 146.171875 470.847656 C 164.664062 459.761719 184.746094 452.453125 205.171875 445.9375 C 225.171875 439.558594 245.550781 434.398438 265.351562 427.382812 C 276.105469 423.574219 286.515625 419.050781 295.75 412.191406 C 299.425781 409.457031 302.832031 406.441406 305.339844 402.566406 C 309.128906 396.71875 308.667969 391.253906 303.976562 386.078125 C 300.488281 382.230469 296.050781 379.730469 291.417969 377.582031 C 281.304688 372.890625 270.601562 369.945312 259.882812 367.046875 C 247.75 363.765625 235.484375 360.941406 223.667969 356.585938 C 216.105469 353.792969 208.859375 350.371094 202.59375 345.175781 C 191.175781 335.71875 189.867188 323.285156 199.039062 311.585938 C 203.136719 306.355469 208.210938 302.234375 213.796875 298.699219 C 226.550781 290.628906 240.550781 285.320312 254.667969 280.253906 C 269.644531 274.882812 284.875 270.210938 299.585938 264.121094 C 307.375 260.898438 315.109375 257.507812 321.65625 251.988281 C 323.195312 250.691406 324.640625 249.304688 325.8125 247.652344 C 329.21875 242.84375 328.570312 238.796875 323.757812 235.191406 C 319.273438 231.832031 314.015625 230.234375 308.714844 228.792969 C 296.539062 225.480469 284.050781 223.945312 271.558594 222.566406 C 258.265625 221.097656 244.964844 219.667969 231.632812 218.699219 C 220.425781 217.882812 209.21875 216.875 197.96875 216.785156 C 191.136719 216.726562 184.332031 216.035156 177.488281 216.0625 C 171.976562 216.085938 166.519531 216.84375 161.019531 216.898438 C 165.15625 216.402344 169.289062 215.867188 173.433594 215.414062 C 185.925781 214.046875 198.445312 212.859375 210.972656 211.792969 C 224.035156 210.683594 237.105469 209.667969 250.179688 208.78125 C 255.8125 208.398438 261.445312 208.128906 267.078125 207.816406 C 273.320312 207.863281 279.5625 207.957031 285.804688 208.113281 C 300.785156 208.488281 315.765625 209.15625 330.734375 210.101562 C 340.878906 210.746094 351.042969 211.226562 361.179688 211.984375 C 375.3125 213.039062 389.441406 214.191406 403.539062 215.738281 C 416.972656 217.214844 430.382812 218.753906 443.625 221.527344 C 450.3125 222.925781 456.878906 224.738281 463.179688 227.425781 C 467.019531 229.058594 470.617188 231.113281 473.820312 233.800781 C 481.464844 240.207031 483.210938 249.601562 478.40625 258.371094 C 475.046875 264.503906 470.078125 269.140625 464.515625 273.203125 C 452.949219 281.652344 439.847656 287.089844 426.679688 292.382812 C 410.054688 299.0625 392.949219 304.492188 376.515625 311.65625 C 368.898438 314.976562 361.410156 318.558594 354.84375 323.753906 C 351.90625 326.078125 349.003906 328.496094 348.269531 332.390625 C 348.910156 335.558594 351.300781 336.855469 353.722656 338.015625 C 360.1875 341.121094 367.15625 342.5 374.160156 343.628906 C 389.898438 346.160156 405.78125 347.132812 421.695312 347.886719 C 447.511719 349.105469 473.347656 349.652344 499.175781 350.375 C 512.289062 350.742188 525.40625 351.191406 538.503906 351.917969 C 559.742188 353.097656 580.976562 354.472656 601.847656 358.984375 C 612.996094 361.394531 623.914062 364.511719 633.851562 370.347656 C 638.039062 372.808594 641.820312 375.761719 644.914062 379.546875 C 650.921875 386.902344 651.773438 395.9375 647.210938 404.273438 C 643.992188 410.152344 639.277344 414.683594 634.027344 418.691406 C 620.867188 428.742188 605.847656 435.054688 590.226562 440.015625 C 571.320312 446.019531 551.902344 449.84375 532.367188 453.125 C 507.566406 457.292969 482.539062 459.839844 457.695312 463.667969 C 442.476562 466.015625 427.375 468.933594 413 474.730469 C 408.652344 476.488281 404.40625 478.464844 400.585938 481.230469 C 399.398438 482.089844 398.230469 483.011719 397.199219 484.046875 C 393.449219 487.8125 393.742188 490.40625 398.195312 493.453125 C 400.757812 495.203125 403.589844 496.378906 406.515625 497.367188 C 416.332031 500.6875 426.515625 502.242188 436.730469 503.585938 C 459.007812 506.523438 481.414062 508.308594 503.746094 510.71875 C 521.296875 512.609375 538.898438 514.027344 556.457031 515.839844 C 572.417969 517.488281 588.347656 519.460938 604.304688 521.140625 C 618.933594 522.679688 633.585938 524.03125 648.226562 525.4375 C 664.335938 526.980469 680.433594 528.648438 696.558594 529.964844 C 700.332031 530.273438 704.105469 530.601562 707.871094 530.953125 C 708.265625 531.222656 708.671875 531.476562 709.066406 531.746094 C 722.105469 540.664062 733.644531 551.144531 741.976562 564.800781 C 749.296875 576.800781 750.535156 589.609375 747.042969 602.714844 C 739.78125 603.453125 732.519531 604.144531 725.246094 604.714844 C 713.640625 605.625 702.003906 606.253906 690.371094 606.644531 C 653.019531 607.90625 615.652344 608.265625 578.277344 608.390625 Z M 578.277344 608.390625 " fill-opacity="1" fill-rule="nonzero"/><g clip-path="url(#79837c92ab)"><path fill="#7f5c40" d="M 556.6875 633.730469 C 561.238281 629.976562 565.640625 627.101562 570.636719 625.035156 C 578.664062 621.707031 586.421875 617.785156 593.980469 613.480469 C 599.382812 610.40625 604.328125 606.710938 608.234375 601.886719 C 616.289062 591.933594 626.671875 585.851562 638.875 582.445312 C 645.949219 580.46875 652.9375 578.171875 659.941406 575.957031 C 666.144531 573.996094 671.109375 570.390625 674.800781 564.953125 C 677.199219 561.414062 680 558.148438 682.460938 554.648438 C 687.089844 548.066406 693.480469 544.71875 701.371094 543.976562 C 711.890625 542.988281 722.402344 541.949219 732.925781 541.050781 C 736.574219 540.738281 739.683594 542.25 742.464844 544.566406 C 747.042969 548.382812 749.894531 553.308594 751.59375 558.914062 C 752.871094 563.132812 753.972656 567.410156 755.007812 571.695312 C 756.542969 578.039062 759.785156 583.253906 764.863281 587.355469 C 767.566406 589.542969 770.230469 591.78125 772.890625 594.027344 C 777.996094 598.339844 780.457031 603.917969 780.785156 610.53125 C 780.910156 613.066406 781.335938 615.59375 781.339844 618.121094 C 781.351562 624.367188 778.972656 627.214844 772.828125 628.285156 C 761.855469 630.203125 750.738281 630.582031 739.648438 630.625 C 721.035156 630.703125 702.492188 631.914062 683.933594 633.0625 C 645.976562 635.410156 607.972656 635.769531 569.953125 635.359375 C 565.6875 635.316406 561.460938 634.605469 556.6875 633.730469 Z M 293.753906 402.234375 C 289.507812 399.433594 284.707031 397.636719 280.367188 395.0625 C 274.625 391.65625 268.582031 390.164062 262.007812 390.394531 C 253.667969 390.691406 245.753906 389.144531 238.625 384.652344 C 231.691406 380.289062 224.277344 379.078125 216.332031 380.789062 C 210.460938 382.054688 204.585938 383.730469 201.988281 389.78125 C 199.769531 394.953125 196.257812 398.714844 191.855469 401.894531 C 188.351562 404.421875 186.074219 407.765625 185.121094 412 C 183.496094 419.230469 185.367188 421.640625 192.796875 421.839844 C 193.867188 421.871094 194.941406 421.886719 196.007812 421.84375 C 202.722656 421.589844 209.371094 421.796875 215.746094 424.273438 C 217.785156 425.0625 219.941406 424.949219 222.078125 425.085938 C 233.234375 425.8125 244.003906 421.898438 255.148438 422.390625 C 256.550781 422.453125 258.011719 421.773438 259.402344 421.308594 C 267.265625 418.683594 275.242188 416.527344 283.410156 415.03125 C 287.335938 414.3125 291.25 413.335938 294.703125 411.121094 C 296.667969 409.863281 297.933594 408.328125 297.34375 405.578125 C 296.464844 403.976562 295.082031 403.109375 293.753906 402.234375 Z M 593.851562 473.152344 C 594.375 480.636719 597.011719 487.390625 601.066406 493.625 C 601.710938 494.613281 602.558594 495.519531 603.472656 496.269531 C 604.652344 497.234375 606.070312 497.675781 607.578125 497 C 609.097656 496.3125 609.667969 495 609.617188 493.417969 C 609.570312 491.957031 609.636719 490.445312 609.273438 489.050781 C 607.59375 482.578125 605.117188 476.417969 601.445312 470.792969 C 600.40625 469.203125 599.175781 467.816406 597.023438 467.636719 C 593.980469 468.300781 593.675781 470.601562 593.851562 473.152344 Z M 592.917969 547.894531 C 596.105469 554.382812 601.144531 558.925781 607.75 561.78125 C 609.105469 562.367188 610.402344 562.28125 611.429688 561.179688 C 612.441406 560.09375 612.5625 558.71875 611.933594 557.441406 C 609.820312 553.15625 608.242188 548.558594 605.039062 544.886719 C 603.082031 542.640625 600.847656 540.734375 597.710938 540.402344 C 594.21875 540.035156 592.398438 541.707031 592.417969 545.773438 C 592.492188 546.101562 592.523438 547.085938 592.917969 547.894531 Z M 130.910156 247.863281 C 131.074219 245.074219 131.382812 242.285156 131.363281 239.5 C 131.347656 237.308594 130.21875 235.636719 127.886719 235.269531 C 125.417969 234.882812 123.796875 236.070312 122.988281 238.375 C 122.722656 239.125 122.507812 239.914062 122.421875 240.699219 C 121.878906 245.601562 121.472656 250.511719 121.894531 255.445312 C 122.199219 259.023438 123.875 260.917969 126.527344 260.792969 C 129.019531 260.675781 130.589844 258.824219 130.777344 255.445312 C 130.921875 252.925781 130.808594 250.390625 130.808594 247.859375 C 130.839844 247.859375 130.875 247.863281 130.910156 247.863281 Z M 533.214844 326.679688 C 532.679688 324.433594 531.214844 323.171875 528.929688 323.21875 C 526.640625 323.269531 525.097656 324.582031 524.847656 326.875 C 524.320312 331.660156 524.003906 336.480469 524.433594 341.28125 C 524.679688 344.070312 526.535156 345.566406 528.902344 345.507812 C 531.292969 345.449219 532.914062 343.898438 533.148438 341.082031 C 533.328125 338.960938 533.1875 336.808594 533.1875 334.671875 C 533.511719 332.003906 533.847656 329.328125 533.214844 326.679688 Z M 197.019531 352.441406 C 196.585938 354.921875 197.25 356.992188 200.222656 357.191406 C 201.148438 357.011719 201.929688 356.722656 202.445312 356.105469 C 206.898438 350.761719 209.460938 344.53125 210.472656 337.734375 C 210.839844 335.265625 209.246094 333.773438 205.847656 334.167969 C 201.179688 339.367188 198.230469 345.492188 197.019531 352.441406 Z M 181.660156 255.867188 C 181.484375 253.472656 181.410156 251.058594 181.09375 248.679688 C 180.800781 246.445312 179.433594 245.023438 177.113281 244.878906 C 174.785156 244.730469 173.203125 245.945312 172.773438 248.191406 C 171.824219 253.132812 172.453125 258.046875 173.640625 262.855469 C 174.125 264.824219 175.753906 265.988281 177.894531 265.800781 C 180.207031 265.597656 181.53125 264.089844 181.753906 261.871094 C 181.949219 259.886719 181.796875 257.871094 181.796875 255.867188 C 181.75 255.867188 181.707031 255.867188 181.660156 255.867188 Z M 450.351562 438.035156 C 451.445312 433.53125 451.324219 429.042969 450.128906 424.585938 C 449.8125 423.421875 449.179688 422.382812 447.984375 421.761719 C 445.6875 421.019531 443.929688 421.921875 443.222656 424.085938 C 441.300781 429.980469 442.164062 435.566406 445.21875 440.617188 C 448.238281 441.617188 449.726562 440.605469 450.351562 438.035156 Z M 496.40625 440.378906 C 496.261719 441.652344 496.527344 442.78125 497.585938 443.570312 C 498.789062 444.46875 500.039062 444.34375 501.324219 443.65625 C 503.976562 442.242188 505.957031 440.089844 507.707031 437.742188 C 509.671875 435.097656 511.394531 432.300781 511.390625 428.5625 C 505.148438 428.03125 497.070312 434.691406 496.40625 440.378906 Z M 282.730469 334.164062 C 284.464844 335.734375 286.175781 335.296875 287.664062 333.816406 C 290.730469 330.765625 293.085938 327.195312 294.816406 323.238281 C 295.46875 321.742188 295.527344 320.125 294.4375 318.40625 C 288.4375 317.445312 281.261719 327.230469 282.730469 334.164062 Z M 250.789062 353.585938 C 249.40625 353.160156 248.148438 353.222656 246.90625 354.867188 C 247.167969 360.066406 245.09375 366.1875 251.117188 370.472656 C 255.957031 367.378906 255.457031 358.675781 250.789062 353.585938 Z M 598.246094 350.121094 C 597.996094 347.074219 596.4375 345.355469 593.925781 345.316406 C 591.488281 345.273438 589.707031 347.050781 589.34375 349.960938 C 589.242188 350.75 589.246094 351.566406 589.316406 352.363281 C 589.621094 355.742188 591.476562 357.808594 594.105469 357.773438 C 596.863281 357.734375 598.257812 355.851562 598.253906 352.125 C 598.253906 351.457031 598.300781 350.785156 598.246094 350.121094 Z M 598.246094 350.121094 " fill-opacity="1" fill-rule="nonzero"/></g><g clip-path="url(#6d92fee5b6)"><path fill="#005001" d="M 186.007812 203.722656 C 190.539062 204.792969 190.070312 208.148438 189.59375 211.441406 C 192.046875 213.613281 192.398438 216.269531 191.511719 219.113281 C 195.375 221.523438 195.527344 221.90625 194.570312 226.667969 C 196.75 229.632812 196.75 229.632812 195.917969 233.765625 C 198.675781 236.375 199.039062 239.417969 196.792969 242.6875 C 197.464844 244.195312 198.8125 245.523438 197.089844 247.851562 C 196.253906 248.511719 194.160156 249.015625 193.59375 251.296875 C 193.304688 252.449219 192.089844 253.5 190.929688 253.5 C 188.429688 253.503906 185.90625 254.800781 183.699219 254.34375 C 181.652344 253.921875 180.445312 255.132812 178.722656 255.222656 C 177.519531 255.453125 176.550781 254.523438 175.070312 254.175781 C 172.972656 255.695312 170.605469 255.820312 168.253906 254.066406 C 167.859375 253.773438 167.285156 253.648438 166.773438 253.589844 C 162.070312 253.058594 162.070312 253.066406 161.179688 248.644531 C 160.136719 247.925781 158.714844 247.640625 157.9375 246.085938 C 156.199219 243.710938 159.796875 241.257812 158.605469 238.25 C 156.648438 238.886719 155.675781 240.152344 154.539062 241.105469 C 154.277344 242.90625 155.0625 244.675781 154.160156 246.449219 C 152.160156 249.046875 150 247.402344 147.96875 246.34375 C 146.960938 247.253906 147.078125 248.796875 146.46875 248.972656 C 143.804688 250.335938 141.925781 249.753906 140.304688 248.785156 C 136.042969 252.332031 135.296875 252.332031 130.917969 248.804688 C 129.804688 250.003906 128.53125 251.210938 126.65625 251.136719 C 124.9375 251.074219 123.746094 249.945312 122.484375 249.015625 C 118.136719 252.148438 117.609375 252.191406 113.457031 249.605469 C 111.589844 251.121094 109.414062 252 106.53125 251.082031 C 105.871094 250.546875 104.941406 249.796875 103.824219 248.894531 C 101.046875 250.511719 98.578125 249.890625 96.761719 247.285156 C 91.222656 247.28125 90.339844 246.09375 90.570312 240.558594 C 90.679688 237.875 89.082031 235.019531 91.820312 232.980469 C 91.476562 228.429688 91.589844 228.210938 95.867188 225.074219 C 95.605469 222.9375 95.773438 220.699219 98.074219 219.539062 C 98.21875 217.878906 97.644531 216.394531 98.273438 214.972656 C 98.945312 213.394531 100.550781 212.847656 102.039062 211.917969 C 100.675781 209.46875 101.652344 207.710938 103.597656 206.128906 C 103.476562 203.8125 102.898438 201.179688 106.269531 200.277344 C 104.980469 196.464844 106.585938 194.320312 109.96875 193.226562 C 108.964844 190.453125 109.78125 188.5625 112.191406 187.507812 C 112.113281 186.164062 111.445312 185.027344 111.738281 184.335938 C 112.363281 182.429688 113.546875 181.769531 114.914062 180.929688 C 113.71875 177.917969 114.972656 175.875 117.894531 174.941406 C 116.820312 169.609375 117.316406 168.785156 122.359375 167.175781 C 123.265625 165.9375 123.558594 164.207031 125.558594 163.027344 C 126.320312 162.621094 127.597656 162.78125 128.503906 163.109375 C 130.078125 164.175781 130.074219 165.683594 130.839844 166.933594 C 132.328125 167.433594 134.320312 166.875 135.78125 169.039062 C 136.449219 170.148438 135.828125 171.945312 136.078125 173.609375 C 139.753906 176.207031 139.84375 176.554688 138.339844 182.503906 C 143.296875 185.335938 143.519531 186.421875 140.410156 193.113281 C 141.761719 193.96875 143.765625 193.886719 144.539062 195.734375 C 145.230469 197.390625 144.40625 198.851562 144.144531 200.59375 C 147.667969 202.773438 147.582031 206.214844 146.945312 209.699219 C 150.558594 211.875 150.691406 212.210938 149.785156 216.613281 C 150.121094 217.675781 151.574219 217.757812 151.851562 218.800781 C 152.492188 220.292969 151.949219 221.785156 152.089844 223.171875 C 156.300781 225.355469 156.539062 225.90625 155.226562 230.65625 C 156.488281 231.355469 157.808594 232.089844 159.351562 232.945312 C 160.527344 230.628906 159.089844 227.710938 161.636719 226.351562 C 161.15625 224.773438 160.347656 223.441406 160.988281 222.046875 C 161.535156 220.742188 162.851562 220.425781 163.6875 219.523438 C 162.703125 218.214844 161.851562 216.863281 162.617188 215.035156 C 163.28125 213.800781 164.605469 213.507812 166.171875 213.273438 C 164.789062 211.101562 162.28125 209.015625 166.027344 206.851562 C 166.148438 205.753906 165.144531 204.757812 165.503906 203.53125 C 165.847656 202.375 166.898438 201.972656 167.742188 201.09375 C 167.765625 199.898438 166.628906 198.742188 167.382812 196.902344 C 168.605469 195.75 169.308594 193.859375 168.882812 191.496094 C 171.289062 190.5 172.703125 188.65625 173.558594 186.628906 C 174.808594 185.925781 175.816406 185.976562 176.976562 186.746094 C 177.457031 187.628906 178.023438 188.675781 178.617188 189.769531 C 179.789062 190.023438 180.941406 190.273438 181.761719 190.449219 C 184.074219 192.191406 183.21875 194.285156 183.105469 196.445312 C 187.199219 197.519531 185.730469 200.996094 186.007812 203.722656 Z M 519.835938 245.488281 C 518.601562 246.328125 518.859375 247.964844 517.78125 249.113281 C 516.203125 249.132812 514.390625 249.039062 513.269531 250.695312 C 512.433594 252.351562 513.136719 254.160156 512.671875 255.980469 C 511.570312 256.355469 510.5625 256.976562 510.03125 257.972656 C 508.96875 260.363281 510.265625 262.484375 510.636719 264.570312 C 505.613281 267.089844 505.410156 268.132812 508.363281 275.09375 C 503.8125 276.917969 503.609375 277.316406 504.589844 282.726562 C 500.964844 284.898438 501.5 288.480469 501.902344 291.820312 C 498.308594 293.890625 498.203125 294.15625 499.066406 298.996094 C 495.875 300.085938 496.84375 302.964844 496.769531 305.246094 C 492.589844 307.269531 492.371094 307.804688 493.574219 312.578125 C 487.371094 316.070312 489.335938 319.019531 494.402344 323.191406 C 494.582031 324.929688 493.710938 326.859375 494.871094 328.640625 C 496.949219 330.84375 498.945312 329.398438 500.871094 328.246094 C 501.90625 329.320312 502.011719 330.890625 503.398438 331.4375 C 505.265625 332.242188 507.015625 331.636719 508.617188 330.78125 C 510.179688 331.859375 511.199219 333.375 513.179688 333.425781 C 515.3125 333.476562 516.347656 331.648438 517.960938 330.851562 C 519.128906 331.902344 520.140625 332.980469 521.742188 333.101562 C 523.769531 333.257812 525.132812 331.855469 526.535156 330.878906 C 530.453125 334.09375 531.035156 334.140625 535.542969 331.746094 C 539.773438 334.238281 540.90625 334.148438 545.355469 330.847656 C 548.070312 332.714844 550.300781 331.65625 552.039062 329.300781 C 557.621094 329.21875 558.78125 327.953125 558.234375 322.625 C 558.167969 321.949219 558.074219 321.332031 558.394531 320.691406 C 559.542969 318.398438 558.488281 316.574219 556.859375 314.648438 C 558.484375 310.828125 555.78125 308.90625 552.871094 307.003906 C 553.65625 304.457031 552.503906 302.617188 550.597656 301.167969 C 550.960938 299.554688 551.070312 298.09375 550.621094 296.949219 C 549.785156 295.273438 548.226562 294.898438 546.925781 293.777344 C 548.265625 291.390625 547.125 289.550781 545.089844 287.90625 C 546.0625 285.214844 545.050781 283.21875 542.585938 281.894531 C 544.050781 278.171875 541.96875 276.445312 538.910156 275.132812 C 540.078125 272.355469 538.921875 270.480469 536.554688 269.320312 C 537.054688 267.765625 537.394531 266.46875 536.488281 264.769531 C 536.136719 264.023438 534.886719 263.652344 533.929688 262.714844 C 535.449219 259.488281 533.183594 257.925781 530.902344 256.605469 C 532.042969 251.554688 531.707031 251.015625 526.25 248.917969 C 525.742188 247.65625 525.15625 246.300781 523.746094 245.1875 C 522.289062 244.691406 521.003906 244.613281 519.835938 245.488281 Z M 591.59375 282.371094 C 586.632812 283.316406 586.175781 283.894531 585.71875 289.761719 C 581.375 291.488281 581.375 295.015625 582.109375 298.695312 C 579.53125 301.824219 579.53125 301.824219 579.609375 306.46875 C 577.640625 307.210938 575.664062 307.964844 574.796875 310.230469 C 573.980469 312.367188 574.789062 314.332031 575.488281 316.261719 C 571.019531 317.707031 570.976562 317.769531 570.5625 322.542969 C 567.171875 325.378906 567.0625 325.75 568.445312 330.039062 C 567.636719 331.070312 565.992188 331.136719 565.410156 332.640625 C 564.617188 333.710938 565.324219 335.148438 564.890625 336.40625 C 563.898438 337.09375 562.714844 337.535156 562.191406 338.738281 C 561.367188 340.984375 562.753906 342.230469 564.378906 343.390625 C 564.65625 345.171875 564.125 347.253906 565.652344 348.128906 C 567.640625 349.324219 569.261719 348.597656 570.832031 348.671875 C 571.890625 349.28125 572.210938 350.714844 573.613281 350.996094 C 576.578125 351.117188 576.578125 351.117188 579.414062 349.269531 C 582.078125 352.738281 584.980469 351.199219 587.683594 349.449219 C 591.527344 352.417969 591.777344 352.441406 595.640625 350.410156 C 599.5625 352.757812 600.585938 352.746094 603.9375 350.226562 C 606.191406 352.140625 608.550781 352.785156 610.921875 350.039062 C 612.695312 351.425781 614.566406 352.121094 616.496094 350.722656 C 618.496094 349.273438 617.816406 347.175781 617.484375 345.332031 C 619.066406 343.15625 620.933594 341.195312 619.195312 337.992188 C 618.902344 337.285156 617.402344 337.632812 616.785156 336.4375 C 618.992188 333.027344 618.597656 329.9375 615.132812 327.554688 C 616.335938 323.4375 616.335938 323.4375 613.214844 320.703125 C 614.40625 316.644531 614.308594 316.414062 610.507812 314.429688 C 611.8125 312.480469 612.445312 310.390625 611.410156 308.171875 C 611.0625 306.734375 609.320312 306.941406 608.65625 305.59375 C 609.285156 302.742188 609.386719 299.839844 605.839844 298.386719 C 607.382812 294.21875 607.046875 290.78125 603.738281 289.152344 C 601.375 284.523438 598.363281 281.671875 595.417969 278.710938 C 592.875 279.355469 592.804688 281.445312 591.59375 282.371094 Z M 637.988281 565.984375 C 634.058594 544.59375 614.414062 498.234375 607.964844 494.902344 C 605.875 496.765625 607.449219 498.617188 608.175781 500.277344 C 615.867188 517.917969 623.332031 535.652344 628.707031 554.164062 C 631.34375 563.253906 634.292969 572.3125 634.296875 581.949219 C 634.296875 583.234375 634.800781 584.261719 636.195312 584.816406 C 637.945312 583.875 638.308594 582.113281 638.335938 580.4375 C 638.398438 576.445312 639.871094 572.90625 641.394531 569.335938 C 644.375 562.339844 647.558594 555.4375 650.96875 548.636719 C 651.652344 547.273438 652.824219 545.890625 651.179688 543.382812 C 645.273438 550.097656 642.351562 558.167969 637.988281 565.984375 Z M 651.910156 573.207031 C 660.0625 556.070312 668.464844 539.066406 678.792969 523.105469 C 683.003906 516.601562 687.4375 510.246094 691.796875 503.84375 C 692.8125 502.347656 693.855469 500.925781 691.59375 499.710938 C 690.019531 500.105469 689.214844 501.210938 688.332031 502.1875 C 683.039062 508.039062 677.949219 514.066406 673.433594 520.539062 C 661.347656 537.855469 651.730469 556.382812 646.066406 576.824219 C 645.636719 578.371094 645.230469 579.855469 646.292969 581.890625 C 649.339844 579.339844 650.507812 576.15625 651.910156 573.207031 Z M 187.140625 411.585938 C 184.660156 395.816406 175.777344 383.535156 165.460938 372.050781 C 164.601562 371.09375 163.617188 370.441406 162.425781 371.59375 C 161.835938 373.640625 163.3125 374.917969 164.234375 376.292969 C 172.847656 389.132812 180.308594 402.515625 184.140625 417.640625 C 184.507812 419.082031 185.09375 419.773438 187.050781 419.25 C 187.578125 416.617188 187.53125 414.082031 187.140625 411.585938 Z M 604.289062 603.75 C 603.378906 599.765625 601.375 596.296875 599.046875 593.011719 C 594.089844 586.03125 588.660156 579.417969 583.324219 572.730469 C 582.589844 571.808594 581.984375 570.699219 580.410156 570.605469 C 578.222656 572.21875 579.746094 573.761719 580.65625 575.28125 C 586.972656 585.824219 594.617188 595.53125 600.351562 606.4375 C 600.796875 607.285156 601.355469 608.023438 602.742188 608.195312 C 604.730469 606.152344 604.804688 606 604.289062 603.75 Z M 281.164062 337.042969 C 277.542969 344.753906 273.84375 352.425781 270.765625 360.390625 C 267.609375 368.558594 265.824219 376.980469 265.472656 385.707031 C 265.402344 387.429688 265.035156 389.46875 266.984375 390.550781 C 267.46875 390.359375 267.761719 390.320312 267.945312 390.160156 C 268.492188 389.675781 268.503906 388.996094 268.554688 388.324219 C 269.390625 377.332031 272.152344 366.789062 276.199219 356.574219 C 278.652344 350.386719 281.277344 344.269531 283.75 338.089844 C 284.230469 336.898438 285.65625 335.445312 283.410156 334.40625 C 282.15625 334.847656 281.675781 335.957031 281.164062 337.042969 Z M 197.082031 358.378906 C 195.679688 361.835938 194.210938 365.285156 193.160156 368.855469 C 190.3125 378.546875 188.742188 388.390625 190.5 398.519531 C 190.777344 400.121094 191.019531 401.644531 192.816406 402.132812 C 194.296875 401.210938 193.910156 399.882812 193.894531 398.753906 C 193.75 385.546875 195.773438 372.675781 199.761719 360.105469 C 200.207031 358.699219 200.652344 357.34375 199.820312 355.984375 C 197.765625 355.617188 197.535156 357.261719 197.082031 358.378906 Z M 473.621094 483.710938 C 482.335938 471.105469 490.546875 458.171875 498.671875 445.183594 C 499.335938 444.125 499.777344 443.050781 498.742188 441.949219 C 494.554688 443.773438 475.0625 473.003906 471.382812 482.9375 C 471.695312 483.570312 472.136719 484.027344 473.046875 484.027344 C 473.394531 483.839844 473.554688 483.808594 473.621094 483.710938 Z M 300.242188 360.035156 C 297.851562 358.285156 296.769531 359.636719 295.726562 360.8125 C 292.714844 364.210938 289.652344 367.574219 286.777344 371.085938 C 282.375 376.46875 278.410156 382.160156 275.558594 388.542969 C 274.960938 389.882812 273.734375 391.359375 276.070312 393.082031 C 284.148438 382.039062 292.167969 371.074219 300.242188 360.035156 Z M 417.730469 447.402344 C 416.78125 448.648438 417.46875 449.578125 418.296875 450.53125 C 419.695312 452.140625 421.085938 453.761719 422.414062 455.429688 C 428.375 462.914062 435.546875 469.480469 439.792969 478.269531 C 440.347656 479.417969 441.132812 479.875 442.625 479.222656 C 442.703125 471.972656 424.238281 448.480469 417.730469 447.402344 Z M 608.65625 561.457031 C 614.21875 570.609375 621.054688 578.859375 627.15625 587.632812 C 627.582031 588.246094 628.339844 588.125 629.007812 587.914062 C 630.023438 581.867188 615.71875 561.179688 609.238281 559.328125 C 608.453125 559.875 608.257812 560.796875 608.65625 561.457031 Z M 446.117188 478.46875 C 448.785156 479.261719 449.089844 477.960938 449.507812 476.355469 C 452.496094 464.871094 450.464844 453.550781 448.53125 442.222656 C 448.320312 440.992188 447.785156 439.882812 445.316406 440.441406 C 446.007812 453.195312 448.09375 465.867188 446.117188 478.46875 Z M 201.886719 417.335938 C 206.691406 412.890625 211.371094 408.308594 216.054688 403.730469 C 217.148438 402.664062 218.636719 401.734375 218.378906 399.832031 C 216.820312 398.484375 215.628906 399.429688 214.464844 400.367188 C 209.371094 404.472656 204.164062 408.453125 199.554688 413.128906 C 197.65625 415.054688 196.199219 417.25 195.117188 419.730469 C 194.53125 421.074219 194.1875 422.253906 196.085938 423.453125 C 198.550781 421.796875 199.851562 419.214844 201.886719 417.335938 Z M 160.367188 401.238281 C 165.683594 407.773438 171.78125 413.546875 178.007812 419.183594 C 178.96875 420.054688 179.980469 419.785156 180.617188 418.582031 C 178.730469 413.425781 169.257812 403.132812 163.296875 399.714844 C 162.277344 399.132812 161.332031 398.964844 160.097656 399.929688 C 160.207031 400.5 160.15625 400.976562 160.367188 401.238281 Z M 253.773438 371.042969 C 253.519531 369.996094 252.835938 369.054688 251.425781 369.574219 C 250.257812 374.15625 252.980469 388.214844 256.070312 390.992188 C 258.082031 383.605469 255.308594 377.382812 253.773438 371.042969 Z M 466.796875 467.824219 C 464.800781 467.210938 464.242188 468.0625 463.816406 469.355469 C 462.480469 473.421875 459.410156 477.074219 461.125 481.878906 C 463.878906 477.503906 466.019531 472.976562 466.796875 467.824219 Z M 497.261719 470.132812 C 493.273438 471.730469 490.445312 474.785156 487.414062 477.542969 C 486.65625 478.230469 486.941406 479.265625 488.273438 480.617188 C 491.992188 477.632812 495.800781 474.992188 497.261719 470.132812 Z M 424.871094 474.5 C 425.925781 475.644531 427.183594 477.207031 429.59375 475.566406 C 427.148438 472.105469 423.863281 469.859375 420.257812 467.6875 C 419.867188 471.238281 423 472.46875 424.871094 474.5 Z M 286.578125 397.234375 C 288.511719 398.257812 289.199219 397.355469 289.730469 396.199219 C 290.796875 393.894531 293.359375 392.050781 292.023438 388.332031 C 289.160156 391.09375 287.433594 393.859375 286.578125 397.234375 Z M 286.578125 397.234375 " fill-opacity="1" fill-rule="nonzero"/></g><path fill="#fef2cc" d="M 387.484375 449.730469 C 386.820312 451.613281 384.964844 451.597656 383.59375 452.183594 C 374.449219 456.085938 365.738281 460.65625 358.660156 467.816406 C 348.71875 477.875 349.042969 489.800781 359.542969 499.355469 C 366.214844 505.429688 374.332031 508.871094 382.757812 511.601562 C 392.042969 514.613281 401.6875 515.996094 411.320312 517.339844 C 412.917969 517.5625 414.402344 517.796875 415.601562 518.726562 C 415.660156 520.261719 414.8125 520.628906 413.796875 520.496094 C 399.53125 518.652344 385.109375 517.585938 371.6875 511.695312 C 365.140625 508.824219 359.089844 505.242188 354.246094 499.867188 C 345.65625 490.335938 345.148438 478.566406 353.089844 468.507812 C 360.035156 459.710938 369.664062 454.824219 379.777344 450.722656 C 381.253906 450.125 382.75 449.539062 384.289062 449.148438 C 385.34375 448.878906 386.636719 448.234375 387.484375 449.730469 Z M 288.859375 577.382812 C 286.929688 583.847656 287.097656 588.804688 293.003906 594.019531 C 296.476562 597.089844 300.703125 598.789062 305.082031 600.082031 C 315.289062 603.09375 325.8125 603.882812 336.367188 604.117188 C 350.675781 604.4375 364.972656 603.953125 379.273438 603.507812 C 387.421875 603.25 395.539062 602.273438 403.707031 602.519531 C 405.074219 602.5625 406.816406 602.839844 406.769531 600.527344 C 405.179688 599.71875 403.546875 600.097656 401.972656 600.074219 C 380.3125 599.773438 358.671875 601.769531 336.992188 600.257812 C 328.988281 599.699219 321.011719 599.117188 313.144531 597.582031 C 307.902344 596.558594 302.746094 595.105469 298.089844 592.34375 C 292.261719 588.890625 290.628906 585.421875 291.671875 578.765625 C 291.851562 577.632812 291.972656 576.617188 290.53125 576.058594 C 289.753906 576.109375 289.109375 576.542969 288.859375 577.382812 Z M 337.195312 376.0625 C 344.886719 383.398438 354.464844 385.957031 364.703125 386.296875 C 376.792969 386.695312 388.566406 384.09375 400.371094 381.917969 C 408.488281 380.425781 416.609375 378.871094 424.863281 378.363281 C 432.464844 377.894531 440.074219 377.332031 447.703125 377.582031 C 448.335938 377.601562 449.046875 377.605469 449.410156 376.792969 C 449.472656 374.960938 448.082031 375.148438 446.925781 375.144531 C 436.765625 375.128906 426.582031 374.691406 416.484375 376.039062 C 403.414062 377.78125 390.507812 380.667969 377.367188 381.957031 C 367.171875 382.960938 357.054688 382.792969 347.492188 378.433594 C 341.804688 375.839844 336.632812 372.609375 334.597656 366.148438 C 334.34375 365.339844 334.027344 364.625 332.15625 364.902344 C 332.152344 369.417969 334.03125 373.042969 337.195312 376.0625 Z M 372.296875 582.515625 C 385.03125 584.257812 397.867188 584.433594 410.671875 584.773438 C 424.578125 585.136719 438.5 584.949219 452.417969 584.960938 C 462.183594 584.96875 471.949219 584.917969 481.71875 584.84375 C 483.183594 584.835938 485.058594 585.394531 485.46875 583.175781 C 485.058594 582.398438 484.402344 582.046875 483.769531 582.03125 C 446.734375 581.199219 409.675781 581.472656 372.652344 580.074219 C 372.003906 580.050781 371.320312 580.160156 370.707031 580.363281 C 370.40625 580.464844 370.222656 580.917969 370.027344 581.164062 C 370.382812 582.4375 371.367188 582.390625 372.296875 582.515625 Z M 154.820312 490.898438 C 144.683594 498.574219 144.558594 509.441406 154.429688 517.472656 C 158.835938 521.054688 163.828125 523.515625 169.148438 525.410156 C 179.398438 529.066406 190.109375 530.429688 200.8125 531.769531 C 202.683594 532 204.71875 532.4375 206.585938 531.488281 C 206.707031 530.144531 206.207031 529.613281 205.070312 529.429688 C 202.050781 528.9375 199.039062 528.378906 196.027344 527.820312 C 185.800781 525.929688 175.589844 523.996094 165.941406 519.886719 C 161.082031 517.816406 156.65625 515.160156 153.304688 511 C 149.507812 506.292969 149.441406 501.617188 152.910156 496.679688 C 154.558594 494.332031 156.769531 492.640625 159.09375 491.050781 C 160.144531 490.335938 161.59375 489.753906 160.453125 487.625 C 158.160156 488.277344 156.488281 489.636719 154.820312 490.898438 Z M 394.578125 224.855469 C 403.566406 226.023438 412.488281 227.582031 421.300781 229.695312 C 429.085938 231.5625 436.8125 233.636719 443.8125 237.726562 C 448.390625 240.402344 451.851562 243.902344 452.386719 249.421875 C 452.417969 254.449219 447.484375 257.035156 446.160156 260.980469 C 446.851562 261.9375 447.347656 262.078125 447.636719 261.882812 C 451.808594 259.046875 455.378906 255.703125 455.960938 250.335938 C 456.582031 244.574219 453.820312 240.3125 449.507812 236.871094 C 445.378906 233.582031 440.613281 231.488281 435.664062 229.8125 C 425.894531 226.5 415.769531 224.703125 405.59375 223.363281 C 401.304688 222.796875 396.933594 221.601562 392.492188 222.726562 C 393.222656 224.648438 393.21875 224.679688 394.578125 224.855469 Z M 547.765625 421.671875 C 556.136719 419.5625 564.601562 417.761719 572.648438 414.523438 C 576.757812 412.871094 580.679688 410.871094 583.875 407.714844 C 589 402.648438 589.898438 396.710938 586.125 390.632812 C 580.488281 381.558594 571.78125 377.03125 561.65625 374.792969 C 560.597656 374.558594 559.824219 374.851562 559.714844 376.167969 C 560.003906 376.402344 560.300781 376.640625 560.601562 376.882812 C 561.261719 377.410156 562.101562 377.378906 562.855469 377.621094 C 570.386719 380.0625 576.9375 383.996094 581.734375 390.445312 C 586.222656 396.476562 585.632812 401.675781 579.910156 406.613281 C 576.523438 409.535156 572.449219 411.261719 568.324219 412.808594 C 562.105469 415.144531 555.695312 416.878906 549.300781 418.671875 C 547.921875 419.058594 545.632812 418.628906 545.121094 421.113281 C 546.160156 421.914062 547.023438 421.859375 547.765625 421.671875 Z M 219.550781 316.714844 C 223.246094 309.359375 229.132812 304.320312 236.3125 300.605469 C 245.449219 295.882812 255.054688 292.3125 264.796875 289.085938 C 268.074219 288 271.355469 286.917969 274.664062 285.925781 C 276.191406 285.472656 277.0625 284.875 276.035156 282.910156 C 273.15625 283.664062 270.347656 284.339844 267.570312 285.132812 C 255.003906 288.722656 242.597656 292.734375 231.175781 299.292969 C 224.582031 303.082031 219.648438 308.28125 216.886719 315.441406 C 216.371094 316.777344 215.449219 318.03125 216.730469 319.664062 C 218.625 319.277344 218.984375 317.839844 219.550781 316.714844 Z M 336.179688 228.976562 C 343.640625 235.953125 344.652344 245.585938 338.773438 253.890625 C 334.6875 259.660156 329.019531 263.320312 322.554688 265.746094 C 318.230469 267.367188 313.726562 268.511719 309.300781 269.855469 C 308.113281 270.214844 306.714844 270.28125 306.472656 271.867188 C 307.050781 272.359375 307.550781 272.5 308.101562 272.371094 C 318.101562 270.089844 328.089844 267.632812 336.292969 261.0625 C 342.636719 255.980469 347.175781 249.820312 346.726562 240.960938 C 346.410156 234.757812 340.019531 225.980469 333.984375 224.976562 C 333.140625 227.457031 335.121094 227.988281 336.179688 228.976562 Z M 331.300781 328.554688 C 330.867188 333.699219 331.273438 338.609375 334.246094 343.125 C 338.375 349.398438 344.480469 352.742188 351.308594 354.964844 C 360.121094 357.828125 369.339844 358.222656 378.480469 359.015625 C 379.335938 359.089844 380.371094 359.339844 380.984375 358.332031 C 381.328125 356.652344 380.152344 356.699219 379.074219 356.554688 C 373.542969 355.792969 367.992188 355.136719 362.492188 354.199219 C 355.5 353.007812 348.699219 351.183594 342.816406 346.933594 C 337.042969 342.765625 333.824219 337.25 333.761719 330.023438 C 333.753906 329.007812 334.101562 327.875 333.140625 327.050781 C 331.921875 326.828125 331.398438 327.4375 331.300781 328.554688 Z M 563.984375 554.261719 C 548.457031 554.242188 532.933594 554.238281 517.40625 554.246094 C 512.855469 554.25 508.304688 554.285156 503.753906 554.359375 C 502.511719 554.375 500.867188 553.976562 501.027344 556.503906 C 522.742188 558.511719 544.480469 556.617188 566.207031 556.617188 C 566.941406 556.617188 567.347656 556.023438 567.515625 554.867188 C 566.367188 554.03125 565.140625 554.261719 563.984375 554.261719 Z M 330.585938 490.703125 C 329.609375 488.515625 328.734375 486.277344 327.699219 484.121094 C 322.878906 474.070312 325.066406 464.988281 331.429688 456.460938 C 333.03125 454.3125 334.761719 452.28125 336.746094 450.472656 C 337.785156 449.523438 338.210938 448.570312 336.320312 447.371094 C 327.699219 454.292969 321.222656 462.53125 321.753906 474.25 C 322.097656 481.839844 325.675781 488.410156 330.363281 494.632812 C 331.808594 492.832031 331.070312 491.789062 330.585938 490.703125 Z M 517.730469 596.035156 C 508.617188 595.804688 499.539062 596.675781 490.46875 597.230469 C 484.984375 597.566406 479.503906 597.488281 474.035156 597.847656 C 472.402344 597.957031 470.554688 597.648438 469.566406 599.082031 C 469.496094 600.09375 469.78125 600.699219 470.308594 600.71875 C 486.515625 601.375 502.609375 599.539062 518.734375 598.382812 C 519.453125 598.332031 519.847656 597.734375 520.070312 596.792969 C 519.339844 595.929688 518.503906 596.054688 517.730469 596.035156 Z M 437.992188 249.992188 C 437.117188 252.589844 435.457031 254.695312 433.425781 256.46875 C 430.277344 259.21875 426.640625 261.183594 422.75 262.679688 C 418.648438 264.257812 414.550781 265.851562 410.417969 267.34375 C 409.175781 267.792969 408.082031 268.121094 408.792969 270.066406 C 411.980469 270.332031 414.9375 268.964844 417.949219 268.152344 C 424.03125 266.519531 430.011719 264.523438 434.894531 260.335938 C 438.53125 257.21875 441.015625 253.460938 440.503906 248.433594 C 438.59375 247.855469 438.351562 248.921875 437.992188 249.992188 Z M 235.6875 343.207031 C 231.992188 339.957031 228.226562 336.847656 227.253906 331.492188 C 226.542969 327.578125 227.574219 324.167969 228.972656 320.691406 C 229.472656 319.457031 230.46875 317.902344 228.050781 317.46875 C 219.792969 327.765625 221.773438 341.808594 237.644531 347.460938 C 238.144531 347.214844 238.492188 346.84375 238.675781 346.0625 C 238.15625 344.773438 236.765625 344.152344 235.6875 343.207031 Z M 298.933594 214.46875 C 298.445312 212.738281 296.984375 212.882812 295.710938 212.878906 C 283.554688 212.828125 271.394531 212.820312 259.234375 212.800781 C 258.023438 212.800781 256.773438 212.765625 256.632812 214.796875 C 262.050781 215.773438 296.027344 215.492188 298.933594 214.46875 Z M 520.824219 410.351562 C 524.757812 409.6875 528.699219 408.984375 532.566406 408.019531 C 537.816406 406.707031 542.675781 404.570312 546.234375 400.21875 C 547.246094 398.980469 548.328125 397.796875 546.8125 395.832031 C 541.859375 401.695312 535.386719 404.445312 528.199219 405.871094 C 524.941406 406.515625 521.730469 407.386719 518.476562 408.0625 C 517.351562 408.296875 516.777344 408.726562 517.054688 409.988281 C 518.199219 410.972656 519.597656 410.5625 520.824219 410.351562 Z M 583.070312 372.164062 C 587.007812 374.425781 590.890625 375.738281 594.125 378.15625 C 597.535156 380.703125 599.457031 384.6875 603.324219 387.734375 C 603.894531 379.410156 590.828125 369.347656 583.070312 372.164062 Z M 370.386719 246.941406 C 369.546875 247.679688 369.777344 248.695312 369.894531 249.542969 C 370.835938 256.320312 368.699219 262.398438 365.78125 268.316406 C 365.316406 269.261719 364.78125 270.1875 364.425781 271.175781 C 364.132812 271.984375 364.84375 272.320312 365.433594 272.640625 C 372.097656 266.027344 375.996094 251.835938 370.386719 246.941406 Z M 459.792969 524.832031 C 459.984375 523.933594 459.796875 523.203125 458.753906 523.078125 C 450.101562 522.035156 441.488281 520.375 431.871094 520.511719 C 435.394531 523.800781 454.410156 526.292969 459.792969 524.832031 Z M 344 400.136719 C 349.394531 402.84375 355.3125 403.746094 361.15625 404.859375 C 361.867188 404.992188 362.796875 405.054688 363.335938 403.519531 C 356.925781 399.875 349.226562 399.871094 342.441406 396.226562 C 340.847656 398.894531 342.71875 399.496094 344 400.136719 Z M 343.097656 287.261719 C 345.175781 286.46875 347.699219 286.050781 349.285156 283.050781 C 344.914062 282.648438 341.875 285.011719 338.675781 286.28125 C 334.457031 287.960938 329.796875 288.964844 326.496094 292.628906 C 332.4375 292 337.683594 289.328125 343.097656 287.261719 Z M 174.632812 511.605469 C 185.105469 516.746094 188.132812 517.617188 190.9375 516.242188 C 184.347656 512.550781 177.453125 510.367188 170.441406 506.722656 C 170.363281 510.605469 172.972656 510.789062 174.632812 511.605469 Z M 298.128906 495.425781 C 298.171875 488.007812 296.273438 480.699219 296.523438 473.449219 C 295.207031 473.113281 294.5 473.324219 294.429688 474.09375 C 293.785156 481.363281 294.738281 488.464844 296.386719 495.484375 C 296.96875 495.464844 297.550781 495.445312 298.128906 495.425781 Z M 415.882812 278.453125 C 421.179688 276.433594 426.949219 275.558594 431.863281 272.542969 C 431.328125 271.378906 430.765625 270.75 430.125 270.960938 C 424.683594 272.738281 419.097656 274.183594 414.085938 276.824219 C 414.375 278.246094 414.96875 278.800781 415.882812 278.453125 Z M 415.882812 278.453125 " fill-opacity="1" fill-rule="nonzero"/></svg>