<svg xmlns="http://www.w3.org/2000/svg" xmlns:xlink="http://www.w3.org/1999/xlink" width="1080" zoomAndPan="magnify" viewBox="0 0 810 809.999993" height="1080" preserveAspectRatio="xMidYMid meet" version="1.0"><defs><clipPath id="d29441c0f1"><path d="M 90.703125 22.558594 L 719.203125 22.558594 L 719.203125 787.558594 L 90.703125 787.558594 Z M 90.703125 22.558594 " clip-rule="nonzero"/></clipPath></defs><path fill="#1995ed" d="M 100.566406 204.523438 L 702.191406 204.523438 L 702.191406 706.363281 L 100.566406 706.363281 Z M 100.566406 204.523438 " fill-opacity="1" fill-rule="evenodd"/><path fill="#7fd3ff" d="M 234.542969 450.664062 C 234.542969 450.664062 241.960938 581.8125 344.417969 615.136719 C 446.871094 648.484375 516.679688 592.328125 531.074219 577.585938 C 545.46875 562.84375 574.921875 488.789062 574.921875 488.789062 L 531.609375 480.011719 C 531.609375 480.011719 501.597656 453.683594 490.359375 448.769531 C 479.140625 443.855469 463.351562 464.5625 449.300781 464.5625 C 435.25 464.5625 419.214844 441.578125 402.640625 449.820312 C 386.046875 458.0625 375.632812 472.632812 355.617188 465.269531 C 335.625 457.910156 323.695312 439.992188 308.25 451.234375 C 292.804688 462.460938 293.167969 478.960938 278.777344 468.425781 C 264.421875 457.910156 258.800781 441.769531 234.542969 450.664062 Z M 234.542969 450.664062 " fill-opacity="1" fill-rule="evenodd"/><path fill="#ffffff" d="M 434.160156 466.628906 C 430.890625 462.957031 427.144531 459.4375 422.617188 456.628906 C 417.453125 453.433594 411.605469 451.390625 404.894531 451.390625 C 398.226562 451.390625 392.507812 453.28125 387.367188 456.417969 C 382.875 459.152344 379.128906 462.6875 375.632812 466.609375 C 373.71875 468.75 371.710938 470.71875 369.742188 471.925781 C 368.40625 472.746094 366.953125 473.28125 365.347656 473.28125 C 363.722656 473.28125 362.308594 472.804688 361.046875 472.039062 C 359.039062 470.816406 357.050781 468.882812 355.082031 466.609375 C 351.8125 462.9375 348.066406 459.417969 343.539062 456.609375 C 338.375 453.414062 332.527344 451.371094 325.816406 451.371094 C 319.144531 451.371094 313.429688 453.261719 308.289062 456.398438 C 303.796875 459.132812 300.050781 462.671875 296.550781 466.589844 C 294.640625 468.730469 292.632812 470.683594 290.664062 471.90625 C 289.328125 472.726562 287.875 473.261719 286.269531 473.261719 C 284.644531 473.261719 283.25 472.785156 281.96875 472.019531 C 279.960938 470.796875 277.972656 468.867188 276.003906 466.589844 C 272.734375 462.917969 268.988281 459.402344 264.457031 456.589844 C 260.042969 453.855469 255.128906 451.980469 249.605469 451.484375 C 248.667969 451.40625 247.714844 451.351562 246.738281 451.351562 C 239.703125 451.351562 234.007812 457.046875 234.007812 464.085938 C 234.007812 465.308594 234.179688 466.496094 234.503906 467.601562 C 236.035156 472.917969 240.929688 476.820312 246.738281 476.820312 C 247.121094 476.820312 247.503906 476.859375 247.867188 476.914062 C 249.03125 477.105469 250.121094 477.546875 251.136719 478.175781 C 253.105469 479.382812 255.109375 481.351562 257.082031 483.492188 C 260.617188 487.449219 264.363281 490.988281 268.757812 493.683594 C 273.902344 496.820312 279.617188 498.710938 286.289062 498.710938 C 292.996094 498.710938 298.828125 496.667969 304.007812 493.472656 C 308.558594 490.664062 312.304688 487.144531 315.554688 483.472656 C 317.597656 481.179688 319.605469 479.230469 321.515625 478.042969 C 322.796875 477.257812 324.191406 476.800781 325.816406 476.800781 C 327.402344 476.800781 328.875 477.335938 330.214844 478.15625 C 332.183594 479.363281 334.191406 481.332031 336.160156 483.472656 C 339.695312 487.429688 343.441406 490.96875 347.839844 493.664062 C 352.980469 496.800781 358.695312 498.695312 365.367188 498.695312 C 372.074219 498.695312 377.90625 496.648438 383.085938 493.453125 C 387.636719 490.644531 391.363281 487.125 394.632812 483.453125 C 396.675781 481.160156 398.683594 479.210938 400.59375 478.023438 C 401.875 477.242188 403.269531 476.78125 404.894531 476.78125 C 406.484375 476.78125 407.953125 477.316406 409.292969 478.140625 C 411.261719 479.34375 413.269531 481.3125 415.238281 483.453125 C 418.773438 487.414062 422.519531 490.96875 426.917969 493.644531 C 432.058594 496.78125 437.773438 498.675781 444.445312 498.675781 C 451.15625 498.675781 456.984375 496.628906 462.164062 493.433594 C 466.695312 490.625 470.441406 487.105469 473.710938 483.433594 C 475.753906 481.140625 477.761719 479.191406 479.675781 478.003906 C 480.953125 477.222656 482.351562 476.761719 483.976562 476.761719 C 485.5625 476.761719 487.03125 477.296875 488.371094 478.121094 C 490.339844 479.324219 492.328125 481.292969 494.296875 483.433594 C 497.832031 487.394531 501.578125 490.949219 505.976562 493.625 C 513.507812 498.214844 521.191406 497.96875 529.488281 495.289062 C 525.28125 476.742188 523.179688 467.488281 523.179688 467.488281 C 517.710938 461.351562 513.984375 460.566406 511.996094 465.175781 C 509.035156 462 505.671875 458.980469 501.695312 456.53125 C 496.535156 453.339844 490.683594 451.292969 483.976562 451.292969 C 477.304688 451.292969 471.589844 453.1875 466.445312 456.324219 C 461.953125 459.054688 458.207031 462.59375 454.710938 466.511719 C 452.796875 468.65625 450.792969 470.625 448.824219 471.828125 C 447.484375 472.652344 446.03125 473.1875 444.425781 473.1875 C 442.800781 473.1875 441.40625 472.707031 440.125 471.945312 C 438.136719 470.816406 436.148438 468.882812 434.160156 466.628906 Z M 434.160156 466.628906 " fill-opacity="1" fill-rule="evenodd"/><path fill="#7fd3ff" d="M 701.179688 207.636719 L 112.457031 207.636719 L 112.457031 42.683594 L 701.179688 42.683594 Z M 105.765625 706.363281 L 105.765625 773.035156 L 702.210938 773.035156 L 702.210938 706.363281 Z M 105.765625 706.363281 " fill-opacity="1" fill-rule="evenodd"/><path fill="#ffffff" d="M 702.210938 733.742188 L 130.347656 733.742188 L 130.347656 777.625 L 100.585938 777.625 L 100.585938 712.003906 L 105.765625 712.003906 L 105.765625 706.363281 L 702.210938 706.363281 Z M 130.347656 63.277344 L 352.828125 63.277344 L 352.828125 202.152344 L 382.609375 202.152344 L 382.609375 63.277344 L 699.648438 63.277344 L 699.648438 35.898438 L 103.203125 35.898438 L 103.203125 48.878906 L 100.585938 48.878906 L 100.585938 204.503906 L 130.367188 204.503906 L 130.367188 63.277344 Z M 130.347656 63.277344 " fill-opacity="1" fill-rule="evenodd"/><path fill="#7fd3ff" d="M 100.585938 222.324219 L 130.367188 222.324219 L 130.367188 706.363281 L 100.585938 706.363281 Z M 526.160156 431.941406 L 526.160156 480.03125 L 622.289062 480.03125 L 622.289062 431.941406 Z M 526.160156 431.941406 " fill-opacity="1" fill-rule="evenodd"/><path fill="#ffffff" d="M 487.683594 324.582031 L 383.007812 613.628906 C 360.207031 610.453125 338.96875 602.367188 320.40625 590.472656 L 424.792969 302.265625 C 447.65625 305.152344 468.988281 312.957031 487.683594 324.582031 Z M 410.917969 301.15625 C 408.929688 301.082031 406.921875 301.042969 404.894531 301.042969 C 399.027344 301.042969 393.21875 301.367188 387.5 302 L 291.601562 566.820312 L 293.875 569.152344 C 298.636719 573.914062 303.683594 578.371094 309.015625 582.480469 Z M 511.519531 342.765625 L 412.945312 614.949219 C 421.203125 614.527344 429.304688 613.476562 437.164062 611.832031 L 528.109375 360.699219 C 523.066406 354.292969 517.503906 348.289062 511.519531 342.765625 Z M 511.519531 342.765625 " fill-opacity="0.349" fill-rule="evenodd"/><g clip-path="url(#d29441c0f1)"><path fill="#0a57a2" d="M 304.410156 93.164062 C 304.410156 100.199219 298.710938 105.898438 291.679688 105.898438 L 165.730469 105.898438 C 158.695312 105.898438 153 100.199219 153 93.164062 C 153 86.125 158.695312 80.429688 165.730469 80.429688 L 291.660156 80.429688 C 298.710938 80.429688 304.410156 86.125 304.410156 93.164062 Z M 291.679688 131.367188 L 165.730469 131.367188 C 158.695312 131.367188 153 137.0625 153 144.101562 C 153 151.136719 158.695312 156.835938 165.730469 156.835938 L 291.660156 156.835938 C 298.695312 156.835938 304.390625 151.136719 304.390625 144.101562 C 304.410156 137.0625 298.710938 131.367188 291.679688 131.367188 Z M 275.890625 587.144531 C 242.878906 554.125 222.445312 508.484375 222.445312 458.101562 C 222.445312 407.699219 242.878906 362.078125 275.890625 329.054688 C 308.902344 296.035156 354.527344 275.59375 404.894531 275.59375 C 450.429688 275.59375 492.117188 292.34375 524.117188 320.011719 C 553.839844 345.710938 575.152344 380.871094 583.449219 420.816406 L 623.878906 420.816406 C 630.910156 420.816406 636.609375 426.511719 636.609375 433.550781 L 636.609375 482.691406 C 636.609375 489.726562 630.910156 495.425781 623.878906 495.425781 L 583.449219 495.425781 C 575.152344 535.367188 553.820312 570.53125 524.097656 596.226562 C 492.097656 623.894531 450.410156 640.644531 404.878906 640.644531 C 354.527344 640.605469 308.902344 620.167969 275.890625 587.144531 Z M 538.109375 446.246094 L 538.109375 469.917969 L 572.859375 469.917969 C 572.859375 469.917969 572.878906 469.917969 572.878906 469.917969 L 611.164062 469.917969 L 611.164062 446.246094 Z M 249.664062 434.542969 C 255.1875 435.039062 260.082031 436.914062 264.496094 439.628906 C 269.027344 442.421875 272.773438 445.957031 276.042969 449.628906 C 278.03125 451.90625 280.019531 453.835938 282.007812 455.058594 C 283.285156 455.84375 284.683594 456.304688 286.308594 456.304688 C 287.894531 456.304688 289.367188 455.769531 290.703125 454.945312 C 292.671875 453.722656 294.679688 451.769531 296.589844 449.628906 C 300.089844 445.710938 303.835938 442.171875 308.328125 439.4375 C 313.46875 436.300781 319.183594 434.410156 325.855469 434.410156 C 332.566406 434.410156 338.394531 436.457031 343.574219 439.648438 C 348.125 442.441406 351.851562 445.976562 355.121094 449.648438 C 357.109375 451.925781 359.097656 453.855469 361.085938 455.078125 C 362.367188 455.863281 363.761719 456.320312 365.386719 456.320312 C 366.972656 456.320312 368.445312 455.785156 369.78125 454.964844 C 371.75 453.761719 373.757812 451.789062 375.667969 449.648438 C 379.167969 445.730469 382.914062 442.191406 387.40625 439.457031 C 392.546875 436.320312 398.261719 434.429688 404.933594 434.429688 C 411.644531 434.429688 417.472656 436.476562 422.652344 439.667969 C 427.183594 442.460938 430.929688 445.996094 434.199219 449.667969 C 436.1875 451.945312 438.175781 453.875 440.183594 455.097656 C 441.464844 455.882812 442.859375 456.339844 444.484375 456.339844 C 446.070312 456.339844 447.542969 455.804688 448.878906 454.984375 C 450.847656 453.777344 452.855469 451.808594 454.765625 449.667969 C 458.265625 445.75 462.011719 442.210938 466.503906 439.476562 C 471.644531 436.339844 477.359375 434.449219 484.03125 434.449219 C 490.742188 434.449219 496.570312 436.492188 501.75 439.6875 C 506.035156 442.324219 509.589844 445.632812 512.722656 449.074219 L 512.722656 433.570312 C 512.722656 426.53125 518.421875 420.835938 525.453125 420.835938 L 557.546875 420.835938 C 549.710938 388.597656 531.914062 360.242188 507.601562 339.226562 C 480.113281 315.460938 444.234375 301.082031 404.972656 301.082031 C 361.621094 301.082031 322.359375 318.652344 293.953125 347.085938 C 270.710938 370.203125 254.765625 400.605469 249.664062 434.542969 Z M 247.941406 459.972656 C 248.441406 502.59375 265.890625 541.140625 293.875 569.152344 C 322.28125 597.566406 361.542969 615.15625 404.894531 615.15625 C 444.160156 615.15625 480.035156 600.777344 507.523438 577.011719 C 531.839844 556 549.632812 527.640625 557.472656 495.40625 L 525.378906 495.40625 C 518.34375 495.40625 512.648438 489.707031 512.648438 482.671875 L 512.648438 479.9375 C 510.296875 479.113281 508.078125 478.042969 505.957031 476.742188 C 501.558594 474.046875 497.8125 470.507812 494.277344 466.550781 L 494.21875 466.550781 C 492.308594 464.390625 490.300781 462.441406 488.332031 461.234375 C 486.996094 460.414062 485.542969 459.878906 483.9375 459.878906 C 482.3125 459.878906 480.898438 460.355469 479.636719 461.121094 C 477.703125 462.289062 475.71875 464.238281 473.671875 466.550781 C 470.402344 470.203125 466.65625 473.742188 462.125 476.550781 C 456.964844 479.746094 451.117188 481.789062 444.40625 481.789062 C 437.734375 481.789062 432.019531 479.898438 426.878906 476.761719 C 422.480469 474.066406 418.734375 470.527344 415.199219 466.570312 L 415.140625 466.570312 C 413.230469 464.410156 411.222656 462.460938 409.253906 461.253906 C 407.917969 460.433594 406.464844 459.898438 404.859375 459.898438 C 403.234375 459.898438 401.820312 460.375 400.558594 461.140625 C 398.625 462.308594 396.636719 464.257812 394.59375 466.570312 C 391.324219 470.222656 387.597656 473.761719 383.046875 476.570312 C 377.886719 479.765625 372.039062 481.808594 365.328125 481.808594 C 358.65625 481.808594 352.941406 479.917969 347.800781 476.78125 C 343.402344 474.085938 339.65625 470.546875 336.121094 466.589844 L 336.0625 466.589844 C 334.152344 464.429688 332.144531 462.480469 330.175781 461.273438 C 328.835938 460.453125 327.386719 459.917969 325.78125 459.917969 C 324.15625 459.917969 322.757812 460.394531 321.476562 461.160156 C 319.546875 462.324219 317.558594 464.277344 315.515625 466.589844 C 312.246094 470.242188 308.5 473.777344 303.96875 476.589844 C 298.808594 479.78125 292.957031 481.828125 286.25 481.828125 C 279.578125 481.828125 273.863281 479.9375 268.722656 476.800781 C 264.324219 474.105469 260.578125 470.566406 257.042969 466.609375 L 256.984375 466.609375 C 255.074219 464.449219 253.066406 462.496094 251.097656 461.292969 C 250.179688 460.605469 249.089844 460.144531 247.941406 459.972656 Z M 472.90625 131.84375 C 465.871094 131.84375 460.175781 137.542969 460.175781 144.578125 L 460.175781 145.667969 C 460.175781 152.703125 465.871094 158.402344 472.90625 158.402344 C 479.941406 158.402344 485.636719 152.703125 485.636719 145.667969 L 485.636719 144.578125 C 485.617188 137.542969 479.921875 131.84375 472.90625 131.84375 Z M 645.417969 91.480469 C 652.1875 98.652344 656.335938 108.304688 656.335938 118.878906 C 656.335938 129.914062 651.863281 139.914062 644.636719 147.140625 C 637.410156 154.367188 627.414062 158.84375 616.382812 158.84375 C 605.394531 158.84375 595.414062 154.347656 588.171875 147.101562 C 580.925781 139.894531 576.433594 129.914062 576.433594 118.878906 C 576.433594 107.847656 580.90625 97.847656 588.132812 90.621094 L 588.972656 89.835938 C 596.140625 83.066406 605.792969 78.898438 616.363281 78.898438 C 627.394531 78.898438 637.390625 83.375 644.617188 90.601562 Z M 630.890625 118.859375 C 630.890625 115.074219 629.476562 111.632812 627.164062 109.089844 L 626.648438 108.59375 C 624.03125 105.972656 620.398438 104.347656 616.382812 104.347656 C 612.597656 104.347656 609.160156 105.761719 606.597656 108.097656 L 606.136719 108.59375 C 603.519531 111.214844 601.894531 114.847656 601.894531 118.859375 C 601.894531 122.859375 603.519531 126.507812 606.136719 129.128906 L 606.136719 129.1875 C 608.71875 131.785156 612.351562 133.394531 616.402344 133.394531 C 620.398438 133.394531 624.050781 131.769531 626.667969 129.148438 C 629.269531 126.507812 630.890625 122.859375 630.890625 118.859375 Z M 719.109375 62.511719 L 719.109375 774.757812 C 719.109375 781.792969 713.410156 787.492188 706.378906 787.492188 L 103.433594 787.492188 C 96.398438 787.472656 90.703125 781.773438 90.703125 774.738281 L 90.703125 62.511719 C 90.703125 51.574219 95.195312 41.613281 102.402344 34.40625 L 102.460938 34.347656 C 109.664062 27.140625 119.625 22.644531 130.558594 22.644531 L 679.253906 22.644531 C 690.1875 22.644531 700.144531 27.140625 707.351562 34.347656 L 707.410156 34.40625 C 714.617188 41.613281 719.109375 51.574219 719.109375 62.511719 Z M 116.164062 196.875 L 341.261719 196.875 L 341.261719 48.113281 L 130.558594 48.113281 C 126.582031 48.113281 122.988281 49.738281 120.371094 52.320312 C 117.769531 54.941406 116.164062 58.535156 116.164062 62.511719 Z M 693.664062 717.183594 L 116.164062 717.183594 L 116.164062 762.003906 L 693.664062 762.003906 Z M 693.664062 222.324219 L 116.164062 222.324219 L 116.164062 691.734375 L 693.664062 691.734375 Z M 693.664062 62.511719 C 693.664062 58.535156 692.042969 54.941406 689.460938 52.320312 C 686.84375 49.722656 683.25 48.113281 679.273438 48.113281 L 366.703125 48.113281 L 366.703125 196.875 L 693.648438 196.875 L 693.648438 62.511719 Z M 418.332031 131.84375 C 411.300781 131.84375 405.601562 137.542969 405.601562 144.578125 L 405.601562 145.667969 C 405.601562 152.703125 411.300781 158.402344 418.332031 158.402344 C 425.367188 158.402344 431.066406 152.703125 431.066406 145.667969 L 431.066406 144.578125 C 431.066406 137.542969 425.347656 131.84375 418.332031 131.84375 Z M 527.460938 78.421875 C 520.425781 78.421875 514.730469 84.117188 514.730469 91.15625 L 514.730469 92.246094 C 514.730469 99.28125 520.425781 104.980469 527.460938 104.980469 C 534.496094 104.980469 540.191406 99.28125 540.191406 92.246094 L 540.191406 91.15625 C 540.191406 84.136719 534.496094 78.421875 527.460938 78.421875 Z M 418.332031 78.421875 C 411.300781 78.421875 405.601562 84.117188 405.601562 91.15625 L 405.601562 92.246094 C 405.601562 99.28125 411.300781 104.980469 418.332031 104.980469 C 425.367188 104.980469 431.066406 99.28125 431.066406 92.246094 L 431.066406 91.15625 C 431.066406 84.136719 425.347656 78.421875 418.332031 78.421875 Z M 472.90625 78.421875 C 465.871094 78.421875 460.175781 84.117188 460.175781 91.15625 L 460.175781 92.246094 C 460.175781 99.28125 465.871094 104.980469 472.90625 104.980469 C 479.941406 104.980469 485.636719 99.28125 485.636719 92.246094 L 485.636719 91.15625 C 485.617188 84.136719 479.921875 78.421875 472.90625 78.421875 Z M 527.460938 131.84375 C 520.425781 131.84375 514.730469 137.542969 514.730469 144.578125 L 514.730469 145.667969 C 514.730469 152.703125 520.425781 158.402344 527.460938 158.402344 C 534.496094 158.402344 540.191406 152.703125 540.191406 145.667969 L 540.191406 144.578125 C 540.191406 137.542969 534.496094 131.84375 527.460938 131.84375 Z M 527.460938 131.84375 " fill-opacity="1" fill-rule="nonzero"/></g></svg>