<svg xmlns="http://www.w3.org/2000/svg" xmlns:xlink="http://www.w3.org/1999/xlink" width="1080" zoomAndPan="magnify" viewBox="0 0 810 809.999993" height="1080" preserveAspectRatio="xMidYMid meet" version="1.0"><defs><clipPath id="fedbac12bf"><path d="M 100 275 L 747.773438 275 L 747.773438 633 L 100 633 Z M 100 275 " clip-rule="nonzero"/></clipPath><clipPath id="2e63a89ec3"><path d="M 62.273438 219 L 594 219 L 594 631 L 62.273438 631 Z M 62.273438 219 " clip-rule="nonzero"/></clipPath></defs><g clip-path="url(#fedbac12bf)"><path fill="#ffe2a8" d="M 593.496094 373.667969 C 593.496094 344.273438 586.828125 316.4375 574.941406 291.570312 C 576.992188 290.203125 578.683594 289.351562 579.660156 288.914062 C 579.925781 289.007812 580.195312 289.097656 580.464844 289.1875 C 578.445312 300.964844 582.46875 309.140625 593.496094 311.835938 C 602.957031 314.148438 610.433594 307.84375 612.566406 305.792969 C 612.667969 305.882812 612.804688 305.933594 612.949219 305.914062 L 610.226562 314.273438 C 610.207031 314.300781 610.1875 314.324219 610.175781 314.359375 C 610.105469 314.589844 610.042969 314.820312 609.972656 315.050781 L 609.265625 317.214844 C 609.265625 317.214844 600.929688 335.574219 598.023438 341.386719 C 595.117188 347.199219 594.046875 352.476562 594.046875 352.476562 C 598.023438 356.609375 603.554688 357.480469 603.554688 357.480469 L 603.664062 358.328125 C 603.675781 359.589844 603.6875 360.855469 603.734375 362.117188 C 603.75 362.601562 604.40625 362.667969 604.574219 362.3125 C 608.917969 364.390625 611.960938 363.074219 613.046875 362.417969 C 613.027344 363.527344 613.007812 364.632812 612.992188 365.738281 C 612.988281 365.980469 613.148438 366.113281 613.332031 366.148438 C 613.347656 368.664062 613.496094 371.085938 613.496094 371.085938 C 615.503906 372.453125 617.769531 372.976562 619.445312 373.175781 C 619.359375 373.652344 619.289062 374.136719 619.203125 374.613281 C 618.363281 379.234375 617.382812 383.828125 616.214844 388.378906 C 616.214844 388.378906 616.214844 388.378906 616.214844 388.382812 C 607.863281 393.425781 599.511719 398.46875 591.164062 403.511719 C 592.691406 393.785156 593.496094 383.820312 593.496094 373.667969 Z M 747.675781 613.308594 C 744.132812 615.066406 740.5625 616.671875 736.976562 618.152344 C 710.355469 629.140625 682.640625 632.796875 657.453125 632.753906 C 652.894531 632.746094 648.421875 632.613281 644.046875 632.386719 C 611.398438 630.683594 584.578125 623.449219 572.574219 619.703125 C 568.191406 618.332031 565.78125 617.429688 565.78125 617.429688 L 575.050781 462.078125 C 575.050781 462.078125 574.847656 460.140625 574.5 456.710938 C 575.640625 456.257812 576.738281 455.796875 577.785156 455.347656 C 580.625 460.207031 583.140625 461.75 583.648438 462.023438 C 583.648438 462.085938 583.65625 462.144531 583.65625 462.207031 C 583.144531 462.394531 583.375 463.210938 583.90625 463.042969 C 583.949219 463.03125 583.992188 463.015625 584.035156 463.003906 C 584.191406 463.03125 584.359375 462.984375 584.460938 462.859375 C 587.339844 461.949219 590.195312 460.964844 593.035156 459.9375 C 599.902344 457.453125 606.65625 454.65625 613.246094 451.515625 C 622.785156 446.972656 632 441.75 640.800781 435.902344 C 647.878906 431.195312 655.007812 426.171875 661.058594 420.121094 C 662.527344 418.652344 663.953125 417.140625 665.277344 415.535156 C 671.667969 407.796875 676.121094 398.632812 679.246094 389.136719 C 680.625 384.945312 681.746094 380.683594 682.703125 376.382812 C 683.882812 371.082031 684.816406 365.726562 685.652344 360.359375 C 685.417969 362.238281 685.140625 364.152344 684.820312 366.09375 C 691.851562 385.546875 710.855469 438.839844 725.167969 485.445312 C 743.054688 543.699219 747.675781 613.308594 747.675781 613.308594 Z M 639.367188 516.378906 C 639.390625 515.8125 638.515625 515.8125 638.488281 516.378906 C 638.011719 527.304688 636.917969 538.199219 635.191406 549.003906 C 633.476562 559.75 631.152344 570.398438 628.226562 580.878906 C 626.582031 586.769531 624.75 592.601562 622.734375 598.375 C 622.546875 598.910156 623.394531 599.140625 623.582031 598.609375 C 627.183594 588.289062 630.199219 577.769531 632.601562 567.105469 C 635.003906 556.449219 636.796875 545.660156 637.972656 534.800781 C 638.636719 528.675781 639.097656 522.53125 639.367188 516.378906 Z M 643.882812 533.316406 C 643.96875 532.765625 643.121094 532.527344 643.035156 533.085938 C 642.375 537.371094 641.71875 541.65625 641.058594 545.945312 C 640.972656 546.496094 641.820312 546.738281 641.90625 546.179688 C 642.5625 541.890625 643.222656 537.605469 643.882812 533.316406 Z M 208.695312 296.789062 L 180.375 275.105469 C 147.21875 274.621094 130.675781 290.414062 130.375 290.671875 C 130.371094 290.671875 130.367188 290.695312 130.359375 290.722656 C 110.835938 307.238281 117.914062 347.570312 118.742188 351.90625 C 118.835938 351.882812 118.9375 351.882812 119.046875 351.9375 C 121.1875 353.027344 123.5 353.847656 125.773438 354.621094 C 131.078125 356.421875 136.550781 357.738281 142.070312 358.675781 C 149.171875 359.886719 156.332031 360.550781 163.5 359.53125 C 168.605469 358.800781 173.636719 357.363281 178.335938 355.230469 C 180.089844 354.429688 181.867188 353.554688 183.476562 352.480469 C 183.507812 352.457031 183.546875 352.433594 183.578125 352.410156 C 183.578125 352.40625 183.578125 352.398438 183.582031 352.390625 C 183.726562 350.570312 183.796875 348.75 183.835938 346.925781 C 183.90625 343.253906 183.78125 339.578125 183.414062 335.921875 C 183.003906 331.878906 182.3125 327.867188 181.371094 323.914062 C 180.007812 318.179688 178.101562 312.574219 175.65625 307.21875 C 171.746094 298.660156 166.144531 289.96875 156.960938 286.472656 C 156.601562 286.335938 156.601562 285.902344 156.796875 285.703125 C 156.890625 285.609375 157.023438 285.558594 157.191406 285.625 C 158.496094 286.121094 159.757812 286.714844 160.960938 287.421875 C 166.15625 290.464844 170.097656 295.203125 173.113281 300.34375 C 176.320312 305.816406 178.765625 311.796875 180.636719 317.851562 C 182.503906 323.902344 183.742188 330.144531 184.339844 336.449219 C 184.644531 339.644531 184.785156 342.859375 184.75 346.070312 C 184.734375 347.65625 184.675781 349.238281 184.578125 350.820312 C 184.539062 351.464844 184.707031 352.621094 184.179688 353.074219 C 183.765625 353.433594 183.203125 353.695312 182.730469 353.96875 C 181.738281 354.542969 180.71875 355.066406 179.679688 355.5625 L 185.578125 383.5625 L 214.191406 401.199219 C 212.890625 392.207031 212.203125 383.019531 212.203125 373.667969 C 212.203125 343.472656 219.230469 314.914062 231.726562 289.535156 L 231.726562 289.527344 C 231.726562 289.527344 225.945312 285.101562 214.96875 281.152344 Z M 137.621094 404.09375 C 128.078125 386.976562 124.953125 369.28125 123.996094 357.671875 L 123.996094 357.675781 L 100.664062 408.636719 C 100.664062 408.636719 104 412.316406 110.332031 417.480469 C 127.230469 431.269531 165.523438 455.667969 219.003906 449.191406 C 216.113281 448.613281 213.160156 448.09375 210.304688 447.625 C 201.417969 446.164062 153.769531 433.046875 137.621094 404.09375 Z M 577.296875 426.734375 C 577.65625 427.605469 578.011719 428.527344 578.367188 429.503906 C 578.410156 429.613281 578.445312 429.722656 578.488281 429.832031 C 578.882812 430.933594 579.273438 432.101562 579.65625 433.328125 C 582.601562 442.574219 584.246094 452.222656 584.523438 461.925781 C 585.484375 461.617188 586.445312 461.3125 587.398438 460.996094 C 597.347656 457.683594 607.054688 453.667969 616.4375 448.984375 C 625.777344 444.328125 634.785156 439.015625 643.382812 433.097656 C 652.0625 427.121094 660.601562 420.636719 666.878906 412.058594 C 672.847656 403.902344 676.867188 394.484375 679.660156 384.816406 C 682.789062 373.988281 684.4375 362.8125 686.078125 351.683594 C 686.113281 351.4375 686.300781 351.351562 686.488281 351.375 C 687.472656 335.839844 685.890625 323.789062 685.300781 319.949219 C 684.394531 314.058594 682.746094 300.003906 674.644531 293.210938 C 671.03125 290.179688 666.136719 288.589844 659.441406 289.824219 C 641.144531 293.199219 630.480469 305.371094 626.34375 324.585938 C 626.421875 324.65625 626.464844 324.757812 626.445312 324.902344 C 625.839844 329.570312 625.304688 334.246094 624.785156 338.925781 C 622.953125 355.386719 621.269531 371.933594 617.199219 388.027344 C 617.238281 388.050781 617.273438 388.082031 617.308594 388.113281 C 619.113281 388.574219 620.339844 390.101562 621.417969 391.523438 C 621.5625 391.714844 621.449219 392.015625 621.261719 392.125 C 621.039062 392.253906 620.804688 392.152344 620.660156 391.964844 C 619.699219 390.699219 618.613281 389.324219 616.992188 388.9375 C 613.75 390.898438 610.507812 392.855469 607.261719 394.816406 C 595.609375 401.851562 583.957031 408.886719 572.304688 415.921875 C 573.914062 418.929688 575.382812 422.007812 576.6875 425.15625 C 576.902344 425.675781 577.089844 426.210938 577.296875 426.734375 Z M 577.296875 426.734375 " fill-opacity="1" fill-rule="nonzero"/></g><g clip-path="url(#2e63a89ec3)"><path fill="#a6c9fd" d="M 230.089844 482.597656 C 231.082031 500.417969 239.027344 621.863281 239.027344 621.863281 C 238.984375 621.886719 238.945312 621.902344 238.902344 621.925781 C 205.953125 638.640625 173.363281 627.296875 166.855469 624.71875 C 166.085938 624.414062 165.660156 624.226562 165.660156 624.226562 L 157.40625 536.875 C 161.039062 524.097656 164.667969 511.320312 168.300781 498.542969 C 169.496094 494.332031 170.695312 490.121094 171.890625 485.910156 C 171.96875 485.640625 171.796875 485.445312 171.589844 485.386719 C 178.285156 483.40625 184.980469 481.425781 191.675781 479.445312 C 192.21875 479.285156 191.988281 478.4375 191.445312 478.597656 C 184.71875 480.585938 177.992188 482.574219 171.269531 484.566406 C 170.816406 484.699219 170.90625 485.300781 171.257812 485.410156 C 171.164062 485.457031 171.082031 485.542969 171.042969 485.675781 C 166.84375 500.460938 162.640625 515.246094 158.4375 530.035156 C 157.242188 534.246094 156.042969 538.457031 154.847656 542.667969 C 154.714844 543.136719 155.320312 543.367188 155.589844 543.082031 C 149.710938 565.957031 138.222656 626.132812 138.222656 626.132812 C 95.871094 634.222656 74.796875 623.632812 66.585938 617.441406 C 63.625 615.207031 62.324219 613.542969 62.324219 613.542969 C 76.171875 525.785156 98.222656 512.796875 98.890625 478.882812 C 99.621094 441.707031 110.328125 417.480469 110.328125 417.480469 C 127.230469 431.269531 165.523438 455.671875 219.003906 449.195312 C 222.457031 449.882812 225.808594 450.660156 228.792969 451.527344 C 229.347656 452.757812 229.910156 453.980469 230.488281 455.195312 C 229.980469 463.609375 229.613281 473.976562 230.089844 482.597656 Z M 443.34375 541.195312 C 452.304688 545.066406 461.828125 548.15625 470.980469 551.78125 C 449.828125 559.878906 426.851562 564.320312 402.855469 564.320312 C 387.925781 564.320312 373.40625 562.597656 359.46875 559.351562 C 360.808594 555.355469 361.703125 551.160156 362.453125 547.035156 C 363.273438 542.449219 363.960938 537.738281 363.125 533.160156 C 362.285156 528.574219 359.660156 524.082031 355.429688 522.132812 C 349.96875 519.621094 342.914062 521.667969 338.042969 518.136719 C 330.90625 512.957031 334.710938 501.53125 331.589844 493.273438 C 329.304688 487.199219 323.039062 483.195312 316.597656 482.421875 C 310.144531 481.644531 303.628906 483.710938 298 486.933594 C 295.300781 488.476562 292.515625 490.363281 289.40625 490.234375 C 285.558594 490.078125 282.445312 486.746094 281.148438 483.121094 C 279.851562 479.492188 279.925781 475.539062 279.707031 471.679688 C 279.332031 465.191406 277.648438 458.347656 274.402344 452.769531 C 274.644531 452.269531 274.824219 451.851562 274.945312 451.535156 C 275.785156 451.207031 276.613281 450.84375 277.414062 450.394531 C 281.476562 448.117188 284.648438 443.953125 284.453125 439.128906 C 285.535156 438.152344 286.523438 437.074219 287.390625 435.882812 C 288.710938 434.074219 289.65625 432.023438 290.164062 429.839844 C 290.441406 429.683594 290.730469 429.546875 291.007812 429.382812 C 291.273438 429.226562 291.257812 428.925781 291.105469 428.738281 C 294.402344 426.507812 295.554688 422.515625 291.234375 420.242188 C 286.363281 417.6875 280.15625 423.042969 270.542969 423.410156 C 260.929688 423.773438 253.019531 417.8125 253.019531 417.8125 C 266.894531 412.699219 267.5 404.179688 260.808594 403.328125 C 254.113281 402.476562 235.878906 414.566406 235.878906 414.566406 L 214.191406 401.199219 C 212.886719 392.210938 212.199219 383.019531 212.199219 373.667969 C 212.199219 343.472656 219.226562 314.914062 231.726562 289.535156 C 234.570312 283.757812 237.695312 278.140625 241.089844 272.710938 C 250.613281 275.832031 259.132812 284.289062 262.527344 294.0625 C 267.945312 309.667969 264.234375 326.78125 260.714844 342.921875 C 257.203125 359.0625 254.007812 376.421875 260.3125 391.6875 C 261.609375 394.828125 263.496094 398.003906 266.574219 399.4375 C 272.417969 402.15625 279.269531 397.085938 281.726562 391.128906 C 284.175781 385.160156 283.898438 378.445312 285.511719 372.203125 C 288.464844 360.742188 298.765625 351.136719 310.574219 350.429688 C 322.394531 349.722656 334.351562 359.128906 335.132812 370.9375 C 335.691406 379.464844 331.039062 387.332031 328.109375 395.367188 C 325.179688 403.402344 324.511719 413.765625 331.125 419.183594 C 337.882812 424.710938 347.828125 421.863281 356.175781 419.332031 C 364.527344 416.800781 375.367188 415.671875 380.300781 422.863281 C 385.023438 429.726562 381.777344 441.25 388.863281 445.605469 C 394.789062 449.242188 402.054688 444.277344 407.515625 439.984375 C 412.988281 435.695312 421.644531 432.140625 426.101562 437.476562 C 428.980469 440.933594 428.011719 446.144531 426.3125 450.320312 C 420.230469 465.257812 406.914062 477.46875 405.320312 493.527344 C 403.179688 515.195312 423.351562 532.5625 443.34375 541.195312 Z M 385.601562 540.527344 C 385.460938 537.980469 383.84375 535.476562 381.4375 534.628906 C 379.035156 533.777344 376 534.894531 375.007812 537.246094 L 376.335938 536.925781 C 373.800781 537.898438 372.15625 541.003906 372.921875 543.675781 C 373.804688 546.75 377.441406 548.636719 380.527344 547.796875 C 383.617188 546.960938 385.777344 543.71875 385.601562 540.527344 Z M 593.496094 373.667969 C 593.496094 383.820312 592.691406 393.785156 591.160156 403.511719 C 587.90625 405.480469 584.648438 407.445312 581.394531 409.410156 C 578.191406 411.34375 574.988281 413.28125 571.78125 415.214844 C 571.519531 415.15625 571.207031 415.386719 571.234375 415.683594 C 571.183594 415.882812 571.285156 416.097656 571.457031 416.195312 C 571.460938 416.203125 571.464844 416.210938 571.46875 416.21875 C 567.976562 415.261719 562.933594 413.820312 560.351562 412.800781 C 556.160156 411.148438 545.316406 407.132812 542.925781 410.484375 C 540.53125 413.832031 544.835938 417.738281 552.8125 421.644531 C 552.8125 421.644531 547.835938 425.972656 538.226562 425.824219 C 528.671875 425.675781 519.195312 421.078125 515.820312 423.207031 C 515.515625 422.863281 515.222656 422.507812 514.941406 422.140625 C 514.601562 421.699219 513.835938 422.136719 514.183594 422.582031 C 514.484375 422.980469 514.808594 423.363281 515.136719 423.738281 C 514.886719 423.976562 514.683594 424.234375 514.511719 424.503906 C 503.828125 422.0625 492.429688 416.066406 492.8125 405.550781 C 493.296875 392.382812 512.972656 383.03125 508.035156 370.796875 C 504.671875 362.445312 492.703125 362.382812 484.3125 365.621094 C 475.910156 368.867188 467.0625 374.035156 458.511719 371.207031 C 446.367188 367.210938 444.53125 350.363281 448.644531 338.25 C 452.753906 326.144531 460.566406 314.652344 459.734375 301.894531 C 459.355469 296.117188 457.183594 290.539062 457.054688 284.738281 C 456.675781 267.351562 473.695312 255.363281 488.507812 246.234375 C 499.230469 239.632812 510.808594 230.753906 515.46875 219.820312 C 519.949219 223.109375 524.285156 226.589844 528.457031 230.25 C 525.867188 233.941406 523.535156 237.839844 522.828125 242.257812 C 521.953125 247.730469 524.496094 254.183594 529.789062 255.816406 C 531.339844 256.292969 533.078125 256.375 534.34375 257.386719 C 536.875 259.433594 535.789062 263.546875 537.136719 266.496094 C 538.117188 268.667969 540.40625 270.03125 542.734375 270.515625 C 545.066406 271 547.492188 270.746094 549.863281 270.492188 C 552.417969 270.21875 555.007812 269.9375 557.371094 268.910156 C 558.503906 268.425781 559.570312 267.730469 560.441406 266.871094 C 560.863281 267.367188 561.292969 267.84375 561.730469 268.300781 C 566.652344 275.710938 571.074219 283.480469 574.941406 291.566406 C 586.828125 316.4375 593.496094 344.269531 593.496094 373.667969 Z M 497.136719 322.207031 C 495.980469 319.761719 492.675781 318.613281 490.246094 319.816406 L 490.777344 319.660156 C 488.234375 320.597656 486.820312 323.816406 487.84375 326.320312 C 488.867188 328.828125 492.125 330.136719 494.597656 329.039062 C 497.074219 327.941406 498.292969 324.65625 497.136719 322.207031 Z M 504.824219 280.035156 C 503.304688 277.324219 499.539062 276.539062 496.609375 277.578125 C 494.242188 278.417969 492.347656 280.167969 490.738281 282.136719 C 487.433594 284.988281 485.257812 289.1875 485.085938 293.5625 C 484.976562 296.351562 485.796875 299.433594 488.121094 300.976562 C 491.382812 303.144531 495.9375 301.257812 498.566406 298.355469 C 500.945312 295.730469 502.410156 292.421875 503.832031 289.175781 C 505.113281 286.261719 506.375 282.8125 504.824219 280.035156 Z M 504.824219 280.035156 " fill-opacity="1" fill-rule="nonzero"/></g><path fill="#bfe385" d="M 363.125 533.160156 C 363.957031 537.738281 363.273438 542.449219 362.449219 547.035156 C 361.703125 551.160156 360.804688 555.355469 359.464844 559.351562 C 302.320312 546.054688 255.058594 507.046875 230.484375 455.195312 C 229.910156 453.980469 229.34375 452.757812 228.792969 451.527344 C 231.085938 452.199219 233.164062 452.921875 234.886719 453.710938 C 240.726562 456.386719 252.164062 463.082031 262.265625 461.742188 C 269.539062 460.777344 273.015625 455.601562 274.398438 452.769531 C 277.648438 458.347656 279.332031 465.191406 279.703125 471.679688 C 279.925781 475.539062 279.851562 479.492188 281.148438 483.121094 C 282.445312 486.746094 285.554688 490.078125 289.402344 490.234375 C 292.511719 490.363281 295.296875 488.476562 297.996094 486.933594 C 303.625 483.707031 310.140625 481.644531 316.59375 482.421875 C 323.039062 483.191406 329.300781 487.199219 331.585938 493.273438 C 334.707031 501.527344 330.902344 512.957031 338.042969 518.136719 C 342.914062 521.667969 349.964844 519.621094 355.425781 522.132812 C 359.65625 524.082031 362.28125 528.574219 363.125 533.160156 Z M 571.527344 457.851562 C 572.535156 457.484375 573.527344 457.101562 574.496094 456.710938 C 553.445312 500.15625 516.398438 534.398438 470.988281 551.78125 L 470.976562 551.78125 C 461.824219 548.152344 452.304688 545.0625 443.339844 541.195312 C 423.351562 532.558594 403.179688 515.195312 405.320312 493.527344 C 406.914062 477.46875 420.226562 465.257812 426.3125 450.320312 C 428.011719 446.144531 428.980469 440.933594 426.101562 437.476562 C 421.640625 432.140625 412.984375 435.695312 407.515625 439.984375 C 402.050781 444.277344 394.785156 449.242188 388.859375 445.605469 C 381.777344 441.25 385.023438 429.726562 380.300781 422.863281 C 375.367188 415.671875 364.527344 416.800781 356.175781 419.332031 C 347.824219 421.863281 337.882812 424.707031 331.125 419.183594 C 324.511719 413.765625 325.175781 403.402344 328.109375 395.367188 C 331.039062 387.332031 335.6875 379.464844 335.128906 370.9375 C 334.351562 359.128906 322.394531 349.722656 310.574219 350.429688 C 298.765625 351.136719 288.464844 360.742188 285.511719 372.203125 C 283.898438 378.445312 284.171875 385.160156 281.726562 391.128906 C 279.269531 397.085938 272.417969 402.15625 266.574219 399.4375 C 263.496094 398.003906 261.609375 394.828125 260.3125 391.6875 C 254.007812 376.417969 257.203125 359.0625 260.710938 342.921875 C 264.234375 326.78125 267.945312 309.667969 262.523438 294.0625 C 259.128906 284.289062 250.609375 275.832031 241.089844 272.710938 C 274.789062 218.84375 334.632812 183.015625 402.851562 183.015625 C 444.984375 183.015625 483.921875 196.679688 515.46875 219.824219 C 510.808594 230.757812 499.234375 239.636719 488.511719 246.234375 C 473.695312 255.367188 456.679688 267.355469 457.058594 284.742188 C 457.183594 290.539062 459.355469 296.117188 459.734375 301.894531 C 460.566406 314.65625 452.757812 326.148438 448.644531 338.25 C 444.53125 350.367188 446.367188 367.214844 458.511719 371.210938 C 467.0625 374.039062 475.910156 368.871094 484.3125 365.621094 C 492.707031 362.386719 504.675781 362.449219 508.035156 370.800781 C 512.972656 383.03125 493.296875 392.382812 492.8125 405.554688 C 492.429688 416.070312 503.832031 422.066406 514.511719 424.507812 C 513.011719 426.882812 514.488281 430.296875 516.648438 431.960938 C 516.648438 431.960938 517.09375 438.019531 521.527344 441.566406 C 521.527344 441.566406 521.515625 441.621094 521.5 441.699219 C 521.265625 441.730469 521.027344 441.933594 521.074219 442.242188 C 521.75 446.660156 523.164062 451.324219 527.644531 453.199219 C 527.652344 453.203125 527.660156 453.207031 527.667969 453.210938 C 527.816406 453.320312 527.949219 453.429688 528.105469 453.542969 C 528.105469 453.542969 527.726562 459.769531 537.589844 463.195312 C 547.453125 466.617188 563.683594 460.726562 571.527344 457.851562 Z M 392.199219 352.171875 C 393.234375 350.746094 393.359375 348.984375 393.566406 347.292969 C 393.75 345.777344 394.140625 343.820312 395.621094 343.03125 C 397.386719 342.089844 399.40625 343.324219 400.847656 344.320312 C 402.304688 345.324219 403.789062 346.363281 405.621094 346.414062 C 406.1875 346.425781 406.1875 345.550781 405.621094 345.535156 C 403.480469 345.476562 401.917969 343.839844 400.164062 342.832031 C 398.675781 341.980469 396.789062 341.382812 395.175781 342.273438 C 391.761719 344.152344 393.429688 348.992188 391.441406 351.730469 C 391.109375 352.1875 391.871094 352.628906 392.199219 352.171875 Z M 370.953125 281.222656 C 371.988281 279.796875 372.113281 278.03125 372.316406 276.339844 C 372.5 274.828125 372.894531 272.867188 374.371094 272.078125 C 376.140625 271.136719 378.15625 272.375 379.597656 273.367188 C 381.054688 274.371094 382.539062 275.410156 384.375 275.460938 C 384.941406 275.472656 384.9375 274.597656 384.375 274.582031 C 382.234375 274.523438 380.671875 272.886719 378.914062 271.878906 C 377.425781 271.027344 375.542969 270.433594 373.929688 271.320312 C 370.515625 273.199219 372.179688 278.035156 370.191406 280.777344 C 369.863281 281.238281 370.621094 281.675781 370.953125 281.222656 Z M 352.910156 284.847656 C 354.367188 285.851562 355.851562 286.890625 357.6875 286.9375 C 358.253906 286.953125 358.25 286.078125 357.6875 286.058594 C 355.546875 286.003906 353.980469 284.367188 352.226562 283.359375 C 350.738281 282.507812 348.855469 281.910156 347.242188 282.800781 C 343.828125 284.679688 345.492188 289.515625 343.503906 292.257812 C 343.171875 292.714844 343.933594 293.152344 344.261719 292.699219 C 345.296875 291.273438 345.421875 289.507812 345.628906 287.816406 C 345.8125 286.304688 346.203125 284.347656 347.683594 283.558594 C 349.449219 282.617188 351.46875 283.851562 352.910156 284.847656 Z M 367.507812 356.101562 C 365.367188 356.042969 363.800781 354.40625 362.050781 353.398438 C 360.558594 352.546875 358.675781 351.953125 357.0625 352.839844 C 353.648438 354.71875 355.316406 359.558594 353.324219 362.296875 C 352.992188 362.753906 353.753906 363.191406 354.082031 362.738281 C 355.117188 361.3125 355.242188 359.550781 355.449219 357.855469 C 355.632812 356.34375 356.027344 354.386719 357.503906 353.597656 C 359.273438 352.652344 361.289062 353.890625 362.730469 354.886719 C 364.1875 355.886719 365.671875 356.929688 367.503906 356.976562 C 368.074219 356.996094 368.074219 356.117188 367.507812 356.101562 Z M 369.632812 286.734375 C 371.089844 287.742188 372.574219 288.78125 374.410156 288.828125 C 374.976562 288.84375 374.972656 287.964844 374.410156 287.949219 C 372.265625 287.890625 370.703125 286.253906 368.953125 285.25 C 367.460938 284.394531 365.578125 283.800781 363.964844 284.6875 C 360.550781 286.566406 362.21875 291.40625 360.230469 294.144531 C 359.898438 294.601562 360.65625 295.042969 360.988281 294.585938 C 362.023438 293.160156 362.148438 291.398438 362.351562 289.707031 C 362.535156 288.191406 362.929688 286.234375 364.410156 285.445312 C 366.171875 284.503906 368.191406 285.742188 369.632812 286.734375 Z M 376.269531 355.441406 C 378.035156 354.5 380.054688 355.734375 381.496094 356.730469 C 382.953125 357.734375 384.4375 358.773438 386.269531 358.824219 C 386.835938 358.835938 386.835938 357.960938 386.269531 357.945312 C 384.128906 357.886719 382.566406 356.25 380.8125 355.242188 C 379.324219 354.390625 377.4375 353.796875 375.824219 354.683594 C 372.410156 356.5625 374.078125 361.402344 372.089844 364.140625 C 371.757812 364.597656 372.519531 365.035156 372.847656 364.582031 C 373.882812 363.15625 374.007812 361.394531 374.210938 359.703125 C 374.398438 358.191406 374.789062 356.230469 376.269531 355.441406 Z M 391.273438 395.613281 C 389.132812 395.554688 387.570312 393.917969 385.816406 392.914062 C 384.328125 392.058594 382.445312 391.464844 380.832031 392.351562 C 377.414062 394.230469 379.082031 399.070312 377.09375 401.808594 C 376.761719 402.265625 377.523438 402.703125 377.851562 402.25 C 378.886719 400.824219 379.011719 399.0625 379.21875 397.371094 C 379.402344 395.855469 379.792969 393.898438 381.273438 393.109375 C 383.039062 392.167969 385.054688 393.402344 386.5 394.398438 C 387.957031 395.402344 389.441406 396.441406 391.273438 396.488281 C 391.839844 396.507812 391.839844 395.628906 391.273438 395.613281 Z M 395.621094 363.320312 C 397.386719 362.378906 399.402344 363.613281 400.847656 364.609375 C 402.304688 365.613281 403.785156 366.652344 405.621094 366.703125 C 406.183594 366.714844 406.183594 365.839844 405.621094 365.824219 C 403.480469 365.765625 401.914062 364.128906 400.164062 363.121094 C 398.671875 362.265625 396.789062 361.675781 395.175781 362.5625 C 391.761719 364.441406 393.429688 369.277344 391.441406 372.019531 C 391.105469 372.476562 391.867188 372.914062 392.199219 372.460938 C 393.230469 371.035156 393.359375 369.273438 393.5625 367.578125 C 393.746094 366.066406 394.140625 364.109375 395.621094 363.320312 Z M 409.75 400.457031 C 407.609375 400.398438 406.046875 398.761719 404.292969 397.757812 C 402.800781 396.902344 400.917969 396.308594 399.304688 397.195312 C 395.890625 399.074219 397.558594 403.914062 395.566406 406.652344 C 395.238281 407.109375 395.996094 407.546875 396.324219 407.09375 C 397.359375 405.667969 397.488281 403.90625 397.691406 402.214844 C 397.875 400.699219 398.269531 398.742188 399.746094 397.953125 C 401.515625 397.011719 403.53125 398.246094 404.972656 399.242188 C 406.429688 400.246094 407.914062 401.285156 409.746094 401.332031 C 410.316406 401.351562 410.3125 400.472656 409.75 400.457031 Z M 461.175781 407.066406 C 459.03125 407.007812 457.46875 405.371094 455.71875 404.363281 C 454.226562 403.511719 452.34375 402.914062 450.730469 403.804688 C 447.316406 405.683594 448.984375 410.523438 446.992188 413.261719 C 446.664062 413.71875 447.421875 414.15625 447.753906 413.703125 C 448.785156 412.277344 448.914062 410.511719 449.117188 408.820312 C 449.300781 407.308594 449.695312 405.351562 451.175781 404.5625 C 452.941406 403.617188 454.957031 404.855469 456.402344 405.851562 C 457.859375 406.855469 459.339844 407.894531 461.175781 407.941406 C 461.738281 407.957031 461.738281 407.082031 461.175781 407.066406 Z M 470.203125 391.941406 C 471.660156 392.945312 473.140625 393.984375 474.976562 394.03125 C 475.539062 394.046875 475.539062 393.167969 474.976562 393.152344 C 472.835938 393.097656 471.269531 391.460938 469.515625 390.453125 C 468.027344 389.597656 466.144531 389.003906 464.53125 389.890625 C 461.117188 391.773438 462.78125 396.609375 460.792969 399.347656 C 460.460938 399.808594 461.222656 400.246094 461.550781 399.792969 C 462.585938 398.367188 462.710938 396.601562 462.917969 394.910156 C 463.101562 393.398438 463.496094 391.441406 464.972656 390.652344 C 466.742188 389.707031 468.757812 390.945312 470.203125 391.941406 Z M 481.878906 417.09375 C 479.734375 417.035156 478.171875 415.398438 476.417969 414.394531 C 474.929688 413.539062 473.046875 412.945312 471.433594 413.832031 C 468.019531 415.710938 469.683594 420.550781 467.695312 423.289062 C 467.363281 423.746094 468.125 424.1875 468.453125 423.730469 C 469.488281 422.308594 469.613281 420.542969 469.820312 418.851562 C 470.003906 417.339844 470.394531 415.378906 471.875 414.589844 C 473.640625 413.648438 475.65625 414.882812 477.101562 415.878906 C 478.558594 416.882812 480.042969 417.921875 481.875 417.972656 C 482.441406 417.988281 482.441406 417.109375 481.878906 417.09375 Z M 498.570312 298.355469 C 500.949219 295.726562 502.410156 292.421875 503.835938 289.175781 C 505.113281 286.261719 506.378906 282.816406 504.824219 280.035156 C 503.304688 277.324219 499.539062 276.539062 496.609375 277.578125 C 494.242188 278.417969 492.347656 280.167969 490.738281 282.136719 C 487.433594 284.988281 485.257812 289.1875 485.085938 293.5625 C 484.976562 296.351562 485.796875 299.433594 488.121094 300.976562 C 491.386719 303.140625 495.9375 301.253906 498.570312 298.355469 Z M 487.84375 326.320312 C 488.867188 328.828125 492.125 330.136719 494.597656 329.039062 C 497.074219 327.941406 498.292969 324.65625 497.136719 322.207031 C 495.980469 319.757812 492.675781 318.613281 490.246094 319.816406 L 490.777344 319.660156 C 488.234375 320.597656 486.820312 323.816406 487.84375 326.320312 Z M 381.4375 534.628906 C 379.035156 533.777344 376 534.894531 375.007812 537.246094 L 376.335938 536.925781 C 373.800781 537.898438 372.15625 541.003906 372.921875 543.675781 C 373.804688 546.75 377.441406 548.636719 380.527344 547.796875 C 383.613281 546.964844 385.777344 543.71875 385.597656 540.527344 C 385.460938 537.980469 383.84375 535.476562 381.4375 534.628906 Z M 529.789062 255.820312 C 531.339844 256.292969 533.078125 256.378906 534.34375 257.390625 C 536.875 259.433594 535.789062 263.546875 537.136719 266.5 C 538.121094 268.671875 540.40625 270.03125 542.738281 270.515625 C 545.066406 271.003906 547.492188 270.75 549.863281 270.496094 C 552.417969 270.21875 555.011719 269.9375 557.371094 268.914062 C 558.503906 268.425781 559.574219 267.730469 560.445312 266.871094 C 560.339844 266.746094 560.226562 266.628906 560.125 266.5 C 557.921875 263.804688 556.0625 261.007812 554.5 258.140625 C 546.761719 248 538.050781 238.644531 528.460938 230.25 C 525.867188 233.941406 523.539062 237.839844 522.832031 242.257812 C 521.957031 247.730469 524.496094 254.183594 529.789062 255.820312 Z M 593.496094 311.835938 C 582.46875 309.140625 578.445312 300.964844 580.464844 289.1875 C 584.117188 290.398438 587.828125 291.421875 591.59375 292.21875 C 592.144531 292.335938 592.378906 291.488281 591.824219 291.371094 C 587.390625 290.433594 583.023438 289.199219 578.75 287.683594 C 578.519531 287.601562 578.351562 287.714844 578.269531 287.882812 C 576.710938 287.207031 574.8125 285.859375 574.101562 283.183594 C 573.421875 280.628906 574.589844 278.578125 575.839844 277.203125 C 582.726562 279.660156 588.90625 279.9375 590.757812 279.960938 C 588.808594 281.199219 586.925781 282.535156 585.117188 283.976562 C 584.675781 284.328125 585.300781 284.945312 585.738281 284.597656 C 590.492188 280.8125 595.792969 277.699219 601.429688 275.414062 C 604.222656 274.28125 607.074219 273.351562 610.023438 272.726562 C 611.605469 272.386719 613.179688 271.988281 614.730469 271.53125 C 619.6875 270.082031 624.527344 268.101562 628.980469 265.476562 C 631.035156 264.261719 633.035156 262.898438 634.96875 261.441406 C 635.019531 261.421875 635.066406 261.390625 635.105469 261.34375 C 637.402344 259.605469 639.59375 257.730469 641.617188 255.738281 C 643.039062 254.339844 644.578125 252.808594 645.597656 251.066406 C 646.75 252.121094 650.636719 255.757812 650.636719 257.152344 C 650.636719 257.921875 650.289062 259.246094 649.921875 260.429688 C 649.722656 260.398438 649.503906 260.476562 649.433594 260.726562 C 648.511719 263.933594 646.113281 266.671875 643.03125 267.964844 C 642.515625 268.179688 642.742188 269.03125 643.261719 268.8125 C 645.917969 267.703125 648.09375 265.660156 649.402344 263.128906 C 650.589844 263.941406 654.742188 266.933594 655.898438 269.730469 C 657.09375 272.628906 657.617188 274.632812 655.632812 275.542969 C 655.582031 275.496094 655.523438 275.460938 655.433594 275.449219 C 648.511719 274.367188 641.65625 277.019531 636.164062 281.121094 C 630.429688 285.402344 625.992188 291.058594 621.328125 296.417969 C 618.609375 299.539062 615.78125 302.578125 612.566406 305.203125 C 612.335938 305.386719 612.398438 305.640625 612.566406 305.792969 C 610.4375 307.84375 602.957031 314.148438 593.496094 311.835938 Z M 630.625 276.476562 C 626.925781 278.105469 623.355469 280.011719 619.949219 282.191406 C 619.476562 282.492188 619.917969 283.253906 620.394531 282.949219 C 623.800781 280.769531 627.367188 278.863281 631.066406 277.234375 C 631.585938 277.007812 631.136719 276.25 630.625 276.476562 Z M 610.765625 285.992188 C 618.585938 278.941406 627.5625 273.230469 637.253906 269.125 C 637.773438 268.90625 637.328125 268.148438 636.8125 268.367188 C 627.046875 272.503906 618.019531 278.269531 610.144531 285.371094 C 609.722656 285.753906 610.347656 286.371094 610.765625 285.992188 Z M 664.234375 283.292969 C 656.394531 280.65625 647.496094 282.027344 640.816406 286.910156 C 640.359375 287.242188 639.921875 286.480469 640.375 286.152344 C 646.542969 281.644531 654.621094 280.066406 662.035156 281.769531 C 659.742188 278.507812 656.921875 276.847656 655.5625 276.191406 C 655.472656 276.269531 655.347656 276.316406 655.195312 276.292969 C 651.394531 275.699219 647.523438 276.332031 643.957031 277.71875 C 630.542969 282.929688 623.878906 297.082031 613.183594 305.820312 C 613.109375 305.878906 613.027344 305.90625 612.949219 305.914062 L 610.226562 314.273438 C 610.460938 313.863281 611.183594 314.089844 611.023438 314.59375 C 609.964844 317.945312 609.027344 321.339844 608.222656 324.761719 C 605.351562 336.984375 604.140625 349.570312 604.609375 362.113281 C 604.613281 362.191406 604.597656 362.257812 604.570312 362.3125 C 608.917969 364.390625 611.957031 363.070312 613.046875 362.417969 C 613.132812 357.910156 613.289062 353.40625 613.585938 348.90625 C 614.21875 339.34375 615.472656 329.78125 617.945312 320.507812 C 620.269531 311.789062 623.675781 303.328125 628.472656 295.664062 C 628.769531 295.1875 629.53125 295.628906 629.230469 296.109375 C 626.53125 300.417969 624.261719 304.984375 622.398438 309.714844 C 619.046875 318.230469 616.964844 327.203125 615.71875 336.253906 C 614.375 346.023438 613.992188 355.890625 613.867188 365.738281 C 613.863281 366.0625 613.574219 366.195312 613.328125 366.144531 C 613.34375 368.664062 613.496094 371.085938 613.496094 371.085938 C 615.5 372.449219 617.765625 372.976562 619.441406 373.171875 C 622.242188 357.1875 623.480469 340.984375 625.566406 324.902344 C 625.621094 324.492188 626.117188 324.386719 626.339844 324.585938 C 630.480469 305.367188 641.140625 293.199219 659.441406 289.824219 C 666.132812 288.589844 671.03125 290.179688 674.644531 293.210938 L 674.644531 293.207031 C 671.554688 287.191406 666.71875 284.394531 664.234375 283.292969 Z M 596.242188 276.835938 C 597.195312 276.351562 598.160156 275.894531 599.136719 275.457031 C 598.199219 275.855469 597.230469 276.316406 596.242188 276.835938 Z M 547.652344 229.191406 C 547.652344 229.191406 544.191406 224.292969 544.421875 219.625 C 544.597656 216.078125 547.894531 210.808594 549.472656 208.476562 C 549.660156 208.5625 549.902344 208.550781 550.054688 208.339844 C 555.121094 201.441406 562.023438 196.003906 569.890625 192.644531 C 570.410156 192.421875 569.964844 191.667969 569.449219 191.886719 C 561.921875 195.097656 555.324219 200.226562 550.277344 206.652344 C 550.269531 205.300781 550.554688 201.96875 553.210938 198.703125 C 555.875 195.425781 560.980469 191.734375 563.148438 190.230469 C 571.15625 186.160156 580.292969 184.46875 589.230469 185.371094 C 591.851562 185.632812 594.441406 186.136719 596.980469 186.84375 C 597.527344 186.996094 597.757812 186.148438 597.214844 185.996094 C 588.15625 183.46875 578.386719 183.710938 569.449219 186.640625 C 568.289062 187.023438 567.140625 187.453125 566.011719 187.925781 C 569.433594 185.167969 577.441406 179.753906 588.367188 178.71875 C 588.429688 178.84375 588.546875 178.929688 588.738281 178.910156 C 599.007812 177.707031 609.570312 180.578125 617.925781 186.644531 C 620.3125 188.375 622.492188 190.371094 624.4375 192.582031 C 624.8125 193.007812 625.433594 192.382812 625.058594 191.960938 C 618.125 184.089844 608.183594 179.101562 597.769531 177.984375 C 596.003906 177.796875 594.226562 177.738281 592.453125 177.785156 C 598.953125 176.019531 616.539062 172.792969 630.894531 184.273438 C 648.863281 198.652344 651.351562 218.835938 649.832031 228.789062 C 648.46875 237.695312 645.898438 248.238281 645.371094 250.359375 C 645.199219 250.308594 645.003906 250.347656 644.890625 250.550781 C 644.089844 251.941406 642.902344 253.164062 641.800781 254.308594 C 641.390625 254.734375 640.949219 255.128906 640.523438 255.542969 C 641.378906 253.800781 641.980469 251.949219 642.300781 250.035156 C 642.394531 249.480469 641.546875 249.242188 641.457031 249.800781 C 641.03125 252.339844 640.113281 254.761719 638.746094 256.941406 C 638.675781 257.058594 638.664062 257.171875 638.695312 257.273438 C 637.792969 258.078125 636.867188 258.863281 635.917969 259.617188 C 638.558594 253.585938 639.722656 246.972656 639.21875 240.398438 C 639.171875 239.835938 638.296875 239.832031 638.339844 240.398438 C 638.875 247.378906 637.542969 254.417969 634.464844 260.707031 C 632.929688 261.859375 631.359375 262.96875 629.753906 263.976562 C 628.503906 264.765625 627.214844 265.484375 625.902344 266.160156 C 630.199219 255.195312 630.882812 242.898438 627.9375 231.5 C 627.09375 228.222656 625.9375 225.03125 624.507812 221.964844 C 624.269531 221.453125 623.511719 221.898438 623.75 222.410156 C 628.792969 233.230469 630.132812 245.683594 627.648438 257.355469 C 626.964844 260.558594 625.992188 263.691406 624.75 266.71875 C 621.640625 268.238281 618.410156 269.507812 615.105469 270.507812 C 613.480469 270.996094 611.84375 271.433594 610.1875 271.792969 C 609.605469 271.921875 609.027344 272.0625 608.453125 272.207031 C 609.824219 269.269531 616.023438 255.199219 615.726562 240.972656 C 615.519531 231.113281 610.0625 220.148438 605.90625 213.1875 C 606.21875 213.230469 606.574219 212.902344 606.371094 212.539062 C 603.011719 206.539062 598.484375 201.234375 593.082031 196.984375 C 592.640625 196.640625 592.015625 197.253906 592.460938 197.605469 C 595.546875 200.035156 598.332031 202.808594 600.785156 205.859375 C 598.316406 204.71875 586.046875 199.632812 571.023438 203.273438 C 562.378906 205.367188 556.625 209.714844 553.054688 213.449219 C 552.902344 213.261719 552.632812 213.179688 552.425781 213.40625 C 549.792969 216.316406 547.613281 219.613281 545.980469 223.179688 C 545.746094 223.691406 546.503906 224.136719 546.738281 223.621094 C 547.171875 222.675781 547.652344 221.75 548.160156 220.84375 C 547.855469 223.617188 547.675781 226.40625 547.660156 229.199219 Z M 606.921875 194.929688 C 611.34375 198.757812 614.855469 203.570312 617.117188 208.972656 C 617.332031 209.484375 618.179688 209.261719 617.964844 208.738281 C 615.644531 203.195312 612.089844 198.242188 607.546875 194.308594 C 607.121094 193.9375 606.496094 194.558594 606.921875 194.929688 Z M 609.972656 315.050781 L 609.265625 317.214844 C 609.265625 317.214844 600.929688 335.574219 598.023438 341.386719 C 595.117188 347.199219 594.046875 352.476562 594.046875 352.476562 C 598.023438 356.609375 603.554688 357.480469 603.554688 357.480469 L 603.664062 358.328125 C 603.636719 356.027344 603.644531 353.726562 603.734375 351.429688 C 604.207031 339.097656 606.320312 326.839844 609.972656 315.050781 Z M 609.972656 315.050781 " fill-opacity="1" fill-rule="nonzero"/><path fill="#efa77e" d="M 219.226562 217.164062 C 219.074219 217.167969 218.921875 217.15625 218.769531 217.15625 C 230.78125 215.023438 238.417969 208.203125 241.710938 204.605469 C 240.1875 207.632812 237.886719 210.261719 235.128906 212.257812 C 230.515625 215.601562 224.875 217.070312 219.226562 217.164062 Z M 170.582031 230.972656 C 168.832031 219.648438 176.199219 210.714844 186.144531 213.847656 C 196.085938 216.976562 193.429688 230.390625 193.429688 230.390625 C 204.683594 225.375 204.824219 217.371094 204.824219 217.371094 C 208.011719 217.804688 211 217.902344 213.792969 217.742188 C 218.351562 218.285156 222.996094 218.136719 227.433594 216.894531 C 232.582031 215.457031 237.28125 212.476562 240.53125 208.199219 C 241.851562 206.460938 242.894531 204.523438 243.582031 202.460938 C 243.769531 212.945312 238.242188 223.085938 238.242188 223.085938 L 248.894531 228.199219 C 254.09375 224.300781 255.046875 211.128906 255.046875 211.128906 C 257.648438 217.539062 254.699219 229.0625 254.699219 229.0625 L 259.933594 231.117188 C 258.496094 238.285156 255.207031 249.425781 247.671875 261.605469 C 234.78125 282.453125 216.773438 276.652344 216.773438 276.652344 L 214.96875 281.148438 L 208.699219 296.789062 L 180.375 275.105469 L 181 272.601562 C 185.144531 272.996094 188.148438 272.410156 188.148438 272.410156 C 185.359375 267.714844 184.070312 261.160156 183.480469 255.652344 C 184.808594 261.332031 187.011719 266.792969 190.042969 271.800781 C 190.335938 272.285156 191.09375 271.84375 190.800781 271.355469 C 186.25 263.835938 183.5625 255.273438 182.996094 246.5 C 182.996094 245.644531 183.011719 245.152344 183.011719 245.152344 C 183.011719 245.152344 172.332031 242.296875 170.582031 230.972656 Z M 243.253906 230.199219 C 246.300781 230.800781 248.601562 233.25 249.042969 236.320312 C 249.078125 236.558594 249.375 236.683594 249.582031 236.628906 C 249.835938 236.5625 249.921875 236.324219 249.890625 236.089844 C 249.410156 232.742188 246.800781 230.007812 243.488281 229.351562 C 242.933594 229.242188 242.699219 230.085938 243.253906 230.199219 Z M 239.628906 239.910156 C 239.628906 241.496094 240.914062 242.785156 242.5 242.785156 C 244.085938 242.785156 245.371094 241.496094 245.371094 239.910156 C 245.371094 238.324219 244.085938 237.039062 242.5 237.039062 C 240.914062 237.039062 239.628906 238.324219 239.628906 239.910156 Z M 217.273438 231.59375 C 217.273438 230.007812 215.988281 228.722656 214.402344 228.722656 C 212.816406 228.722656 211.53125 230.007812 211.53125 231.59375 C 211.53125 233.179688 212.816406 234.464844 214.402344 234.464844 C 215.988281 234.464844 217.273438 233.179688 217.273438 231.59375 Z M 232.246094 245.3125 C 232.496094 245.820312 233.253906 245.375 233.003906 244.871094 C 230.933594 240.65625 230.707031 235.714844 232.328125 231.316406 C 232.523438 230.785156 231.671875 230.554688 231.480469 231.082031 C 229.777344 235.707031 230.074219 240.894531 232.246094 245.3125 Z M 218.535156 249.121094 C 218.441406 248.566406 217.597656 248.800781 217.6875 249.355469 C 218.128906 251.992188 219.941406 254.34375 222.402344 255.40625 C 224.984375 256.519531 228.082031 256.128906 230.335938 254.460938 C 230.785156 254.128906 230.347656 253.363281 229.894531 253.703125 C 227.863281 255.207031 225.089844 255.621094 222.742188 254.601562 C 220.507812 253.628906 218.933594 251.507812 218.535156 249.121094 Z M 211.109375 223.285156 C 213.339844 221.597656 216.335938 221.515625 218.648438 223.089844 C 219.117188 223.410156 219.558594 222.648438 219.09375 222.332031 C 216.550781 220.601562 213.125 220.667969 210.664062 222.527344 C 210.21875 222.863281 210.65625 223.625 211.109375 223.285156 Z M 181.625 220.921875 C 183.828125 220.804688 185.738281 222.289062 186.742188 224.160156 C 187.953125 226.421875 187.898438 229.140625 187.683594 231.625 C 187.636719 232.1875 188.515625 232.183594 188.5625 231.625 C 188.796875 228.878906 188.792969 225.875 187.335938 223.429688 C 186.152344 221.441406 184.011719 219.914062 181.625 220.042969 C 181.0625 220.070312 181.058594 220.949219 181.625 220.921875 Z M 291.230469 420.242188 C 286.363281 417.6875 280.15625 423.042969 270.542969 423.410156 C 260.929688 423.773438 253.019531 417.8125 253.019531 417.8125 C 266.890625 412.699219 267.5 404.179688 260.804688 403.328125 C 254.113281 402.476562 235.875 414.566406 235.875 414.566406 L 214.1875 401.199219 L 185.578125 383.5625 L 179.679688 355.5625 C 179.574219 355.609375 179.476562 355.664062 179.371094 355.710938 C 175.707031 357.433594 171.847656 358.738281 167.894531 359.617188 C 156.550781 362.136719 144.804688 360.578125 133.640625 357.828125 C 130.3125 357.003906 127.015625 356.023438 123.796875 354.84375 C 123.847656 355.742188 123.910156 356.679688 123.992188 357.671875 C 124.953125 369.285156 128.074219 386.980469 137.621094 404.097656 C 153.765625 433.050781 201.417969 446.167969 210.300781 447.628906 C 213.15625 448.097656 216.109375 448.617188 219 449.195312 C 222.453125 449.886719 225.808594 450.660156 228.792969 451.53125 C 231.082031 452.199219 233.160156 452.921875 234.882812 453.710938 C 240.726562 456.390625 252.164062 463.082031 262.265625 461.742188 C 269.539062 460.78125 273.011719 455.601562 274.398438 452.769531 C 274.640625 452.273438 274.820312 451.851562 274.941406 451.535156 C 270.804688 453.152344 266.242188 453.457031 261.835938 453.710938 C 261.269531 453.742188 261.273438 452.863281 261.835938 452.832031 C 266.824219 452.546875 272.023438 452.242188 276.539062 449.871094 C 280.328125 447.878906 283.414062 444.253906 283.574219 439.878906 C 278.496094 444.015625 271.648438 445.882812 265.144531 444.808594 C 264.589844 444.71875 264.828125 443.871094 265.378906 443.960938 C 270.78125 444.851562 276.339844 443.652344 280.933594 440.691406 C 284.703125 438.261719 287.804688 434.765625 289.074219 430.429688 C 283.058594 433.523438 276.230469 434.910156 269.476562 434.335938 C 268.917969 434.289062 268.914062 433.410156 269.476562 433.457031 C 276.816406 434.078125 284.226562 432.386719 290.558594 428.625 C 290.78125 428.496094 290.984375 428.582031 291.101562 428.738281 C 294.402344 426.507812 295.554688 422.515625 291.230469 420.242188 Z M 615.726562 240.972656 C 616.023438 255.195312 609.824219 269.269531 608.453125 272.203125 C 606.3125 272.738281 604.21875 273.390625 602.148438 274.191406 C 601.132812 274.582031 600.128906 275.011719 599.136719 275.457031 C 598.199219 275.855469 597.230469 276.316406 596.242188 276.835938 C 594.363281 277.789062 592.53125 278.828125 590.757812 279.960938 C 588.90625 279.9375 582.730469 279.660156 575.839844 277.203125 C 571.070312 275.5 565.96875 272.746094 561.730469 268.304688 C 561.292969 267.84375 560.863281 267.367188 560.445312 266.871094 C 560.339844 266.746094 560.226562 266.628906 560.125 266.5 C 557.921875 263.804688 556.0625 261.007812 554.5 258.140625 C 549.507812 248.992188 547.597656 239.097656 547.65625 229.195312 C 547.671875 226.40625 547.851562 223.617188 548.15625 220.839844 C 549.527344 218.398438 551.15625 216.105469 553.042969 214.023438 C 553.214844 213.835938 553.175781 213.605469 553.050781 213.449219 C 556.621094 209.710938 562.378906 205.367188 571.023438 203.269531 C 586.042969 199.628906 598.316406 204.71875 600.78125 205.855469 C 602.578125 208.089844 604.207031 210.464844 605.613281 212.976562 C 605.6875 213.109375 605.792969 213.171875 605.90625 213.1875 C 610.0625 220.148438 615.519531 231.109375 615.726562 240.972656 Z M 558.941406 230.289062 C 559.15625 230.1875 559.214844 229.882812 559.101562 229.6875 C 558.972656 229.46875 558.714844 229.429688 558.5 229.53125 C 556.613281 230.433594 555.007812 231.882812 553.898438 233.65625 C 553.597656 234.132812 554.355469 234.574219 554.65625 234.097656 C 555.691406 232.445312 557.1875 231.128906 558.941406 230.289062 Z M 564.523438 240.25 C 563.441406 239.390625 561.949219 239.105469 560.652344 239.636719 C 559.429688 240.136719 558.507812 241.285156 558.3125 242.597656 C 558.28125 242.832031 558.371094 243.070312 558.621094 243.136719 C 558.828125 243.195312 559.128906 243.066406 559.160156 242.828125 C 559.3125 241.804688 559.960938 240.890625 560.917969 240.472656 C 561.878906 240.054688 563.085938 240.21875 563.902344 240.871094 C 564.085938 241.019531 564.339844 241.050781 564.523438 240.871094 C 564.675781 240.71875 564.707031 240.398438 564.523438 240.25 Z M 572.425781 245.996094 C 574.136719 241.871094 574.40625 237.246094 573.203125 232.945312 C 573.054688 232.402344 572.203125 232.632812 572.355469 233.179688 C 573.519531 237.34375 573.234375 241.773438 571.578125 245.765625 C 571.359375 246.285156 572.210938 246.511719 572.425781 245.996094 Z M 585.296875 250.8125 C 585.335938 250.25 584.460938 250.253906 584.417969 250.8125 C 584.242188 253.175781 582.339844 255.300781 579.980469 255.660156 C 577.667969 256.007812 575.324219 254.632812 574.371094 252.535156 C 574.136719 252.023438 573.378906 252.46875 573.609375 252.980469 C 574.738281 255.445312 577.554688 256.949219 580.230469 256.503906 C 582.980469 256.042969 585.09375 253.550781 585.296875 250.8125 Z M 586.1875 222.425781 C 588.367188 221.367188 591.132812 221.820312 592.878906 223.492188 C 593.285156 223.882812 593.90625 223.261719 593.5 222.871094 C 591.453125 220.914062 588.285156 220.433594 585.742188 221.667969 C 585.234375 221.914062 585.679688 222.667969 586.1875 222.425781 Z M 593.671875 233.113281 C 592.660156 231.796875 591.023438 231.101562 589.371094 231.371094 C 587.8125 231.625 586.519531 232.789062 585.972656 234.246094 C 585.773438 234.773438 586.621094 235.003906 586.816406 234.476562 C 587.25 233.328125 588.300781 232.464844 589.507812 232.234375 C 590.757812 231.996094 592.140625 232.550781 592.914062 233.554688 C 593.058594 233.742188 593.289062 233.839844 593.515625 233.710938 C 593.699219 233.605469 593.816406 233.300781 593.671875 233.113281 Z M 579.65625 433.328125 C 579.277344 432.101562 578.882812 430.933594 578.488281 429.832031 C 578.902344 430.988281 579.28125 432.15625 579.65625 433.328125 Z M 578.367188 429.503906 C 578.011719 428.527344 577.65625 427.605469 577.296875 426.734375 C 577.660156 427.652344 578.03125 428.574219 578.367188 429.503906 Z M 571.46875 416.21875 C 567.980469 415.261719 562.9375 413.820312 560.351562 412.800781 C 556.160156 411.148438 545.316406 407.132812 542.925781 410.484375 C 540.535156 413.832031 544.839844 417.738281 552.8125 421.644531 C 552.8125 421.644531 547.839844 425.972656 538.230469 425.824219 C 528.675781 425.675781 519.195312 421.078125 515.824219 423.207031 C 515.804688 423.21875 515.78125 423.226562 515.761719 423.234375 C 515.527344 423.390625 515.328125 423.5625 515.140625 423.738281 C 514.890625 423.976562 514.683594 424.234375 514.515625 424.503906 C 513.011719 426.878906 514.488281 430.292969 516.648438 431.957031 C 516.648438 431.957031 517.09375 438.019531 521.527344 441.566406 C 521.527344 441.566406 521.515625 441.621094 521.503906 441.699219 C 521.691406 441.671875 521.882812 441.753906 521.921875 442.003906 C 522.570312 446.253906 523.859375 450.828125 528.277344 452.511719 C 532.386719 454.074219 537.332031 453.8125 541.515625 452.722656 C 542.0625 452.582031 542.292969 453.425781 541.746094 453.570312 C 539.34375 454.195312 536.855469 454.496094 534.371094 454.429688 C 532.117188 454.363281 529.765625 454.078125 527.667969 453.207031 C 527.816406 453.320312 527.949219 453.429688 528.105469 453.539062 C 528.105469 453.539062 527.726562 459.769531 537.589844 463.195312 C 547.453125 466.617188 563.683594 460.726562 571.523438 457.851562 C 572.53125 457.484375 573.523438 457.101562 574.492188 456.710938 C 574.496094 456.710938 574.496094 456.710938 574.5 456.710938 C 575.636719 456.257812 576.738281 455.796875 577.785156 455.347656 C 579.777344 454.492188 581.566406 453.667969 582.996094 452.992188 C 582.957031 452.648438 582.9375 452.296875 582.890625 451.949219 C 581.324219 439.46875 577.417969 427.300781 571.46875 416.21875 Z M 571.46875 416.21875 " fill-opacity="1" fill-rule="nonzero"/><path fill="#353535" d="M 562.09375 189.769531 C 563.371094 189.09375 564.679688 188.484375 566.011719 187.929688 C 567.140625 187.457031 568.285156 187.023438 569.449219 186.640625 C 578.382812 183.714844 588.15625 183.46875 597.210938 185.996094 C 597.757812 186.148438 597.523438 186.996094 596.980469 186.84375 C 594.441406 186.136719 591.851562 185.636719 589.230469 185.371094 C 580.289062 184.46875 571.152344 186.160156 563.148438 190.234375 C 562.945312 190.335938 562.734375 190.421875 562.535156 190.527344 C 562.035156 190.789062 561.589844 190.03125 562.09375 189.769531 Z M 585.742188 221.667969 C 585.234375 221.914062 585.679688 222.667969 586.1875 222.425781 C 588.367188 221.367188 591.132812 221.820312 592.878906 223.492188 C 593.285156 223.882812 593.90625 223.261719 593.5 222.871094 C 591.453125 220.914062 588.285156 220.433594 585.742188 221.667969 Z M 588.734375 178.910156 C 599.007812 177.707031 609.566406 180.578125 617.925781 186.644531 C 620.308594 188.375 622.488281 190.371094 624.433594 192.578125 C 624.808594 193.003906 625.429688 192.382812 625.054688 191.960938 C 618.121094 184.085938 608.179688 179.101562 597.769531 177.984375 C 596 177.796875 594.222656 177.738281 592.449219 177.78125 C 591.207031 177.8125 589.96875 177.886719 588.734375 178.03125 C 588.367188 178.074219 588.246094 178.472656 588.367188 178.71875 C 588.425781 178.84375 588.546875 178.929688 588.734375 178.910156 Z M 617.117188 208.972656 C 617.332031 209.484375 618.179688 209.261719 617.964844 208.738281 C 615.644531 203.195312 612.089844 198.242188 607.546875 194.308594 C 607.121094 193.9375 606.496094 194.558594 606.925781 194.929688 C 611.347656 198.757812 614.859375 203.570312 617.117188 208.972656 Z M 600.78125 205.855469 C 602.578125 208.089844 604.207031 210.464844 605.613281 212.976562 C 605.6875 213.109375 605.792969 213.171875 605.90625 213.1875 C 606.21875 213.230469 606.574219 212.898438 606.371094 212.535156 C 603.011719 206.535156 598.484375 201.234375 593.078125 196.980469 C 592.640625 196.636719 592.015625 197.253906 592.457031 197.601562 C 595.546875 200.03125 598.328125 202.808594 600.78125 205.855469 Z M 589.371094 231.371094 C 587.8125 231.625 586.519531 232.789062 585.972656 234.246094 C 585.773438 234.773438 586.621094 235.003906 586.816406 234.476562 C 587.25 233.328125 588.300781 232.464844 589.507812 232.234375 C 590.757812 231.996094 592.140625 232.550781 592.914062 233.554688 C 593.058594 233.742188 593.289062 233.839844 593.515625 233.710938 C 593.699219 233.605469 593.816406 233.300781 593.671875 233.113281 C 592.660156 231.796875 591.023438 231.101562 589.371094 231.371094 Z M 370.953125 281.222656 C 371.988281 279.796875 372.113281 278.03125 372.316406 276.339844 C 372.5 274.828125 372.894531 272.867188 374.371094 272.078125 C 376.140625 271.136719 378.15625 272.375 379.597656 273.367188 C 381.054688 274.371094 382.539062 275.410156 384.375 275.460938 C 384.941406 275.472656 384.9375 274.597656 384.375 274.582031 C 382.234375 274.523438 380.671875 272.886719 378.914062 271.878906 C 377.425781 271.027344 375.542969 270.433594 373.929688 271.320312 C 370.515625 273.199219 372.179688 278.035156 370.191406 280.777344 C 369.863281 281.238281 370.621094 281.675781 370.953125 281.222656 Z M 623.75 222.40625 C 628.792969 233.226562 630.132812 245.683594 627.648438 257.351562 C 626.964844 260.554688 625.992188 263.6875 624.75 266.71875 C 621.640625 268.238281 618.410156 269.507812 615.105469 270.503906 C 613.480469 270.996094 611.84375 271.429688 610.1875 271.792969 C 609.605469 271.921875 609.027344 272.058594 608.453125 272.203125 C 606.3125 272.738281 604.222656 273.390625 602.152344 274.191406 C 601.132812 274.582031 600.132812 275.011719 599.136719 275.457031 C 598.160156 275.894531 597.195312 276.351562 596.246094 276.835938 C 594.367188 277.789062 592.535156 278.828125 590.757812 279.960938 C 588.8125 281.199219 586.925781 282.535156 585.117188 283.976562 C 584.675781 284.328125 585.300781 284.945312 585.738281 284.597656 C 590.496094 280.8125 595.796875 277.699219 601.429688 275.414062 C 604.222656 274.28125 607.074219 273.351562 610.023438 272.726562 C 611.609375 272.386719 613.179688 271.988281 614.734375 271.53125 C 619.691406 270.082031 624.527344 268.101562 628.980469 265.476562 C 631.039062 264.261719 633.039062 262.898438 634.972656 261.441406 C 635.023438 261.421875 635.066406 261.390625 635.109375 261.34375 C 637.402344 259.605469 639.59375 257.730469 641.617188 255.738281 C 643.039062 254.339844 644.578125 252.808594 645.597656 251.066406 C 645.613281 251.039062 645.632812 251.015625 645.648438 250.992188 C 645.816406 250.703125 645.621094 250.433594 645.371094 250.359375 C 645.203125 250.308594 645.007812 250.347656 644.890625 250.546875 C 644.09375 251.941406 642.90625 253.164062 641.800781 254.308594 C 641.390625 254.730469 640.949219 255.128906 640.527344 255.539062 C 641.378906 253.800781 641.984375 251.945312 642.304688 250.03125 C 642.394531 249.480469 641.550781 249.242188 641.457031 249.800781 C 641.03125 252.339844 640.117188 254.761719 638.75 256.941406 C 638.675781 257.058594 638.667969 257.171875 638.695312 257.269531 C 637.792969 258.074219 636.867188 258.859375 635.917969 259.613281 C 638.5625 253.585938 639.722656 246.972656 639.21875 240.394531 C 639.175781 239.835938 638.296875 239.832031 638.339844 240.394531 C 638.878906 247.375 637.542969 254.414062 634.46875 260.703125 C 632.929688 261.855469 631.363281 262.964844 629.753906 263.976562 C 628.503906 264.761719 627.214844 265.480469 625.90625 266.160156 C 630.199219 255.191406 630.882812 242.898438 627.9375 231.496094 C 627.09375 228.21875 625.9375 225.03125 624.507812 221.964844 C 624.269531 221.453125 623.511719 221.898438 623.75 222.40625 Z M 392.199219 352.171875 C 393.234375 350.746094 393.359375 348.984375 393.566406 347.292969 C 393.75 345.777344 394.140625 343.820312 395.621094 343.03125 C 397.386719 342.089844 399.40625 343.324219 400.847656 344.320312 C 402.304688 345.324219 403.789062 346.363281 405.621094 346.414062 C 406.1875 346.425781 406.1875 345.550781 405.621094 345.535156 C 403.480469 345.476562 401.917969 343.839844 400.164062 342.832031 C 398.675781 341.980469 396.789062 341.382812 395.175781 342.273438 C 391.761719 344.152344 393.429688 348.992188 391.441406 351.730469 C 391.109375 352.1875 391.871094 352.628906 392.199219 352.171875 Z M 549.472656 208.476562 C 549.65625 208.5625 549.902344 208.546875 550.054688 208.339844 C 555.121094 201.441406 562.023438 196 569.890625 192.644531 C 570.410156 192.421875 569.964844 191.664062 569.449219 191.886719 C 561.921875 195.097656 555.324219 200.226562 550.277344 206.648438 C 549.949219 207.066406 549.609375 207.46875 549.296875 207.894531 C 549.117188 208.140625 549.253906 208.378906 549.472656 208.476562 Z M 643.382812 433.101562 C 634.785156 439.015625 625.777344 444.328125 616.4375 448.988281 C 607.058594 453.667969 597.347656 457.6875 587.398438 460.996094 C 586.445312 461.3125 585.484375 461.621094 584.523438 461.925781 C 584.246094 452.222656 582.601562 442.574219 579.65625 433.328125 C 579.28125 432.160156 578.902344 430.992188 578.488281 429.835938 C 578.445312 429.726562 578.410156 429.613281 578.367188 429.503906 C 578.03125 428.574219 577.660156 427.65625 577.296875 426.734375 C 577.089844 426.210938 576.902344 425.679688 576.6875 425.160156 C 575.378906 422.007812 573.910156 418.933594 572.304688 415.925781 C 583.957031 408.890625 595.609375 401.855469 607.261719 394.820312 C 610.503906 392.859375 613.746094 390.902344 616.988281 388.941406 C 618.609375 389.328125 619.695312 390.707031 620.660156 391.96875 C 620.800781 392.160156 621.039062 392.257812 621.257812 392.128906 C 621.445312 392.019531 621.5625 391.71875 621.417969 391.527344 C 620.335938 390.105469 619.113281 388.578125 617.304688 388.117188 C 617.273438 388.082031 617.238281 388.054688 617.195312 388.03125 C 621.261719 371.941406 622.949219 355.390625 624.78125 338.929688 C 625.304688 334.25 625.839844 329.574219 626.445312 324.90625 C 626.460938 324.761719 626.417969 324.65625 626.339844 324.589844 C 626.117188 324.390625 625.621094 324.496094 625.566406 324.90625 C 623.480469 340.988281 622.242188 357.191406 619.441406 373.175781 C 619.355469 373.65625 619.285156 374.136719 619.199219 374.617188 C 618.359375 379.238281 617.378906 383.832031 616.210938 388.378906 C 616.210938 388.382812 616.210938 388.382812 616.210938 388.382812 C 607.859375 393.425781 599.507812 398.46875 591.160156 403.511719 C 587.902344 405.480469 584.648438 407.445312 581.394531 409.410156 C 578.1875 411.34375 574.984375 413.28125 571.78125 415.214844 C 571.519531 415.15625 571.207031 415.386719 571.230469 415.683594 C 571.179688 415.882812 571.285156 416.097656 571.457031 416.195312 C 571.460938 416.203125 571.464844 416.210938 571.46875 416.21875 C 577.414062 427.300781 581.320312 439.46875 582.890625 451.949219 C 582.9375 452.296875 582.957031 452.644531 582.996094 452.992188 C 581.566406 453.667969 579.777344 454.488281 577.785156 455.347656 C 580.621094 460.207031 583.136719 461.75 583.644531 462.023438 C 583.644531 462.085938 583.652344 462.144531 583.652344 462.207031 C 583.144531 462.390625 583.371094 463.210938 583.90625 463.042969 C 583.949219 463.027344 583.988281 463.015625 584.03125 463 C 584.191406 463.03125 584.355469 462.980469 584.457031 462.859375 C 587.335938 461.945312 590.191406 460.964844 593.03125 459.933594 C 599.898438 457.453125 606.652344 454.65625 613.242188 451.515625 C 622.78125 446.96875 631.996094 441.75 640.796875 435.902344 C 647.875 431.195312 655.003906 426.167969 661.054688 420.121094 C 662.527344 418.648438 663.949219 417.136719 665.273438 415.535156 C 671.667969 407.792969 676.117188 398.628906 679.242188 389.136719 C 680.625 384.945312 681.742188 380.683594 682.699219 376.382812 C 683.878906 371.082031 684.8125 365.722656 685.648438 360.359375 C 685.871094 358.9375 686.089844 357.515625 686.300781 356.09375 C 686.507812 354.699219 686.714844 353.308594 686.921875 351.914062 C 686.964844 351.605469 686.722656 351.402344 686.484375 351.375 C 686.296875 351.351562 686.109375 351.433594 686.074219 351.683594 C 684.433594 362.808594 682.785156 373.984375 679.660156 384.8125 C 676.867188 394.484375 672.84375 403.902344 666.875 412.054688 C 660.601562 420.640625 652.0625 427.121094 643.382812 433.101562 Z M 559.101562 229.6875 C 558.972656 229.46875 558.714844 229.429688 558.5 229.53125 C 556.613281 230.433594 555.007812 231.882812 553.898438 233.65625 C 553.597656 234.132812 554.355469 234.574219 554.65625 234.097656 C 555.691406 232.445312 557.1875 231.128906 558.941406 230.289062 C 559.15625 230.1875 559.214844 229.882812 559.101562 229.6875 Z M 558.621094 243.136719 C 558.828125 243.195312 559.128906 243.066406 559.164062 242.828125 C 559.316406 241.804688 559.960938 240.890625 560.921875 240.472656 C 561.878906 240.054688 563.085938 240.21875 563.902344 240.871094 C 564.085938 241.019531 564.34375 241.050781 564.523438 240.871094 C 564.675781 240.71875 564.710938 240.398438 564.523438 240.25 C 563.445312 239.390625 561.949219 239.105469 560.652344 239.636719 C 559.433594 240.136719 558.511719 241.285156 558.316406 242.597656 C 558.28125 242.832031 558.375 243.070312 558.621094 243.136719 Z M 572.425781 245.996094 C 574.136719 241.871094 574.40625 237.246094 573.203125 232.945312 C 573.054688 232.402344 572.203125 232.632812 572.355469 233.179688 C 573.519531 237.34375 573.234375 241.773438 571.578125 245.765625 C 571.359375 246.285156 572.210938 246.511719 572.425781 245.996094 Z M 584.417969 250.8125 C 584.242188 253.175781 582.339844 255.300781 579.980469 255.660156 C 577.667969 256.007812 575.328125 254.632812 574.371094 252.535156 C 574.136719 252.023438 573.378906 252.46875 573.613281 252.980469 C 574.738281 255.445312 577.554688 256.949219 580.230469 256.503906 C 582.980469 256.042969 585.09375 253.554688 585.296875 250.8125 C 585.335938 250.25 584.457031 250.253906 584.417969 250.8125 Z M 131.988281 227.84375 C 135.429688 226.316406 138.726562 224.476562 141.835938 222.355469 C 148.042969 218.121094 153.472656 212.769531 157.832031 206.65625 C 166 190.425781 174.148438 169.644531 197.15625 162.515625 C 221.140625 155.082031 257.363281 174.082031 266.113281 196.503906 C 267.082031 198.019531 267.953125 199.589844 268.6875 201.234375 C 272.933594 210.757812 273.167969 221.9375 269.046875 231.539062 C 268.820312 232.058594 268.066406 231.609375 268.289062 231.097656 C 269.414062 228.46875 270.210938 225.703125 270.671875 222.878906 C 271.898438 215.375 270.746094 207.480469 267.4375 200.636719 C 273.585938 222.902344 266.941406 233.875 266.941406 233.875 L 259.933594 231.121094 L 254.699219 229.066406 C 254.699219 229.066406 257.648438 217.542969 255.046875 211.132812 C 255.046875 211.132812 254.09375 224.300781 248.894531 228.199219 L 238.242188 223.089844 C 238.242188 223.089844 243.769531 212.949219 243.582031 202.460938 C 242.894531 204.527344 241.851562 206.464844 240.53125 208.203125 C 237.28125 212.480469 232.582031 215.457031 227.433594 216.898438 C 223 218.136719 218.351562 218.289062 213.792969 217.746094 C 211 217.90625 208.011719 217.808594 204.824219 217.375 C 204.824219 217.375 204.6875 225.375 193.429688 230.394531 C 193.429688 230.394531 196.085938 216.980469 186.144531 213.847656 C 176.199219 210.71875 168.832031 219.648438 170.582031 230.976562 C 172.332031 242.300781 183.011719 245.15625 183.011719 245.15625 C 183.011719 245.15625 182.996094 245.648438 182.996094 246.503906 C 183.5625 255.277344 186.25 263.835938 190.800781 271.359375 C 191.09375 271.84375 190.335938 272.285156 190.042969 271.800781 C 187.011719 266.796875 184.808594 261.332031 183.480469 255.65625 C 184.070312 261.164062 185.359375 267.71875 188.148438 272.414062 C 188.148438 272.414062 185.144531 273 181 272.605469 C 177.511719 272.273438 173.207031 271.253906 169.179688 268.582031 C 169.179688 268.582031 164.386719 256.316406 166.304688 243.578125 C 166.304688 243.578125 163.140625 255.074219 164.292969 262.164062 C 164.292969 262.164062 153.273438 258.90625 150.019531 254.976562 C 150.019531 254.976562 149.15625 250.667969 150.019531 247.027344 C 150.019531 247.027344 138.136719 243.386719 134.6875 231.21875 C 134.6875 231.21875 146.609375 227.148438 155.492188 211.109375 C 149.246094 218.574219 141.339844 224.644531 132.433594 228.605469 C 131.917969 228.832031 131.472656 228.074219 131.988281 227.84375 Z M 218.769531 217.15625 C 218.921875 217.15625 219.074219 217.167969 219.226562 217.164062 C 224.875 217.070312 230.515625 215.597656 235.128906 212.257812 C 237.886719 210.261719 240.1875 207.632812 241.710938 204.605469 C 238.417969 208.203125 230.78125 215.027344 218.769531 217.15625 Z M 578.273438 287.882812 C 578.164062 288.105469 578.214844 288.421875 578.515625 288.527344 C 578.894531 288.664062 579.28125 288.785156 579.660156 288.914062 C 579.929688 289.007812 580.199219 289.09375 580.464844 289.183594 C 584.117188 290.398438 587.828125 291.417969 591.59375 292.21875 C 592.144531 292.335938 592.378906 291.488281 591.824219 291.371094 C 587.390625 290.429688 583.023438 289.199219 578.75 287.683594 C 578.519531 287.601562 578.351562 287.714844 578.273438 287.882812 Z M 638.488281 516.378906 C 638.011719 527.304688 636.917969 538.199219 635.191406 549.003906 C 633.476562 559.75 631.152344 570.398438 628.226562 580.878906 C 626.582031 586.769531 624.75 592.601562 622.734375 598.375 C 622.546875 598.910156 623.394531 599.140625 623.582031 598.609375 C 627.183594 588.289062 630.199219 577.769531 632.601562 567.105469 C 635.003906 556.449219 636.796875 545.660156 637.972656 534.800781 C 638.636719 528.675781 639.097656 522.53125 639.367188 516.378906 C 639.390625 515.8125 638.515625 515.8125 638.488281 516.378906 Z M 552.789062 633.210938 C 549.15625 637.0625 550.398438 643.730469 550.398438 643.730469 C 570.917969 648.269531 641.6875 646.90625 641.6875 646.90625 C 642.734375 643.460938 643.503906 637.871094 644.046875 632.386719 C 611.398438 630.683594 584.578125 623.449219 572.574219 619.703125 C 570.722656 620.816406 556.1875 629.609375 552.789062 633.210938 Z M 643.035156 533.082031 C 642.375 537.371094 641.71875 541.65625 641.058594 545.945312 C 640.972656 546.496094 641.820312 546.734375 641.90625 546.175781 C 642.5625 541.890625 643.222656 537.601562 643.882812 533.316406 C 643.96875 532.761719 643.121094 532.527344 643.035156 533.082031 Z M 603.734375 351.429688 C 603.644531 353.730469 603.636719 356.03125 603.660156 358.328125 C 603.675781 359.589844 603.6875 360.855469 603.730469 362.117188 C 603.75 362.605469 604.40625 362.671875 604.570312 362.316406 C 604.597656 362.257812 604.613281 362.195312 604.609375 362.117188 C 604.140625 349.574219 605.351562 336.984375 608.222656 324.765625 C 609.027344 321.339844 609.964844 317.949219 611.023438 314.597656 C 611.183594 314.089844 610.460938 313.863281 610.226562 314.273438 C 610.207031 314.304688 610.1875 314.328125 610.175781 314.363281 C 610.105469 314.589844 610.042969 314.824219 609.972656 315.054688 C 606.320312 326.839844 604.207031 339.097656 603.734375 351.429688 Z M 640.816406 286.910156 C 647.496094 282.03125 656.394531 280.65625 664.234375 283.296875 C 664.28125 283.3125 664.328125 283.324219 664.375 283.339844 C 664.910156 283.523438 665.140625 282.671875 664.605469 282.492188 C 663.761719 282.203125 662.902344 281.96875 662.035156 281.769531 C 654.621094 280.066406 646.542969 281.648438 640.375 286.152344 C 639.921875 286.480469 640.359375 287.242188 640.816406 286.910156 Z M 621.328125 296.414062 C 618.605469 299.539062 615.777344 302.574219 612.5625 305.199219 C 612.335938 305.386719 612.398438 305.640625 612.566406 305.792969 C 612.667969 305.886719 612.804688 305.9375 612.949219 305.917969 C 613.027344 305.90625 613.109375 305.882812 613.183594 305.820312 C 623.878906 297.085938 630.542969 282.929688 643.957031 277.71875 C 647.523438 276.332031 651.394531 275.699219 655.195312 276.296875 C 655.347656 276.320312 655.46875 276.269531 655.5625 276.191406 C 655.761719 276.023438 655.8125 275.707031 655.628906 275.542969 C 655.578125 275.496094 655.515625 275.460938 655.429688 275.449219 C 648.507812 274.367188 641.652344 277.019531 636.160156 281.121094 C 630.429688 285.398438 625.992188 291.058594 621.328125 296.414062 Z M 613.867188 365.742188 C 613.988281 355.894531 614.375 346.023438 615.71875 336.257812 C 616.964844 327.203125 619.042969 318.230469 622.398438 309.71875 C 624.261719 304.988281 626.535156 300.421875 629.230469 296.113281 C 629.53125 295.628906 628.769531 295.1875 628.472656 295.667969 C 623.675781 303.332031 620.269531 311.792969 617.945312 320.511719 C 615.472656 329.785156 614.21875 339.34375 613.585938 348.910156 C 613.289062 353.410156 613.132812 357.914062 613.046875 362.421875 C 613.027344 363.527344 613.003906 364.632812 612.992188 365.742188 C 612.988281 365.980469 613.148438 366.113281 613.332031 366.148438 C 613.574219 366.195312 613.863281 366.066406 613.867188 365.742188 Z M 630.625 276.476562 C 626.925781 278.105469 623.355469 280.011719 619.949219 282.191406 C 619.476562 282.492188 619.917969 283.253906 620.394531 282.949219 C 623.800781 280.769531 627.367188 278.863281 631.066406 277.234375 C 631.585938 277.007812 631.136719 276.25 630.625 276.476562 Z M 643.261719 268.8125 C 645.914062 267.703125 648.089844 265.660156 649.398438 263.128906 C 649.757812 262.4375 650.0625 261.714844 650.28125 260.957031 C 650.363281 260.664062 650.15625 260.46875 649.921875 260.429688 C 649.722656 260.394531 649.503906 260.476562 649.433594 260.722656 C 648.511719 263.933594 646.113281 266.671875 643.027344 267.964844 C 642.511719 268.179688 642.738281 269.03125 643.261719 268.8125 Z M 636.8125 268.367188 C 627.046875 272.503906 618.019531 278.269531 610.144531 285.371094 C 609.722656 285.75 610.347656 286.371094 610.765625 285.992188 C 618.585938 278.941406 627.5625 273.230469 637.253906 269.125 C 637.773438 268.90625 637.328125 268.148438 636.8125 268.367188 Z M 409.75 400.457031 C 407.609375 400.398438 406.046875 398.761719 404.292969 397.757812 C 402.800781 396.902344 400.917969 396.308594 399.304688 397.195312 C 395.890625 399.074219 397.558594 403.914062 395.566406 406.652344 C 395.238281 407.109375 395.996094 407.546875 396.324219 407.09375 C 397.359375 405.667969 397.488281 403.90625 397.691406 402.214844 C 397.875 400.699219 398.269531 398.742188 399.746094 397.953125 C 401.515625 397.011719 403.53125 398.246094 404.972656 399.242188 C 406.429688 400.246094 407.914062 401.285156 409.746094 401.332031 C 410.316406 401.351562 410.3125 400.472656 409.75 400.457031 Z M 400.847656 364.609375 C 402.304688 365.613281 403.789062 366.652344 405.621094 366.703125 C 406.1875 366.714844 406.1875 365.839844 405.621094 365.824219 C 403.480469 365.765625 401.917969 364.128906 400.164062 363.121094 C 398.675781 362.265625 396.789062 361.675781 395.175781 362.5625 C 391.761719 364.441406 393.429688 369.277344 391.441406 372.019531 C 391.109375 372.476562 391.871094 372.914062 392.199219 372.460938 C 393.234375 371.035156 393.359375 369.273438 393.566406 367.578125 C 393.75 366.066406 394.140625 364.109375 395.621094 363.320312 C 397.386719 362.378906 399.402344 363.613281 400.847656 364.609375 Z M 381.496094 356.730469 C 382.953125 357.734375 384.4375 358.773438 386.269531 358.824219 C 386.835938 358.835938 386.835938 357.960938 386.269531 357.945312 C 384.128906 357.886719 382.566406 356.25 380.8125 355.242188 C 379.324219 354.390625 377.4375 353.796875 375.824219 354.683594 C 372.410156 356.5625 374.078125 361.402344 372.089844 364.140625 C 371.757812 364.597656 372.519531 365.035156 372.847656 364.582031 C 373.882812 363.15625 374.007812 361.394531 374.210938 359.703125 C 374.394531 358.1875 374.789062 356.230469 376.269531 355.441406 C 378.035156 354.5 380.050781 355.734375 381.496094 356.730469 Z M 391.273438 395.613281 C 389.132812 395.554688 387.570312 393.917969 385.816406 392.914062 C 384.328125 392.058594 382.445312 391.464844 380.832031 392.351562 C 377.414062 394.230469 379.082031 399.070312 377.09375 401.808594 C 376.761719 402.265625 377.523438 402.703125 377.851562 402.25 C 378.886719 400.824219 379.011719 399.0625 379.21875 397.371094 C 379.402344 395.855469 379.792969 393.898438 381.273438 393.109375 C 383.039062 392.167969 385.054688 393.402344 386.5 394.398438 C 387.957031 395.402344 389.441406 396.441406 391.273438 396.488281 C 391.839844 396.507812 391.839844 395.628906 391.273438 395.613281 Z M 374.410156 287.949219 C 372.265625 287.894531 370.703125 286.257812 368.953125 285.25 C 367.460938 284.394531 365.578125 283.800781 363.964844 284.691406 C 360.550781 286.570312 362.21875 291.40625 360.230469 294.144531 C 359.898438 294.605469 360.65625 295.042969 360.988281 294.589844 C 362.023438 293.164062 362.148438 291.398438 362.351562 289.707031 C 362.535156 288.191406 362.929688 286.234375 364.410156 285.449219 C 366.175781 284.503906 368.191406 285.742188 369.636719 286.734375 C 371.09375 287.742188 372.574219 288.78125 374.410156 288.828125 C 374.972656 288.84375 374.972656 287.964844 374.410156 287.949219 Z M 367.507812 356.101562 C 365.367188 356.042969 363.800781 354.40625 362.050781 353.398438 C 360.558594 352.546875 358.675781 351.953125 357.0625 352.839844 C 353.648438 354.71875 355.316406 359.558594 353.324219 362.296875 C 352.992188 362.753906 353.753906 363.191406 354.082031 362.738281 C 355.117188 361.3125 355.242188 359.550781 355.449219 357.855469 C 355.632812 356.34375 356.027344 354.386719 357.503906 353.597656 C 359.273438 352.652344 361.289062 353.890625 362.730469 354.886719 C 364.1875 355.886719 365.671875 356.929688 367.503906 356.976562 C 368.074219 356.996094 368.074219 356.117188 367.507812 356.101562 Z M 474.976562 394.03125 C 475.542969 394.046875 475.542969 393.167969 474.976562 393.152344 C 472.835938 393.097656 471.273438 391.460938 469.519531 390.453125 C 468.027344 389.597656 466.144531 389.003906 464.53125 389.890625 C 461.117188 391.773438 462.785156 396.609375 460.796875 399.347656 C 460.460938 399.808594 461.226562 400.246094 461.554688 399.792969 C 462.589844 398.367188 462.714844 396.601562 462.917969 394.910156 C 463.101562 393.398438 463.496094 391.441406 464.976562 390.652344 C 466.742188 389.707031 468.757812 390.945312 470.203125 391.9375 C 471.660156 392.945312 473.140625 393.984375 474.976562 394.03125 Z M 541.515625 452.722656 C 537.332031 453.8125 532.382812 454.074219 528.277344 452.511719 C 523.859375 450.828125 522.570312 446.253906 521.921875 442.003906 C 521.882812 441.757812 521.691406 441.671875 521.503906 441.699219 C 521.265625 441.726562 521.027344 441.929688 521.074219 442.238281 C 521.753906 446.660156 523.167969 451.320312 527.648438 453.199219 C 527.65625 453.199219 527.664062 453.203125 527.671875 453.207031 C 529.765625 454.078125 532.121094 454.363281 534.371094 454.425781 C 536.859375 454.496094 539.34375 454.195312 541.75 453.570312 C 542.292969 453.425781 542.0625 452.582031 541.515625 452.722656 Z M 514.183594 422.582031 C 514.488281 422.980469 514.808594 423.363281 515.140625 423.738281 C 515.328125 423.5625 515.527344 423.390625 515.761719 423.234375 C 515.78125 423.222656 515.804688 423.21875 515.824219 423.207031 C 515.515625 422.863281 515.222656 422.507812 514.941406 422.140625 C 514.605469 421.699219 513.839844 422.132812 514.183594 422.582031 Z M 461.175781 407.066406 C 459.03125 407.007812 457.46875 405.371094 455.71875 404.363281 C 454.226562 403.511719 452.34375 402.914062 450.730469 403.804688 C 447.316406 405.683594 448.984375 410.523438 446.992188 413.261719 C 446.664062 413.71875 447.421875 414.15625 447.753906 413.703125 C 448.785156 412.277344 448.914062 410.511719 449.117188 408.820312 C 449.300781 407.308594 449.695312 405.351562 451.175781 404.5625 C 452.941406 403.617188 454.957031 404.855469 456.402344 405.851562 C 457.859375 406.855469 459.339844 407.894531 461.175781 407.941406 C 461.738281 407.957031 461.738281 407.082031 461.175781 407.066406 Z M 553.050781 213.449219 C 552.902344 213.261719 552.628906 213.175781 552.421875 213.402344 C 549.789062 216.3125 547.609375 219.609375 545.976562 223.175781 C 545.746094 223.6875 546.5 224.132812 546.734375 223.621094 C 547.167969 222.671875 547.648438 221.746094 548.15625 220.839844 C 549.527344 218.398438 551.15625 216.105469 553.042969 214.023438 C 553.214844 213.835938 553.175781 213.605469 553.050781 213.449219 Z M 357.683594 286.0625 C 355.542969 286.003906 353.980469 284.367188 352.226562 283.363281 C 350.738281 282.507812 348.855469 281.914062 347.238281 282.800781 C 343.824219 284.679688 345.492188 289.519531 343.503906 292.257812 C 343.171875 292.714844 343.933594 293.152344 344.261719 292.699219 C 345.296875 291.273438 345.421875 289.511719 345.625 287.820312 C 345.808594 286.304688 346.203125 284.347656 347.683594 283.558594 C 349.449219 282.617188 351.464844 283.851562 352.910156 284.847656 C 354.367188 285.851562 355.847656 286.890625 357.683594 286.9375 C 358.25 286.953125 358.25 286.078125 357.683594 286.0625 Z M 481.878906 417.09375 C 479.734375 417.035156 478.171875 415.398438 476.417969 414.394531 C 474.929688 413.539062 473.046875 412.945312 471.433594 413.832031 C 468.019531 415.710938 469.683594 420.550781 467.695312 423.289062 C 467.363281 423.746094 468.125 424.1875 468.453125 423.730469 C 469.488281 422.308594 469.613281 420.542969 469.820312 418.851562 C 470.003906 417.339844 470.394531 415.378906 471.875 414.589844 C 473.640625 413.648438 475.65625 414.882812 477.101562 415.878906 C 478.558594 416.882812 480.042969 417.921875 481.875 417.972656 C 482.441406 417.988281 482.441406 417.109375 481.878906 417.09375 Z M 249.042969 236.320312 C 249.078125 236.558594 249.375 236.683594 249.582031 236.628906 C 249.835938 236.5625 249.921875 236.320312 249.890625 236.085938 C 249.410156 232.742188 246.800781 230.007812 243.488281 229.351562 C 242.933594 229.242188 242.699219 230.085938 243.253906 230.199219 C 246.300781 230.800781 248.601562 233.25 249.042969 236.320312 Z M 219.09375 222.332031 C 216.550781 220.601562 213.125 220.667969 210.664062 222.527344 C 210.21875 222.863281 210.65625 223.625 211.109375 223.285156 C 213.339844 221.597656 216.335938 221.515625 218.652344 223.089844 C 219.121094 223.410156 219.558594 222.648438 219.09375 222.332031 Z M 233.003906 244.871094 C 230.933594 240.65625 230.707031 235.714844 232.328125 231.316406 C 232.523438 230.785156 231.671875 230.554688 231.480469 231.082031 C 229.777344 235.707031 230.074219 240.894531 232.246094 245.316406 C 232.496094 245.820312 233.253906 245.375 233.003906 244.871094 Z M 736.976562 618.152344 C 710.359375 629.140625 682.640625 632.796875 657.453125 632.753906 C 653.402344 636.292969 648.992188 640.359375 647.484375 642.515625 C 644.445312 646.851562 646.640625 653.265625 646.640625 653.265625 C 667.601562 654.785156 737.429688 643.183594 737.429688 643.183594 C 738.328125 637.207031 737.574219 625.367188 736.976562 618.152344 Z M 222.402344 255.40625 C 224.984375 256.519531 228.082031 256.128906 230.335938 254.460938 C 230.785156 254.128906 230.347656 253.363281 229.894531 253.703125 C 227.863281 255.207031 225.089844 255.621094 222.742188 254.601562 C 220.507812 253.628906 218.933594 251.507812 218.535156 249.121094 C 218.441406 248.566406 217.597656 248.800781 217.6875 249.355469 C 218.128906 251.992188 219.941406 254.34375 222.402344 255.40625 Z M 214.402344 228.722656 C 212.816406 228.722656 211.53125 230.007812 211.53125 231.59375 C 211.53125 233.179688 212.816406 234.464844 214.402344 234.464844 C 215.988281 234.464844 217.273438 233.179688 217.273438 231.59375 C 217.273438 230.007812 215.988281 228.722656 214.402344 228.722656 Z M 239.628906 239.910156 C 239.628906 241.496094 240.914062 242.785156 242.5 242.785156 C 244.085938 242.785156 245.371094 241.496094 245.371094 239.910156 C 245.371094 238.324219 244.085938 237.039062 242.5 237.039062 C 240.914062 237.039062 239.628906 238.324219 239.628906 239.910156 Z M 290.5625 428.625 C 284.226562 432.386719 276.820312 434.078125 269.480469 433.457031 C 268.914062 433.410156 268.917969 434.289062 269.480469 434.335938 C 276.234375 434.90625 283.0625 433.523438 289.078125 430.429688 C 287.808594 434.765625 284.703125 438.261719 280.933594 440.691406 C 276.34375 443.652344 270.78125 444.855469 265.382812 443.960938 C 264.828125 443.871094 264.589844 444.714844 265.148438 444.808594 C 271.652344 445.882812 278.5 444.015625 283.578125 439.878906 C 283.417969 444.257812 280.332031 447.878906 276.539062 449.871094 C 272.027344 452.242188 266.828125 452.546875 261.835938 452.832031 C 261.273438 452.863281 261.269531 453.742188 261.835938 453.710938 C 266.246094 453.457031 270.808594 453.152344 274.945312 451.535156 C 275.785156 451.207031 276.613281 450.84375 277.414062 450.398438 C 281.476562 448.117188 284.648438 443.953125 284.453125 439.128906 C 285.53125 438.15625 286.523438 437.074219 287.390625 435.886719 C 288.707031 434.074219 289.65625 432.023438 290.160156 429.84375 C 290.441406 429.6875 290.730469 429.550781 291.003906 429.386719 C 291.273438 429.226562 291.253906 428.929688 291.105469 428.738281 C 290.984375 428.582031 290.78125 428.496094 290.5625 428.625 Z M 138.222656 626.132812 C 95.871094 634.222656 74.796875 623.632812 66.585938 617.441406 C 65.976562 624.566406 65.140625 637.007812 66.074219 643.183594 C 66.074219 643.183594 135.898438 654.785156 156.859375 653.265625 C 156.859375 653.265625 159.054688 646.851562 156.019531 642.515625 C 152.984375 638.179688 138.222656 626.132812 138.222656 626.132812 Z M 191.445312 478.597656 C 184.71875 480.585938 177.992188 482.574219 171.269531 484.566406 C 170.816406 484.699219 170.90625 485.300781 171.257812 485.410156 C 171.164062 485.453125 171.082031 485.542969 171.042969 485.675781 C 166.84375 500.460938 162.640625 515.246094 158.4375 530.035156 C 157.242188 534.246094 156.042969 538.457031 154.847656 542.667969 C 154.714844 543.136719 155.320312 543.367188 155.589844 543.082031 C 155.636719 543.035156 155.671875 542.976562 155.695312 542.902344 C 156.265625 540.890625 156.835938 538.882812 157.410156 536.875 C 161.039062 524.097656 164.671875 511.320312 168.300781 498.542969 C 169.5 494.332031 170.695312 490.121094 171.890625 485.910156 C 171.96875 485.640625 171.796875 485.445312 171.589844 485.386719 C 178.285156 483.40625 184.984375 481.425781 191.679688 479.445312 C 192.21875 479.285156 191.988281 478.4375 191.445312 478.597656 Z M 238.933594 621.925781 L 238.902344 621.925781 C 205.953125 638.644531 173.363281 627.300781 166.855469 624.71875 C 167.3125 631.96875 168.28125 643.550781 170.015625 649.25 C 170.015625 649.25 240.785156 650.613281 261.304688 646.074219 C 261.304688 646.074219 262.546875 639.40625 258.914062 635.558594 C 255.285156 631.707031 238.933594 621.925781 238.933594 621.925781 Z M 122.511719 354.371094 C 122.9375 354.535156 123.371094 354.683594 123.796875 354.839844 C 127.019531 356.019531 130.3125 357.003906 133.644531 357.824219 C 144.804688 360.578125 156.550781 362.136719 167.898438 359.617188 C 171.851562 358.738281 175.710938 357.433594 179.375 355.710938 C 179.476562 355.664062 179.578125 355.609375 179.679688 355.558594 C 180.714844 355.066406 181.738281 354.539062 182.730469 353.964844 C 183.203125 353.695312 183.761719 353.429688 184.179688 353.070312 C 184.703125 352.621094 184.539062 351.464844 184.578125 350.816406 C 184.679688 349.238281 184.738281 347.652344 184.75 346.070312 C 184.785156 342.859375 184.644531 339.644531 184.339844 336.445312 C 183.742188 330.140625 182.503906 323.898438 180.636719 317.851562 C 178.765625 311.796875 176.320312 305.816406 173.113281 300.34375 C 170.097656 295.203125 166.15625 290.464844 160.960938 287.421875 C 159.757812 286.714844 158.496094 286.121094 157.191406 285.625 C 157.023438 285.558594 156.890625 285.605469 156.796875 285.703125 C 156.597656 285.902344 156.601562 286.335938 156.960938 286.46875 C 166.144531 289.964844 171.746094 298.65625 175.65625 307.214844 C 178.101562 312.570312 180.007812 318.179688 181.371094 323.910156 C 182.3125 327.867188 183.003906 331.878906 183.414062 335.917969 C 183.78125 339.574219 183.90625 343.25 183.835938 346.921875 C 183.796875 348.75 183.726562 350.570312 183.582031 352.390625 C 183.582031 352.398438 183.582031 352.402344 183.578125 352.410156 C 183.546875 352.433594 183.507812 352.453125 183.476562 352.476562 C 181.863281 353.554688 180.089844 354.429688 178.335938 355.226562 C 173.636719 357.359375 168.605469 358.796875 163.5 359.527344 C 156.332031 360.550781 149.171875 359.886719 142.070312 358.675781 C 136.550781 357.734375 131.078125 356.421875 125.773438 354.617188 C 123.5 353.847656 121.191406 353.027344 119.046875 351.9375 C 118.9375 351.882812 118.835938 351.878906 118.742188 351.902344 C 118.398438 351.988281 118.207031 352.492188 118.601562 352.695312 C 119.863281 353.339844 121.195312 353.863281 122.511719 354.371094 Z M 188.5625 231.625 C 188.796875 228.878906 188.792969 225.875 187.335938 223.429688 C 186.152344 221.441406 184.011719 219.914062 181.625 220.042969 C 181.0625 220.074219 181.058594 220.953125 181.625 220.921875 C 183.828125 220.804688 185.734375 222.289062 186.742188 224.164062 C 187.953125 226.421875 187.894531 229.140625 187.683594 231.625 C 187.636719 232.183594 188.515625 232.183594 188.5625 231.625 Z M 194.5 260.714844 C 194.5 260.714844 199.304688 279.292969 212.371094 287.625 L 216.773438 276.652344 C 216.773438 276.652344 204.035156 272.78125 194.5 260.714844 Z M 194.5 260.714844 " fill-opacity="1" fill-rule="nonzero"/></svg>