<svg xmlns="http://www.w3.org/2000/svg" xmlns:xlink="http://www.w3.org/1999/xlink" width="1080" zoomAndPan="magnify" viewBox="0 0 810 809.999993" height="1080" preserveAspectRatio="xMidYMid meet" version="1.0"><path fill="#efa77e" d="M 492.945312 502.402344 C 483.9375 495.429688 452.269531 511.699219 438.910156 511.410156 C 425.546875 511.117188 421.476562 502.113281 421.476562 502.113281 C 421.476562 502.113281 454.597656 478.289062 440.941406 472.769531 C 431.472656 468.941406 409.535156 478.855469 396.976562 485.292969 C 391.429688 488.136719 387.703125 490.304688 387.703125 490.304688 C 371.601562 483.964844 353.25 478.710938 335.699219 474.492188 C 322.085938 471.222656 308.960938 468.574219 297.746094 466.527344 C 284.539062 464.113281 273.992188 462.539062 268.421875 461.753906 C 268.46875 461.863281 268.5 461.992188 268.496094 462.132812 C 268.492188 462.628906 268.03125 463.21875 267.484375 463.148438 C 261.566406 462.355469 255.515625 464.324219 251.261719 468.53125 C 250.332031 469.449219 248.902344 468.015625 249.828125 467.097656 C 253.578125 463.386719 258.695312 461.214844 263.941406 460.996094 L 243.992188 438.128906 C 243.171875 439.839844 242.328125 441.539062 241.429688 443.207031 C 238.925781 447.855469 236.113281 452.339844 233.019531 456.621094 C 226.777344 465.265625 219.429688 473.066406 211.160156 479.792969 C 210.15625 480.609375 208.714844 479.183594 209.726562 478.359375 C 211.738281 476.722656 213.703125 475.027344 215.609375 473.265625 C 219.457031 469.710938 223.027344 465.867188 226.367188 461.835938 C 212.746094 478.203125 191.179688 495.46875 159.308594 499.285156 C 181.648438 539.355469 218.515625 558.253906 255.066406 566.636719 C 263.019531 568.460938 270.960938 569.789062 278.730469 570.726562 C 289.667969 572.042969 300.261719 572.59375 310.105469 572.675781 C 341.289062 572.941406 364.855469 568.550781 367.214844 569.21875 C 373.382812 570.960938 410.726562 589.265625 428.449219 585.488281 C 443.535156 582.273438 448.078125 571.511719 449.101562 568.371094 C 442.566406 570.746094 435.554688 571.882812 428.726562 572.964844 C 427.449219 573.167969 426.902344 571.214844 428.1875 571.011719 C 443.363281 568.605469 463.660156 564.578125 468.667969 547.675781 C 460.8125 551.890625 452.125 554.445312 443.222656 555.175781 C 441.921875 555.28125 441.933594 553.257812 443.222656 553.152344 C 452.824219 552.359375 462.179688 549.34375 470.429688 544.363281 C 477.863281 539.875 487.824219 532.34375 486.351562 522.492188 C 483.246094 524.3125 479.847656 525.722656 476.449219 526.871094 C 466.082031 530.378906 455.410156 533.503906 444.621094 535.386719 C 443.34375 535.609375 442.800781 533.65625 444.082031 533.433594 C 454.109375 531.683594 463.90625 528.753906 473.597656 525.675781 C 482.179688 522.945312 491.746094 518.964844 495.441406 510.027344 C 495.613281 509.609375 495.96875 509.414062 496.335938 509.375 C 496.59375 506.992188 495.726562 504.558594 492.945312 502.402344 Z M 492.945312 502.402344 " fill-opacity="1" fill-rule="nonzero"/><path fill="#efa77e" d="M 229.246094 458.246094 C 230.296875 456.886719 231.296875 455.535156 232.238281 454.210938 C 231.277344 455.582031 230.265625 456.917969 229.246094 458.246094 Z M 229.246094 458.246094 " fill-opacity="1" fill-rule="nonzero"/><path fill="#efa77e" d="M 226.367188 461.839844 C 226.636719 461.519531 226.902344 461.195312 227.164062 460.875 C 226.902344 461.199219 226.632812 461.519531 226.367188 461.839844 Z M 226.367188 461.839844 " fill-opacity="1" fill-rule="nonzero"/><path fill="#efa77e" d="M 227.164062 460.875 C 227.871094 460.007812 228.570312 459.132812 229.25 458.246094 C 228.574219 459.117188 227.882812 459.996094 227.164062 460.875 Z M 227.164062 460.875 " fill-opacity="1" fill-rule="nonzero"/><path fill="#efa77e" d="M 201.429688 221.398438 C 218.167969 242.214844 216.238281 274.1875 216.238281 274.1875 C 216.238281 274.1875 215.636719 282.269531 214.492188 287.421875 C 214.453125 287.59375 214.414062 287.773438 214.375 287.941406 C 214.375 287.941406 225.808594 315.714844 260.117188 317.144531 C 294.421875 318.574219 297.894531 303.460938 297.894531 303.460938 L 297.894531 290.890625 C 263.359375 293.242188 251.230469 268.519531 251.230469 268.519531 C 272.027344 278.25 297.894531 275.398438 297.894531 275.398438 C 297.894531 275.398438 352.378906 265.152344 364.214844 213.695312 C 373.199219 174.609375 365.90625 140.296875 350.125 117.90625 C 350.136719 120.921875 348.542969 124.066406 343.0625 126.039062 C 329.753906 130.832031 305.261719 113.441406 305.261719 113.441406 C 305.261719 113.441406 320.347656 124.089844 311.648438 132.960938 C 302.953125 141.835938 278.285156 129.058594 278.285156 129.058594 C 281.125 132.785156 281.480469 142.367188 265.152344 141.125 C 248.824219 139.882812 232.324219 114.640625 232.324219 114.640625 C 240.835938 164.613281 215.300781 187.835938 215.300781 187.835938 C 200.566406 140.871094 165.742188 168.90625 169.820312 191.226562 C 173.898438 213.542969 201.429688 221.398438 201.429688 221.398438 Z M 347.933594 169.742188 C 348.066406 168.457031 350.089844 168.445312 349.957031 169.742188 C 349.453125 174.605469 345.519531 178.75 340.605469 179.269531 C 335.648438 179.792969 330.800781 176.253906 329.511719 171.503906 C 329.167969 170.242188 331.121094 169.710938 331.464844 170.964844 C 332.503906 174.789062 336.359375 177.613281 340.347656 177.265625 C 344.183594 176.933594 347.539062 173.550781 347.933594 169.742188 Z M 329.191406 152.457031 C 334.597656 148.710938 341.789062 149.132812 346.847656 153.261719 C 347.859375 154.085938 346.417969 155.507812 345.414062 154.695312 C 341.03125 151.117188 334.824219 151.011719 330.210938 154.207031 C 329.136719 154.949219 328.125 153.191406 329.191406 152.457031 Z M 307.566406 168.597656 C 307.667969 167.304688 309.695312 167.300781 309.589844 168.597656 C 308.773438 178.882812 313.019531 189.121094 320.878906 195.800781 C 321.875 196.648438 320.433594 198.074219 319.445312 197.234375 C 311.226562 190.242188 306.710938 179.359375 307.566406 168.597656 Z M 287.71875 212.050781 C 295.691406 221.285156 308.574219 224.25 319.820312 219.519531 C 321.023438 219.015625 321.542969 220.976562 320.359375 221.472656 C 308.515625 226.457031 294.675781 223.195312 286.285156 213.480469 C 285.4375 212.5 286.863281 211.0625 287.71875 212.050781 Z M 275.851562 174.023438 C 275.984375 172.738281 278.011719 172.730469 277.875 174.023438 C 277.375 178.886719 273.4375 183.03125 268.523438 183.550781 C 263.566406 184.074219 258.71875 180.535156 257.429688 175.785156 C 257.089844 174.523438 259.042969 173.992188 259.382812 175.246094 C 260.421875 179.074219 264.277344 181.894531 268.265625 181.550781 C 272.105469 181.214844 275.457031 177.835938 275.851562 174.023438 Z M 250.566406 162.878906 C 251.949219 159.039062 254.851562 155.898438 258.636719 154.332031 C 262.769531 152.621094 267.585938 153.070312 271.410156 155.34375 C 272.53125 156.011719 271.511719 157.761719 270.390625 157.09375 C 267.097656 155.136719 262.988281 154.734375 259.417969 156.1875 C 256.234375 157.484375 253.679688 160.191406 252.515625 163.417969 C 252.078125 164.636719 250.121094 164.105469 250.566406 162.878906 Z M 189.738281 173.453125 C 197.457031 176.101562 203.109375 183.175781 204.0625 191.261719 C 204.21875 192.554688 202.1875 192.539062 202.039062 191.261719 C 201.195312 184.121094 195.984375 177.734375 189.199219 175.40625 C 187.972656 174.988281 188.503906 173.03125 189.738281 173.453125 Z M 189.738281 173.453125 " fill-opacity="1" fill-rule="nonzero"/><path fill="#efa77e" d="M 764.894531 594.34375 C 760.589844 587.632812 754.023438 580.425781 745.359375 579.59375 C 737.269531 578.820312 731.597656 580.21875 727.894531 581.847656 C 723.992188 583.570312 722.269531 585.554688 722.269531 585.554688 C 722.269531 585.554688 710.117188 568.074219 695.535156 569.660156 C 680.953125 571.25 677.304688 580.390625 677.304688 580.390625 C 677.304688 580.390625 674.765625 579.304688 670.851562 578.46875 C 670.570312 578.40625 670.273438 578.351562 669.980469 578.296875 C 669.054688 578.117188 668.070312 577.957031 667.019531 577.828125 C 662.554688 577.28125 657.140625 577.335938 651.785156 579.195312 C 639.230469 583.566406 637.203125 590.71875 637.203125 590.71875 C 637.203125 590.71875 625.589844 591.574219 625.617188 598.726562 C 625.617188 598.886719 625.660156 599.0625 625.722656 599.242188 C 638.519531 592.351562 656.683594 599.726562 671.71875 607.265625 C 687.421875 615.144531 693.707031 604.242188 707.128906 602.246094 C 720.546875 600.246094 734.828125 608.527344 749.675781 607.097656 C 757.671875 606.332031 763.785156 602.578125 767.75 599.273438 C 766.949219 597.738281 765.992188 596.058594 764.894531 594.34375 Z M 693.292969 595.457031 C 691.378906 593.53125 688.640625 591.96875 685.828125 592.550781 C 683.417969 593.046875 681.503906 595.183594 681.675781 597.683594 C 681.726562 598.421875 680.765625 598.988281 680.152344 598.558594 C 676.164062 595.761719 670.097656 591.757812 665.445312 595.613281 C 664.449219 596.4375 663.007812 595.011719 664.011719 594.179688 C 669.023438 590.023438 675.0625 592.761719 679.820312 595.890625 C 680.390625 593.425781 682.421875 591.410156 684.890625 590.695312 C 688.492188 589.648438 692.222656 591.507812 694.722656 594.023438 C 695.644531 594.953125 694.214844 596.382812 693.292969 595.457031 Z M 745.785156 595.773438 C 745.527344 596.21875 744.847656 596.457031 744.398438 596.136719 C 741.347656 593.964844 737.191406 593.699219 733.929688 595.566406 C 732.792969 596.21875 731.773438 594.464844 732.90625 593.820312 C 736.75 591.617188 741.796875 591.804688 745.421875 594.390625 C 745.871094 594.707031 746.082031 595.265625 745.785156 595.773438 Z M 745.785156 595.773438 " fill-opacity="1" fill-rule="nonzero"/><path fill="#ffffff" d="M 90.136719 745.445312 C 80.460938 751.265625 70.523438 756.601562 64.632812 757.960938 C 60.242188 758.976562 55.832031 759.152344 51.691406 758.585938 C 51.832031 758.179688 51.753906 757.710938 51.273438 757.433594 C 42.097656 752.054688 40.335938 740.574219 42.039062 730.90625 C 43.472656 722.773438 46.855469 715.222656 50.652344 707.925781 C 50.65625 707.925781 50.660156 707.925781 50.664062 707.925781 C 60.292969 706.449219 69.824219 711.273438 76.199219 718.265625 C 82.941406 725.664062 86.582031 735.261719 89.289062 744.742188 C 89.421875 745.199219 89.769531 745.414062 90.136719 745.445312 Z M 93.328125 698.78125 C 93.328125 698.78125 100.007812 713.464844 113.171875 730.621094 C 108.339844 733.910156 99.960938 739.488281 91.21875 744.792969 C 91.28125 744.617188 91.308594 744.425781 91.246094 744.203125 C 88.347656 734.058594 84.351562 723.757812 76.898438 716.050781 C 70.382812 709.3125 61.210938 704.945312 51.78125 705.78125 C 52.472656 704.480469 53.171875 703.1875 53.871094 701.902344 C 64.230469 682.925781 75.410156 664.28125 87.722656 646.503906 C 93.816406 637.707031 100.765625 629.148438 110.355469 624.015625 C 111.503906 623.402344 110.484375 621.652344 109.332031 622.265625 C 100.691406 626.894531 94.09375 634.257812 88.386719 642.082031 C 81.820312 651.089844 75.871094 660.59375 70.019531 670.074219 C 63.894531 679.996094 58.03125 690.082031 52.433594 700.3125 C 47.246094 709.796875 41.988281 719.601562 40.089844 730.367188 C 38.34375 740.253906 40 751.707031 48.40625 757.953125 C 40.464844 756.011719 33.910156 751.148438 31.074219 743.902344 C 26.4375 732.054688 31.515625 717.109375 35.488281 708.941406 C 39.464844 700.769531 71.300781 642.179688 89.679688 623.800781 C 96.855469 616.625 103.863281 614.039062 109.746094 613.539062 C 110.949219 617.507812 112.394531 621.566406 114.109375 625.679688 C 113.425781 625.632812 112.664062 626.371094 113.070312 627.199219 C 115.941406 633.042969 118.984375 638.796875 122.148438 644.484375 C 116.378906 647.578125 92.800781 662.433594 93.328125 698.78125 Z M 82.957031 709.117188 C 81.804688 708.511719 80.78125 710.257812 81.933594 710.867188 C 89.070312 714.625 94.019531 721.75 95.121094 729.730469 C 95.296875 731.015625 97.25 730.46875 97.074219 729.191406 C 95.910156 720.742188 90.5 713.089844 82.957031 709.117188 Z M 225.0625 321.429688 C 217.003906 315.710938 210.117188 308.429688 204.824219 300.113281 C 195.9375 302.617188 187.328125 305.976562 179.105469 310.171875 C 177.945312 310.761719 176.917969 309.015625 178.082031 308.421875 C 186.28125 304.242188 194.867188 300.867188 203.714844 298.335938 C 202.085938 295.605469 200.605469 292.785156 199.335938 289.863281 C 176.890625 294.464844 152.839844 303.882812 129.445312 321.015625 C 126.671875 322.757812 124.125 324.710938 121.820312 326.890625 C 121.808594 326.898438 121.800781 326.90625 121.789062 326.914062 L 121.789062 326.921875 C 106.332031 341.550781 101.140625 366.066406 103.648438 400.855469 C 104.320312 410.175781 106.523438 419.558594 109.632812 428.644531 L 109.628906 428.65625 L 109.636719 428.65625 C 122.738281 466.964844 152.066406 499.914062 152.066406 499.914062 C 154.539062 499.785156 156.949219 499.566406 159.308594 499.285156 C 196.207031 494.867188 219.304688 472.417969 232.238281 454.210938 C 232.679688 453.578125 233.128906 452.953125 233.558594 452.316406 C 233.589844 452.269531 233.617188 452.226562 233.648438 452.183594 C 234.371094 451.105469 235.082031 450.015625 235.769531 448.910156 C 238.570312 444.433594 241.074219 439.769531 243.261719 434.960938 C 243.785156 433.808594 244.152344 432.097656 244.921875 431.121094 C 244.871094 431.179688 245.140625 430.722656 245.316406 430.570312 C 245.269531 430.492188 245.222656 430.417969 245.203125 430.367188 C 244.386719 428.207031 243.164062 426.121094 242.136719 424.054688 C 240.121094 419.988281 238.046875 415.945312 235.929688 411.925781 C 229.742188 400.179688 223.179688 388.621094 216.128906 377.367188 C 208.175781 364.667969 199.625 352.238281 189.789062 340.914062 C 181.75 331.660156 172.507812 322.269531 161.113281 317.257812 C 160.511719 316.992188 160.480469 316.414062 160.75 315.976562 C 161.011719 315.546875 161.554688 315.25 162.136719 315.507812 C 163.386719 316.054688 164.605469 316.660156 165.796875 317.3125 C 177.273438 323.625 186.597656 333.722656 194.8125 343.734375 C 204.5 355.550781 213.027344 368.304688 220.964844 381.347656 C 227.683594 392.386719 233.976562 403.691406 239.90625 415.175781 C 241.730469 418.703125 243.519531 422.253906 245.261719 425.824219 C 245.5 426.320312 245.777344 426.828125 246.054688 427.339844 C 252.183594 400.441406 262.726562 375.21875 276.921875 352.511719 C 281.523438 345.15625 286.523438 338.082031 291.859375 331.28125 C 283.871094 333.90625 275.472656 335.191406 267.0625 335.054688 C 252.074219 334.816406 237.300781 330.117188 225.0625 321.429688 Z M 297.894531 303.460938 C 297.894531 303.460938 294.421875 318.574219 260.113281 317.144531 C 225.808594 315.714844 214.371094 287.941406 214.371094 287.941406 C 214.414062 287.777344 214.449219 287.597656 214.488281 287.421875 C 210.191406 287.929688 205.8125 288.597656 201.363281 289.457031 C 204.335938 296.125 208.261719 302.34375 213.058594 307.855469 C 222.121094 318.261719 234.007812 326.09375 247.257812 330.015625 C 261.953125 334.363281 277.835938 333.996094 292.320312 329.015625 C 292.800781 328.851562 293.167969 329.046875 293.375 329.371094 C 299.984375 321.109375 307.109375 313.28125 314.722656 305.949219 C 310.171875 303.183594 304.574219 300.207031 297.894531 297.335938 Z M 107.015625 550.476562 C 107.015625 550.476562 173.855469 604.855469 272.289062 603.375 C 268.519531 596.820312 265.042969 590.078125 261.886719 583.15625 L 261.882812 583.164062 C 125.441406 553.105469 109.628906 428.65625 109.628906 428.65625 C 109.628906 428.65625 98.839844 505.011719 107.015625 550.476562 Z M 149.984375 209.074219 C 151.925781 212.417969 154.03125 215.667969 156.308594 218.800781 C 156.660156 219.28125 157.21875 219.3125 157.652344 219.117188 C 158.148438 218.886719 158.472656 218.34375 158.058594 217.777344 C 149.140625 205.535156 142.789062 191.546875 139.414062 176.78125 C 137.253906 167.300781 136.050781 157.234375 136.769531 147.503906 C 137.84375 133.023438 143.367188 118.621094 150.808594 106.289062 C 158.59375 93.390625 169.09375 82.328125 181.210938 73.417969 C 181.734375 73.03125 181.734375 72.394531 181.46875 71.953125 C 181.214844 71.527344 180.707031 71.285156 180.1875 71.667969 C 180.035156 71.777344 179.894531 71.894531 179.742188 72.007812 C 165.003906 82.945312 152.785156 97.035156 144.683594 113.375 C 142.265625 118.25 140.199219 123.3125 138.558594 128.566406 C 136.765625 134.324219 135.4375 140.269531 134.851562 146.277344 C 134.039062 154.589844 134.859375 163.175781 136.273438 171.375 C 138.558594 184.632812 143.234375 197.449219 149.984375 209.074219 Z M 478.214844 155.929688 C 471.582031 140.773438 443.386719 155.929688 443.386719 155.929688 C 448.917969 136.351562 433.992188 113.59375 415.59375 133.496094 C 397.199219 153.398438 415.59375 200.492188 415.59375 200.492188 C 449.714844 200.042969 484.851562 171.085938 478.214844 155.929688 Z M 478.214844 155.929688 " fill-opacity="1" fill-rule="nonzero"/><path fill="#bfe385" d="M 433.226562 686.101562 C 434.292969 691.964844 433.414062 698 432.359375 703.875 C 431.402344 709.15625 430.253906 714.53125 428.539062 719.648438 C 423.585938 718.496094 418.691406 717.1875 413.863281 715.738281 C 353.5625 697.65625 303.078125 656.898438 272.289062 603.375 C 268.519531 596.820312 265.042969 590.078125 261.882812 583.15625 C 260.953125 581.117188 260.039062 579.066406 259.164062 577 C 261.972656 576.285156 264.726562 575.40625 267.386719 574.488281 C 271.089844 573.210938 274.890625 571.859375 278.730469 570.726562 C 289.664062 572.046875 300.261719 572.597656 310.105469 572.679688 C 320.660156 579.824219 325.617188 594.175781 326.375 607.355469 C 326.660156 612.300781 326.566406 617.363281 328.226562 622.007812 C 329.886719 626.652344 333.871094 630.921875 338.800781 631.125 C 342.785156 631.285156 346.347656 628.867188 349.804688 626.898438 C 357.015625 622.765625 365.363281 620.117188 373.628906 621.117188 C 381.878906 622.101562 389.902344 627.234375 392.832031 635.011719 C 396.828125 645.585938 391.953125 660.226562 401.097656 666.855469 C 407.335938 671.378906 416.367188 668.761719 423.367188 671.976562 C 428.78125 674.476562 432.144531 680.230469 433.226562 686.101562 Z M 631.5 547.789062 C 616.765625 545.398438 598.789062 537.582031 599.332031 522.65625 C 599.953125 505.789062 625.152344 493.8125 618.832031 478.148438 C 614.523438 467.453125 599.195312 467.371094 588.445312 471.515625 C 577.683594 475.675781 566.351562 482.292969 555.402344 478.671875 C 539.84375 473.554688 537.492188 451.972656 542.761719 436.457031 C 548.027344 420.957031 558.035156 406.234375 556.96875 389.894531 C 556.480469 382.496094 553.699219 375.351562 553.539062 367.921875 C 553.050781 345.652344 574.847656 330.300781 593.820312 318.605469 C 607.554688 310.152344 622.382812 298.777344 628.351562 284.777344 C 587.945312 255.132812 538.074219 237.632812 484.109375 237.632812 C 418.328125 237.632812 358.632812 263.648438 314.722656 305.945312 C 307.109375 313.28125 299.984375 321.105469 293.375 329.367188 C 293.699219 329.878906 293.609375 330.710938 292.859375 330.96875 C 292.53125 331.082031 292.195312 331.179688 291.863281 331.289062 C 286.527344 338.089844 281.527344 345.164062 276.925781 352.515625 C 289.121094 356.511719 300.03125 367.34375 304.378906 379.863281 C 311.320312 399.851562 306.566406 421.765625 302.054688 442.445312 C 300.339844 450.324219 298.691406 458.429688 297.746094 466.527344 C 308.960938 468.574219 322.085938 471.222656 335.699219 474.496094 C 340.980469 462.332031 352.710938 452.847656 365.917969 452.058594 C 381.058594 451.152344 396.371094 463.199219 397.371094 478.324219 C 397.527344 480.6875 397.355469 483.007812 396.976562 485.296875 C 409.535156 478.859375 431.472656 468.945312 440.941406 472.773438 C 454.597656 478.292969 421.476562 502.117188 421.476562 502.117188 C 421.476562 502.117188 425.546875 511.121094 438.910156 511.414062 C 452.273438 511.703125 483.9375 495.433594 492.945312 502.40625 C 495.726562 504.5625 496.59375 506.996094 496.335938 509.378906 C 497.007812 509.308594 497.714844 509.792969 497.394531 510.574219 C 495.476562 515.214844 492.167969 518.664062 488.21875 521.324219 C 490.347656 531.976562 480.925781 540.066406 472.902344 545.214844 C 472.296875 545.605469 471.667969 545.957031 471.046875 546.324219 C 471.050781 546.421875 471.0625 546.515625 471.039062 546.621094 C 469.535156 553.21875 465.273438 558.699219 459.925781 562.6875 C 460.792969 567.355469 462.234375 571.53125 466.1875 573.964844 C 473.777344 578.621094 483.085938 572.261719 490.078125 566.765625 C 497.089844 561.269531 508.175781 556.71875 513.886719 563.550781 C 517.574219 567.980469 516.332031 574.652344 514.15625 580 C 506.363281 599.136719 489.308594 614.773438 487.269531 635.339844 C 484.527344 663.09375 510.363281 685.332031 535.96875 696.394531 C 547.445312 701.351562 559.640625 705.308594 571.363281 709.953125 L 571.375 709.953125 C 589.214844 703.125 606.039062 694.257812 621.582031 683.648438 C 621.625 646.078125 624.03125 600.246094 624.03125 600.246094 C 624.582031 599.878906 625.148438 599.554688 625.722656 599.246094 C 625.660156 599.0625 625.617188 598.886719 625.617188 598.726562 C 625.589844 591.574219 637.203125 590.71875 637.203125 590.71875 C 637.203125 590.71875 639.230469 583.570312 651.785156 579.199219 C 657.136719 577.335938 662.554688 577.285156 667.019531 577.828125 C 661.042969 569.996094 657.015625 560.785156 655.289062 551.105469 C 647.351562 550.011719 639.367188 549.066406 631.5 547.789062 Z M 606.703125 385.359375 C 609.75 381.996094 611.625 377.757812 613.445312 373.601562 C 615.085938 369.867188 616.703125 365.457031 614.714844 361.898438 C 612.769531 358.425781 607.945312 357.417969 604.195312 358.75 C 601.164062 359.824219 598.734375 362.066406 596.679688 364.585938 C 592.445312 368.238281 589.660156 373.613281 589.4375 379.21875 C 589.296875 382.792969 590.347656 386.738281 593.328125 388.71875 C 597.503906 391.492188 603.335938 389.074219 606.703125 385.359375 Z M 592.964844 421.179688 C 594.277344 424.390625 598.449219 426.066406 601.617188 424.660156 C 604.789062 423.257812 606.347656 419.046875 604.867188 415.914062 C 603.386719 412.777344 599.152344 411.308594 596.046875 412.847656 L 596.722656 412.652344 C 593.46875 413.847656 591.65625 417.972656 592.964844 421.179688 Z M 456.679688 687.980469 C 453.601562 686.890625 449.714844 688.324219 448.441406 691.332031 L 450.144531 690.921875 C 446.898438 692.167969 444.792969 696.148438 445.773438 699.570312 C 446.902344 703.507812 451.5625 705.921875 455.515625 704.851562 C 459.46875 703.78125 462.234375 699.625 462.011719 695.535156 C 461.832031 692.273438 459.761719 689.070312 456.679688 687.980469 Z M 646.691406 330.878906 C 648.675781 331.488281 650.902344 331.59375 652.523438 332.890625 C 655.765625 335.511719 654.375 340.777344 656.101562 344.558594 C 657.359375 347.339844 660.289062 349.082031 663.273438 349.703125 C 666.257812 350.324219 669.363281 350 672.402344 349.675781 C 675.671875 349.324219 678.992188 348.960938 682.015625 347.652344 C 683.582031 346.976562 685.070312 346.003906 686.230469 344.773438 C 674.507812 327.515625 660.640625 311.835938 644.988281 298.132812 C 641.664062 302.855469 638.679688 307.855469 637.777344 313.511719 C 636.65625 320.523438 639.910156 328.785156 646.691406 330.878906 Z M 754.863281 401.898438 C 744.46875 402.875 734.402344 434.707031 734.402344 434.707031 C 734.402344 434.707031 744.285156 386.574219 742.753906 358.183594 C 741.21875 329.792969 733.425781 312.257812 720.757812 313.878906 C 708.09375 315.503906 704.519531 358.378906 705.816406 375.917969 C 705.816406 375.917969 703.222656 357.8125 692.441406 354.417969 C 690.554688 353.824219 688.421875 353.671875 686.003906 354.15625 C 669.761719 357.402344 674.472656 452.296875 681.476562 481.820312 C 681.476562 481.820312 671.609375 463.730469 660.519531 466.191406 C 649.433594 468.65625 661.914062 523.957031 668.835938 537.960938 C 668.835938 537.960938 665.757812 531.183594 658.058594 535.804688 C 656.9375 536.472656 656.316406 537.789062 656.085938 539.570312 C 656.242188 539.730469 656.351562 539.945312 656.351562 540.238281 C 656.347656 542.5625 656.492188 544.875 656.761719 547.171875 C 657.066406 548.53125 657.457031 549.972656 657.925781 551.472656 C 657.746094 551.449219 657.566406 551.421875 657.386719 551.398438 C 659.25 561.234375 663.582031 570.539062 669.980469 578.296875 C 670.273438 578.351562 670.570312 578.40625 670.847656 578.46875 C 674.761719 579.304688 677.304688 580.390625 677.304688 580.390625 C 677.304688 580.390625 680.949219 571.25 695.53125 569.660156 C 710.113281 568.074219 722.265625 585.554688 722.265625 585.554688 C 722.265625 585.554688 723.988281 583.570312 727.890625 581.847656 C 735.355469 571.953125 745.25 557.5625 750.3125 544.8125 C 759.082031 522.726562 753.050781 511.035156 742.75 520.453125 C 742.75 520.453125 757.785156 487.972656 764.605469 453.21875 C 771.429688 418.464844 765.257812 400.925781 754.863281 401.898438 Z M 754.863281 401.898438 " fill-opacity="1" fill-rule="nonzero"/><path fill="#a6c9fd" d="M 272.289062 603.375 C 173.851562 604.855469 107.015625 550.476562 107.015625 550.476562 C 107.015625 550.476562 99.148438 578.546875 109.746094 613.542969 C 110.949219 617.511719 112.394531 621.570312 114.109375 625.683594 C 114.386719 625.703125 114.652344 625.84375 114.820312 626.179688 C 118.429688 633.53125 122.269531 640.765625 126.339844 647.871094 C 140.804688 673.101562 158.152344 696.632812 177.945312 717.941406 C 178.832031 718.894531 177.402344 720.328125 176.515625 719.371094 C 170.871094 713.300781 165.421875 707.054688 160.183594 700.628906 C 145.871094 683.082031 133.152344 664.269531 122.148438 644.488281 C 116.378906 647.578125 92.800781 662.433594 93.328125 698.785156 C 93.328125 698.785156 100.007812 713.46875 113.171875 730.625 C 124.15625 744.9375 139.652344 760.972656 159.589844 771.648438 C 202.855469 794.816406 272.394531 809.957031 297.070312 753.90625 C 296.753906 753.621094 296.578125 753.167969 296.824219 752.679688 C 300.25 745.878906 302.601562 738.613281 304.058594 731.144531 C 306.746094 717.363281 306.351562 703.195312 304.710938 689.3125 C 303.839844 681.964844 302.609375 674.667969 301.304688 667.386719 C 300.167969 661.074219 298.25 654.265625 300.382812 647.960938 C 300.800781 646.730469 302.757812 647.261719 302.339844 648.5 C 301.011719 652.421875 301.414062 656.496094 302.105469 660.503906 C 302.808594 664.578125 303.589844 668.636719 304.285156 672.707031 C 308.796875 699.136719 311.164062 727.554688 299.195312 752.414062 C 306.710938 757.195312 349.453125 782.058594 388.613281 756.058594 C 403.710938 746.03125 410.890625 731.015625 413.859375 715.738281 C 353.5625 697.65625 303.078125 656.898438 272.289062 603.375 Z M 181.921875 744.78125 C 175.515625 740.46875 169.332031 735.839844 163.398438 730.902344 C 142.292969 713.335938 124.453125 691.90625 110.980469 667.980469 C 110.339844 666.839844 112.089844 665.820312 112.730469 666.957031 C 116.472656 673.609375 120.546875 680.070312 124.945312 686.308594 C 140.625 708.53125 160.382812 727.84375 182.945312 743.03125 C 184.019531 743.753906 183.003906 745.507812 181.921875 744.78125 Z M 223.570312 738.792969 C 220.53125 740.902344 217.023438 740.371094 213.558594 740.070312 C 211.398438 739.878906 209.382812 739.960938 207.410156 740.949219 C 205.871094 741.71875 204.515625 742.796875 203.167969 743.855469 C 200.683594 745.792969 198.242188 747.570312 195.027344 747.960938 C 192.304688 748.292969 189.628906 747.511719 188.117188 745.105469 C 187.421875 743.996094 189.175781 742.980469 189.867188 744.085938 C 191.886719 747.304688 196.632812 745.976562 199.222656 744.277344 C 202.289062 742.265625 204.875 739.394531 208.5 738.351562 C 212.605469 737.171875 217.019531 739.445312 221.011719 737.878906 C 224.136719 736.65625 225.746094 733.402344 226.488281 730.324219 C 228.078125 723.683594 226.273438 716.257812 223.957031 710.007812 C 221.273438 702.777344 217.097656 696.117188 212.242188 690.160156 C 202.113281 677.722656 189.273438 667.839844 177.773438 656.746094 C 155.527344 635.285156 135.726562 609.144531 131.683594 577.632812 C 131.515625 576.34375 133.546875 576.359375 133.710938 577.632812 C 136.085938 596.167969 144.375 613.414062 155.28125 628.40625 C 165.230469 642.082031 177.375 653.957031 189.910156 665.238281 C 201.949219 676.074219 214.515625 686.996094 222.285156 701.472656 C 225.9375 708.273438 228.460938 715.738281 228.996094 723.472656 C 229.363281 728.8125 228.300781 735.507812 223.570312 738.792969 Z M 326.578125 679.085938 C 331.191406 685.070312 333.910156 692.9375 332.675781 700.511719 C 332.386719 702.277344 331.855469 703.988281 331.109375 705.613281 C 330.269531 707.441406 328.992188 709.0625 328.269531 710.949219 C 326.640625 715.207031 330.164062 718.59375 332.359375 721.84375 C 336.632812 728.167969 335.996094 736.4375 332.074219 742.789062 C 327.894531 749.550781 320.601562 753.613281 313.285156 756.152344 C 312.050781 756.582031 311.523438 754.625 312.746094 754.199219 C 320.726562 751.429688 328.929688 746.5625 332.050781 738.269531 C 333.375 734.757812 333.765625 730.828125 332.714844 727.191406 C 331.664062 723.566406 328.910156 721.03125 327.125 717.808594 C 325.449219 714.789062 325.492188 711.792969 327.070312 708.742188 C 327.996094 706.953125 329.148438 705.316406 329.835938 703.410156 C 330.441406 701.742188 330.796875 699.992188 330.910156 698.222656 C 331.980469 681.277344 316.125 671.085938 303.4375 663.511719 C 302.316406 662.84375 303.335938 661.09375 304.457031 661.761719 C 312.5 666.5625 320.773438 671.558594 326.578125 679.085938 Z M 686.230469 344.773438 C 685.070312 346.003906 683.585938 346.976562 682.019531 347.652344 C 678.992188 348.960938 675.671875 349.324219 672.402344 349.675781 C 669.367188 350 666.257812 350.324219 663.273438 349.703125 C 660.289062 349.082031 657.359375 347.339844 656.105469 344.558594 C 654.375 340.777344 655.765625 335.511719 652.527344 332.890625 C 650.90625 331.59375 648.675781 331.488281 646.691406 330.878906 C 639.914062 328.785156 636.660156 320.523438 637.78125 313.511719 C 638.683594 307.855469 641.667969 302.859375 644.992188 298.132812 C 639.644531 293.445312 634.09375 288.992188 628.355469 284.777344 C 622.386719 298.78125 607.554688 310.152344 593.824219 318.605469 C 574.847656 330.300781 553.054688 345.65625 553.539062 367.925781 C 553.699219 375.351562 556.484375 382.496094 556.96875 389.898438 C 558.035156 406.238281 548.03125 420.957031 542.761719 436.460938 C 537.496094 451.976562 539.84375 473.558594 555.402344 478.675781 C 566.355469 482.292969 577.683594 475.675781 588.449219 471.519531 C 599.199219 467.371094 614.523438 467.453125 618.832031 478.148438 C 625.152344 493.8125 599.953125 505.792969 599.332031 522.660156 C 598.792969 537.582031 616.765625 545.402344 631.5 547.792969 C 639.367188 549.070312 647.351562 550.011719 655.292969 551.105469 C 654.652344 547.53125 654.320312 543.894531 654.328125 540.238281 C 654.332031 539.222656 655.546875 539.007812 656.089844 539.570312 C 656.320312 537.789062 656.945312 536.476562 658.0625 535.804688 C 665.761719 531.183594 668.84375 537.960938 668.84375 537.960938 C 661.921875 523.957031 649.4375 468.65625 660.523438 466.191406 C 671.613281 463.730469 681.480469 481.820312 681.480469 481.820312 C 674.476562 452.296875 669.769531 357.402344 686.007812 354.15625 C 688.425781 353.671875 690.558594 353.824219 692.445312 354.417969 C 690.445312 351.15625 688.378906 347.9375 686.230469 344.773438 Z M 601.617188 424.660156 C 598.449219 426.066406 594.277344 424.390625 592.964844 421.179688 C 591.65625 417.972656 593.46875 413.847656 596.722656 412.652344 L 596.046875 412.851562 C 599.152344 411.3125 603.386719 412.777344 604.867188 415.914062 C 606.347656 419.046875 604.785156 423.257812 601.617188 424.660156 Z M 613.445312 373.601562 C 611.621094 377.757812 609.75 381.996094 606.703125 385.359375 C 603.332031 389.074219 597.5 391.492188 593.324219 388.71875 C 590.34375 386.738281 589.292969 382.792969 589.433594 379.21875 C 589.652344 373.613281 592.441406 368.238281 596.671875 364.585938 C 598.730469 362.066406 601.160156 359.824219 604.191406 358.75 C 607.941406 357.417969 612.765625 358.425781 614.710938 361.898438 C 616.703125 365.457031 615.082031 369.871094 613.445312 373.601562 Z M 487.269531 635.339844 C 489.308594 614.769531 506.367188 599.132812 514.160156 579.996094 C 516.332031 574.652344 517.574219 567.980469 513.886719 563.550781 C 508.175781 556.71875 497.089844 561.269531 490.082031 566.765625 C 483.085938 572.261719 473.78125 578.621094 466.191406 573.960938 C 462.234375 571.53125 460.796875 567.351562 459.925781 562.6875 C 458.832031 563.503906 457.691406 564.261719 456.519531 564.953125 C 454.152344 566.339844 451.660156 567.445312 449.105469 568.375 C 448.082031 571.515625 443.535156 582.277344 428.449219 585.492188 C 410.730469 589.269531 373.382812 570.964844 367.21875 569.222656 C 364.855469 568.554688 341.292969 572.945312 310.109375 572.679688 C 320.660156 579.824219 325.621094 594.175781 326.378906 607.359375 C 326.664062 612.300781 326.570312 617.363281 328.230469 622.011719 C 329.890625 626.65625 333.875 630.921875 338.804688 631.125 C 342.789062 631.289062 346.351562 628.871094 349.808594 626.898438 C 357.019531 622.765625 365.367188 620.121094 373.632812 621.117188 C 381.882812 622.105469 389.90625 627.238281 392.835938 635.015625 C 396.832031 645.589844 391.957031 660.226562 401.097656 666.859375 C 407.335938 671.382812 416.371094 668.761719 423.367188 671.976562 C 428.785156 674.476562 432.144531 680.226562 433.226562 686.101562 C 434.292969 691.960938 433.414062 698 432.363281 703.875 C 431.402344 709.15625 430.253906 714.527344 428.539062 719.648438 C 446.394531 723.804688 464.988281 726.007812 484.109375 726.007812 C 514.847656 726.007812 544.273438 720.324219 571.363281 709.953125 C 559.640625 705.304688 547.445312 701.347656 535.96875 696.394531 C 510.363281 685.332031 484.527344 663.089844 487.269531 635.339844 Z M 455.515625 704.851562 C 451.566406 705.917969 446.902344 703.507812 445.777344 699.570312 C 444.792969 696.148438 446.898438 692.167969 450.144531 690.921875 L 448.445312 691.332031 C 449.714844 688.324219 453.605469 686.890625 456.683594 687.980469 C 459.761719 689.070312 461.832031 692.273438 462.011719 695.535156 C 462.238281 699.625 459.46875 703.78125 455.515625 704.851562 Z M 656.761719 547.171875 C 657.066406 548.53125 657.460938 549.972656 657.925781 551.472656 C 657.746094 551.449219 657.570312 551.421875 657.390625 551.398438 C 657.125 550 656.925781 548.585938 656.761719 547.171875 Z M 387.703125 490.308594 C 371.601562 483.964844 353.246094 478.710938 335.699219 474.496094 C 340.980469 462.328125 352.710938 452.847656 365.917969 452.058594 C 381.054688 451.152344 396.371094 463.199219 397.371094 478.324219 C 397.523438 480.683594 397.355469 483.003906 396.976562 485.296875 C 391.429688 488.140625 387.703125 490.308594 387.703125 490.308594 Z M 263.941406 460.996094 L 243.992188 438.132812 C 244.332031 437.417969 244.683594 436.707031 245.007812 435.988281 C 245.503906 434.894531 245.984375 433.796875 246.445312 432.6875 C 246.828125 431.777344 247.488281 430.832031 247.1875 429.851562 C 246.929688 429.003906 246.496094 428.167969 246.054688 427.34375 C 252.183594 400.445312 262.726562 375.222656 276.921875 352.515625 C 289.117188 356.511719 300.027344 367.34375 304.375 379.863281 C 311.316406 399.847656 306.5625 421.765625 302.054688 442.441406 C 300.339844 450.324219 298.6875 458.429688 297.742188 466.527344 C 284.535156 464.117188 273.988281 462.539062 268.417969 461.753906 C 268.269531 461.386719 267.894531 461.179688 267.480469 461.121094 C 266.304688 460.964844 265.121094 460.949219 263.941406 460.996094 Z M 255.066406 566.636719 C 263.019531 568.460938 270.960938 569.789062 278.730469 570.726562 C 274.890625 571.859375 271.089844 573.210938 267.390625 574.488281 C 264.730469 575.40625 261.976562 576.285156 259.164062 577 C 257.71875 573.585938 256.359375 570.128906 255.066406 566.636719 Z M 144.683594 113.378906 L 138.742188 105.238281 L 170.527344 66.816406 L 179.742188 72.007812 C 165.003906 82.945312 152.785156 97.035156 144.683594 113.378906 Z M 144.683594 113.378906 " fill-opacity="1" fill-rule="nonzero"/><path fill="#353535" d="M 259.164062 577 C 260.042969 579.070312 260.953125 581.121094 261.886719 583.15625 L 261.882812 583.164062 C 125.441406 553.105469 109.628906 428.65625 109.628906 428.65625 L 109.636719 428.65625 C 122.738281 466.964844 152.066406 499.914062 152.066406 499.914062 C 154.539062 499.785156 156.949219 499.566406 159.308594 499.285156 C 181.648438 539.355469 218.515625 558.253906 255.0625 566.636719 C 256.359375 570.128906 257.71875 573.585938 259.164062 577 Z M 80.4375 194.578125 C 80.4375 194.578125 69.523438 230.566406 91.644531 232.925781 C 113.769531 235.285156 119.964844 206.964844 119.964844 206.964844 C 119.964844 206.964844 121.734375 221.558594 133.535156 217.800781 C 145.335938 214.046875 140.910156 203.285156 140.910156 203.285156 C 140.910156 203.285156 143.945312 208.324219 149.984375 209.074219 C 143.234375 197.449219 138.558594 184.632812 136.273438 171.375 C 134.859375 163.175781 134.039062 154.59375 134.851562 146.277344 C 135.4375 140.269531 136.765625 134.324219 138.558594 128.566406 C 140.199219 123.316406 142.265625 118.253906 144.683594 113.378906 L 138.742188 105.238281 L 170.527344 66.816406 C 170.527344 66.816406 158.609375 50.917969 127.339844 57.703125 C 96.074219 64.488281 81.027344 98.410156 79.847656 125.84375 C 78.667969 153.277344 78.667969 164.488281 78.667969 164.488281 C 78.667969 164.488281 51.527344 169.503906 50.644531 187.496094 C 49.757812 205.492188 80.4375 194.578125 80.4375 194.578125 Z M 338.269531 84.511719 C 338.269531 84.511719 275.648438 0.09375 184.039062 69.9375 C 183.15625 70.605469 182.320312 71.28125 181.46875 71.953125 C 181.734375 72.394531 181.734375 73.03125 181.210938 73.417969 C 169.09375 82.328125 158.59375 93.390625 150.808594 106.289062 C 143.367188 118.621094 137.84375 133.023438 136.769531 147.503906 C 136.050781 157.234375 137.253906 167.300781 139.414062 176.78125 C 142.789062 191.546875 149.140625 205.535156 158.058594 217.777344 C 158.472656 218.34375 158.148438 218.886719 157.652344 219.117188 C 163.621094 227.386719 169.453125 233.136719 173.152344 235.472656 C 190.386719 246.359375 214.308594 267.75 216.238281 274.191406 C 216.238281 274.191406 218.167969 242.214844 201.429688 221.398438 C 201.429688 221.398438 173.898438 213.546875 169.820312 191.226562 C 165.742188 168.910156 200.566406 140.871094 215.300781 187.839844 C 215.300781 187.839844 240.835938 164.613281 232.324219 114.640625 C 232.324219 114.640625 248.820312 139.886719 265.148438 141.128906 C 281.476562 142.371094 281.125 132.785156 278.28125 129.058594 C 278.28125 129.058594 302.953125 141.835938 311.648438 132.964844 C 320.34375 124.089844 305.257812 113.441406 305.257812 113.441406 C 305.257812 113.441406 329.75 130.835938 343.0625 126.042969 C 348.539062 124.070312 350.136719 120.925781 350.121094 117.90625 C 350.101562 113.589844 346.789062 109.535156 346.789062 109.535156 C 346.789062 109.535156 362.761719 116.457031 366.3125 105.984375 C 369.859375 95.515625 353.175781 86.285156 338.269531 84.511719 Z M 297.894531 275.398438 C 297.894531 275.398438 272.027344 278.25 251.230469 268.519531 C 251.230469 268.519531 263.359375 293.242188 297.894531 290.890625 Z M 307.566406 168.597656 C 306.710938 179.359375 311.226562 190.242188 319.445312 197.234375 C 320.433594 198.074219 321.875 196.648438 320.878906 195.800781 C 313.019531 189.117188 308.773438 178.882812 309.589844 168.597656 C 309.695312 167.300781 307.667969 167.308594 307.566406 168.597656 Z M 271.414062 155.34375 C 267.585938 153.070312 262.769531 152.621094 258.636719 154.332031 C 254.855469 155.898438 251.949219 159.039062 250.566406 162.878906 C 250.125 164.105469 252.082031 164.636719 252.519531 163.417969 C 253.683594 160.191406 256.234375 157.484375 259.421875 156.1875 C 262.992188 154.734375 267.097656 155.136719 270.390625 157.09375 C 271.511719 157.761719 272.535156 156.011719 271.414062 155.34375 Z M 330.214844 154.207031 C 334.824219 151.011719 341.03125 151.117188 345.414062 154.695312 C 346.417969 155.511719 347.859375 154.085938 346.847656 153.261719 C 341.789062 149.132812 334.597656 148.710938 329.191406 152.457031 C 328.125 153.191406 329.136719 154.949219 330.214844 154.207031 Z M 347.933594 169.742188 C 347.539062 173.550781 344.183594 176.933594 340.347656 177.265625 C 336.359375 177.613281 332.5 174.789062 331.464844 170.964844 C 331.125 169.707031 329.167969 170.242188 329.511719 171.503906 C 330.800781 176.253906 335.648438 179.792969 340.605469 179.269531 C 345.519531 178.75 349.457031 174.605469 349.957031 169.742188 C 350.089844 168.445312 348.0625 168.457031 347.933594 169.742188 Z M 259.382812 175.25 C 259.042969 173.992188 257.089844 174.527344 257.429688 175.789062 C 258.71875 180.535156 263.566406 184.078125 268.523438 183.554688 C 273.4375 183.035156 277.375 178.886719 277.875 174.023438 C 278.011719 172.730469 275.984375 172.738281 275.851562 174.023438 C 275.457031 177.835938 272.105469 181.21875 268.265625 181.550781 C 264.277344 181.898438 260.421875 179.074219 259.382812 175.25 Z M 287.71875 212.050781 C 286.863281 211.0625 285.4375 212.5 286.285156 213.484375 C 294.675781 223.199219 308.511719 226.457031 320.355469 221.476562 C 321.539062 220.976562 321.019531 219.015625 319.816406 219.519531 C 308.574219 224.25 295.691406 221.285156 287.71875 212.050781 Z M 189.199219 175.40625 C 195.984375 177.734375 201.195312 184.121094 202.039062 191.261719 C 202.191406 192.539062 204.21875 192.554688 204.0625 191.261719 C 203.109375 183.175781 197.457031 176.101562 189.738281 173.453125 C 188.503906 173.03125 187.972656 174.988281 189.199219 175.40625 Z M 267.484375 461.121094 C 266.304688 460.964844 265.121094 460.949219 263.941406 460.996094 C 258.699219 461.21875 253.578125 463.390625 249.828125 467.101562 C 248.898438 468.019531 250.332031 469.449219 251.261719 468.53125 C 255.515625 464.328125 261.566406 462.359375 267.484375 463.148438 C 268.03125 463.222656 268.492188 462.632812 268.496094 462.136719 C 268.5 461.996094 268.46875 461.867188 268.421875 461.753906 C 268.269531 461.386719 267.898438 461.175781 267.484375 461.121094 Z M 243.261719 434.964844 C 241.074219 439.773438 238.570312 444.4375 235.769531 448.914062 C 235.082031 450.015625 234.371094 451.105469 233.648438 452.1875 C 233.617188 452.230469 233.589844 452.273438 233.558594 452.316406 C 233.128906 452.957031 232.679688 453.582031 232.238281 454.214844 C 227.382812 461.128906 221.8125 467.535156 215.609375 473.273438 C 213.703125 475.03125 211.738281 476.730469 209.726562 478.367188 C 208.714844 479.1875 210.152344 480.613281 211.15625 479.796875 C 219.429688 473.070312 226.777344 465.269531 233.019531 456.628906 C 236.113281 452.34375 238.921875 447.859375 241.429688 443.210938 C 242.328125 441.542969 243.171875 439.84375 243.988281 438.132812 C 244.332031 437.421875 244.679688 436.710938 245.007812 435.988281 C 245.503906 434.894531 245.980469 433.796875 246.445312 432.691406 C 246.828125 431.777344 247.484375 430.835938 247.183594 429.851562 C 246.925781 429.007812 246.492188 428.167969 246.050781 427.347656 C 245.777344 426.832031 245.5 426.324219 245.257812 425.832031 C 243.515625 422.257812 241.726562 418.710938 239.90625 415.179688 C 233.976562 403.699219 227.683594 392.394531 220.964844 381.351562 C 213.027344 368.308594 204.5 355.558594 194.808594 343.742188 C 186.59375 333.726562 177.273438 323.628906 165.796875 317.320312 C 164.605469 316.664062 163.382812 316.0625 162.136719 315.515625 C 161.554688 315.257812 161.011719 315.554688 160.746094 315.980469 C 160.480469 316.421875 160.511719 316.996094 161.113281 317.261719 C 172.507812 322.273438 181.746094 331.664062 189.785156 340.917969 C 199.621094 352.246094 208.171875 364.675781 216.128906 377.375 C 223.175781 388.628906 229.738281 400.1875 235.929688 411.933594 C 238.046875 415.953125 240.117188 419.992188 242.136719 424.0625 C 243.160156 426.125 244.386719 428.210938 245.203125 430.371094 C 245.222656 430.421875 245.269531 430.5 245.316406 430.578125 C 245.140625 430.726562 244.871094 431.1875 244.917969 431.128906 C 244.152344 432.101562 243.785156 433.8125 243.261719 434.964844 Z M 292.320312 329.011719 C 277.835938 333.996094 261.953125 334.359375 247.257812 330.011719 C 234.007812 326.089844 222.117188 318.261719 213.058594 307.851562 C 208.261719 302.339844 204.335938 296.121094 201.363281 289.453125 C 201.273438 289.246094 201.171875 289.042969 201.082031 288.835938 C 200.5625 287.644531 198.816406 288.671875 199.332031 289.859375 C 199.332031 289.859375 199.335938 289.859375 199.335938 289.863281 C 200.605469 292.785156 202.085938 295.609375 203.714844 298.335938 C 194.867188 300.867188 186.28125 304.238281 178.082031 308.421875 C 176.921875 309.015625 177.945312 310.761719 179.105469 310.171875 C 187.328125 305.976562 195.9375 302.617188 204.824219 300.113281 C 210.117188 308.429688 217.003906 315.710938 225.0625 321.429688 C 237.300781 330.117188 252.070312 334.816406 267.0625 335.058594 C 275.472656 335.195312 283.875 333.90625 291.859375 331.285156 C 292.191406 331.175781 292.527344 331.082031 292.855469 330.964844 C 293.605469 330.707031 293.695312 329.878906 293.371094 329.367188 C 293.167969 329.042969 292.800781 328.847656 292.320312 329.011719 Z M 496.335938 509.375 C 495.96875 509.414062 495.613281 509.613281 495.441406 510.03125 C 491.746094 518.96875 482.179688 522.949219 473.597656 525.675781 C 463.90625 528.757812 454.109375 531.6875 444.082031 533.4375 C 442.800781 533.660156 443.34375 535.613281 444.621094 535.390625 C 455.410156 533.507812 466.082031 530.382812 476.449219 526.875 C 479.847656 525.726562 483.25 524.316406 486.351562 522.496094 C 487.824219 532.347656 477.863281 539.878906 470.429688 544.367188 C 462.179688 549.347656 452.824219 552.363281 443.222656 553.152344 C 441.933594 553.261719 441.921875 555.285156 443.222656 555.179688 C 452.121094 554.445312 460.8125 551.890625 468.667969 547.675781 C 463.664062 564.578125 443.363281 568.609375 428.1875 571.011719 C 426.902344 571.21875 427.449219 573.167969 428.726562 572.96875 C 435.554688 571.886719 442.566406 570.75 449.101562 568.371094 C 451.660156 567.441406 454.148438 566.339844 456.515625 564.949219 C 457.691406 564.261719 458.828125 563.503906 459.925781 562.683594 C 465.273438 558.695312 469.535156 553.214844 471.039062 546.617188 C 471.0625 546.511719 471.050781 546.417969 471.046875 546.320312 C 471.667969 545.953125 472.296875 545.601562 472.902344 545.214844 C 480.925781 540.066406 490.351562 531.972656 488.21875 521.320312 C 492.167969 518.660156 495.476562 515.210938 497.394531 510.570312 C 497.714844 509.789062 497.007812 509.304688 496.335938 509.375 Z M 160.183594 700.628906 C 165.421875 707.054688 170.871094 713.300781 176.515625 719.371094 C 177.402344 720.328125 178.832031 718.894531 177.945312 717.941406 C 158.152344 696.632812 140.804688 673.101562 126.339844 647.871094 C 122.269531 640.765625 118.429688 633.53125 114.820312 626.179688 C 114.652344 625.84375 114.386719 625.703125 114.109375 625.683594 C 113.425781 625.632812 112.664062 626.375 113.070312 627.203125 C 115.941406 633.046875 118.984375 638.800781 122.148438 644.488281 C 133.152344 664.269531 145.875 683.082031 160.183594 700.628906 Z M 222.285156 701.472656 C 214.515625 686.996094 201.953125 676.078125 189.910156 665.238281 C 177.378906 653.957031 165.230469 642.082031 155.28125 628.40625 C 144.375 613.414062 136.085938 596.167969 133.710938 577.636719 C 133.546875 576.359375 131.519531 576.34375 131.683594 577.636719 C 135.726562 609.148438 155.527344 635.289062 177.773438 656.75 C 189.273438 667.839844 202.113281 677.722656 212.242188 690.160156 C 217.09375 696.121094 221.273438 702.78125 223.957031 710.007812 C 226.273438 716.261719 228.078125 723.6875 226.488281 730.324219 C 225.75 733.402344 224.136719 736.660156 221.011719 737.882812 C 217.019531 739.445312 212.605469 737.171875 208.5 738.351562 C 204.875 739.394531 202.289062 742.269531 199.222656 744.28125 C 196.632812 745.980469 191.886719 747.304688 189.867188 744.085938 C 189.175781 742.984375 187.425781 744 188.117188 745.109375 C 189.628906 747.515625 192.304688 748.296875 195.027344 747.964844 C 198.242188 747.574219 200.683594 745.792969 203.167969 743.855469 C 204.515625 742.800781 205.871094 741.71875 207.410156 740.949219 C 209.382812 739.964844 211.398438 739.882812 213.558594 740.070312 C 217.023438 740.375 220.53125 740.902344 223.570312 738.792969 C 228.300781 735.507812 229.363281 728.8125 228.996094 723.476562 C 228.460938 715.738281 225.9375 708.273438 222.285156 701.472656 Z M 124.945312 686.308594 C 120.546875 680.070312 116.472656 673.609375 112.730469 666.957031 C 112.089844 665.820312 110.339844 666.84375 110.980469 667.980469 C 124.453125 691.902344 142.292969 713.335938 163.398438 730.902344 C 169.332031 735.839844 175.515625 740.46875 181.921875 744.78125 C 183.003906 745.511719 184.019531 743.753906 182.941406 743.03125 C 160.382812 727.84375 140.625 708.535156 124.945312 686.308594 Z M 302.105469 660.503906 C 301.417969 656.496094 301.011719 652.425781 302.339844 648.5 C 302.757812 647.261719 300.804688 646.730469 300.386719 647.960938 C 298.25 654.265625 300.167969 661.074219 301.304688 667.386719 C 302.613281 674.667969 303.84375 681.964844 304.710938 689.3125 C 306.355469 703.191406 306.746094 717.363281 304.058594 731.144531 C 302.601562 738.613281 300.253906 745.878906 296.824219 752.679688 C 296.578125 753.167969 296.753906 753.621094 297.074219 753.90625 C 297.511719 754.304688 298.234375 754.378906 298.574219 753.699219 C 298.792969 753.273438 298.992188 752.84375 299.199219 752.414062 C 311.167969 727.554688 308.800781 699.136719 304.289062 672.707031 C 303.589844 668.636719 302.808594 664.578125 302.105469 660.503906 Z M 328.269531 710.949219 C 328.992188 709.0625 330.269531 707.441406 331.109375 705.613281 C 331.855469 703.988281 332.386719 702.277344 332.675781 700.511719 C 333.910156 692.9375 331.191406 685.070312 326.578125 679.089844 C 320.773438 671.5625 312.5 666.566406 304.457031 661.765625 C 303.335938 661.09375 302.316406 662.84375 303.4375 663.515625 C 316.125 671.089844 331.980469 681.28125 330.910156 698.226562 C 330.796875 699.992188 330.441406 701.746094 329.835938 703.414062 C 329.148438 705.320312 327.996094 706.957031 327.070312 708.746094 C 325.492188 711.796875 325.449219 714.792969 327.125 717.8125 C 328.910156 721.035156 331.664062 723.570312 332.714844 727.195312 C 333.765625 730.828125 333.375 734.757812 332.050781 738.273438 C 328.929688 746.566406 320.726562 751.433594 312.746094 754.203125 C 311.523438 754.628906 312.050781 756.585938 313.285156 756.15625 C 320.601562 753.617188 327.894531 749.554688 332.074219 742.792969 C 335.996094 736.441406 336.632812 728.171875 332.359375 721.847656 C 330.164062 718.59375 326.640625 715.207031 328.269531 710.949219 Z M 109.332031 622.269531 C 100.6875 626.894531 94.089844 634.257812 88.382812 642.085938 C 81.816406 651.089844 75.867188 660.597656 70.015625 670.078125 C 63.890625 680 58.027344 690.082031 52.433594 700.3125 C 47.242188 709.796875 41.984375 719.605469 40.085938 730.371094 C 38.339844 740.257812 40 751.710938 48.402344 757.953125 C 48.988281 758.386719 49.601562 758.800781 50.253906 759.183594 C 50.902344 759.5625 51.503906 759.136719 51.691406 758.585938 C 51.828125 758.183594 51.75 757.714844 51.273438 757.433594 C 42.09375 752.054688 40.335938 740.578125 42.039062 730.910156 C 43.472656 722.777344 46.851562 715.222656 50.648438 707.925781 C 50.652344 707.925781 50.65625 707.929688 50.664062 707.925781 C 60.292969 706.449219 69.824219 711.273438 76.199219 718.269531 C 82.9375 725.664062 86.582031 735.261719 89.289062 744.742188 C 89.417969 745.199219 89.769531 745.414062 90.136719 745.445312 C 90.589844 745.484375 91.0625 745.230469 91.21875 744.792969 C 91.277344 744.621094 91.308594 744.429688 91.242188 744.203125 C 88.34375 734.0625 84.347656 723.761719 76.894531 716.050781 C 70.378906 709.3125 61.207031 704.949219 51.777344 705.78125 C 52.46875 704.484375 53.167969 703.191406 53.871094 701.90625 C 64.226562 682.925781 75.40625 664.285156 87.71875 646.507812 C 93.8125 637.710938 100.761719 629.152344 110.351562 624.019531 C 111.503906 623.402344 110.480469 621.652344 109.332031 622.269531 Z M 82.957031 709.117188 C 81.804688 708.511719 80.78125 710.257812 81.933594 710.867188 C 89.070312 714.625 94.019531 721.75 95.121094 729.730469 C 95.296875 731.015625 97.25 730.46875 97.074219 729.191406 C 95.910156 720.742188 90.5 713.089844 82.957031 709.117188 Z M 667.019531 577.828125 C 668.070312 577.957031 669.054688 578.117188 669.980469 578.296875 C 663.585938 570.539062 659.253906 561.230469 657.390625 551.398438 C 657.125 550 656.925781 548.589844 656.761719 547.171875 C 656.496094 544.875 656.347656 542.5625 656.355469 540.238281 C 656.355469 539.945312 656.246094 539.730469 656.089844 539.570312 C 655.546875 539.007812 654.332031 539.222656 654.328125 540.238281 C 654.316406 543.894531 654.652344 547.53125 655.289062 551.105469 C 657.015625 560.78125 661.042969 569.992188 667.019531 577.828125 Z M 772.964844 593.9375 L 764.894531 594.34375 C 765.992188 596.058594 766.949219 597.742188 767.75 599.273438 C 763.789062 602.578125 757.675781 606.332031 749.679688 607.101562 C 734.828125 608.527344 720.550781 600.246094 707.128906 602.246094 C 693.707031 604.246094 687.425781 615.144531 671.722656 607.265625 C 656.6875 599.730469 638.519531 592.351562 625.722656 599.242188 C 625.152344 599.554688 624.582031 599.878906 624.03125 600.246094 C 624.03125 600.246094 621.625 646.078125 621.585938 683.648438 C 621.5625 702.941406 622.160156 720.058594 624.03125 727.671875 C 629.546875 750.105469 728.15625 753.238281 755.808594 743.847656 C 783.460938 734.453125 772.964844 593.9375 772.964844 593.9375 Z M 664.011719 594.179688 C 663.007812 595.011719 664.449219 596.4375 665.445312 595.613281 C 670.097656 591.757812 676.164062 595.761719 680.152344 598.558594 C 680.765625 598.988281 681.730469 598.421875 681.679688 597.683594 C 681.503906 595.183594 683.417969 593.046875 685.828125 592.550781 C 688.640625 591.972656 691.378906 593.535156 693.292969 595.457031 C 694.214844 596.382812 695.648438 594.953125 694.726562 594.027344 C 692.226562 591.511719 688.496094 589.648438 684.894531 590.699219 C 682.425781 591.414062 680.394531 593.429688 679.824219 595.894531 C 675.0625 592.761719 669.023438 590.023438 664.011719 594.179688 Z M 733.929688 595.570312 C 737.191406 593.703125 741.351562 593.96875 744.402344 596.140625 C 744.847656 596.457031 745.527344 596.21875 745.789062 595.777344 C 746.085938 595.269531 745.871094 594.710938 745.425781 594.390625 C 741.800781 591.808594 736.753906 591.617188 732.90625 593.820312 C 731.773438 594.46875 732.796875 596.21875 733.929688 595.570312 Z M 733.929688 595.570312 " fill-opacity="1" fill-rule="nonzero"/></svg>