<svg xmlns="http://www.w3.org/2000/svg" xmlns:xlink="http://www.w3.org/1999/xlink" width="1080" zoomAndPan="magnify" viewBox="0 0 810 809.999993" height="1080" preserveAspectRatio="xMidYMid meet" version="1.0"><defs><clipPath id="6be65d49c8"><path d="M 69.855469 97 L 740 97 L 740 714 L 69.855469 714 Z M 69.855469 97 " clip-rule="nonzero"/></clipPath><clipPath id="a8c12adc76"><path d="M 177 96.058594 L 586 96.058594 L 586 714 L 177 714 Z M 177 96.058594 " clip-rule="nonzero"/></clipPath></defs><g clip-path="url(#6be65d49c8)"><path fill="#bfe385" d="M 739.992188 713.882812 L 524.777344 713.882812 L 514.03125 675.636719 C 514.089844 675.664062 514.148438 675.6875 514.207031 675.710938 C 514.984375 676.03125 515.324219 674.765625 514.554688 674.445312 C 514.230469 674.3125 513.910156 674.175781 513.585938 674.042969 L 506.945312 650.40625 C 507.664062 650.652344 508.25 649.605469 507.523438 649.253906 C 507.175781 649.085938 506.828125 648.925781 506.480469 648.757812 L 482.289062 562.648438 C 482.289062 562.648438 492.265625 558.726562 505.921875 548.257812 C 524.988281 554.308594 533.089844 510.332031 571.503906 517.355469 C 612.59375 524.863281 633.328125 604.589844 643.503906 616.144531 C 653.683594 627.699219 669.890625 602.277344 697.03125 622.5 C 724.171875 642.722656 739.992188 713.882812 739.992188 713.882812 Z M 219.570312 487.792969 C 213.847656 489.417969 207.992188 492.007812 202.035156 495.835938 C 145.183594 532.363281 162.285156 621.300781 139.484375 623.683594 C 116.6875 626.0625 90.242188 612.816406 69.996094 713.882812 L 258.363281 713.882812 L 282.742188 555.375 C 282.742188 555.375 248.824219 528.488281 219.570312 487.792969 Z M 369.726562 690.1875 C 373.039062 686.78125 375.9375 683 378.351562 678.902344 C 382.71875 671.484375 385.507812 663.167969 386.585938 654.644531 C 380.765625 655.300781 374.890625 655.371094 369.066406 654.851562 C 369.285156 666.632812 369.507812 678.410156 369.726562 690.1875 Z M 385.167969 631.460938 C 378.984375 632.089844 373.492188 632.300781 368.640625 632.203125 C 368.710938 635.960938 368.78125 639.71875 368.851562 643.476562 C 368.914062 646.835938 368.980469 650.195312 369.042969 653.554688 C 374.929688 654.082031 380.863281 654.003906 386.730469 653.3125 C 387.5 646.011719 387.019531 638.585938 385.167969 631.460938 Z M 388.300781 642.773438 C 388.515625 646.222656 388.433594 649.691406 388.085938 653.132812 C 390.667969 652.785156 393.234375 652.324219 395.777344 651.742188 C 396.136719 644.472656 396.578125 637.15625 397.089844 629.835938 C 393.347656 630.464844 389.820312 630.953125 386.484375 631.320312 C 387.449219 635.070312 388.058594 638.90625 388.300781 642.773438 Z M 347.664062 648.773438 C 351.074219 650.015625 354.558594 651.058594 358.101562 651.851562 C 361.28125 652.566406 364.496094 653.082031 367.726562 653.421875 C 367.59375 646.335938 367.460938 639.257812 367.328125 632.171875 C 359.390625 631.921875 353.222656 630.859375 348.527344 629.554688 Z M 390.992188 654.042969 C 389.972656 654.210938 388.949219 654.359375 387.921875 654.492188 C 386.28125 667.898438 380.457031 680.785156 371.136719 690.601562 C 373.429688 690.351562 375.695312 689.921875 377.921875 689.3125 C 378.734375 689.085938 379.082031 690.351562 378.269531 690.574219 C 376.03125 691.191406 373.746094 691.617188 371.441406 691.878906 C 371.644531 698.722656 371.90625 705.566406 372.105469 712.410156 C 372.128906 713.253906 370.820312 713.25 370.792969 712.410156 C 370.597656 705.609375 370.335938 698.816406 370.136719 692.019531 C 370.125 692.019531 370.113281 692.019531 370.101562 692.023438 C 369.855469 692.042969 369.6875 691.9375 369.585938 691.78125 C 366.054688 691.140625 362.519531 690.5 358.988281 689.859375 C 358.160156 689.710938 358.511719 688.445312 359.335938 688.597656 C 362.363281 689.144531 365.394531 689.695312 368.421875 690.242188 C 368.421875 690.238281 368.417969 690.238281 368.417969 690.234375 C 368.335938 685.8125 368.253906 681.390625 368.167969 676.96875 C 368.03125 669.558594 367.890625 662.148438 367.753906 654.738281 C 360.886719 654.019531 354.109375 652.484375 347.601562 650.144531 L 344.738281 713.882812 L 395.148438 713.882812 C 394.398438 694.761719 394.703125 674.132812 395.710938 653.101562 C 394.148438 653.457031 392.574219 653.78125 390.992188 654.042969 Z M 467.160156 257.910156 C 459.71875 251.875 454.890625 248.460938 450.871094 247.445312 C 446.847656 246.445312 444.226562 248.660156 445.84375 244.636719 C 447.449219 240.609375 448.050781 240.40625 447.648438 236.792969 C 447.246094 233.167969 455.292969 228.742188 454.6875 225.328125 C 454.085938 221.902344 450.261719 216.671875 446.847656 218.488281 C 443.421875 220.296875 437.988281 228.742188 435.578125 224.121094 C 433.167969 219.492188 432.566406 215.152344 436.765625 210.402344 C 440.976562 205.660156 441.519531 198.742188 446.53125 199.011719 C 451.554688 199.285156 456.566406 198.472656 460.226562 195.214844 C 463.894531 191.964844 467.683594 178.8125 465.917969 171.894531 C 464.164062 164.980469 449.246094 166.601562 452.636719 160.636719 C 456.023438 154.671875 473.929688 137.992188 474.742188 128.230469 C 475.203125 122.640625 472.6875 116.550781 470.460938 112.378906 L 470.453125 112.378906 C 454.59375 114.535156 438.09375 123.023438 423.515625 139.398438 C 424.394531 142.160156 425.066406 144.988281 425.503906 147.867188 C 425.632812 148.691406 424.367188 149.042969 424.242188 148.214844 C 423.34375 142.339844 421.519531 136.652344 418.804688 131.367188 C 418.707031 131.175781 418.710938 130.988281 418.773438 130.832031 C 412.703125 119.546875 399.566406 101.4375 376.480469 97.691406 C 372.996094 100.214844 361.101562 109.28125 358.875 116.964844 C 356.261719 125.988281 355.78125 133.113281 353.171875 135.960938 C 350.558594 138.808594 343.207031 151.863281 346.054688 159.699219 C 348.898438 167.53125 361.242188 168.003906 362.664062 174.414062 C 364.097656 180.824219 346.761719 192.691406 367.648438 205.042969 C 367.648438 205.042969 364.332031 224.980469 369.074219 225.933594 C 373.824219 226.875 377.152344 212.160156 379.996094 210.019531 C 382.84375 207.890625 380.46875 218.335938 379.996094 223.792969 C 379.519531 229.25 388.066406 249.433594 418.6875 252.753906 C 418.6875 252.753906 422.390625 253.46875 421.367188 257.265625 C 420.355469 261.066406 419.0625 263.675781 421.367188 268.898438 C 423.675781 274.121094 412.503906 274.558594 410.3125 288.042969 C 409.492188 293.117188 409.910156 297.832031 410.75 301.738281 C 422.769531 298.015625 438.644531 292.222656 455.117188 283.753906 C 455.117188 283.753906 455.121094 283.75 455.121094 283.75 C 461.199219 280.625 467.351562 277.152344 473.429688 273.265625 C 472.792969 267.832031 471.175781 261.167969 467.160156 257.910156 Z M 502.914062 194.585938 C 504.925781 195.761719 510.714844 192.574219 515.789062 193.167969 C 520.863281 193.753906 521.457031 198.59375 525.117188 204.023438 C 526.574219 206.199219 528.382812 208.488281 530.023438 210.460938 C 530.46875 209.421875 530.898438 208.363281 531.316406 207.300781 C 534.679688 198.667969 536.660156 190.363281 537.464844 182.503906 C 538.953125 167.894531 536.351562 154.808594 530.863281 143.992188 C 526.792969 144.339844 520.242188 146.15625 518.261719 147.003906 C 515.769531 148.070312 510 158.105469 509.527344 161.179688 C 509.054688 164.242188 516.609375 167.074219 516.96875 170.148438 C 517.324219 173.210938 506.8125 179.117188 504.574219 182.191406 C 502.328125 185.257812 500.914062 193.40625 502.914062 194.585938 Z M 330.0625 193.578125 C 326.632812 192.949219 328.96875 190.453125 326 187.964844 C 323.039062 185.464844 318.820312 187.808594 316.480469 186.863281 C 314.140625 185.929688 318.359375 180.15625 317.109375 177.5 C 315.863281 174.855469 315.703125 171.421875 316.953125 169.386719 C 318.203125 167.359375 323.355469 154.722656 321.015625 150.820312 C 319.320312 148 310.726562 145.167969 306.132812 143.824219 C 304.726562 151.289062 304.507812 159.425781 305.417969 168.058594 C 307.140625 184.40625 312.921875 202.550781 322.378906 221.34375 C 324.347656 222.234375 326.253906 223.28125 328.058594 224.53125 C 328.265625 224.675781 328.339844 224.875 328.339844 225.074219 C 328.703125 224.941406 329.078125 224.8125 329.460938 224.679688 C 331.328125 218.082031 333.535156 210.207031 334.589844 206.058594 C 336.613281 198.101562 333.496094 194.199219 330.0625 193.578125 Z M 375.195312 271.824219 C 371.101562 273.011719 371.765625 265.253906 366.296875 264.085938 C 362.761719 263.324219 358 267.796875 355.085938 271.046875 C 355.222656 271.214844 355.367188 271.386719 355.507812 271.558594 C 356.867188 273.214844 358.253906 274.871094 359.660156 276.523438 C 365.910156 283.851562 372.640625 291.117188 379.851562 298.25 C 382.0625 290.085938 385.300781 277.144531 384.324219 274.996094 C 382.863281 271.824219 379.292969 270.632812 375.195312 271.824219 Z M 492.644531 216.777344 C 494.210938 214.96875 494.449219 210.636719 491.800781 208.226562 C 489.152344 205.820312 486.140625 207.144531 483.011719 207.863281 C 479.878906 208.585938 482.046875 203.050781 479.519531 202.175781 C 476.992188 201.300781 471.210938 205.578125 469.285156 207.261719 C 467.355469 208.949219 469.644531 212.804688 472.175781 215.644531 C 474.703125 218.488281 480.832031 218.660156 482.167969 218.824219 C 485.667969 219.25 491.078125 218.582031 492.644531 216.777344 Z M 492.644531 216.777344 " fill-opacity="1" fill-rule="nonzero"/></g><g clip-path="url(#a8c12adc76)"><path fill="#a6c9fd" d="M 446.847656 218.488281 C 450.261719 216.671875 454.085938 221.902344 454.6875 225.324219 C 455.292969 228.738281 447.246094 233.167969 447.648438 236.792969 C 448.050781 240.40625 447.449219 240.609375 445.84375 244.632812 C 444.226562 248.660156 446.847656 246.441406 450.871094 247.445312 C 454.890625 248.457031 459.71875 251.875 467.160156 257.910156 C 471.175781 261.164062 472.792969 267.828125 473.429688 273.261719 C 476.671875 271.191406 479.886719 269 483.058594 266.699219 C 478.234375 262.296875 473.042969 256.953125 468.566406 250.96875 C 456.035156 234.226562 454.039062 222.234375 460.535156 221.734375 C 466.375 221.285156 481.734375 233.753906 484.78125 236.277344 C 484.800781 236.039062 484.941406 235.816406 485.246094 235.738281 C 488.613281 234.898438 492.105469 234.660156 495.550781 235.070312 C 501.179688 235.746094 506.335938 238.117188 510.492188 241.65625 C 518.335938 232.472656 525.066406 222.117188 530.023438 210.460938 C 528.378906 208.484375 526.570312 206.199219 525.113281 204.023438 C 521.453125 198.589844 520.859375 193.753906 515.785156 193.167969 C 510.710938 192.574219 504.921875 195.761719 502.914062 194.582031 C 500.910156 193.402344 502.328125 185.253906 504.570312 182.191406 C 506.808594 179.117188 517.324219 173.210938 516.964844 170.148438 C 516.605469 167.074219 509.050781 164.242188 509.523438 161.179688 C 509.996094 158.105469 515.765625 148.070312 518.257812 147.003906 C 520.238281 146.15625 526.789062 144.339844 530.859375 143.988281 C 519.515625 121.613281 495.839844 108.90625 470.460938 112.375 C 472.6875 116.550781 475.203125 122.636719 474.738281 128.226562 C 473.925781 137.992188 456.023438 154.671875 452.632812 160.636719 C 449.246094 166.601562 464.164062 164.976562 465.917969 171.894531 C 467.683594 178.808594 463.890625 191.960938 460.222656 195.210938 C 456.566406 198.46875 451.550781 199.28125 446.53125 199.011719 C 441.515625 198.738281 440.976562 205.65625 436.765625 210.398438 C 432.5625 215.148438 433.167969 219.492188 435.578125 224.121094 C 437.992188 228.742188 443.421875 220.292969 446.847656 218.488281 Z M 469.285156 207.261719 C 471.210938 205.578125 476.992188 201.300781 479.519531 202.175781 C 482.046875 203.050781 479.882812 208.585938 483.011719 207.863281 C 486.140625 207.144531 489.152344 205.816406 491.800781 208.226562 C 494.453125 210.636719 494.210938 214.96875 492.644531 216.777344 C 491.082031 218.582031 485.667969 219.25 482.167969 218.824219 C 480.832031 218.660156 474.703125 218.488281 472.175781 215.644531 C 469.644531 212.800781 467.359375 208.949219 469.285156 207.261719 Z M 410.75 301.734375 C 397.851562 305.726562 389.398438 307.339844 389.398438 307.339844 C 386.128906 304.335938 382.941406 301.296875 379.851562 298.25 C 382.0625 290.082031 385.300781 277.140625 384.324219 274.992188 C 382.863281 271.820312 379.292969 270.632812 375.195312 271.820312 C 371.101562 273.007812 371.765625 265.253906 366.296875 264.085938 C 362.761719 263.324219 358 267.796875 355.085938 271.042969 C 347.609375 261.886719 340.925781 252.652344 335.042969 243.460938 C 336.597656 242.726562 338.078125 241.976562 339.441406 241.214844 C 354.992188 232.550781 358.859375 227.199219 356.796875 223.121094 C 354.878906 219.324219 338.863281 221.488281 329.460938 224.683594 C 331.328125 218.085938 333.53125 210.207031 334.585938 206.058594 C 336.613281 198.101562 333.496094 194.199219 330.0625 193.578125 C 326.632812 192.949219 328.96875 190.453125 326 187.964844 C 323.039062 185.464844 318.820312 187.808594 316.480469 186.863281 C 314.140625 185.929688 318.359375 180.15625 317.109375 177.5 C 315.863281 174.855469 315.703125 171.421875 316.953125 169.386719 C 318.203125 167.359375 323.355469 154.722656 321.015625 150.820312 C 319.320312 148 310.726562 145.167969 306.132812 143.824219 C 309.601562 125.355469 320.324219 110.976562 339.152344 103.230469 C 353.773438 97.214844 366.132812 96.007812 376.480469 97.683594 C 372.996094 100.210938 361.101562 109.273438 358.875 116.960938 C 356.261719 125.980469 355.78125 133.109375 353.171875 135.957031 C 350.558594 138.804688 343.207031 151.859375 346.054688 159.691406 C 348.898438 167.527344 361.242188 167.996094 362.664062 174.40625 C 364.097656 180.820312 346.761719 192.6875 367.648438 205.035156 C 367.648438 205.035156 364.332031 224.976562 369.074219 225.925781 C 373.824219 226.871094 377.152344 212.15625 379.996094 210.015625 C 382.84375 207.882812 380.46875 218.328125 379.996094 223.785156 C 379.519531 229.246094 388.066406 249.425781 418.6875 252.746094 C 418.6875 252.746094 422.390625 253.460938 421.367188 257.261719 C 420.355469 261.058594 419.0625 263.671875 421.367188 268.894531 C 423.675781 274.117188 412.503906 274.550781 410.3125 288.035156 C 409.492188 293.113281 409.914062 297.832031 410.75 301.734375 Z M 506.859375 650.386719 C 506.890625 650.398438 506.917969 650.398438 506.945312 650.40625 L 513.585938 674.042969 C 497.949219 667.585938 482.441406 660.828125 467.070312 653.765625 C 462.847656 651.824219 458.636719 649.855469 454.4375 647.871094 C 456.488281 642.351562 458.539062 636.832031 460.589844 631.3125 C 476.378906 636.734375 491.835938 643.101562 506.859375 650.386719 Z M 579.230469 409.796875 C 596.769531 288.113281 569.363281 253.03125 569.363281 253.03125 C 569.363281 253.03125 568.59375 253.078125 567.191406 253.21875 C 558.550781 254.09375 525.777344 258.675781 499.230469 279.476562 C 498.542969 280.019531 497.855469 280.5625 497.175781 281.125 C 497.175781 281.125 498.964844 288.820312 500.445312 300.972656 C 504.933594 297.453125 509.636719 294.21875 514.570312 291.347656 C 533.597656 280.273438 555.53125 274.300781 577.554688 274.328125 C 578.398438 274.328125 578.398438 275.636719 577.554688 275.636719 C 571.402344 275.632812 565.253906 276.074219 559.171875 277 C 537.875 280.234375 517.472656 289.050781 500.625 302.480469 C 503.671875 328.722656 504.988281 374.019531 485.269531 408.703125 C 479.171875 419.433594 471.0625 429.144531 460.363281 436.957031 C 456.019531 440.132812 451.253906 443 446.015625 445.492188 L 423.832031 443.871094 C 427.429688 456.457031 435.992188 466.765625 441.238281 478.632812 C 443.558594 483.886719 445.300781 489.472656 445.546875 495.246094 C 445.792969 500.984375 444.3125 506.503906 441.992188 511.707031 C 439.574219 517.132812 436.40625 522.199219 433.488281 527.363281 C 430.429688 532.78125 427.457031 538.25 424.574219 543.765625 C 415.351562 561.410156 407.070312 579.539062 399.726562 598.042969 C 398.730469 608.546875 397.839844 619.195312 397.09375 629.839844 C 396.578125 637.15625 396.136719 644.472656 395.777344 651.746094 C 395.757812 652.199219 395.734375 652.652344 395.710938 653.109375 C 394.703125 674.136719 394.402344 694.765625 395.152344 713.886719 L 524.78125 713.886719 L 514.035156 675.640625 C 509.578125 673.804688 505.128906 671.945312 500.691406 670.058594 C 484.75 663.28125 468.945312 656.183594 453.285156 648.773438 C 453.042969 648.660156 452.890625 648.285156 452.984375 648.035156 C 455.179688 642.128906 457.375 636.21875 459.570312 630.3125 C 459.6875 629.996094 460.019531 629.734375 460.375 629.855469 C 476.105469 635.230469 491.503906 641.554688 506.484375 648.761719 L 482.292969 562.65625 C 482.292969 562.65625 492.269531 558.734375 505.921875 548.265625 C 530.800781 529.1875 567.90625 488.359375 579.230469 409.796875 Z M 481.621094 562.105469 C 477.175781 554.402344 473.078125 546.5 469.347656 538.425781 C 462.796875 524.242188 457.371094 509.542969 453.136719 494.503906 C 448.902344 479.464844 445.882812 464.09375 444.078125 448.570312 C 443.980469 447.734375 445.292969 447.742188 445.390625 448.570312 C 446.410156 457.347656 447.824219 466.078125 449.636719 474.726562 C 452.8125 489.894531 457.191406 504.8125 462.710938 519.296875 C 468.253906 533.851562 474.96875 547.953125 482.753906 561.445312 C 483.175781 562.175781 482.042969 562.835938 481.621094 562.105469 Z M 421.378906 443.6875 L 422.433594 443.765625 C 425.507812 454.941406 432.507812 464.328125 437.789062 474.492188 C 440.523438 479.757812 442.84375 485.324219 443.816406 491.207031 C 444.796875 497.125 444.019531 502.96875 441.890625 508.550781 C 439.792969 514.054688 436.6875 519.105469 433.773438 524.203125 C 430.71875 529.546875 427.753906 534.941406 424.875 540.378906 C 419.113281 551.253906 413.707031 562.316406 408.65625 573.542969 C 405.703125 580.101562 402.878906 586.722656 400.175781 593.390625 C 407.90625 514.539062 421.171875 444.761719 421.371094 443.707031 C 421.375 443.699219 421.375 443.6875 421.375 443.6875 Z M 343.078125 459.707031 C 347.625 455.550781 352.171875 451.398438 356.71875 447.238281 L 350.589844 583.609375 C 345.136719 566.171875 339.734375 548.710938 334.65625 531.160156 C 331.601562 520.609375 328.585938 510.035156 325.90625 499.386719 C 324.679688 494.511719 323.621094 489.4375 324.164062 484.386719 C 324.710938 479.347656 327.199219 475.101562 330.582031 471.429688 C 334.4375 467.238281 338.878906 463.546875 343.078125 459.707031 Z M 296.144531 425.09375 C 294.390625 423.296875 292.722656 421.40625 291.148438 419.417969 C 289.953125 417.910156 288.8125 416.351562 287.71875 414.742188 C 287.632812 414.8125 287.554688 414.882812 287.46875 414.953125 C 286.8125 415.472656 285.878906 414.550781 286.539062 414.027344 C 286.695312 413.902344 286.84375 413.773438 286.996094 413.652344 C 277.605469 399.324219 272.144531 381.203125 270.664062 361.320312 C 265.699219 294.632812 295.730469 260.191406 295.730469 260.191406 C 295.121094 259.113281 294.476562 258.058594 293.800781 257.027344 C 279.507812 235.011719 251.753906 222.960938 243.617188 219.800781 C 242.15625 219.230469 241.320312 218.949219 241.320312 218.949219 C 241.320312 218.949219 237.046875 223.519531 230.71875 231.820312 C 235.449219 233.472656 240.0625 235.460938 244.5 237.789062 C 261.164062 246.542969 275.359375 259.898438 285.03125 276.050781 C 285.464844 276.777344 284.335938 277.433594 283.902344 276.710938 C 281.191406 272.1875 278.136719 267.878906 274.75 263.839844 C 262.917969 249.738281 247.300781 238.902344 229.894531 232.910156 C 210.738281 258.300781 174.554688 315.777344 178.082031 383.9375 C 180.074219 422.441406 198.625 458.652344 219.570312 487.792969 C 248.824219 528.488281 282.742188 555.378906 282.742188 555.378906 L 258.363281 713.886719 L 344.738281 713.886719 L 347.601562 650.148438 L 347.664062 648.773438 L 348.527344 629.554688 L 350.417969 587.441406 C 347.421875 577.878906 344.4375 568.3125 341.507812 558.730469 C 338.195312 547.890625 334.953125 537.03125 331.847656 526.132812 C 330.3125 520.753906 328.8125 515.363281 327.351562 509.964844 C 325.949219 504.78125 324.398438 499.585938 323.4375 494.300781 C 322.5625 489.480469 322.265625 484.40625 323.851562 479.695312 C 325.320312 475.332031 328.3125 471.738281 331.550781 468.554688 C 335.382812 464.785156 339.457031 461.246094 343.425781 457.621094 C 347.621094 453.785156 351.816406 449.949219 356.011719 446.117188 C 356.253906 445.894531 356.546875 445.90625 356.773438 446.03125 L 356.796875 445.492188 C 330.71875 447.847656 310.476562 439.78125 296.144531 425.09375 Z M 282.636719 554.554688 C 286.78125 546.382812 290.339844 537.917969 293.28125 529.238281 C 298.476562 513.886719 301.769531 497.894531 303.070312 481.742188 C 304.367188 465.585938 303.675781 449.28125 300.9375 433.304688 C 300.796875 432.480469 302.058594 432.125 302.203125 432.957031 C 303.757812 442.039062 304.679688 451.226562 304.9375 460.4375 C 305.394531 476.753906 303.8125 493.128906 300.273438 509.0625 C 296.726562 525.058594 291.175781 540.601562 283.769531 555.21875 C 283.386719 555.972656 282.257812 555.304688 282.636719 554.554688 Z M 311.90625 652.039062 C 308.410156 654.871094 304.894531 657.683594 301.363281 660.46875 C 289.066406 670.171875 276.546875 679.589844 263.820312 688.71875 C 263.132812 689.210938 262.480469 688.074219 263.15625 687.589844 C 266.757812 685.007812 270.339844 682.402344 273.90625 679.777344 C 286.371094 670.585938 298.625 661.109375 310.660156 651.367188 C 308.585938 645.96875 306.507812 640.574219 304.433594 635.179688 C 292.15625 644.054688 279.875 652.925781 267.597656 661.800781 C 266.914062 662.292969 266.257812 661.15625 266.9375 660.667969 C 279.425781 651.644531 291.914062 642.617188 304.40625 633.589844 C 304.78125 633.320312 305.234375 633.625 305.371094 633.980469 C 307.605469 639.789062 309.839844 645.59375 312.070312 651.402344 C 312.148438 651.597656 312.066406 651.90625 311.90625 652.039062 Z M 311.90625 652.039062 " fill-opacity="1" fill-rule="nonzero"/></g><path fill="#ffe2a8" d="M 567.191406 253.21875 C 558.550781 254.09375 525.777344 258.675781 499.230469 279.476562 L 499.21875 279.480469 C 499.21875 279.480469 491.730469 274.617188 483.058594 266.699219 C 478.234375 262.296875 473.042969 256.953125 468.566406 250.972656 C 456.035156 234.230469 454.039062 222.234375 460.535156 221.734375 C 466.375 221.285156 481.734375 233.753906 484.78125 236.28125 C 484.753906 236.683594 485.078125 237.132812 485.59375 237.003906 C 492.804688 235.203125 500.644531 236.429688 506.894531 240.484375 C 512.667969 244.234375 516.808594 250.210938 518.425781 256.882812 C 518.515625 257.242188 518.804688 257.367188 519.089844 257.335938 C 519.453125 257.296875 519.800781 256.996094 519.691406 256.535156 C 518.257812 250.617188 514.953125 245.460938 510.492188 241.660156 C 518.335938 232.472656 525.070312 222.121094 530.023438 210.460938 C 530.46875 209.421875 530.898438 208.363281 531.316406 207.300781 C 534.675781 198.667969 536.660156 190.363281 537.460938 182.503906 C 537.601562 182.625 537.742188 182.738281 537.878906 182.871094 C 551.863281 196.429688 563.753906 239.753906 567.191406 253.21875 Z M 354.351562 317.40625 C 356.066406 323.644531 360.234375 329.023438 366 332.015625 C 368.609375 333.367188 371.449219 334.214844 374.347656 334.546875 C 366.382812 330.0625 358.058594 322.785156 353.492188 311.113281 C 353.5 313.234375 353.785156 315.351562 354.351562 317.40625 Z M 451.234375 379.675781 C 446.109375 402.527344 420.484375 398.46875 420.484375 398.46875 C 420.320312 400.75 420.027344 402.949219 419.636719 405.074219 C 416.542969 416.074219 409.398438 425.816406 399.6875 431.949219 C 398.976562 432.398438 399.632812 433.53125 400.347656 433.078125 C 407.199219 428.753906 412.820312 422.667969 416.710938 415.617188 C 410.558594 432.03125 399.347656 441.386719 399.347656 441.386719 C 406.929688 444.742188 415.519531 444.488281 421.378906 443.6875 L 421.375 443.6875 C 421.375 443.6875 421.371094 443.699219 421.371094 443.707031 C 416.460938 457.003906 399.527344 472.226562 380.078125 471.929688 C 360.609375 471.644531 357.414062 448.988281 357.414062 448.988281 L 357.414062 439.800781 C 384.371094 437.074219 394.730469 418.222656 394.730469 418.222656 C 375.875 426.628906 357.414062 423.703125 357.414062 423.703125 C 331.378906 420.011719 321.617188 401.695312 318.578125 383.375 C 320.035156 384.089844 321.6875 384.492188 323.425781 384.492188 C 329.519531 384.492188 334.457031 379.546875 334.457031 373.460938 C 334.457031 367.363281 329.519531 362.421875 323.425781 362.421875 C 321.222656 362.421875 319.171875 363.066406 317.449219 364.1875 C 317.871094 351.730469 320.167969 342.316406 320.167969 342.316406 L 320.167969 342.3125 L 320.167969 342.316406 C 329.609375 340.890625 348.007812 316.832031 352.191406 311.210938 C 352.230469 316.335938 353.824219 321.429688 356.792969 325.648438 C 360.734375 331.253906 366.917969 334.859375 373.683594 335.785156 C 374.828125 335.941406 375.984375 336.011719 377.132812 336.015625 C 386.378906 340.566406 394.429688 341.507812 394.429688 341.507812 C 398.664062 355.230469 416.5 369.808594 416.5 369.808594 C 416.5 369.808594 419.628906 357.042969 429.878906 354.480469 C 440.132812 351.917969 456.359375 356.828125 451.234375 379.675781 Z M 348.273438 354.253906 C 348.648438 360.566406 346.679688 366.898438 342.722656 371.84375 C 342.199219 372.496094 343.121094 373.429688 343.648438 372.769531 C 347.824219 367.554688 349.980469 360.933594 349.582031 354.253906 C 349.53125 353.417969 348.222656 353.410156 348.273438 354.253906 Z M 328.34375 346.355469 C 331.839844 342.449219 337.675781 341.921875 341.847656 345.082031 C 342.519531 345.589844 343.175781 344.453125 342.511719 343.949219 C 337.898438 340.453125 331.265625 341.128906 327.417969 345.429688 C 326.855469 346.054688 327.777344 346.984375 328.34375 346.355469 Z M 342.179688 358.191406 C 342.179688 357.070312 338.722656 356.164062 334.457031 356.164062 C 330.191406 356.164062 326.734375 357.070312 326.734375 358.191406 C 326.734375 359.308594 330.191406 360.214844 334.457031 360.214844 C 338.722656 360.214844 342.179688 359.308594 342.179688 358.191406 Z M 354.304688 385.789062 C 353.203125 387.773438 351.074219 389.125 348.785156 389.144531 C 346.5 389.164062 344.339844 387.863281 343.203125 385.898438 C 342.78125 385.171875 341.648438 385.828125 342.074219 386.558594 C 343.4375 388.917969 346.046875 390.472656 348.785156 390.453125 C 351.523438 390.433594 354.117188 388.832031 355.433594 386.453125 C 355.84375 385.714844 354.714844 385.050781 354.304688 385.789062 Z M 362.996094 345.085938 C 366.949219 341.664062 372.675781 341.28125 377.085938 344.058594 C 377.800781 344.507812 378.460938 343.375 377.746094 342.925781 C 372.816406 339.824219 366.460938 340.359375 362.070312 344.160156 C 361.433594 344.710938 362.363281 345.632812 362.996094 345.085938 Z M 369.976562 360.929688 C 374.242188 360.929688 377.699219 360.023438 377.699219 358.90625 C 377.699219 357.785156 374.242188 356.878906 369.976562 356.878906 C 365.710938 356.878906 362.253906 357.785156 362.253906 358.90625 C 362.253906 360.023438 365.710938 360.929688 369.976562 360.929688 Z M 386.816406 374.667969 C 386.816406 368.574219 381.878906 363.636719 375.785156 363.636719 C 369.691406 363.636719 364.753906 368.574219 364.753906 374.667969 C 364.753906 380.761719 369.691406 385.699219 375.785156 385.699219 C 381.878906 385.699219 386.816406 380.761719 386.816406 374.667969 Z M 439.230469 363.398438 C 435.324219 363.207031 431.359375 364.75 428.683594 367.617188 C 426.007812 370.488281 424.695312 374.515625 425.15625 378.414062 C 425.257812 379.238281 426.566406 379.25 426.46875 378.414062 C 426.046875 374.855469 427.152344 371.179688 429.609375 368.542969 C 432.070312 365.910156 435.648438 364.53125 439.230469 364.707031 C 440.070312 364.75 440.070312 363.441406 439.230469 363.398438 Z M 339.441406 241.214844 C 354.992188 232.550781 358.859375 227.199219 356.796875 223.121094 C 354.878906 219.324219 338.863281 221.488281 329.460938 224.683594 C 329.078125 224.8125 328.699219 224.941406 328.339844 225.078125 C 328.339844 225.542969 327.882812 226 327.394531 225.664062 C 324.335938 223.550781 320.984375 221.914062 317.421875 220.835938 C 305.824219 217.34375 293.152344 220.199219 284.101562 228.117188 C 283.597656 228.558594 283.101562 229.007812 282.617188 229.476562 C 282.015625 230.070312 281.089844 229.144531 281.691406 228.550781 C 284.304688 225.984375 287.285156 223.804688 290.539062 222.121094 C 300.5 216.96875 312.320312 216.808594 322.375 221.347656 C 312.921875 202.550781 307.136719 184.410156 305.414062 168.058594 L 292.90625 180.21875 C 292.90625 180.21875 305.820312 154.390625 301.515625 150.679688 C 297.347656 147.085938 252.992188 182.386719 243.617188 219.800781 C 251.753906 222.960938 279.503906 235.011719 293.800781 257.023438 L 293.855469 256.964844 L 293.953125 257.253906 C 293.953125 257.253906 318.863281 251.117188 335.039062 243.460938 C 336.597656 242.726562 338.078125 241.976562 339.441406 241.214844 Z M 339.441406 241.214844 " fill-opacity="1" fill-rule="nonzero"/><path fill="#e59973" d="M 375.785156 363.636719 C 381.878906 363.636719 386.816406 368.574219 386.816406 374.667969 C 386.816406 380.761719 381.878906 385.699219 375.785156 385.699219 C 369.691406 385.699219 364.753906 380.761719 364.753906 374.667969 C 364.753906 368.574219 369.691406 363.636719 375.785156 363.636719 Z M 334.457031 373.460938 C 334.457031 367.367188 329.519531 362.421875 323.425781 362.421875 C 321.222656 362.421875 319.171875 363.070312 317.449219 364.1875 C 317.242188 370.125 317.46875 376.753906 318.578125 383.375 C 320.035156 384.089844 321.6875 384.492188 323.425781 384.492188 C 329.519531 384.492188 334.457031 379.550781 334.457031 373.460938 Z M 334.457031 373.460938 " fill-opacity="1" fill-rule="nonzero"/><path fill="#353535" d="M 348.273438 354.253906 C 348.222656 353.410156 349.53125 353.417969 349.582031 354.253906 C 349.980469 360.933594 347.824219 367.554688 343.648438 372.769531 C 343.121094 373.429688 342.199219 372.496094 342.722656 371.84375 C 346.679688 366.898438 348.648438 360.566406 348.273438 354.253906 Z M 328.34375 346.355469 C 331.839844 342.449219 337.675781 341.921875 341.847656 345.082031 C 342.519531 345.589844 343.175781 344.453125 342.511719 343.949219 C 337.898438 340.453125 331.265625 341.128906 327.417969 345.429688 C 326.855469 346.054688 327.777344 346.984375 328.34375 346.355469 Z M 377.746094 342.925781 C 372.816406 339.824219 366.460938 340.359375 362.070312 344.160156 C 361.433594 344.710938 362.359375 345.632812 362.996094 345.085938 C 366.949219 341.664062 372.675781 341.28125 377.085938 344.054688 C 377.800781 344.507812 378.460938 343.375 377.746094 342.925781 Z M 354.304688 385.789062 C 353.203125 387.773438 351.074219 389.125 348.785156 389.144531 C 346.5 389.164062 344.339844 387.863281 343.203125 385.898438 C 342.78125 385.171875 341.648438 385.828125 342.074219 386.558594 C 343.4375 388.917969 346.046875 390.472656 348.785156 390.453125 C 351.523438 390.433594 354.117188 388.832031 355.433594 386.453125 C 355.84375 385.714844 354.714844 385.050781 354.304688 385.789062 Z M 334.457031 356.164062 C 330.191406 356.164062 326.734375 357.070312 326.734375 358.191406 C 326.734375 359.308594 330.191406 360.214844 334.457031 360.214844 C 338.722656 360.214844 342.179688 359.308594 342.179688 358.191406 C 342.179688 357.070312 338.722656 356.164062 334.457031 356.164062 Z M 369.976562 356.878906 C 365.710938 356.878906 362.253906 357.785156 362.253906 358.90625 C 362.253906 360.023438 365.710938 360.929688 369.976562 360.929688 C 374.242188 360.929688 377.699219 360.023438 377.699219 358.90625 C 377.695312 357.785156 374.238281 356.878906 369.976562 356.878906 Z M 445.546875 495.242188 C 445.792969 500.980469 444.3125 506.5 441.988281 511.703125 C 439.570312 517.132812 436.402344 522.195312 433.484375 527.363281 C 430.425781 532.78125 427.453125 538.25 424.574219 543.761719 C 415.351562 561.40625 407.070312 579.535156 399.726562 598.039062 C 398.730469 608.546875 397.835938 619.191406 397.089844 629.835938 C 393.351562 630.464844 389.820312 630.953125 386.484375 631.320312 C 387.449219 635.070312 388.058594 638.90625 388.300781 642.773438 C 388.515625 646.222656 388.433594 649.691406 388.085938 653.132812 C 390.667969 652.785156 393.234375 652.324219 395.777344 651.742188 C 395.753906 652.199219 395.730469 652.652344 395.710938 653.105469 C 394.144531 653.457031 392.574219 653.78125 390.992188 654.042969 C 389.972656 654.210938 388.949219 654.359375 387.921875 654.492188 C 386.28125 667.898438 380.457031 680.785156 371.136719 690.601562 C 373.425781 690.351562 375.695312 689.921875 377.917969 689.3125 C 378.734375 689.085938 379.078125 690.351562 378.269531 690.574219 C 376.03125 691.191406 373.746094 691.617188 371.441406 691.878906 C 371.640625 698.722656 371.90625 705.566406 372.105469 712.410156 C 372.128906 713.253906 370.820312 713.25 370.792969 712.410156 C 370.597656 705.609375 370.335938 698.816406 370.136719 692.019531 C 370.125 692.019531 370.113281 692.019531 370.101562 692.023438 C 369.851562 692.042969 369.6875 691.9375 369.585938 691.78125 C 366.050781 691.140625 362.519531 690.5 358.988281 689.859375 C 358.15625 689.710938 358.511719 688.445312 359.335938 688.597656 C 362.363281 689.144531 365.390625 689.695312 368.417969 690.242188 C 368.417969 690.238281 368.417969 690.238281 368.417969 690.234375 C 368.335938 685.8125 368.25 681.390625 368.167969 676.96875 C 368.03125 669.558594 367.890625 662.148438 367.75 654.738281 C 360.886719 654.019531 354.109375 652.484375 347.601562 650.144531 L 347.664062 648.773438 C 351.074219 650.015625 354.554688 651.058594 358.101562 651.851562 C 361.277344 652.566406 364.492188 653.082031 367.726562 653.421875 C 367.59375 646.335938 367.460938 639.257812 367.328125 632.171875 C 359.390625 631.921875 353.21875 630.859375 348.523438 629.554688 L 350.417969 587.441406 C 347.421875 577.878906 344.433594 568.3125 341.507812 558.726562 C 338.195312 547.890625 334.953125 537.027344 331.84375 526.132812 C 330.3125 520.75 328.808594 515.363281 327.347656 509.960938 C 325.945312 504.78125 324.398438 499.585938 323.4375 494.296875 C 322.558594 489.480469 322.265625 484.40625 323.851562 479.695312 C 325.320312 475.332031 328.308594 471.738281 331.546875 468.554688 C 335.382812 464.785156 339.457031 461.246094 343.421875 457.617188 C 347.621094 453.785156 351.816406 449.949219 356.007812 446.117188 C 356.253906 445.890625 356.546875 445.902344 356.769531 446.03125 L 356.796875 445.488281 C 351.078125 445.488281 338.167969 444.765625 326.402344 438.949219 C 326.402344 438.949219 331.710938 430.203125 330.53125 419.605469 C 330.53125 419.605469 325.65625 433.136719 320.902344 437.160156 C 320.902344 437.160156 306.167969 432.273438 296.140625 425.09375 C 294.386719 423.300781 292.722656 421.40625 291.144531 419.417969 C 293.496094 416.203125 302.207031 403.355469 306.222656 384.855469 C 302.839844 396.347656 297.222656 407.105469 287.71875 414.746094 C 287.632812 414.816406 287.550781 414.886719 287.464844 414.953125 C 286.808594 415.472656 285.878906 414.550781 286.535156 414.027344 C 286.691406 413.90625 286.839844 413.773438 286.992188 413.652344 C 290.515625 410.785156 293.585938 407.414062 296.160156 403.675781 C 303.253906 393.371094 306.425781 381.40625 308.25 369.195312 C 309.894531 340.699219 307.824219 288.113281 355.503906 271.558594 C 356.859375 273.21875 358.25 274.871094 359.65625 276.527344 C 365.90625 283.855469 372.636719 291.117188 379.847656 298.253906 C 382.9375 301.300781 386.125 304.339844 389.394531 307.34375 C 389.394531 307.34375 397.847656 305.730469 410.746094 301.738281 C 422.765625 298.019531 438.640625 292.222656 455.113281 283.753906 C 455.117188 283.753906 455.117188 283.753906 455.117188 283.75 C 455.121094 283.753906 455.125 283.757812 455.125 283.757812 C 455.125 283.757812 460.242188 292.414062 466.261719 307.414062 C 467.878906 310.308594 469.421875 313.246094 470.867188 316.230469 C 479.746094 334.582031 485.3125 354.464844 487.25 374.757812 C 487.328125 375.597656 486.019531 375.589844 485.9375 374.757812 C 485.390625 369.035156 484.558594 363.347656 483.433594 357.710938 C 480.6875 343.96875 476.234375 330.59375 470.226562 317.949219 C 478.121094 340.34375 486.015625 372.171875 485.261719 408.707031 C 479.164062 419.433594 471.054688 429.144531 460.355469 436.957031 C 453.417969 440.15625 444.980469 442.386719 434.964844 442.257812 C 434.964844 442.257812 441.621094 432.210938 439.910156 419.398438 C 439.910156 419.398438 434.144531 437.796875 428.378906 442.261719 C 428.378906 442.261719 426.566406 442.816406 423.667969 443.332031 C 423.71875 443.511719 423.773438 443.691406 423.824219 443.871094 C 427.425781 456.457031 435.988281 466.765625 441.230469 478.632812 C 443.558594 483.882812 445.300781 489.46875 445.546875 495.242188 Z M 353.492188 311.113281 C 353.5 313.234375 353.785156 315.351562 354.351562 317.40625 C 356.066406 323.648438 360.234375 329.023438 366 332.015625 C 368.609375 333.371094 371.449219 334.214844 374.347656 334.546875 C 366.382812 330.0625 358.058594 322.785156 353.492188 311.113281 Z M 356.71875 447.238281 C 352.171875 451.398438 347.625 455.550781 343.078125 459.707031 C 338.878906 463.546875 334.4375 467.238281 330.582031 471.429688 C 327.199219 475.101562 324.710938 479.347656 324.164062 484.386719 C 323.621094 489.4375 324.679688 494.511719 325.90625 499.386719 C 328.585938 510.035156 331.605469 520.613281 334.65625 531.160156 C 339.734375 548.710938 345.136719 566.171875 350.589844 583.609375 Z M 386.585938 654.644531 C 380.765625 655.300781 374.890625 655.371094 369.066406 654.851562 C 369.285156 666.632812 369.503906 678.410156 369.726562 690.1875 C 373.039062 686.78125 375.9375 683 378.351562 678.902344 C 382.71875 671.484375 385.507812 663.167969 386.585938 654.644531 Z M 385.167969 631.460938 C 378.984375 632.089844 373.492188 632.300781 368.640625 632.203125 C 368.710938 635.960938 368.78125 639.71875 368.851562 643.476562 C 368.914062 646.835938 368.980469 650.195312 369.042969 653.554688 C 374.929688 654.082031 380.863281 654.003906 386.730469 653.3125 C 387.5 646.011719 387.019531 638.585938 385.167969 631.460938 Z M 443.816406 491.207031 C 442.84375 485.324219 440.523438 479.753906 437.789062 474.492188 C 432.507812 464.328125 425.507812 454.941406 422.433594 443.765625 C 422.414062 443.691406 422.390625 443.617188 422.371094 443.542969 C 422.050781 443.59375 421.71875 443.640625 421.378906 443.6875 C 415.519531 444.488281 406.929688 444.746094 399.347656 441.386719 C 399.347656 441.386719 410.558594 432.03125 416.710938 415.617188 C 412.820312 422.667969 407.199219 428.753906 400.347656 433.082031 C 399.632812 433.53125 398.976562 432.398438 399.6875 431.949219 C 409.398438 425.816406 416.539062 416.078125 419.636719 405.074219 C 420.027344 402.949219 420.320312 400.753906 420.484375 398.46875 C 420.484375 398.46875 446.109375 402.527344 451.234375 379.679688 C 456.359375 356.832031 440.132812 351.917969 429.882812 354.484375 C 419.632812 357.046875 416.503906 369.8125 416.503906 369.8125 C 416.503906 369.8125 398.667969 355.234375 394.433594 341.511719 C 394.433594 341.511719 386.382812 340.570312 377.136719 336.015625 C 375.984375 336.015625 374.832031 335.945312 373.6875 335.789062 C 366.921875 334.859375 360.738281 331.257812 356.796875 325.652344 C 353.828125 321.433594 352.234375 316.339844 352.195312 311.210938 C 348.011719 316.832031 329.613281 340.894531 320.171875 342.320312 L 320.171875 342.316406 L 320.171875 342.320312 C 320.171875 342.320312 317.875 351.734375 317.453125 364.1875 C 317.246094 370.128906 317.472656 376.757812 318.582031 383.375 C 321.621094 401.699219 331.382812 420.011719 357.417969 423.707031 C 357.417969 423.707031 375.878906 426.628906 394.734375 418.226562 C 394.734375 418.226562 384.375 437.078125 357.417969 439.804688 L 357.417969 448.988281 C 357.417969 448.988281 360.617188 471.644531 380.082031 471.933594 C 399.53125 472.230469 416.464844 457.007812 421.375 443.710938 C 421.171875 444.765625 407.910156 514.539062 400.175781 593.390625 C 402.878906 586.722656 405.703125 580.105469 408.65625 573.542969 C 413.707031 562.320312 419.117188 551.257812 424.875 540.378906 C 427.753906 534.941406 430.722656 529.550781 433.773438 524.207031 C 436.6875 519.109375 439.792969 514.054688 441.894531 508.550781 C 444.019531 502.96875 444.796875 497.125 443.816406 491.207031 Z M 293.28125 529.238281 C 290.339844 537.917969 286.78125 546.382812 282.636719 554.554688 C 282.257812 555.304688 283.386719 555.96875 283.769531 555.21875 C 291.175781 540.601562 296.722656 525.058594 300.273438 509.0625 C 303.808594 493.128906 305.390625 476.753906 304.933594 460.4375 C 304.675781 451.226562 303.757812 442.039062 302.199219 432.957031 C 302.058594 432.125 300.796875 432.480469 300.9375 433.304688 C 303.671875 449.28125 304.367188 465.585938 303.066406 481.742188 C 301.769531 497.894531 298.476562 513.886719 293.28125 529.238281 Z M 449.636719 474.726562 C 447.824219 466.078125 446.410156 457.347656 445.390625 448.570312 C 445.292969 447.742188 443.980469 447.734375 444.078125 448.570312 C 445.882812 464.09375 448.902344 479.464844 453.136719 494.503906 C 457.371094 509.542969 462.796875 524.242188 469.347656 538.425781 C 473.078125 546.5 477.175781 554.402344 481.621094 562.105469 C 482.042969 562.835938 483.175781 562.175781 482.753906 561.445312 C 474.96875 547.953125 468.253906 533.851562 462.707031 519.296875 C 457.191406 504.8125 452.8125 489.894531 449.636719 474.726562 Z M 305.371094 633.980469 C 305.234375 633.625 304.78125 633.320312 304.40625 633.589844 C 291.917969 642.617188 279.425781 651.644531 266.9375 660.667969 C 266.257812 661.15625 266.910156 662.292969 267.597656 661.800781 C 279.875 652.925781 292.15625 644.054688 304.433594 635.179688 C 306.507812 640.574219 308.585938 645.96875 310.660156 651.367188 C 298.625 661.113281 286.371094 670.589844 273.90625 679.777344 C 270.339844 682.402344 266.757812 685.007812 263.15625 687.589844 C 262.476562 688.074219 263.132812 689.210938 263.820312 688.71875 C 276.546875 679.589844 289.066406 670.171875 301.363281 660.46875 C 304.894531 657.683594 308.410156 654.871094 311.90625 652.039062 C 312.066406 651.90625 312.148438 651.597656 312.074219 651.398438 C 309.839844 645.59375 307.605469 639.785156 305.371094 633.980469 Z M 514.554688 674.449219 C 514.230469 674.3125 513.910156 674.175781 513.585938 674.042969 C 497.949219 667.585938 482.441406 660.828125 467.070312 653.765625 C 462.847656 651.824219 458.636719 649.855469 454.4375 647.871094 C 456.488281 642.351562 458.539062 636.832031 460.589844 631.3125 C 476.382812 636.734375 491.835938 643.101562 506.863281 650.386719 C 506.890625 650.398438 506.917969 650.398438 506.945312 650.40625 C 507.664062 650.652344 508.253906 649.609375 507.523438 649.253906 C 507.175781 649.085938 506.828125 648.925781 506.484375 648.757812 C 491.503906 641.546875 476.105469 635.226562 460.375 629.851562 C 460.019531 629.730469 459.6875 629.992188 459.570312 630.308594 C 457.375 636.214844 455.179688 642.125 452.984375 648.03125 C 452.890625 648.28125 453.042969 648.65625 453.285156 648.769531 C 468.945312 656.179688 484.75 663.277344 500.691406 670.054688 C 505.128906 671.941406 509.578125 673.800781 514.035156 675.636719 C 514.09375 675.664062 514.152344 675.6875 514.207031 675.710938 C 514.984375 676.03125 515.324219 674.765625 514.554688 674.449219 Z M 274.75 263.839844 C 278.140625 267.878906 281.191406 272.1875 283.902344 276.710938 C 284.335938 277.433594 285.46875 276.777344 285.035156 276.050781 C 275.359375 259.898438 261.164062 246.542969 244.5 237.789062 C 240.0625 235.460938 235.449219 233.472656 230.71875 231.820312 C 230.476562 231.734375 230.234375 231.636719 229.988281 231.554688 C 229.1875 231.28125 228.847656 232.546875 229.640625 232.816406 C 229.726562 232.847656 229.808594 232.878906 229.894531 232.90625 C 247.304688 238.902344 262.921875 249.738281 274.75 263.839844 Z M 577.554688 274.324219 C 555.53125 274.300781 533.597656 280.269531 514.570312 291.347656 C 509.640625 294.21875 504.933594 297.449219 500.445312 300.972656 C 500.054688 301.28125 499.648438 301.582031 499.257812 301.894531 C 498.601562 302.421875 499.53125 303.34375 500.183594 302.820312 C 500.328125 302.703125 500.480469 302.59375 500.625 302.476562 C 517.472656 289.046875 537.875 280.230469 559.171875 276.996094 C 565.253906 276.074219 571.402344 275.628906 577.554688 275.636719 C 578.394531 275.636719 578.398438 274.328125 577.554688 274.324219 Z M 485.597656 237.003906 C 492.804688 235.203125 500.648438 236.429688 506.894531 240.484375 C 512.667969 244.234375 516.8125 250.210938 518.429688 256.882812 C 518.515625 257.242188 518.808594 257.367188 519.089844 257.335938 C 519.453125 257.296875 519.804688 256.996094 519.691406 256.535156 C 518.257812 250.617188 514.957031 245.460938 510.496094 241.660156 C 506.339844 238.117188 501.179688 235.746094 495.554688 235.074219 C 492.109375 234.660156 488.613281 234.898438 485.25 235.742188 C 484.945312 235.816406 484.800781 236.039062 484.785156 236.28125 C 484.753906 236.683594 485.082031 237.132812 485.597656 237.003906 Z M 282.621094 229.476562 C 283.101562 229.007812 283.601562 228.558594 284.105469 228.117188 C 293.15625 220.199219 305.828125 217.34375 317.425781 220.835938 C 320.988281 221.910156 324.339844 223.546875 327.398438 225.664062 C 327.886719 226 328.34375 225.542969 328.34375 225.078125 C 328.34375 224.875 328.265625 224.675781 328.058594 224.53125 C 326.253906 223.285156 324.347656 222.234375 322.378906 221.347656 C 312.324219 216.808594 300.503906 216.964844 290.542969 222.121094 C 287.289062 223.804688 284.308594 225.984375 281.695312 228.550781 C 281.09375 229.144531 282.019531 230.070312 282.621094 229.476562 Z M 426.46875 378.414062 C 426.046875 374.855469 427.152344 371.179688 429.609375 368.542969 C 432.070312 365.910156 435.648438 364.53125 439.230469 364.707031 C 440.070312 364.75 440.070312 363.441406 439.230469 363.398438 C 435.324219 363.203125 431.359375 364.746094 428.683594 367.617188 C 426.007812 370.488281 424.695312 374.515625 425.15625 378.410156 C 425.257812 379.242188 426.566406 379.25 426.46875 378.414062 Z M 424.242188 148.210938 C 424.367188 149.042969 425.632812 148.6875 425.503906 147.863281 C 425.066406 144.988281 424.394531 142.160156 423.515625 139.398438 C 422.566406 136.410156 421.375 133.5 419.9375 130.703125 C 419.652344 130.144531 418.953125 130.371094 418.773438 130.828125 C 418.710938 130.984375 418.707031 131.171875 418.804688 131.363281 C 421.519531 136.652344 423.34375 142.339844 424.242188 148.210938 Z M 424.242188 148.210938 " fill-opacity="1" fill-rule="nonzero"/></svg>