<?xml version="1.0" encoding="UTF-8"?>
<svg version="1.1" viewBox="0 0 2048 350" width="1280" height="1280" xmlns="http://www.w3.org/2000/svg">
<path transform="translate(1140,58)" d="m0 0h69l1 1 1 50 43 1 2 1v51l-1 1-45 1v60l14-5 5-1 17-1 3-4 6-16 13-29 8-15 14-19 8-8 12-7 3-1h9l6 4 3 4 2 8-1 12-6 18-12 25-13 24-16 24-14 20-9 11 1 7 6 17v5l-8 4 1 1h9l8-4 12-11 12-15 16-33 9-14 5-6 4-2h7l5 4 1 7-4 8-10 16-10 21-6 17-1 5v14l1 4 4 1h8l12-6 9-9 11-16 9-16 16-32 4-4 7-1 6 3 1 2v8l-7 19-5 21v16l3 4 7-1 10-9 10-14 13-24 10-14 13-13 14-9 11-4h14l10 5 6 8 2 11-2 9-6 10-7 8-3 2h-9l-5-6 1-7 9-11 2-3v-6l-1-1h-7l-13 7-10 9-11 14-8 16-4 16v7l3 9 5 2 3 1h14l13-4 13-7 14-11 7-7 9-11 8-10 8-12 11-13 11-9 14-8 12-4h18l9 1 6-2h6l5 5v9l-14 31-5 17-1 6v13l2 4h8l9-6 8-9 8-13 6-12 11-26 6-13v-5l-10-4-4-5v-6l4-4 4-1 16-1 4-4 16-32 9-15 6-5h8l5 5v7l-6 12-10 18-4 9v6h16l7 2 3 4v6l-2 4-5 3-29 1-4 2-14 30-11 29-4 18v10l2 4 2 1h9l12-6 14-12 7-8 10-13 9-15 15-33 6-8 4-2h6l5 4 1 7-4 10-13 27-6 16-3 14v7l2 4h7l9-5 8-8 14-21 8-15 10-13 9-8 26-13 6-4 7-2h7l8 3 8 9 4 12 1 15-2 16-1 9 7-1 10-6 9-8 7-14 9-25 5-10 5-3h7l4 4 1 2-1 10-2 9 9-6 10-9 9-5 9-2h7l9 3 6 7 2 6v10l-4 13-15 29-3 10v6l2 3h8l11-7 9-10 13-21 7-11 3-3h8l4 5v8l-6 12-14 21-11 12-8 7-11 6-4 1h-15l-8-4-6-7-2-5-1-12 3-13 8-16 11-23v-6l-1-1-8 1-10 7-10 8-7 6-7 8-10 12-9 14-12 23-7 12-5 4h-6l-5-4-1-6 6-16 3-6v-2l-13 5-11 3-5 4-9 11-12 9-13 6-9 2h-8l-8-2-7-4-7-8-5-12-8 6-9 6-10 3h-10l-10-4-5-6-4-11-8 9-12 9-16 8-12 3-10-1-8-4-8-9-4-9-10 8-9 4-4 1h-7l-9-3-5-4-7-11-4 1-13 14-14 10-8 3-10 1-9-2-6-4-4-5-3-9-1-7-9 8-15 10-15 7-7 2-8 1h-9l-12-3-10-6-7-8-4-8-10 8-9 4h-14l-8-4-7-8-1-4-5 1-14 14-10 7-10 4-11 1-10-2-9-6-6-8-3-10-6 4-11 7-12 4h-10l-10-5-8-9-2-2-9 1-12 12-13 9-10 4-10 1-10-3-8-7-4-8-1-8-13 10-16 9-13 5-8 2-15 1-13-2-8-4-7-6-5-10-1-8h-8l-1-1-1-109-3-16-4-8-5-5-7-4-11-2-12 1-10 3-8 6-7 9-4 12-1 5-1 108-2 1h-66l-3-3v-80h-142l4 10 8 10 10 6 13 4 7 1h16l14-3 10-4 12-8 4 1 26 26 7 8v4l-8 8-15 10-17 7-17 4-22 2h-13l-18-2-18-4-20-8-16-10-13-12-10-13-10-19-1 63-5 2h-63l-3-3v-147l-3 4-14 34-38 92-7 17-4 3h-68l-3-1-13-31-20-49-18-44-11-26-1-1v149l-3 3h-62l-3-2v-18l-6 4-9 7-12 6-14 4-16 2-19-1-16-4-12-5-10-6-10-9-6-7-8-15-5-17-2-14-1-124 2-3h75l1 4-10 17-14 25-14 24-6 13-2 9v20l4 14 7 12 9 10 14 9 12 4 6 1h19l12-3 14-7 9-7 8-10 6-13 3-12v-17l-3-12-8-16-16-26-13-21-9-14 1-4h159l4 6 15 39 17 43 11 28 2 4 2 1 3-9 15-37 18-43 13-31 2-1h115l2 1v63h2l3-9 6-11 8-10 8-9 13-10 12-7 16-6 15-4 23-2 23 2 19 5 14 6 14 9 10 9 10 11 9 16 3 6 1-27v-31l2-2h64l2 2 1 18 13-10 16-8 14-4 6-1h27l15 3 13 5 12 7 10 9 5 5 1-18 2-1 26-1 1-50zm171 82-7 6-11 16-14 24-10 21-10 26-3 10v4l4-1 10-16 12-19 12-21 16-32 4-12v-5zm-514 10-11 4-8 6-8 9-4 10v5l3 1 79-1-2-9-6-11-9-8-10-5-5-1zm327 13-2 3 1 7 1 44 15-1v-52l-2-1zm4 72-4 2v17l4-2 7-9 1-7-1-1zm721 0-5 6-3 9v19l4 9 5 3 3-3 4-15 1-6v-11l-2-8-3-3zm-620 1-9 4-6 4 2 4 6 4 3 1h13l3-9v-7l-1-1zm364 1-11 4-10 6-9 8-10 13-8 15-4 13-1 11 3 7 2 1h7l8-5 9-8 13-17 11-15 10-16 3-8-1-7-2-2zm225 16-7 7-7 11-6 14-2 8v12l3 8 6 5 6 1 9-2 10-6 10-10-1-5-8-8-6-12-2-12-1-10zm-675 9-11 10-8 6v26l-41 1 1 5 5 4 7 2 14-1 15-5 11-6 10-8 10-10-1-4-7-11-4-9zm37 39v10l3 4 6 1 8-3 6-4 1-2-16-4z" fill="#4488B9"/>
<path transform="translate(1313,118)" d="m0 0h9l6 4 3 4 2 8-1 12-6 18-12 25-13 24-16 24-14 20-9 11 1 7 6 17v5l-8 4 1 1h9l8-4 12-11 12-15 16-33 9-14 5-6 4-2h7l5 4 1 7-4 8-10 16-10 21-6 17-1 5v14l1 4 4 1h8l12-6 9-9 11-16 9-16 16-32 4-4 7-1 6 3 1 2v8l-7 19-5 21v16l3 4 7-1 10-9 10-14 13-24 10-14 13-13 14-9 11-4h14l10 5 6 8 2 11-2 9-6 10-7 8-3 2h-9l-5-6 1-7 9-11 2-3v-6l-1-1h-7l-13 7-10 9-11 14-8 16-4 16v7l3 9 5 2 3 1h14l13-4 13-7 14-11 7-7 9-11 8-10 8-12 11-13 11-9 14-8 12-4h18l9 1 6-2h6l5 5v9l-14 31-5 17-1 6v13l2 4h8l9-6 8-9 8-13 6-12 11-26 6-13v-5l-10-4-4-5v-6l4-4 4-1 16-1 4-4 16-32 9-15 6-5h8l5 5v7l-6 12-10 18-4 9v6h16l7 2 3 4v6l-2 4-5 3-29 1-4 2-14 30-11 29-4 18v10l2 4 2 1h9l12-6 14-12 7-8 10-13 9-15 15-33 6-8 4-2h6l5 4 1 7-4 10-13 27-6 16-3 14v7l2 4h7l9-5 8-8 14-21 8-15 10-13 9-8 26-13 6-4 7-2h7l8 3 8 9 4 12 1 15-2 16-1 9 7-1 10-6 9-8 7-14 9-25 5-10 5-3h7l4 4 1 2-1 10-2 9 9-6 10-9 9-5 9-2h7l9 3 6 7 2 6v10l-4 13-15 29-3 10v6l2 3h8l11-7 9-10 13-21 7-11 3-3h8l4 5v8l-6 12-14 21-11 12-8 7-11 6-4 1h-15l-8-4-6-7-2-5-1-12 3-13 8-16 11-23v-6l-1-1-8 1-10 7-10 8-7 6-7 8-10 12-9 14-12 23-7 12-5 4h-6l-5-4-1-6 6-16 3-6v-2l-13 5-11 3-5 4-9 11-12 9-13 6-9 2h-8l-8-2-7-4-7-8-5-12-8 6-9 6-10 3h-10l-10-4-5-6-4-11-8 9-12 9-16 8-12 3-10-1-8-4-8-9-4-9-10 8-9 4-4 1h-7l-9-3-5-4-7-11-4 1-13 14-14 10-8 3-10 1-9-2-6-4-4-5-3-9-1-7-9 8-15 10-15 7-7 2-8 1h-9l-12-3-10-6-7-8-4-8-10 8-9 4h-14l-8-4-7-8-1-4-5 1-14 14-10 7-10 4-11 1-10-2-9-6-6-8-3-10-6 4-11 7-12 4h-10l-10-5-8-9-2-2-9 1-12 12-13 9-10 4-10 1-10-3-8-7-4-8-1-8-13 10-16 9-13 5-8 2-15 1-13-2-8-4-7-6-5-10-1-8h-8v-1h7l1-14 5-15 10-19 9-12 11-12 12-9 12-6 4-1h13v-52h1l1 52 6 3 7 8 1 3v12l-4 10-8 11-11 10-7 5-1 26-2 1h-39l3 6 5 3 5 1 14-1 15-5 11-6 10-8 9-9 2-3 6-5 9-13 9-14 11-13 10-9 6-4 1-61h1v60l14-5 5-1 17-1 3-4 6-16 13-29 8-15 14-19 8-8 12-7zm-2 22-7 6-11 16-14 24-10 21-10 26-3 10v4l4-1 10-16 12-19 12-21 16-32 4-12v-5zm-183 95-4 2v17l4-2 7-9 1-7-1-1zm721 0-5 6-3 9v19l4 9 5 3 3-3 4-15 1-6v-11l-2-8-3-3zm-620 1-9 4-6 4 2 4 6 4 3 1h13l3-9v-7l-1-1zm364 1-11 4-10 6-9 8-10 13-8 15-4 13-1 11 3 7 2 1h7l8-5 9-8 13-17 11-15 10-16 3-8-1-7-2-2zm225 16-7 7-7 11-6 14-2 8v12l3 8 6 5 6 1 9-2 10-6 10-10-1-5-8-8-6-12-2-12-1-10zm-638 48v10l3 4 6 1 8-3 6-4 1-2-16-4z" fill="#ABCDE6"/>
<path transform="translate(108,25)" d="m0 0h18l16 2 64 1 2 1 1 9-1 266-3 1h-65l-2-1-1-139-1-1h-33v140l-3 1h-66l-2-3-1-138-27-1-1-1v-51l2-1h27l1-19 4-17 8-16 7-9 10-9 15-8 16-5zm9 55-8 4-6 8-2 10v7l1 1h35l1-2v-25l-1-2-3-1z" fill="#4589B9"/>
<path transform="translate(654,6)" d="m0 0h22l12 4 11 8 6 9 2 5 1 6v9l-4 13-7 9-8 6-10 4-4 1h-20l-10-3-9-5-5-4-6-9-3-9v-14l4-11 5-7 8-6 8-4z" fill="#468AB9"/>
<path transform="translate(1211,246)" d="m0 0 5 1 6 4 4 2 11 1-1 17-3 7-9 11-17 17h-10l-15-4-1-7 6-16 9-16 9-11z" fill="#4387B8"/>
<path transform="translate(1122,279)" d="m0 0h2v25h-41l-1-1v-6l5-5 26-8z" fill="#4287B8"/>
<path transform="translate(1780,156)" d="m0 0 7 1 5 5 1 9-4 10-4 5-4 3h-9l-5-4-1-3v-11l5-10 6-4z" fill="#ABCDE6"/>
<path transform="translate(1122,238)" d="m0 0h2v17l-10 9-12 6-6 1-2-3 4-7 8-10 7-7z" fill="#4287B8"/>
<path transform="translate(1259,271)" d="m0 0 3 1 7 20v5l-5 3h-6l-4-10v-10l4-8z" fill="#4B8DBC"/>
<path transform="translate(699,104)" d="m0 0h1v63h2l-1 3h-2z" fill="#ABCDE6"/>
<path transform="translate(733,123)" d="m0 0 2 1-18 18v-3l10-11z" fill="#84B3D5"/>
<path transform="translate(909,146)" d="m0 0h1v21l-3-1-1-5 2 2z" fill="#ABCDE6"/>
</svg>
