<svg xmlns="http://www.w3.org/2000/svg" xmlns:xlink="http://www.w3.org/1999/xlink" width="1080" zoomAndPan="magnify" viewBox="0 0 810 809.999993" height="1080" preserveAspectRatio="xMidYMid meet" version="1.0"><defs><clipPath id="0fbf2fef6e"><path d="M 564 212 L 656.398438 212 L 656.398438 273 L 564 273 Z M 564 212 " clip-rule="nonzero"/></clipPath></defs><path fill="#ffffff" d="M 366.699219 809.128906 L 283.308594 809.128906 C 283.308594 809.128906 286.039062 798.613281 302.792969 795.109375 C 309.761719 793.652344 322.664062 793.941406 327.34375 780.699219 C 330.871094 770.710938 324.898438 751.101562 324.898438 751.101562 L 356.855469 751.101562 Z M 366.699219 809.128906 " fill-opacity="1" fill-rule="nonzero"/><path fill="#000000" d="M 366.699219 809.917969 L 283.308594 809.917969 C 283.0625 809.917969 282.832031 809.804688 282.679688 809.609375 C 282.53125 809.414062 282.480469 809.164062 282.539062 808.925781 C 282.65625 808.476562 285.585938 797.894531 302.628906 794.332031 C 303.699219 794.105469 304.910156 793.921875 306.210938 793.726562 C 313.203125 792.664062 322.785156 791.210938 326.59375 780.433594 C 329.992188 770.804688 324.199219 751.527344 324.140625 751.332031 C 324.066406 751.09375 324.109375 750.828125 324.261719 750.628906 C 324.410156 750.425781 324.644531 750.304688 324.898438 750.304688 L 356.851562 750.304688 C 357.238281 750.304688 357.570312 750.585938 357.636719 750.96875 L 367.480469 808.992188 C 367.519531 809.222656 367.453125 809.457031 367.304688 809.636719 C 367.152344 809.816406 366.929688 809.917969 366.699219 809.917969 Z M 284.457031 808.332031 L 365.757812 808.332031 L 356.183594 751.894531 L 325.957031 751.894531 C 327.144531 756.117188 331.238281 772.046875 328.089844 780.960938 C 323.964844 792.640625 313.839844 794.175781 306.449219 795.296875 C 305.179688 795.488281 304 795.667969 302.957031 795.882812 C 289.945312 798.605469 285.632812 805.707031 284.457031 808.332031 Z M 284.457031 808.332031 " fill-opacity="1" fill-rule="nonzero"/><path fill="#000000" d="M 365.621094 804.613281 L 287.503906 804.613281 C 287.066406 804.613281 286.710938 804.257812 286.710938 803.820312 C 286.710938 803.382812 287.066406 803.027344 287.503906 803.027344 L 365.621094 803.027344 C 366.058594 803.027344 366.414062 803.382812 366.414062 803.820312 C 366.414062 804.257812 366.058594 804.613281 365.621094 804.613281 Z M 365.621094 804.613281 " fill-opacity="1" fill-rule="nonzero"/><path fill="#ffffff" d="M 497.386719 809.128906 L 414 809.128906 C 414 809.128906 416.726562 798.613281 433.480469 795.109375 C 440.449219 793.652344 453.355469 793.941406 458.03125 780.699219 C 461.558594 770.710938 455.589844 751.101562 455.589844 751.101562 L 487.542969 751.101562 Z M 497.386719 809.128906 " fill-opacity="1" fill-rule="nonzero"/><path fill="#000000" d="M 497.386719 809.917969 L 413.996094 809.917969 C 413.75 809.917969 413.519531 809.804688 413.367188 809.609375 C 413.21875 809.414062 413.167969 809.164062 413.230469 808.925781 C 413.347656 808.476562 416.273438 797.894531 433.316406 794.332031 C 434.390625 794.105469 435.601562 793.921875 436.898438 793.726562 C 443.894531 792.664062 453.472656 791.210938 457.28125 780.433594 C 460.679688 770.804688 454.886719 751.527344 454.828125 751.332031 C 454.753906 751.09375 454.800781 750.828125 454.949219 750.628906 C 455.097656 750.425781 455.335938 750.304688 455.585938 750.304688 L 487.539062 750.304688 C 487.929688 750.304688 488.257812 750.585938 488.324219 750.96875 L 498.171875 808.992188 C 498.210938 809.222656 498.148438 809.457031 497.996094 809.636719 C 497.84375 809.816406 497.621094 809.917969 497.386719 809.917969 Z M 415.140625 808.332031 L 496.445312 808.332031 L 486.867188 751.894531 L 456.644531 751.894531 C 457.832031 756.117188 461.925781 772.046875 458.777344 780.960938 C 454.65625 792.640625 444.53125 794.175781 437.136719 795.296875 C 435.871094 795.488281 434.6875 795.667969 433.644531 795.882812 C 420.578125 798.617188 416.300781 805.710938 415.140625 808.332031 Z M 415.140625 808.332031 " fill-opacity="1" fill-rule="nonzero"/><path fill="#000000" d="M 496.308594 804.613281 L 418.195312 804.613281 C 417.757812 804.613281 417.398438 804.257812 417.398438 803.820312 C 417.398438 803.382812 417.757812 803.027344 418.195312 803.027344 L 496.308594 803.027344 C 496.746094 803.027344 497.101562 803.382812 497.101562 803.820312 C 497.101562 804.257812 496.746094 804.613281 496.308594 804.613281 Z M 496.308594 804.613281 " fill-opacity="1" fill-rule="nonzero"/><path fill="#000000" d="M 388.835938 551.046875 L 377.324219 774.148438 L 314.027344 774.167969 L 313.71875 526.886719 L 337.382812 341.765625 L 428.554688 351.71875 Z M 388.835938 551.046875 " fill-opacity="1" fill-rule="nonzero"/><path fill="#000000" d="M 381.066406 363.800781 L 402.253906 537.054688 L 444.4375 773.261719 L 503.5625 773.261719 L 475.214844 537.054688 C 475.214844 537.054688 487.289062 395.597656 475.179688 347.402344 Z M 381.066406 363.800781 " fill-opacity="1" fill-rule="nonzero"/><path fill="#f5f6f7" d="M 397.808594 501.730469 C 397.269531 501.730469 396.804688 501.324219 396.746094 500.777344 L 385.800781 398.84375 C 385.738281 398.257812 386.160156 397.730469 386.75 397.667969 C 387.335938 397.617188 387.863281 398.027344 387.925781 398.613281 L 398.871094 500.550781 C 398.9375 501.136719 398.511719 501.664062 397.925781 501.726562 C 397.886719 501.730469 397.847656 501.730469 397.808594 501.730469 Z M 397.808594 501.730469 " fill-opacity="1" fill-rule="nonzero"/><path fill="#f5f6f7" d="M 330.703125 315.859375 L 189.515625 315.859375 C 187.046875 315.859375 184.839844 313.871094 184.582031 311.414062 L 155.132812 27.914062 C 154.875 25.457031 156.671875 23.46875 159.140625 23.46875 L 300.328125 23.46875 C 302.796875 23.46875 305.003906 25.457031 305.261719 27.914062 L 334.710938 311.414062 C 334.964844 313.871094 333.171875 315.859375 330.703125 315.859375 Z M 330.703125 315.859375 " fill-opacity="1" fill-rule="nonzero"/><path fill="#000000" d="M 330.703125 316.652344 L 189.515625 316.652344 C 186.65625 316.652344 184.089844 314.339844 183.792969 311.496094 L 154.34375 27.996094 C 154.195312 26.582031 154.617188 25.246094 155.527344 24.238281 C 156.433594 23.230469 157.71875 22.675781 159.140625 22.675781 L 300.328125 22.675781 C 303.1875 22.675781 305.753906 24.988281 306.050781 27.832031 L 335.5 311.332031 C 335.648438 312.746094 335.226562 314.082031 334.316406 315.09375 C 333.40625 316.101562 332.125 316.652344 330.703125 316.652344 Z M 159.140625 24.261719 C 158.175781 24.261719 157.308594 24.628906 156.703125 25.300781 C 156.101562 25.972656 155.820312 26.871094 155.921875 27.832031 L 185.375 311.332031 C 185.585938 313.394531 187.445312 315.066406 189.515625 315.066406 L 330.703125 315.066406 C 331.667969 315.066406 332.535156 314.699219 333.136719 314.027344 C 333.742188 313.355469 334.023438 312.457031 333.921875 311.496094 L 304.46875 27.996094 C 304.253906 25.9375 302.398438 24.261719 300.328125 24.261719 Z M 159.140625 24.261719 " fill-opacity="1" fill-rule="nonzero"/><path fill="#ffffff" d="M 321.933594 305.429688 L 196.898438 305.429688 C 194.714844 305.429688 192.757812 303.664062 192.535156 301.492188 L 166.449219 50.425781 C 166.226562 48.253906 167.8125 46.488281 170 46.488281 L 295.035156 46.488281 C 297.222656 46.488281 299.175781 48.253906 299.402344 50.425781 L 325.484375 301.492188 C 325.707031 303.664062 324.121094 305.429688 321.933594 305.429688 Z M 321.933594 305.429688 " fill-opacity="1" fill-rule="nonzero"/><path fill="#000000" d="M 321.933594 306.222656 L 196.898438 306.222656 C 194.320312 306.222656 192.007812 304.132812 191.742188 301.570312 L 165.660156 50.507812 C 165.527344 49.230469 165.90625 48.023438 166.730469 47.113281 C 167.550781 46.199219 168.714844 45.695312 169.996094 45.695312 L 295.035156 45.695312 C 297.609375 45.695312 299.925781 47.78125 300.191406 50.34375 L 326.273438 301.410156 C 326.40625 302.6875 326.027344 303.894531 325.203125 304.808594 C 324.378906 305.71875 323.21875 306.222656 321.933594 306.222656 Z M 169.996094 47.28125 C 169.167969 47.28125 168.425781 47.597656 167.910156 48.171875 C 167.390625 48.746094 167.152344 49.519531 167.238281 50.34375 L 193.320312 301.40625 C 193.503906 303.1875 195.109375 304.632812 196.898438 304.632812 L 321.933594 304.632812 C 322.761719 304.632812 323.503906 304.316406 324.023438 303.742188 C 324.542969 303.167969 324.78125 302.394531 324.695312 301.570312 L 298.613281 50.507812 C 298.429688 48.730469 296.820312 47.285156 295.035156 47.285156 L 169.996094 47.285156 Z M 169.996094 47.28125 " fill-opacity="1" fill-rule="nonzero"/><path fill="#f5f6f7" d="M 285.207031 67.886719 L 211.550781 67.886719 C 209.828125 67.886719 208.140625 66.507812 207.78125 64.8125 C 207.417969 63.117188 208.523438 61.738281 210.25 61.738281 L 283.902344 61.738281 C 285.628906 61.738281 287.316406 63.117188 287.675781 64.8125 C 288.035156 66.507812 286.929688 67.886719 285.207031 67.886719 Z M 285.207031 67.886719 " fill-opacity="1" fill-rule="nonzero"/><path fill="#000000" d="M 285.207031 68.679688 L 211.550781 68.679688 C 209.441406 68.679688 207.445312 67.050781 207.003906 64.976562 C 206.777344 63.914062 206.996094 62.902344 207.621094 62.128906 C 208.242188 61.363281 209.171875 60.941406 210.246094 60.941406 L 283.902344 60.941406 C 286.011719 60.941406 288.007812 62.570312 288.449219 64.644531 C 288.675781 65.710938 288.457031 66.71875 287.832031 67.492188 C 287.210938 68.257812 286.28125 68.679688 285.207031 68.679688 Z M 210.246094 62.53125 C 209.660156 62.53125 209.167969 62.742188 208.855469 63.128906 C 208.539062 63.519531 208.429688 64.058594 208.554688 64.648438 C 208.839844 65.972656 210.210938 67.09375 211.550781 67.09375 L 285.207031 67.09375 C 285.792969 67.09375 286.285156 66.882812 286.597656 66.496094 C 286.914062 66.105469 287.023438 65.5625 286.898438 64.976562 C 286.617188 63.648438 285.242188 62.53125 283.902344 62.53125 Z M 210.246094 62.53125 " fill-opacity="1" fill-rule="nonzero"/><path fill="#f5f6f7" d="M 257 78.242188 L 212.953125 78.242188 C 211.230469 78.242188 209.542969 76.867188 209.183594 75.167969 C 208.824219 73.472656 209.925781 72.09375 211.652344 72.09375 L 255.695312 72.09375 C 257.417969 72.09375 259.109375 73.472656 259.46875 75.167969 C 259.828125 76.867188 258.722656 78.242188 257 78.242188 Z M 257 78.242188 " fill-opacity="1" fill-rule="nonzero"/><path fill="#000000" d="M 257 79.035156 L 212.953125 79.035156 C 210.84375 79.035156 208.847656 77.40625 208.40625 75.332031 C 208.179688 74.269531 208.398438 73.257812 209.027344 72.484375 C 209.644531 71.722656 210.578125 71.296875 211.652344 71.296875 L 255.695312 71.296875 C 257.804688 71.296875 259.804688 72.925781 260.246094 75 C 260.472656 76.066406 260.25 77.078125 259.625 77.847656 C 259.003906 78.617188 258.074219 79.035156 257 79.035156 Z M 211.648438 72.886719 C 211.0625 72.886719 210.570312 73.097656 210.257812 73.484375 C 209.941406 73.875 209.832031 74.417969 209.957031 75.003906 C 210.238281 76.328125 211.613281 77.449219 212.953125 77.449219 L 257 77.449219 C 257.582031 77.449219 258.078125 77.238281 258.390625 76.851562 C 258.707031 76.460938 258.816406 75.917969 258.691406 75.332031 C 258.40625 74.007812 257.035156 72.886719 255.695312 72.886719 Z M 211.648438 72.886719 " fill-opacity="1" fill-rule="nonzero"/><path fill="#f5f6f7" d="M 255.625 109.890625 L 216.691406 109.890625 C 214.96875 109.890625 213.28125 108.511719 212.921875 106.816406 C 212.5625 105.117188 213.664062 103.742188 215.390625 103.742188 L 254.320312 103.742188 C 256.042969 103.742188 257.734375 105.117188 258.09375 106.816406 C 258.453125 108.511719 257.347656 109.890625 255.625 109.890625 Z M 255.625 109.890625 " fill-opacity="1" fill-rule="nonzero"/><path fill="#000000" d="M 255.625 110.683594 L 216.691406 110.683594 C 214.582031 110.683594 212.585938 109.054688 212.144531 106.980469 C 211.917969 105.914062 212.136719 104.90625 212.765625 104.132812 C 213.382812 103.367188 214.316406 102.945312 215.390625 102.945312 L 254.320312 102.945312 C 256.429688 102.945312 258.429688 104.574219 258.867188 106.648438 C 259.097656 107.714844 258.875 108.722656 258.25 109.496094 C 257.628906 110.257812 256.699219 110.683594 255.625 110.683594 Z M 215.390625 104.535156 C 214.804688 104.535156 214.3125 104.746094 213.996094 105.132812 C 213.679688 105.523438 213.574219 106.066406 213.695312 106.652344 C 213.980469 107.976562 215.351562 109.09375 216.691406 109.09375 L 255.625 109.09375 C 256.210938 109.09375 256.703125 108.886719 257.019531 108.496094 C 257.335938 108.105469 257.441406 107.570312 257.316406 106.984375 C 257.035156 105.65625 255.660156 104.535156 254.320312 104.535156 Z M 215.390625 104.535156 " fill-opacity="1" fill-rule="nonzero"/><path fill="#f5f6f7" d="M 252.359375 140.367188 L 219.964844 140.367188 C 218.242188 140.367188 216.554688 138.992188 216.191406 137.292969 C 215.832031 135.597656 216.9375 134.21875 218.660156 134.21875 L 251.058594 134.21875 C 252.78125 134.21875 254.46875 135.597656 254.828125 137.292969 C 255.191406 138.992188 254.085938 140.367188 252.359375 140.367188 Z M 252.359375 140.367188 " fill-opacity="1" fill-rule="nonzero"/><path fill="#000000" d="M 252.359375 141.164062 L 219.96875 141.164062 C 217.855469 141.164062 215.859375 139.535156 215.417969 137.457031 C 215.191406 136.394531 215.410156 135.382812 216.035156 134.613281 C 216.65625 133.847656 217.589844 133.425781 218.660156 133.425781 L 251.058594 133.425781 C 253.167969 133.425781 255.164062 135.054688 255.605469 137.128906 C 255.832031 138.191406 255.613281 139.203125 254.988281 139.976562 C 254.367188 140.738281 253.433594 141.164062 252.359375 141.164062 Z M 218.660156 135.011719 C 218.074219 135.011719 217.582031 135.222656 217.269531 135.609375 C 216.949219 136 216.84375 136.542969 216.96875 137.128906 C 217.25 138.457031 218.621094 139.574219 219.964844 139.574219 L 252.359375 139.574219 C 252.945312 139.574219 253.441406 139.363281 253.753906 138.976562 C 254.070312 138.585938 254.179688 138.046875 254.054688 137.457031 C 253.769531 136.132812 252.398438 135.011719 251.058594 135.011719 Z M 218.660156 135.011719 " fill-opacity="1" fill-rule="nonzero"/><path fill="#f5f6f7" d="M 288.503906 98.585938 L 214.847656 98.585938 C 213.125 98.585938 211.4375 97.210938 211.078125 95.515625 C 210.714844 93.816406 211.820312 92.441406 213.546875 92.441406 L 287.199219 92.441406 C 288.925781 92.441406 290.613281 93.816406 290.972656 95.515625 C 291.332031 97.210938 290.226562 98.585938 288.503906 98.585938 Z M 288.503906 98.585938 " fill-opacity="1" fill-rule="nonzero"/><path fill="#000000" d="M 288.503906 99.382812 L 214.847656 99.382812 C 212.738281 99.382812 210.742188 97.753906 210.300781 95.675781 C 210.074219 94.613281 210.292969 93.605469 210.917969 92.832031 C 211.539062 92.066406 212.46875 91.644531 213.542969 91.644531 L 287.199219 91.644531 C 289.308594 91.644531 291.308594 93.269531 291.746094 95.347656 C 291.976562 96.410156 291.753906 97.421875 291.128906 98.195312 C 290.507812 98.957031 289.578125 99.382812 288.503906 99.382812 Z M 213.542969 93.234375 C 212.957031 93.234375 212.464844 93.445312 212.148438 93.832031 C 211.832031 94.222656 211.726562 94.757812 211.851562 95.347656 C 212.132812 96.671875 213.507812 97.792969 214.847656 97.792969 L 288.503906 97.792969 C 289.089844 97.792969 289.582031 97.582031 289.894531 97.195312 C 290.210938 96.804688 290.320312 96.261719 290.195312 95.675781 C 289.914062 94.351562 288.542969 93.230469 287.199219 93.230469 L 213.542969 93.230469 Z M 213.542969 93.234375 " fill-opacity="1" fill-rule="nonzero"/><path fill="#f5f6f7" d="M 291.800781 129.289062 L 218.144531 129.289062 C 216.421875 129.289062 214.730469 127.910156 214.371094 126.214844 C 214.011719 124.519531 215.117188 123.140625 216.839844 123.140625 L 290.496094 123.140625 C 292.21875 123.140625 293.910156 124.519531 294.269531 126.214844 C 294.628906 127.910156 293.523438 129.289062 291.800781 129.289062 Z M 291.800781 129.289062 " fill-opacity="1" fill-rule="nonzero"/><path fill="#000000" d="M 291.796875 130.082031 L 218.144531 130.082031 C 216.035156 130.082031 214.035156 128.453125 213.597656 126.378906 C 213.367188 125.3125 213.589844 124.304688 214.214844 123.53125 C 214.835938 122.765625 215.769531 122.34375 216.839844 122.34375 L 290.496094 122.34375 C 292.605469 122.34375 294.601562 123.972656 295.042969 126.046875 C 295.269531 127.113281 295.050781 128.121094 294.425781 128.894531 C 293.804688 129.660156 292.871094 130.082031 291.796875 130.082031 Z M 216.839844 123.933594 C 216.253906 123.933594 215.761719 124.144531 215.449219 124.527344 C 215.132812 124.921875 215.023438 125.460938 215.148438 126.050781 C 215.429688 127.375 216.800781 128.492188 218.144531 128.492188 L 291.796875 128.492188 C 292.382812 128.492188 292.878906 128.28125 293.191406 127.898438 C 293.507812 127.503906 293.613281 126.964844 293.492188 126.378906 C 293.207031 125.050781 291.835938 123.933594 290.496094 123.933594 Z M 216.839844 123.933594 " fill-opacity="1" fill-rule="nonzero"/><path fill="#f5f6f7" d="M 295.09375 159.988281 L 221.441406 159.988281 C 219.714844 159.988281 218.027344 158.613281 217.667969 156.917969 C 217.308594 155.21875 218.410156 153.84375 220.136719 153.84375 L 293.792969 153.84375 C 295.515625 153.84375 297.203125 155.21875 297.5625 156.917969 C 297.925781 158.613281 296.820312 159.988281 295.09375 159.988281 Z M 295.09375 159.988281 " fill-opacity="1" fill-rule="nonzero"/><path fill="#000000" d="M 295.09375 160.785156 L 221.441406 160.785156 C 219.328125 160.785156 217.332031 159.15625 216.890625 157.078125 C 216.664062 156.015625 216.882812 155.003906 217.511719 154.234375 C 218.128906 153.46875 219.0625 153.046875 220.136719 153.046875 L 293.792969 153.046875 C 295.902344 153.046875 297.898438 154.671875 298.339844 156.75 C 298.566406 157.8125 298.347656 158.824219 297.722656 159.597656 C 297.101562 160.359375 296.167969 160.785156 295.09375 160.785156 Z M 220.136719 154.632812 C 219.550781 154.632812 219.058594 154.84375 218.746094 155.230469 C 218.425781 155.621094 218.320312 156.164062 218.445312 156.75 C 218.726562 158.078125 220.097656 159.195312 221.441406 159.195312 L 295.09375 159.195312 C 295.679688 159.195312 296.175781 158.984375 296.488281 158.597656 C 296.804688 158.207031 296.914062 157.667969 296.789062 157.078125 C 296.503906 155.753906 295.132812 154.632812 293.792969 154.632812 Z M 220.136719 154.632812 " fill-opacity="1" fill-rule="nonzero"/><path fill="#f5f6f7" d="M 298.390625 190.6875 L 224.738281 190.6875 C 223.011719 190.6875 221.324219 189.3125 220.964844 187.617188 C 220.605469 185.917969 221.707031 184.542969 223.433594 184.542969 L 297.089844 184.542969 C 298.8125 184.542969 300.5 185.917969 300.859375 187.617188 C 301.21875 189.3125 300.117188 190.6875 298.390625 190.6875 Z M 298.390625 190.6875 " fill-opacity="1" fill-rule="nonzero"/><path fill="#000000" d="M 298.390625 191.484375 L 224.738281 191.484375 C 222.625 191.484375 220.628906 189.855469 220.1875 187.777344 C 219.964844 186.714844 220.179688 185.707031 220.804688 184.9375 C 221.425781 184.171875 222.359375 183.75 223.429688 183.75 L 297.085938 183.75 C 299.195312 183.75 301.195312 185.375 301.632812 187.449219 C 301.859375 188.515625 301.640625 189.523438 301.015625 190.296875 C 300.398438 191.0625 299.464844 191.484375 298.390625 191.484375 Z M 223.429688 185.335938 C 222.847656 185.335938 222.351562 185.546875 222.039062 185.929688 C 221.722656 186.324219 221.613281 186.863281 221.738281 187.449219 C 222.019531 188.777344 223.394531 189.894531 224.734375 189.894531 L 298.390625 189.894531 C 298.976562 189.894531 299.46875 189.683594 299.78125 189.300781 C 300.097656 188.90625 300.207031 188.367188 300.082031 187.777344 C 299.796875 186.453125 298.429688 185.335938 297.085938 185.335938 Z M 223.429688 185.335938 " fill-opacity="1" fill-rule="nonzero"/><path fill="#f5f6f7" d="M 301.6875 221.390625 L 228.03125 221.390625 C 226.308594 221.390625 224.621094 220.015625 224.257812 218.316406 C 223.898438 216.621094 225.003906 215.242188 226.726562 215.242188 L 300.382812 215.242188 C 302.105469 215.242188 303.796875 216.621094 304.15625 218.316406 C 304.515625 220.015625 303.410156 221.390625 301.6875 221.390625 Z M 301.6875 221.390625 " fill-opacity="1" fill-rule="nonzero"/><path fill="#000000" d="M 301.6875 222.1875 L 228.03125 222.1875 C 225.921875 222.1875 223.925781 220.558594 223.484375 218.480469 C 223.257812 217.417969 223.476562 216.40625 224.101562 215.636719 C 224.722656 214.871094 225.65625 214.449219 226.726562 214.449219 L 300.382812 214.449219 C 302.496094 214.449219 304.492188 216.078125 304.933594 218.152344 C 305.160156 219.214844 304.941406 220.226562 304.3125 221 C 303.691406 221.761719 302.761719 222.1875 301.6875 222.1875 Z M 226.726562 216.035156 C 226.140625 216.035156 225.648438 216.246094 225.335938 216.632812 C 225.019531 217.023438 224.910156 217.566406 225.035156 218.152344 C 225.316406 219.480469 226.6875 220.597656 228.03125 220.597656 L 301.6875 220.597656 C 302.269531 220.597656 302.765625 220.386719 303.078125 220 C 303.394531 219.609375 303.503906 219.070312 303.378906 218.480469 C 303.097656 217.15625 301.722656 216.035156 300.382812 216.035156 Z M 226.726562 216.035156 " fill-opacity="1" fill-rule="nonzero"/><path fill="#f5f6f7" d="M 304.984375 252.089844 L 231.328125 252.089844 C 229.605469 252.089844 227.917969 250.714844 227.558594 249.019531 C 227.195312 247.320312 228.300781 245.945312 230.027344 245.945312 L 303.679688 245.945312 C 305.402344 245.945312 307.09375 247.320312 307.453125 249.019531 C 307.8125 250.714844 306.707031 252.089844 304.984375 252.089844 Z M 304.984375 252.089844 " fill-opacity="1" fill-rule="nonzero"/><path fill="#000000" d="M 304.984375 252.886719 L 231.328125 252.886719 C 229.21875 252.886719 227.222656 251.257812 226.78125 249.183594 C 226.554688 248.117188 226.773438 247.109375 227.398438 246.335938 C 228.019531 245.570312 228.953125 245.148438 230.027344 245.148438 L 303.679688 245.148438 C 305.789062 245.148438 307.785156 246.777344 308.230469 248.851562 C 308.457031 249.917969 308.238281 250.925781 307.609375 251.699219 C 306.988281 252.464844 306.054688 252.886719 304.984375 252.886719 Z M 230.023438 246.734375 C 229.4375 246.734375 228.941406 246.945312 228.632812 247.332031 C 228.316406 247.722656 228.207031 248.265625 228.332031 248.851562 C 228.613281 250.179688 229.984375 251.296875 231.328125 251.296875 L 304.984375 251.296875 C 305.566406 251.296875 306.0625 251.085938 306.375 250.699219 C 306.691406 250.308594 306.800781 249.769531 306.675781 249.179688 C 306.394531 247.855469 305.019531 246.734375 303.675781 246.734375 Z M 230.023438 246.734375 " fill-opacity="1" fill-rule="nonzero"/><path fill="#5c84f7" d="M 292.667969 33.230469 C 292.894531 33.433594 293.097656 33.65625 293.28125 33.894531 C 293.464844 34.132812 293.625 34.382812 293.761719 34.648438 C 293.898438 34.914062 294.007812 35.1875 294.09375 35.46875 C 294.175781 35.75 294.234375 36.03125 294.261719 36.320312 C 294.289062 36.605469 294.289062 36.890625 294.261719 37.167969 C 294.234375 37.449219 294.179688 37.722656 294.09375 37.988281 C 294.011719 38.25 293.902344 38.5 293.765625 38.738281 C 293.628906 38.976562 293.46875 39.195312 293.285156 39.398438 C 293.101562 39.597656 292.898438 39.777344 292.675781 39.9375 C 292.453125 40.09375 292.210938 40.230469 291.957031 40.335938 C 291.703125 40.445312 291.4375 40.527344 291.160156 40.582031 C 290.882812 40.636719 290.601562 40.664062 290.3125 40.664062 C 290.023438 40.660156 289.738281 40.632812 289.449219 40.574219 C 289.160156 40.519531 288.878906 40.433594 288.601562 40.324219 C 288.324219 40.214844 288.058594 40.078125 287.804688 39.917969 C 287.546875 39.757812 287.308594 39.578125 287.085938 39.375 C 286.859375 39.167969 286.65625 38.949219 286.472656 38.710938 C 286.289062 38.472656 286.128906 38.21875 285.992188 37.953125 C 285.855469 37.691406 285.746094 37.417969 285.660156 37.136719 C 285.578125 36.855469 285.519531 36.570312 285.492188 36.285156 C 285.464844 36 285.460938 35.714844 285.492188 35.433594 C 285.519531 35.152344 285.574219 34.882812 285.660156 34.617188 C 285.742188 34.351562 285.851562 34.101562 285.988281 33.863281 C 286.125 33.628906 286.285156 33.40625 286.46875 33.207031 C 286.652344 33.003906 286.855469 32.824219 287.078125 32.667969 C 287.300781 32.507812 287.539062 32.375 287.796875 32.265625 C 288.050781 32.15625 288.316406 32.078125 288.59375 32.019531 C 288.871094 31.964844 289.152344 31.941406 289.441406 31.941406 C 289.730469 31.941406 290.015625 31.972656 290.304688 32.027344 C 290.59375 32.085938 290.875 32.167969 291.152344 32.28125 C 291.429688 32.390625 291.695312 32.527344 291.949219 32.6875 C 292.207031 32.84375 292.445312 33.027344 292.667969 33.230469 Z M 292.667969 33.230469 " fill-opacity="1" fill-rule="nonzero"/><path fill="#000000" d="M 290.335938 41.464844 C 287.523438 41.464844 284.996094 39.1875 284.707031 36.390625 C 284.5625 35 284.976562 33.683594 285.871094 32.691406 C 286.765625 31.703125 288.03125 31.15625 289.425781 31.15625 C 292.238281 31.15625 294.761719 33.429688 295.050781 36.226562 C 295.195312 37.621094 294.785156 38.933594 293.886719 39.925781 C 292.996094 40.917969 291.734375 41.464844 290.335938 41.464844 Z M 289.429688 32.742188 C 288.488281 32.742188 287.640625 33.101562 287.050781 33.753906 C 286.460938 34.410156 286.1875 35.289062 286.289062 36.226562 C 286.496094 38.242188 288.3125 39.878906 290.335938 39.878906 C 291.277344 39.878906 292.121094 39.515625 292.714844 38.863281 C 293.304688 38.207031 293.574219 37.332031 293.476562 36.390625 C 293.269531 34.378906 291.449219 32.742188 289.429688 32.742188 Z M 289.429688 32.742188 " fill-opacity="1" fill-rule="nonzero"/><path fill="#5c84f7" d="M 279.390625 33.246094 C 279.617188 33.449219 279.820312 33.671875 280.003906 33.910156 C 280.1875 34.148438 280.347656 34.398438 280.484375 34.664062 C 280.621094 34.929688 280.730469 35.203125 280.816406 35.484375 C 280.898438 35.765625 280.957031 36.046875 280.984375 36.335938 C 281.011719 36.621094 281.011719 36.90625 280.984375 37.183594 C 280.957031 37.464844 280.902344 37.738281 280.816406 38.003906 C 280.734375 38.265625 280.625 38.515625 280.488281 38.753906 C 280.351562 38.992188 280.191406 39.210938 280.007812 39.414062 C 279.824219 39.613281 279.621094 39.792969 279.398438 39.953125 C 279.175781 40.109375 278.933594 40.242188 278.679688 40.351562 C 278.425781 40.460938 278.160156 40.542969 277.882812 40.597656 C 277.605469 40.652344 277.324219 40.679688 277.035156 40.675781 C 276.746094 40.675781 276.457031 40.648438 276.171875 40.589844 C 275.882812 40.53125 275.601562 40.449219 275.324219 40.339844 C 275.046875 40.226562 274.78125 40.09375 274.523438 39.933594 C 274.269531 39.773438 274.03125 39.589844 273.804688 39.386719 C 273.582031 39.183594 273.378906 38.964844 273.195312 38.722656 C 273.011719 38.484375 272.851562 38.234375 272.714844 37.96875 C 272.578125 37.703125 272.46875 37.429688 272.382812 37.148438 C 272.300781 36.867188 272.242188 36.585938 272.214844 36.296875 C 272.1875 36.011719 272.183594 35.730469 272.214844 35.449219 C 272.242188 35.167969 272.296875 34.894531 272.382812 34.632812 C 272.464844 34.367188 272.574219 34.117188 272.710938 33.878906 C 272.847656 33.640625 273.007812 33.421875 273.191406 33.21875 C 273.375 33.019531 273.578125 32.839844 273.800781 32.679688 C 274.023438 32.523438 274.265625 32.390625 274.519531 32.28125 C 274.773438 32.171875 275.039062 32.089844 275.316406 32.035156 C 275.59375 31.980469 275.875 31.953125 276.164062 31.957031 C 276.453125 31.957031 276.738281 31.984375 277.027344 32.042969 C 277.316406 32.101562 277.597656 32.183594 277.875 32.292969 C 278.152344 32.40625 278.417969 32.539062 278.671875 32.699219 C 278.929688 32.859375 279.167969 33.042969 279.390625 33.246094 Z M 279.390625 33.246094 " fill-opacity="1" fill-rule="nonzero"/><path fill="#000000" d="M 277.046875 41.464844 C 274.234375 41.464844 271.710938 39.1875 271.421875 36.390625 C 271.277344 35 271.691406 33.6875 272.585938 32.691406 C 273.480469 31.703125 274.742188 31.15625 276.140625 31.15625 C 278.953125 31.15625 281.476562 33.429688 281.765625 36.226562 C 281.910156 37.621094 281.496094 38.933594 280.601562 39.929688 C 279.707031 40.917969 278.445312 41.464844 277.046875 41.464844 Z M 276.140625 32.742188 C 275.199219 32.742188 274.351562 33.101562 273.761719 33.757812 C 273.171875 34.410156 272.902344 35.289062 273 36.226562 C 273.207031 38.242188 275.023438 39.878906 277.046875 39.878906 C 277.988281 39.878906 278.835938 39.515625 279.425781 38.863281 C 280.015625 38.210938 280.285156 37.332031 280.1875 36.390625 C 279.980469 34.378906 278.164062 32.742188 276.140625 32.742188 Z M 276.140625 32.742188 " fill-opacity="1" fill-rule="nonzero"/><path fill="#5c84f7" d="M 266.097656 33.234375 C 266.320312 33.4375 266.523438 33.65625 266.707031 33.894531 C 266.890625 34.132812 267.050781 34.386719 267.1875 34.652344 C 267.324219 34.917969 267.4375 35.1875 267.519531 35.46875 C 267.605469 35.75 267.660156 36.035156 267.691406 36.320312 C 267.71875 36.609375 267.71875 36.890625 267.691406 37.171875 C 267.664062 37.453125 267.605469 37.722656 267.523438 37.988281 C 267.4375 38.253906 267.328125 38.503906 267.191406 38.742188 C 267.058594 38.976562 266.898438 39.199219 266.714844 39.398438 C 266.53125 39.601562 266.328125 39.78125 266.101562 39.9375 C 265.878906 40.097656 265.640625 40.230469 265.386719 40.339844 C 265.128906 40.449219 264.863281 40.53125 264.585938 40.585938 C 264.3125 40.640625 264.027344 40.664062 263.742188 40.664062 C 263.453125 40.664062 263.164062 40.632812 262.875 40.578125 C 262.589844 40.519531 262.304688 40.4375 262.03125 40.324219 C 261.753906 40.214844 261.484375 40.082031 261.230469 39.921875 C 260.976562 39.761719 260.734375 39.578125 260.511719 39.375 C 260.289062 39.171875 260.085938 38.949219 259.902344 38.710938 C 259.71875 38.472656 259.558594 38.222656 259.421875 37.957031 C 259.285156 37.691406 259.171875 37.417969 259.089844 37.136719 C 259.003906 36.855469 258.949219 36.574219 258.917969 36.285156 C 258.890625 36 258.890625 35.71875 258.917969 35.4375 C 258.945312 35.15625 259.003906 34.882812 259.085938 34.617188 C 259.171875 34.355469 259.28125 34.105469 259.417969 33.867188 C 259.550781 33.628906 259.710938 33.410156 259.894531 33.207031 C 260.078125 33.007812 260.28125 32.828125 260.507812 32.667969 C 260.730469 32.511719 260.96875 32.378906 261.222656 32.269531 C 261.480469 32.160156 261.746094 32.078125 262.023438 32.023438 C 262.296875 31.96875 262.582031 31.941406 262.867188 31.941406 C 263.15625 31.945312 263.445312 31.972656 263.734375 32.03125 C 264.019531 32.085938 264.304688 32.171875 264.578125 32.28125 C 264.855469 32.390625 265.125 32.527344 265.378906 32.6875 C 265.632812 32.847656 265.875 33.027344 266.097656 33.234375 Z M 266.097656 33.234375 " fill-opacity="1" fill-rule="nonzero"/><path fill="#000000" d="M 263.761719 41.464844 C 260.949219 41.464844 258.425781 39.1875 258.132812 36.390625 C 257.992188 35 258.40625 33.683594 259.300781 32.691406 C 260.195312 31.703125 261.457031 31.15625 262.855469 31.15625 C 265.664062 31.15625 268.1875 33.429688 268.480469 36.226562 C 268.625 37.621094 268.210938 38.933594 267.316406 39.925781 C 266.421875 40.917969 265.160156 41.464844 263.761719 41.464844 Z M 262.855469 32.742188 C 261.914062 32.742188 261.066406 33.101562 260.476562 33.753906 C 259.886719 34.410156 259.613281 35.289062 259.714844 36.226562 C 259.921875 38.238281 261.738281 39.878906 263.761719 39.878906 C 264.703125 39.878906 265.546875 39.515625 266.136719 38.863281 C 266.730469 38.210938 267 37.332031 266.902344 36.390625 C 266.691406 34.378906 264.878906 32.742188 262.855469 32.742188 Z M 262.855469 32.742188 " fill-opacity="1" fill-rule="nonzero"/><path fill="#5c84f7" d="M 204.578125 182.867188 C 204.867188 183.164062 205.125 183.476562 205.351562 183.816406 C 205.582031 184.15625 205.777344 184.511719 205.941406 184.882812 C 206.101562 185.253906 206.230469 185.632812 206.320312 186.019531 C 206.410156 186.410156 206.460938 186.800781 206.476562 187.191406 C 206.488281 187.582031 206.464844 187.96875 206.402344 188.347656 C 206.339844 188.730469 206.238281 189.09375 206.101562 189.449219 C 205.964844 189.800781 205.792969 190.132812 205.585938 190.445312 C 205.378906 190.761719 205.144531 191.046875 204.878906 191.308594 C 204.609375 191.566406 204.316406 191.796875 204 191.996094 C 203.683594 192.195312 203.34375 192.355469 202.988281 192.484375 C 202.632812 192.613281 202.261719 192.703125 201.882812 192.757812 C 201.5 192.8125 201.113281 192.828125 200.722656 192.804688 C 200.332031 192.78125 199.941406 192.71875 199.554688 192.621094 C 199.167969 192.519531 198.789062 192.386719 198.421875 192.214844 C 198.054688 192.042969 197.707031 191.839844 197.375 191.601562 C 197.039062 191.363281 196.730469 191.097656 196.441406 190.804688 C 196.15625 190.511719 195.898438 190.195312 195.667969 189.855469 C 195.441406 189.519531 195.246094 189.164062 195.082031 188.792969 C 194.917969 188.421875 194.792969 188.042969 194.703125 187.652344 C 194.613281 187.265625 194.5625 186.875 194.546875 186.484375 C 194.535156 186.089844 194.558594 185.707031 194.621094 185.324219 C 194.683594 184.945312 194.785156 184.578125 194.921875 184.226562 C 195.058594 183.875 195.230469 183.539062 195.4375 183.226562 C 195.640625 182.914062 195.878906 182.628906 196.144531 182.367188 C 196.414062 182.105469 196.703125 181.878906 197.023438 181.679688 C 197.339844 181.480469 197.679688 181.316406 198.035156 181.1875 C 198.390625 181.058594 198.761719 180.96875 199.140625 180.914062 C 199.523438 180.863281 199.910156 180.847656 200.300781 180.871094 C 200.691406 180.894531 201.082031 180.953125 201.46875 181.054688 C 201.855469 181.152344 202.230469 181.289062 202.597656 181.460938 C 202.964844 181.632812 203.316406 181.835938 203.648438 182.074219 C 203.984375 182.308594 204.292969 182.574219 204.578125 182.867188 Z M 204.578125 182.867188 " fill-opacity="1" fill-rule="nonzero"/><path fill="#000000" d="M 201.070312 193.617188 C 197.398438 193.617188 194.125 190.613281 193.777344 186.921875 C 193.601562 185.085938 194.15625 183.359375 195.339844 182.0625 C 196.507812 180.78125 198.140625 180.074219 199.941406 180.074219 C 203.613281 180.074219 206.886719 183.082031 207.234375 186.769531 C 207.410156 188.605469 206.855469 190.332031 205.671875 191.628906 C 204.503906 192.910156 202.871094 193.617188 201.070312 193.617188 Z M 199.941406 181.664062 C 198.59375 181.664062 197.378906 182.183594 196.515625 183.132812 C 195.636719 184.09375 195.226562 185.390625 195.355469 186.773438 C 195.628906 189.671875 198.195312 192.03125 201.070312 192.03125 C 202.417969 192.03125 203.632812 191.511719 204.496094 190.5625 C 205.375 189.597656 205.785156 188.304688 205.65625 186.921875 C 205.382812 184.023438 202.820312 181.664062 199.941406 181.664062 Z M 199.941406 181.664062 " fill-opacity="1" fill-rule="nonzero"/><path fill="#5c84f7" d="M 211.523438 243.679688 C 211.8125 243.972656 212.070312 244.289062 212.296875 244.628906 C 212.527344 244.964844 212.722656 245.320312 212.886719 245.691406 C 213.046875 246.0625 213.175781 246.441406 213.265625 246.832031 C 213.355469 247.21875 213.40625 247.609375 213.417969 248.003906 C 213.433594 248.394531 213.410156 248.78125 213.347656 249.160156 C 213.285156 249.539062 213.183594 249.90625 213.046875 250.257812 C 212.910156 250.613281 212.738281 250.945312 212.53125 251.257812 C 212.324219 251.570312 212.089844 251.855469 211.820312 252.117188 C 211.554688 252.378906 211.261719 252.609375 210.945312 252.804688 C 210.625 253.003906 210.289062 253.167969 209.933594 253.296875 C 209.578125 253.425781 209.207031 253.515625 208.824219 253.570312 C 208.445312 253.621094 208.058594 253.636719 207.667969 253.613281 C 207.273438 253.589844 206.886719 253.53125 206.5 253.429688 C 206.113281 253.332031 205.734375 253.195312 205.367188 253.023438 C 205 252.855469 204.652344 252.648438 204.316406 252.414062 C 203.984375 252.175781 203.675781 251.910156 203.386719 251.617188 C 203.101562 251.324219 202.84375 251.007812 202.613281 250.667969 C 202.386719 250.328125 202.191406 249.976562 202.027344 249.605469 C 201.863281 249.234375 201.738281 248.851562 201.648438 248.464844 C 201.558594 248.074219 201.507812 247.683594 201.492188 247.292969 C 201.476562 246.902344 201.503906 246.515625 201.566406 246.136719 C 201.628906 245.757812 201.730469 245.390625 201.867188 245.035156 C 202.003906 244.683594 202.175781 244.351562 202.378906 244.039062 C 202.585938 243.726562 202.824219 243.4375 203.089844 243.179688 C 203.355469 242.917969 203.648438 242.6875 203.96875 242.488281 C 204.285156 242.292969 204.621094 242.128906 204.980469 242 C 205.335938 241.871094 205.703125 241.78125 206.085938 241.726562 C 206.46875 241.671875 206.855469 241.65625 207.246094 241.679688 C 207.636719 241.703125 208.027344 241.765625 208.414062 241.863281 C 208.800781 241.964844 209.175781 242.101562 209.542969 242.269531 C 209.910156 242.441406 210.261719 242.648438 210.59375 242.882812 C 210.925781 243.121094 211.238281 243.386719 211.523438 243.679688 Z M 211.523438 243.679688 " fill-opacity="1" fill-rule="nonzero"/><path fill="#000000" d="M 208.015625 254.429688 C 204.34375 254.429688 201.070312 251.425781 200.722656 247.734375 C 200.546875 245.898438 201.101562 244.171875 202.285156 242.875 C 203.453125 241.59375 205.085938 240.886719 206.886719 240.886719 C 210.558594 240.886719 213.832031 243.894531 214.183594 247.582031 C 214.355469 249.417969 213.800781 251.144531 212.617188 252.441406 C 211.449219 253.722656 209.816406 254.429688 208.015625 254.429688 Z M 206.886719 242.472656 C 205.539062 242.472656 204.324219 242.996094 203.460938 243.9375 C 202.582031 244.902344 202.171875 246.199219 202.300781 247.582031 C 202.574219 250.484375 205.140625 252.839844 208.015625 252.839844 C 209.363281 252.839844 210.578125 252.320312 211.441406 251.371094 C 212.320312 250.40625 212.730469 249.113281 212.601562 247.730469 C 212.328125 244.832031 209.765625 242.472656 206.886719 242.472656 Z M 206.886719 242.472656 " fill-opacity="1" fill-rule="nonzero"/><path fill="#5c84f7" d="M 208.539062 213.542969 C 208.824219 213.835938 209.082031 214.152344 209.3125 214.492188 C 209.539062 214.832031 209.738281 215.1875 209.898438 215.554688 C 210.0625 215.925781 210.1875 216.308594 210.277344 216.695312 C 210.367188 217.085938 210.421875 217.476562 210.433594 217.867188 C 210.449219 218.257812 210.421875 218.644531 210.359375 219.023438 C 210.296875 219.402344 210.199219 219.769531 210.058594 220.125 C 209.921875 220.476562 209.75 220.808594 209.546875 221.121094 C 209.339844 221.433594 209.101562 221.722656 208.835938 221.980469 C 208.570312 222.242188 208.277344 222.472656 207.957031 222.671875 C 207.640625 222.867188 207.304688 223.03125 206.945312 223.160156 C 206.589844 223.289062 206.222656 223.378906 205.839844 223.433594 C 205.457031 223.488281 205.074219 223.503906 204.679688 223.480469 C 204.289062 223.457031 203.898438 223.394531 203.511719 223.296875 C 203.125 223.195312 202.75 223.0625 202.382812 222.890625 C 202.015625 222.71875 201.664062 222.515625 201.332031 222.277344 C 201 222.039062 200.6875 221.773438 200.402344 221.480469 C 200.117188 221.1875 199.859375 220.871094 199.628906 220.53125 C 199.398438 220.195312 199.203125 219.839844 199.042969 219.46875 C 198.878906 219.097656 198.753906 218.71875 198.664062 218.328125 C 198.574219 217.941406 198.519531 217.550781 198.507812 217.15625 C 198.492188 216.765625 198.515625 216.378906 198.578125 216 C 198.644531 215.621094 198.742188 215.253906 198.878906 214.902344 C 199.015625 214.546875 199.1875 214.214844 199.394531 213.902344 C 199.601562 213.589844 199.835938 213.304688 200.105469 213.042969 C 200.371094 212.78125 200.664062 212.550781 200.980469 212.355469 C 201.300781 212.15625 201.636719 211.992188 201.992188 211.863281 C 202.351562 211.734375 202.71875 211.644531 203.101562 211.589844 C 203.480469 211.539062 203.867188 211.523438 204.257812 211.546875 C 204.652344 211.570312 205.039062 211.628906 205.425781 211.730469 C 205.8125 211.828125 206.191406 211.964844 206.558594 212.136719 C 206.925781 212.308594 207.273438 212.511719 207.609375 212.75 C 207.941406 212.984375 208.25 213.25 208.539062 213.542969 Z M 208.539062 213.542969 " fill-opacity="1" fill-rule="nonzero"/><path fill="#000000" d="M 205.03125 224.292969 C 201.355469 224.292969 198.082031 221.289062 197.734375 217.597656 C 197.5625 215.761719 198.117188 214.039062 199.296875 212.738281 C 200.464844 211.457031 202.097656 210.75 203.898438 210.75 C 207.574219 210.75 210.847656 213.757812 211.195312 217.445312 C 211.195312 217.449219 211.195312 217.449219 211.195312 217.449219 C 211.367188 219.28125 210.8125 221.007812 209.628906 222.304688 C 208.464844 223.585938 206.832031 224.292969 205.03125 224.292969 Z M 203.902344 212.339844 C 202.550781 212.339844 201.335938 212.859375 200.472656 213.808594 C 199.59375 214.773438 199.183594 216.066406 199.316406 217.449219 C 199.589844 220.347656 202.15625 222.707031 205.03125 222.707031 C 206.378906 222.707031 207.597656 222.1875 208.457031 221.242188 C 209.335938 220.277344 209.75 218.984375 209.617188 217.597656 C 209.34375 214.695312 206.777344 212.339844 203.902344 212.339844 Z M 203.902344 212.339844 " fill-opacity="1" fill-rule="nonzero"/><path fill="#5c84f7" d="M 536.808594 251.984375 C 535.609375 244.621094 532.640625 233.183594 528.675781 220.289062 C 527.136719 215.261719 525.441406 210.007812 523.636719 204.691406 C 522.839844 202.34375 522.023438 199.988281 521.191406 197.625 C 519.921875 194.019531 518.609375 190.414062 517.269531 186.859375 C 508.855469 164.445312 499.460938 143.980469 492.640625 137.449219 C 482.519531 127.757812 457.65625 117.320312 435.253906 111.871094 C 425.941406 109.601562 417.054688 108.199219 409.824219 108.070312 C 402.648438 107.9375 392.109375 110.011719 380.75 113.351562 C 356.683594 120.4375 329.300781 133.527344 321.632812 142.964844 C 314.585938 151.644531 308.664062 165.746094 303.800781 181.527344 C 302.652344 185.242188 301.566406 189.050781 300.535156 192.90625 C 299.957031 195.078125 299.390625 197.269531 298.847656 199.457031 C 297.449219 205.101562 296.167969 210.785156 295 216.347656 C 288.710938 246.402344 285.820312 273.15625 285.820312 273.15625 L 334.167969 294.628906 C 334.167969 294.628906 331.875 341.460938 331.007812 370.285156 L 482.785156 370.285156 C 481.898438 345.039062 479.507812 309.246094 479.507812 309.246094 C 479.507812 309.246094 513.53125 319.386719 528.457031 311.632812 C 543.375 303.878906 540.984375 277.632812 536.808594 251.984375 Z M 536.808594 251.984375 " fill-opacity="1" fill-rule="nonzero"/><path fill="#000000" d="M 482.78125 371.082031 L 331.007812 371.082031 C 330.792969 371.082031 330.585938 370.996094 330.4375 370.839844 C 330.289062 370.6875 330.207031 370.480469 330.214844 370.265625 C 331.019531 343.425781 333.089844 300.457031 333.347656 295.136719 L 285.496094 273.882812 C 285.179688 273.746094 284.992188 273.417969 285.03125 273.074219 C 285.058594 272.808594 287.996094 245.933594 294.222656 216.1875 C 295.46875 210.25 296.765625 204.558594 298.078125 199.269531 C 298.621094 197.074219 299.191406 194.878906 299.765625 192.703125 C 300.839844 188.6875 301.941406 184.847656 303.039062 181.296875 C 308.539062 163.445312 314.585938 150.378906 321.015625 142.46875 C 329.273438 132.304688 357.753906 119.300781 380.523438 112.59375 C 392.59375 109.042969 402.964844 107.15625 409.835938 107.28125 C 416.828125 107.40625 425.683594 108.730469 435.4375 111.105469 C 459.773438 117.023438 483.523438 127.625 493.191406 136.878906 C 501.558594 144.894531 512.332031 171.460938 518.011719 186.585938 C 519.347656 190.148438 520.664062 193.753906 521.9375 197.367188 C 522.773438 199.734375 523.59375 202.089844 524.382812 204.441406 C 526.191406 209.757812 527.890625 215.011719 529.4375 220.0625 C 533.515625 233.332031 536.410156 244.625 537.59375 251.859375 C 541.953125 278.636719 543.910156 304.5 528.820312 312.339844 C 515.128906 319.460938 486.429688 312.023438 480.375 310.324219 C 480.785156 316.609375 482.789062 347.796875 483.574219 370.265625 C 483.582031 370.476562 483.5 370.6875 483.351562 370.84375 C 483.203125 370.996094 482.996094 371.082031 482.78125 371.082031 Z M 331.824219 369.496094 L 481.960938 369.496094 C 481.066406 344.597656 478.742188 309.65625 478.714844 309.300781 C 478.699219 309.042969 478.8125 308.792969 479.011719 308.628906 C 479.21875 308.46875 479.492188 308.417969 479.734375 308.488281 C 480.070312 308.589844 513.625 318.445312 528.085938 310.929688 C 542.28125 303.554688 540.289062 278.304688 536.027344 252.113281 C 534.855469 244.945312 531.976562 233.726562 527.914062 220.523438 C 526.375 215.492188 524.679688 210.25 522.882812 204.949219 C 522.089844 202.601562 521.273438 200.25 520.445312 197.890625 C 519.171875 194.289062 517.863281 190.6875 516.527344 187.136719 C 506.945312 161.621094 498.039062 143.714844 492.09375 138.019531 C 482.757812 129.082031 458.773438 118.410156 435.066406 112.640625 C 425.421875 110.292969 416.6875 108.988281 409.8125 108.863281 C 403.089844 108.699219 392.898438 110.601562 380.976562 114.113281 C 355.699219 121.554688 329.355469 134.722656 322.253906 143.464844 C 315.953125 151.21875 310.003906 164.105469 304.5625 181.761719 C 303.46875 185.292969 302.375 189.113281 301.304688 193.109375 C 300.730469 195.277344 300.164062 197.464844 299.621094 199.652344 C 298.316406 204.921875 297.023438 210.59375 295.78125 216.511719 C 290.074219 243.777344 287.136719 268.617188 286.675781 272.671875 L 334.492188 293.910156 C 334.792969 294.042969 334.980469 294.347656 334.960938 294.671875 C 334.9375 295.136719 332.699219 340.941406 331.824219 369.496094 Z M 331.824219 369.496094 " fill-opacity="1" fill-rule="nonzero"/><path fill="#ffffff" d="M 584.835938 125.574219 L 507.300781 125.574219 C 505.46875 125.574219 503.832031 124.097656 503.644531 122.277344 L 498.226562 70.132812 C 498.039062 68.316406 499.371094 66.839844 501.199219 66.839844 L 578.738281 66.839844 C 580.566406 66.839844 582.203125 68.316406 582.390625 70.132812 L 587.808594 122.277344 C 587.996094 124.101562 586.667969 125.574219 584.835938 125.574219 Z M 584.835938 125.574219 " fill-opacity="1" fill-rule="nonzero"/><path fill="#000000" d="M 584.839844 126.371094 L 507.300781 126.371094 C 505.078125 126.371094 503.085938 124.570312 502.855469 122.363281 L 497.4375 70.21875 C 497.324219 69.109375 497.652344 68.0625 498.367188 67.269531 C 499.082031 66.480469 500.085938 66.042969 501.195312 66.042969 L 578.738281 66.042969 C 580.957031 66.042969 582.953125 67.84375 583.179688 70.054688 L 588.597656 122.199219 C 588.710938 123.304688 588.382812 124.351562 587.667969 125.140625 C 586.957031 125.933594 585.949219 126.371094 584.839844 126.371094 Z M 501.195312 67.628906 C 500.542969 67.628906 499.953125 67.878906 499.546875 68.332031 C 499.136719 68.785156 498.949219 69.394531 499.015625 70.050781 L 504.429688 122.195312 C 504.582031 123.621094 505.867188 124.777344 507.296875 124.777344 L 584.835938 124.777344 C 585.496094 124.777344 586.078125 124.53125 586.488281 124.078125 C 586.898438 123.628906 587.085938 123.011719 587.019531 122.359375 L 581.601562 70.214844 C 581.453125 68.789062 580.167969 67.628906 578.738281 67.628906 Z M 501.195312 67.628906 " fill-opacity="1" fill-rule="nonzero"/><path fill="#ffffff" d="M 570.402344 86.878906 L 515.339844 86.878906 C 513.855469 86.878906 512.527344 85.679688 512.375 84.207031 C 512.222656 82.730469 513.300781 81.53125 514.78125 81.53125 L 569.84375 81.53125 C 571.328125 81.53125 572.65625 82.730469 572.808594 84.207031 C 572.964844 85.679688 571.886719 86.878906 570.402344 86.878906 Z M 570.402344 86.878906 " fill-opacity="1" fill-rule="nonzero"/><path fill="#000000" d="M 570.402344 87.671875 L 515.339844 87.671875 C 513.464844 87.671875 511.777344 86.152344 511.585938 84.285156 C 511.488281 83.34375 511.769531 82.457031 512.378906 81.78125 C 512.984375 81.113281 513.839844 80.738281 514.785156 80.738281 L 569.847656 80.738281 C 571.722656 80.738281 573.40625 82.257812 573.597656 84.125 C 573.695312 85.0625 573.417969 85.953125 572.808594 86.625 C 572.203125 87.296875 571.347656 87.671875 570.402344 87.671875 Z M 514.785156 82.328125 C 514.292969 82.328125 513.859375 82.511719 513.554688 82.84375 C 513.253906 83.179688 513.113281 83.632812 513.164062 84.121094 C 513.273438 85.1875 514.269531 86.082031 515.339844 86.082031 L 570.402344 86.082031 C 570.890625 86.082031 571.328125 85.898438 571.632812 85.5625 C 571.933594 85.226562 572.070312 84.773438 572.019531 84.289062 C 571.910156 83.222656 570.914062 82.328125 569.847656 82.328125 Z M 514.785156 82.328125 " fill-opacity="1" fill-rule="nonzero"/><path fill="#5c84f7" d="M 571.503906 97.492188 L 516.441406 97.492188 C 514.957031 97.492188 513.632812 96.292969 513.476562 94.820312 C 513.324219 93.34375 514.402344 92.148438 515.886719 92.148438 L 570.949219 92.148438 C 572.433594 92.148438 573.757812 93.34375 573.914062 94.820312 C 574.066406 96.296875 572.988281 97.492188 571.503906 97.492188 Z M 571.503906 97.492188 " fill-opacity="1" fill-rule="nonzero"/><path fill="#000000" d="M 571.503906 98.285156 L 516.441406 98.285156 C 514.566406 98.285156 512.878906 96.765625 512.6875 94.898438 C 512.589844 93.960938 512.871094 93.070312 513.480469 92.398438 C 514.089844 91.726562 514.941406 91.351562 515.886719 91.351562 L 570.949219 91.351562 C 572.820312 91.351562 574.503906 92.871094 574.703125 94.738281 C 574.800781 95.679688 574.519531 96.566406 573.910156 97.242188 C 573.304688 97.914062 572.449219 98.285156 571.503906 98.285156 Z M 515.886719 92.941406 C 515.398438 92.941406 514.960938 93.125 514.660156 93.457031 C 514.355469 93.796875 514.214844 94.25 514.265625 94.738281 C 514.375 95.800781 515.371094 96.699219 516.441406 96.699219 L 571.503906 96.699219 C 571.992188 96.699219 572.429688 96.515625 572.730469 96.179688 C 573.035156 95.84375 573.175781 95.390625 573.125 94.898438 C 573.011719 93.820312 572.03125 92.941406 570.949219 92.941406 Z M 515.886719 92.941406 " fill-opacity="1" fill-rule="nonzero"/><path fill="#ffffff" d="M 558.429688 108.105469 L 517.542969 108.105469 C 516.058594 108.105469 514.734375 106.910156 514.578125 105.433594 C 514.425781 103.960938 515.503906 102.761719 516.988281 102.761719 L 557.875 102.761719 C 559.359375 102.761719 560.683594 103.960938 560.835938 105.433594 C 560.992188 106.910156 559.914062 108.105469 558.429688 108.105469 Z M 558.429688 108.105469 " fill-opacity="1" fill-rule="nonzero"/><path fill="#000000" d="M 558.429688 108.902344 L 517.542969 108.902344 C 515.671875 108.902344 513.988281 107.382812 513.792969 105.519531 C 513.691406 104.574219 513.972656 103.6875 514.582031 103.015625 C 515.1875 102.339844 516.042969 101.96875 516.988281 101.96875 L 557.875 101.96875 C 559.78125 101.96875 561.429688 103.457031 561.628906 105.351562 C 561.726562 106.292969 561.445312 107.183594 560.835938 107.855469 C 560.230469 108.527344 559.375 108.902344 558.429688 108.902344 Z M 516.988281 103.554688 C 516.5 103.554688 516.0625 103.738281 515.757812 104.074219 C 515.457031 104.410156 515.316406 104.863281 515.367188 105.351562 C 515.480469 106.433594 516.460938 107.3125 517.542969 107.3125 L 558.429688 107.3125 C 558.921875 107.3125 559.355469 107.128906 559.660156 106.792969 C 559.960938 106.457031 560.101562 106.003906 560.050781 105.515625 C 559.9375 104.4375 558.960938 103.554688 557.875 103.554688 Z M 516.988281 103.554688 " fill-opacity="1" fill-rule="nonzero"/><path fill="#ffffff" d="M 633.582031 174.71875 L 556.042969 174.71875 C 554.214844 174.71875 552.578125 173.242188 552.386719 171.421875 L 546.972656 119.277344 C 546.78125 117.457031 548.113281 115.984375 549.941406 115.984375 L 627.480469 115.984375 C 629.308594 115.984375 630.945312 117.457031 631.136719 119.277344 L 636.550781 171.421875 C 636.738281 173.242188 635.410156 174.71875 633.582031 174.71875 Z M 633.582031 174.71875 " fill-opacity="1" fill-rule="nonzero"/><path fill="#000000" d="M 633.578125 175.507812 L 556.039062 175.507812 C 553.820312 175.507812 551.828125 173.710938 551.597656 171.5 L 546.179688 119.355469 C 546.0625 118.25 546.394531 117.207031 547.109375 116.414062 C 547.820312 115.621094 548.824219 115.1875 549.9375 115.1875 L 627.476562 115.1875 C 629.699219 115.1875 631.691406 116.988281 631.921875 119.195312 L 637.335938 171.339844 C 637.453125 172.445312 637.125 173.492188 636.410156 174.28125 C 635.695312 175.074219 634.691406 175.507812 633.578125 175.507812 Z M 549.9375 116.773438 C 549.28125 116.773438 548.695312 117.023438 548.285156 117.476562 C 547.875 117.929688 547.6875 118.542969 547.753906 119.195312 L 553.171875 171.339844 C 553.320312 172.765625 554.605469 173.921875 556.039062 173.921875 L 633.578125 173.921875 C 634.234375 173.921875 634.820312 173.675781 635.230469 173.222656 C 635.636719 172.769531 635.824219 172.15625 635.757812 171.503906 L 630.34375 119.359375 C 630.195312 117.933594 628.910156 116.777344 627.476562 116.777344 L 549.9375 116.777344 Z M 549.9375 116.773438 " fill-opacity="1" fill-rule="nonzero"/><path fill="#ffffff" d="M 619.144531 136.019531 L 564.082031 136.019531 C 562.597656 136.019531 561.269531 134.824219 561.117188 133.347656 C 560.964844 131.871094 562.042969 130.675781 563.523438 130.675781 L 618.585938 130.675781 C 620.070312 130.675781 621.398438 131.871094 621.550781 133.347656 C 621.703125 134.824219 620.625 136.019531 619.144531 136.019531 Z M 619.144531 136.019531 " fill-opacity="1" fill-rule="nonzero"/><path fill="#000000" d="M 619.144531 136.8125 L 564.078125 136.8125 C 562.203125 136.8125 560.519531 135.292969 560.328125 133.429688 C 560.230469 132.488281 560.511719 131.597656 561.117188 130.925781 C 561.726562 130.253906 562.578125 129.878906 563.523438 129.878906 L 618.585938 129.878906 C 620.460938 129.878906 622.148438 131.398438 622.339844 133.265625 C 622.4375 134.207031 622.15625 135.097656 621.546875 135.769531 C 620.941406 136.441406 620.089844 136.8125 619.144531 136.8125 Z M 563.527344 131.46875 C 563.035156 131.46875 562.601562 131.652344 562.296875 131.988281 C 561.996094 132.324219 561.855469 132.777344 561.90625 133.265625 C 562.015625 134.328125 563.011719 135.226562 564.082031 135.226562 L 619.144531 135.226562 C 619.632812 135.226562 620.070312 135.042969 620.371094 134.707031 C 620.675781 134.371094 620.8125 133.917969 620.761719 133.429688 C 620.652344 132.367188 619.65625 131.46875 618.585938 131.46875 Z M 563.527344 131.46875 " fill-opacity="1" fill-rule="nonzero"/><path fill="#5c84f7" d="M 620.246094 146.632812 L 565.183594 146.632812 C 563.699219 146.632812 562.371094 145.4375 562.21875 143.960938 C 562.066406 142.484375 563.144531 141.289062 564.625 141.289062 L 619.691406 141.289062 C 621.171875 141.289062 622.5 142.484375 622.652344 143.960938 C 622.808594 145.4375 621.730469 146.632812 620.246094 146.632812 Z M 620.246094 146.632812 " fill-opacity="1" fill-rule="nonzero"/><path fill="#000000" d="M 620.246094 147.425781 L 565.183594 147.425781 C 563.308594 147.425781 561.621094 145.90625 561.433594 144.042969 C 561.332031 143.101562 561.613281 142.210938 562.222656 141.539062 C 562.828125 140.867188 563.683594 140.496094 564.628906 140.496094 L 619.691406 140.496094 C 621.566406 140.496094 623.25 142.011719 623.441406 143.878906 C 623.542969 144.820312 623.261719 145.710938 622.652344 146.382812 C 622.046875 147.054688 621.191406 147.425781 620.246094 147.425781 Z M 564.628906 142.082031 C 564.136719 142.082031 563.703125 142.265625 563.398438 142.601562 C 563.097656 142.9375 562.960938 143.390625 563.007812 143.878906 C 563.121094 144.945312 564.113281 145.839844 565.183594 145.839844 L 620.246094 145.839844 C 620.734375 145.839844 621.171875 145.65625 621.472656 145.320312 C 621.777344 144.988281 621.914062 144.53125 621.863281 144.042969 C 621.753906 142.980469 620.757812 142.082031 619.691406 142.082031 Z M 564.628906 142.082031 " fill-opacity="1" fill-rule="nonzero"/><path fill="#ffffff" d="M 607.171875 157.25 L 566.285156 157.25 C 564.804688 157.25 563.476562 156.050781 563.324219 154.578125 C 563.167969 153.101562 564.25 151.902344 565.730469 151.902344 L 606.617188 151.902344 C 608.101562 151.902344 609.429688 153.101562 609.582031 154.578125 C 609.734375 156.050781 608.65625 157.25 607.171875 157.25 Z M 607.171875 157.25 " fill-opacity="1" fill-rule="nonzero"/><path fill="#000000" d="M 607.171875 158.039062 L 566.285156 158.039062 C 564.410156 158.039062 562.726562 156.523438 562.535156 154.65625 C 562.433594 153.714844 562.714844 152.828125 563.324219 152.15625 C 563.933594 151.480469 564.785156 151.109375 565.730469 151.109375 L 606.617188 151.109375 C 608.492188 151.109375 610.175781 152.628906 610.371094 154.492188 C 610.46875 155.433594 610.1875 156.324219 609.578125 156.996094 C 608.972656 157.671875 608.117188 158.039062 607.171875 158.039062 Z M 565.730469 152.699219 C 565.242188 152.699219 564.804688 152.882812 564.503906 153.214844 C 564.199219 153.550781 564.0625 154.007812 564.113281 154.492188 C 564.222656 155.574219 565.199219 156.453125 566.285156 156.453125 L 607.171875 156.453125 C 607.664062 156.453125 608.097656 156.269531 608.402344 155.933594 C 608.703125 155.601562 608.84375 155.148438 608.792969 154.65625 C 608.683594 153.59375 607.6875 152.699219 606.617188 152.699219 Z M 565.730469 152.699219 " fill-opacity="1" fill-rule="nonzero"/><path fill="#ffffff" d="M 652.40625 271.894531 L 574.867188 271.894531 C 573.039062 271.894531 571.402344 270.421875 571.210938 268.601562 L 565.796875 216.457031 C 565.605469 214.636719 566.9375 213.160156 568.765625 213.160156 L 646.304688 213.160156 C 648.132812 213.160156 649.769531 214.636719 649.960938 216.457031 L 655.375 268.601562 C 655.566406 270.421875 654.234375 271.894531 652.40625 271.894531 Z M 652.40625 271.894531 " fill-opacity="1" fill-rule="nonzero"/><g clip-path="url(#0fbf2fef6e)"><path fill="#000000" d="M 652.40625 272.691406 L 574.867188 272.691406 C 572.648438 272.691406 570.652344 270.890625 570.421875 268.683594 L 565.007812 216.535156 C 564.890625 215.433594 565.21875 214.382812 565.933594 213.59375 C 566.648438 212.800781 567.652344 212.367188 568.765625 212.367188 L 646.304688 212.367188 C 648.527344 212.367188 650.519531 214.164062 650.746094 216.375 L 656.164062 268.519531 C 656.277344 269.625 655.949219 270.671875 655.234375 271.464844 C 654.523438 272.253906 653.515625 272.691406 652.40625 272.691406 Z M 568.765625 213.949219 C 568.105469 213.949219 567.523438 214.199219 567.113281 214.65625 C 566.703125 215.109375 566.515625 215.71875 566.582031 216.375 L 572 268.519531 C 572.148438 269.945312 573.433594 271.101562 574.863281 271.101562 L 652.402344 271.101562 C 653.058594 271.101562 653.648438 270.851562 654.054688 270.402344 C 654.464844 269.945312 654.652344 269.335938 654.585938 268.683594 L 649.167969 216.535156 C 649.019531 215.113281 647.734375 213.953125 646.304688 213.953125 L 568.765625 213.953125 Z M 568.765625 213.949219 " fill-opacity="1" fill-rule="nonzero"/></g><path fill="#ffffff" d="M 637.96875 233.199219 L 582.90625 233.199219 C 581.421875 233.199219 580.09375 232 579.941406 230.523438 C 579.789062 229.050781 580.867188 227.851562 582.347656 227.851562 L 637.414062 227.851562 C 638.894531 227.851562 640.222656 229.050781 640.375 230.523438 C 640.53125 232 639.453125 233.199219 637.96875 233.199219 Z M 637.96875 233.199219 " fill-opacity="1" fill-rule="nonzero"/><path fill="#000000" d="M 637.96875 233.992188 L 582.90625 233.992188 C 581.03125 233.992188 579.347656 232.472656 579.15625 230.605469 C 579.054688 229.664062 579.335938 228.777344 579.945312 228.101562 C 580.550781 227.433594 581.40625 227.058594 582.351562 227.058594 L 637.414062 227.058594 C 639.285156 227.058594 640.972656 228.578125 641.164062 230.445312 C 641.265625 231.386719 640.984375 232.273438 640.375 232.949219 C 639.769531 233.617188 638.914062 233.992188 637.96875 233.992188 Z M 582.351562 228.644531 C 581.859375 228.644531 581.425781 228.828125 581.121094 229.164062 C 580.820312 229.5 580.679688 229.953125 580.730469 230.441406 C 580.839844 231.507812 581.835938 232.402344 582.90625 232.402344 L 637.96875 232.402344 C 638.457031 232.402344 638.894531 232.21875 639.195312 231.882812 C 639.5 231.550781 639.636719 231.09375 639.585938 230.605469 C 639.476562 229.542969 638.480469 228.644531 637.414062 228.644531 Z M 582.351562 228.644531 " fill-opacity="1" fill-rule="nonzero"/><path fill="#5c84f7" d="M 639.074219 243.8125 L 584.007812 243.8125 C 582.523438 243.8125 581.199219 242.613281 581.046875 241.140625 C 580.890625 239.664062 581.972656 238.46875 583.453125 238.46875 L 638.515625 238.46875 C 640 238.46875 641.328125 239.664062 641.480469 241.140625 C 641.632812 242.617188 640.554688 243.8125 639.074219 243.8125 Z M 639.074219 243.8125 " fill-opacity="1" fill-rule="nonzero"/><path fill="#000000" d="M 639.070312 244.605469 L 584.007812 244.605469 C 582.132812 244.605469 580.449219 243.089844 580.257812 241.222656 C 580.15625 240.28125 580.4375 239.390625 581.046875 238.71875 C 581.65625 238.046875 582.507812 237.671875 583.453125 237.671875 L 638.515625 237.671875 C 640.390625 237.671875 642.074219 239.195312 642.265625 241.058594 C 642.367188 242 642.085938 242.886719 641.476562 243.5625 C 640.875 244.234375 640.015625 244.605469 639.070312 244.605469 Z M 583.453125 239.261719 C 582.964844 239.261719 582.527344 239.445312 582.226562 239.777344 C 581.921875 240.113281 581.785156 240.570312 581.832031 241.058594 C 581.945312 242.121094 582.941406 243.019531 584.007812 243.019531 L 639.070312 243.019531 C 639.558594 243.019531 639.996094 242.835938 640.300781 242.496094 C 640.601562 242.164062 640.738281 241.710938 640.691406 241.222656 C 640.578125 240.160156 639.582031 239.261719 638.515625 239.261719 Z M 583.453125 239.261719 " fill-opacity="1" fill-rule="nonzero"/><path fill="#ffffff" d="M 625.996094 254.425781 L 585.109375 254.425781 C 583.628906 254.425781 582.300781 253.230469 582.148438 251.753906 C 581.996094 250.28125 583.074219 249.082031 584.554688 249.082031 L 625.441406 249.082031 C 626.925781 249.082031 628.253906 250.28125 628.40625 251.753906 C 628.558594 253.230469 627.480469 254.425781 625.996094 254.425781 Z M 625.996094 254.425781 " fill-opacity="1" fill-rule="nonzero"/><path fill="#000000" d="M 625.996094 255.222656 L 585.109375 255.222656 C 583.238281 255.222656 581.550781 253.703125 581.359375 251.835938 C 581.257812 250.898438 581.539062 250.007812 582.148438 249.335938 C 582.757812 248.660156 583.609375 248.289062 584.554688 248.289062 L 625.441406 248.289062 C 627.316406 248.289062 629 249.808594 629.195312 251.675781 C 629.292969 252.617188 629.011719 253.503906 628.402344 254.175781 C 627.796875 254.847656 626.941406 255.222656 625.996094 255.222656 Z M 584.554688 249.878906 C 584.070312 249.878906 583.632812 250.0625 583.332031 250.394531 C 583.027344 250.734375 582.886719 251.1875 582.9375 251.675781 C 583.046875 252.738281 584.042969 253.632812 585.113281 253.632812 L 626 253.632812 C 626.488281 253.632812 626.925781 253.449219 627.226562 253.117188 C 627.53125 252.78125 627.667969 252.324219 627.617188 251.835938 C 627.507812 250.773438 626.511719 249.878906 625.445312 249.878906 Z M 584.554688 249.878906 " fill-opacity="1" fill-rule="nonzero"/><path fill="#f5f6f7" d="M 246.867188 341.320312 L 234.472656 262.980469 C 234.167969 261.042969 235.664062 259.289062 237.628906 259.289062 L 271.71875 259.289062 C 273.167969 259.289062 274.4375 260.261719 274.808594 261.664062 L 276.238281 267.0625 C 276.609375 268.464844 277.875 269.441406 279.328125 269.441406 L 326.960938 269.441406 C 328.53125 269.441406 329.871094 270.582031 330.117188 272.132812 L 340.75 339.382812 C 341.054688 341.308594 339.578125 343.054688 337.628906 343.074219 L 250.058594 344.011719 C 248.472656 344.03125 247.117188 342.886719 246.867188 341.320312 Z M 246.867188 341.320312 " fill-opacity="1" fill-rule="nonzero"/><path fill="#000000" d="M 250.023438 344.808594 C 248.078125 344.808594 246.390625 343.371094 246.085938 341.445312 L 233.6875 263.105469 C 233.507812 261.953125 233.835938 260.78125 234.59375 259.894531 C 235.355469 259.003906 236.460938 258.496094 237.628906 258.496094 L 271.71875 258.496094 C 273.527344 258.496094 275.113281 259.714844 275.574219 261.460938 L 277.003906 266.859375 C 277.28125 267.910156 278.238281 268.644531 279.328125 268.644531 L 326.960938 268.644531 C 328.9375 268.644531 330.59375 270.0625 330.898438 272.007812 L 341.535156 339.257812 C 341.71875 340.40625 341.394531 341.570312 340.644531 342.453125 C 339.894531 343.339844 338.800781 343.855469 337.640625 343.867188 L 250.070312 344.808594 C 250.054688 344.808594 250.039062 344.808594 250.023438 344.808594 Z M 247.652344 341.199219 C 247.835938 342.355469 248.851562 343.222656 250.023438 343.222656 C 250.03125 343.222656 250.039062 343.222656 250.050781 343.222656 L 337.621094 342.28125 C 338.320312 342.273438 338.976562 341.964844 339.429688 341.433594 C 339.878906 340.898438 340.078125 340.199219 339.96875 339.507812 L 329.332031 272.257812 C 329.144531 271.085938 328.148438 270.238281 326.960938 270.238281 L 279.324219 270.238281 C 277.515625 270.238281 275.929688 269.015625 275.46875 267.269531 L 274.039062 261.871094 C 273.761719 260.820312 272.804688 260.085938 271.71875 260.085938 L 237.628906 260.085938 C 236.925781 260.085938 236.257812 260.390625 235.800781 260.925781 C 235.347656 261.460938 235.148438 262.164062 235.257812 262.859375 Z M 247.652344 341.199219 " fill-opacity="1" fill-rule="nonzero"/><path fill="#ffffff" d="M 247.847656 338.359375 L 293.507812 291.15625 C 294.121094 290.519531 294.976562 290.167969 295.859375 290.183594 L 388.085938 291.800781 C 391.027344 291.855469 392.339844 295.519531 390.101562 297.425781 L 340.820312 342.203125 C 340.25 342.6875 339.527344 342.957031 338.78125 342.964844 L 250.179688 343.777344 C 247.339844 343.800781 245.878906 340.398438 247.847656 338.359375 Z M 247.847656 338.359375 " fill-opacity="1" fill-rule="nonzero"/><path fill="#000000" d="M 250.144531 344.570312 C 248.523438 344.570312 247.125 343.648438 246.480469 342.15625 C 245.835938 340.652344 246.140625 338.988281 247.277344 337.808594 L 292.9375 290.605469 C 293.703125 289.8125 294.804688 289.414062 295.875 289.386719 L 388.097656 291.007812 C 389.773438 291.035156 391.21875 292.074219 391.785156 293.648438 C 392.347656 295.222656 391.890625 296.945312 390.613281 298.03125 L 341.351562 342.789062 C 340.621094 343.410156 339.71875 343.75 338.789062 343.757812 L 250.183594 344.570312 C 250.167969 344.570312 250.15625 344.570312 250.144531 344.570312 Z M 295.804688 290.976562 C 295.160156 290.976562 294.53125 291.242188 294.078125 291.710938 L 248.417969 338.914062 C 247.601562 339.761719 247.632812 340.820312 247.941406 341.53125 C 248.246094 342.242188 248.929688 343.066406 250.167969 342.984375 L 338.773438 342.171875 C 339.332031 342.167969 339.878906 341.964844 340.308594 341.601562 L 389.566406 296.84375 C 390.519531 296.03125 390.5625 294.945312 390.289062 294.1875 C 390.019531 293.433594 389.292969 292.617188 388.070312 292.597656 L 295.847656 290.976562 C 295.832031 290.976562 295.820312 290.976562 295.804688 290.976562 Z M 247.847656 338.359375 L 247.867188 338.359375 Z M 247.847656 338.359375 " fill-opacity="1" fill-rule="nonzero"/><path fill="#ffffff" d="M 265.820312 343.847656 C 265.820312 343.847656 271.191406 351.007812 276.566406 353.394531 C 281.9375 355.777344 285.519531 355.777344 289.101562 355.777344 C 292.683594 355.777344 296.265625 356.972656 299.84375 357.566406 C 303.425781 358.164062 305.816406 358.164062 308.203125 357.566406 C 310.589844 356.972656 312.777344 354.984375 314.570312 351.40625 C 316.359375 347.824219 321.882812 339.324219 320.539062 337.089844 C 319.195312 334.851562 318.050781 336.042969 317.15625 334.703125 C 316.261719 333.359375 316.015625 330.875 313.777344 329.53125 C 311.539062 328.191406 309.996094 329.382812 308.203125 329.382812 C 306.414062 329.382812 307.757812 325.503906 304.621094 325.953125 C 301.488281 326.402344 300.644531 327.742188 298.457031 330.128906 C 298.457031 325.753906 293.53125 328.191406 291.292969 329.53125 C 289.054688 330.875 281.34375 339.671875 281.34375 339.671875 L 277.316406 343.402344 Z M 265.820312 343.847656 " fill-opacity="1" fill-rule="nonzero"/><path fill="#000000" d="M 304.472656 358.804688 C 303.082031 358.804688 301.539062 358.652344 299.714844 358.347656 C 298.507812 358.148438 297.300781 357.882812 296.089844 357.609375 C 293.785156 357.101562 291.402344 356.570312 289.101562 356.570312 C 285.496094 356.570312 281.769531 356.570312 276.242188 354.117188 C 270.746094 351.675781 265.410156 344.621094 265.1875 344.324219 C 265.011719 344.085938 264.980469 343.773438 265.105469 343.503906 C 265.230469 343.238281 265.496094 343.066406 265.789062 343.054688 L 276.988281 342.617188 L 280.804688 339.089844 C 281.542969 338.238281 288.601562 330.214844 290.882812 328.851562 C 293.074219 327.53125 296.070312 326.179688 297.875 327.203125 C 298.351562 327.476562 298.710938 327.875 298.9375 328.40625 C 300.480469 326.703125 301.667969 325.574219 304.507812 325.167969 C 306.976562 324.800781 307.515625 326.683594 307.796875 327.695312 C 307.875 327.980469 308.023438 328.511719 308.136719 328.582031 C 308.667969 328.628906 309.167969 328.480469 309.6875 328.367188 C 310.886719 328.097656 312.378906 327.773438 314.179688 328.851562 C 315.945312 329.910156 316.617188 331.558594 317.160156 332.882812 C 317.375 333.410156 317.578125 333.910156 317.816406 334.261719 C 318.03125 334.585938 318.210938 334.625 318.644531 334.730469 C 319.335938 334.898438 320.285156 335.128906 321.21875 336.679688 C 322.402344 338.652344 320.074219 343.121094 316.910156 348.765625 C 316.257812 349.921875 315.675781 350.964844 315.277344 351.757812 C 313.433594 355.441406 311.121094 357.652344 308.394531 358.335938 C 307.140625 358.648438 305.882812 358.804688 304.472656 358.804688 Z M 267.425781 344.578125 C 269.183594 346.6875 273.078125 350.972656 276.886719 352.667969 C 282.105469 354.984375 285.503906 354.984375 289.101562 354.984375 C 291.574219 354.984375 294.046875 355.535156 296.433594 356.0625 C 297.613281 356.324219 298.792969 356.585938 299.976562 356.785156 C 303.464844 357.363281 305.714844 357.367188 308.007812 356.796875 C 310.261719 356.234375 312.230469 354.300781 313.855469 351.050781 C 314.265625 350.238281 314.859375 349.171875 315.523438 347.988281 C 317.191406 345.019531 320.660156 338.835938 319.855469 337.496094 C 319.265625 336.515625 318.828125 336.410156 318.269531 336.273438 C 317.753906 336.152344 317.054688 335.980469 316.492188 335.140625 C 316.167969 334.65625 315.933594 334.085938 315.6875 333.480469 C 315.1875 332.261719 314.671875 331 313.359375 330.210938 C 312.101562 329.457031 311.136719 329.671875 310.023438 329.917969 C 309.445312 330.042969 308.847656 330.175781 308.195312 330.175781 C 306.828125 330.175781 306.488281 328.9375 306.257812 328.117188 C 305.941406 326.972656 305.773438 326.585938 304.726562 326.734375 C 302.242188 327.089844 301.410156 328.019531 299.75 329.867188 L 299.03125 330.664062 C 298.804688 330.90625 298.464844 330.984375 298.15625 330.867188 C 297.851562 330.746094 297.652344 330.457031 297.652344 330.128906 C 297.652344 329.316406 297.460938 328.796875 297.082031 328.585938 C 296.234375 328.101562 294.167969 328.730469 291.6875 330.210938 C 289.941406 331.261719 284.050781 337.773438 281.929688 340.195312 L 277.839844 343.984375 C 277.703125 344.109375 277.523438 344.183594 277.332031 344.191406 Z M 267.425781 344.578125 " fill-opacity="1" fill-rule="nonzero"/><path fill="#000000" d="M 277.957031 354.335938 C 277.574219 354.335938 277.214844 354.101562 277.070312 353.722656 C 276.890625 353.234375 277.136719 352.6875 277.625 352.507812 C 277.667969 352.492188 281.59375 351.007812 283.65625 348.945312 C 285.371094 347.230469 293.644531 334.992188 297.53125 329.085938 C 297.816406 328.652344 298.402344 328.53125 298.839844 328.816406 C 299.277344 329.105469 299.398438 329.691406 299.109375 330.125 C 298.648438 330.828125 287.273438 348.003906 284.992188 350.28125 C 282.636719 352.636719 278.464844 354.210938 278.289062 354.277344 C 278.179688 354.316406 278.066406 354.335938 277.957031 354.335938 Z M 277.957031 354.335938 " fill-opacity="1" fill-rule="nonzero"/><path fill="#000000" d="M 288.398438 356.371094 C 288.023438 356.371094 287.667969 356.144531 287.519531 355.777344 C 287.324219 355.292969 287.5625 354.742188 288.046875 354.550781 C 289.351562 354.027344 294.535156 350.761719 296.65625 347.375 C 298.863281 343.84375 307.273438 329.476562 307.355469 329.339844 C 307.621094 328.894531 308.203125 328.75 308.652344 329.015625 C 309.097656 329.285156 309.242188 329.867188 308.976562 330.3125 C 308.894531 330.449219 300.476562 344.828125 298.257812 348.375 C 295.863281 352.207031 290.261719 355.699219 288.746094 356.304688 C 288.632812 356.347656 288.515625 356.371094 288.398438 356.371094 Z M 288.398438 356.371094 " fill-opacity="1" fill-rule="nonzero"/><path fill="#000000" d="M 300.179688 357.558594 C 299.84375 357.558594 299.535156 357.9375 299.363281 357.621094 C 299.117188 357.164062 298.9375 356.984375 299.398438 356.738281 C 300.445312 356.171875 303.382812 354.488281 304.402344 353.46875 C 305.320312 352.542969 311.714844 340.945312 315.527344 333.855469 C 315.773438 333.398438 316.347656 333.226562 316.808594 333.472656 C 317.265625 333.71875 317.441406 334.292969 317.195312 334.75 C 315.519531 337.859375 307.109375 353.433594 305.738281 354.804688 C 304.3125 356.230469 300.71875 357.847656 300.558594 357.9375 C 300.414062 358.011719 300.332031 357.558594 300.179688 357.558594 Z M 300.179688 357.558594 " fill-opacity="1" fill-rule="nonzero"/><path fill="#000000" d="M 368.4375 47.421875 C 368.4375 47.421875 362.765625 44.140625 361.574219 39.371094 C 360.378906 34.597656 366.050781 32.511719 366.347656 27.140625 C 366.648438 21.773438 364.558594 17.894531 368.136719 12.824219 C 371.71875 7.753906 382.761719 6.265625 384.253906 6.5625 C 385.746094 6.859375 392.3125 0.59375 399.773438 1.191406 C 407.234375 1.789062 414.398438 6.265625 414.398438 6.265625 C 414.398438 6.265625 426.035156 5.070312 429.617188 8.652344 C 433.199219 12.230469 432.601562 18.195312 432.601562 18.195312 C 432.601562 18.195312 434.988281 18.496094 437.675781 25.652344 C 440.363281 32.808594 436.78125 37.878906 437.378906 41.757812 C 437.972656 45.636719 440.0625 50.40625 440.0625 59.355469 C 440.0625 68.304688 434.691406 72.480469 434.691406 72.480469 C 434.691406 72.480469 433.5 78.746094 427.230469 77.550781 C 420.964844 76.351562 368.4375 47.421875 368.4375 47.421875 Z M 368.4375 47.421875 " fill-opacity="1" fill-rule="nonzero"/><path fill="#000000" d="M 428.757812 78.492188 C 428.242188 78.492188 427.683594 78.441406 427.082031 78.324219 C 420.765625 77.121094 370.203125 49.300781 368.054688 48.117188 C 368.046875 48.113281 368.042969 48.113281 368.039062 48.109375 C 367.792969 47.96875 362.0625 44.601562 360.800781 39.5625 C 360.074219 36.664062 361.566406 34.632812 363.011719 32.671875 C 364.199219 31.050781 365.425781 29.375 365.554688 27.097656 C 365.640625 25.527344 365.515625 24.066406 365.394531 22.660156 C 365.105469 19.304688 364.828125 16.136719 367.492188 12.367188 C 371.359375 6.890625 382.785156 5.472656 384.410156 5.785156 C 384.695312 5.765625 385.863281 5.085938 386.800781 4.535156 C 389.703125 2.832031 394.5625 -0.0195312 399.835938 0.40625 C 406.738281 0.957031 413.265625 4.660156 414.585938 5.449219 C 416.417969 5.285156 426.644531 4.554688 430.179688 8.089844 C 433.332031 11.242188 433.480469 15.988281 433.425781 17.667969 C 434.46875 18.226562 436.390625 19.964844 438.417969 25.371094 C 440.199219 30.117188 439.351562 33.996094 438.671875 37.113281 C 438.292969 38.851562 437.964844 40.355469 438.160156 41.636719 C 438.328125 42.722656 438.617188 43.886719 438.953125 45.230469 C 439.800781 48.648438 440.859375 52.898438 440.859375 59.355469 C 440.859375 67.636719 436.472656 71.984375 435.402344 72.917969 C 435.257812 73.480469 434.851562 74.753906 433.941406 75.945312 C 433.003906 77.167969 431.386719 78.492188 428.757812 78.492188 Z M 368.828125 46.734375 C 386.960938 56.722656 422.519531 75.84375 427.378906 76.769531 C 432.757812 77.796875 433.867188 72.550781 433.914062 72.324219 C 433.949219 72.140625 434.054688 71.96875 434.203125 71.851562 C 434.253906 71.8125 439.269531 67.769531 439.269531 59.351562 C 439.269531 53.085938 438.238281 48.941406 437.410156 45.609375 C 437.0625 44.226562 436.769531 43.03125 436.589844 41.875 C 436.347656 40.300781 436.722656 38.585938 437.121094 36.773438 C 437.789062 33.707031 438.546875 30.230469 436.929688 25.925781 C 434.539062 19.546875 432.480469 18.976562 432.457031 18.972656 C 432.03125 18.917969 431.769531 18.542969 431.8125 18.113281 C 431.816406 18.058594 432.324219 12.472656 429.054688 9.207031 C 426.339844 6.492188 417.613281 6.730469 414.480469 7.046875 C 414.304688 7.070312 414.125 7.023438 413.976562 6.929688 C 413.90625 6.886719 406.882812 2.550781 399.710938 1.980469 C 394.933594 1.601562 390.523438 4.1875 387.601562 5.898438 C 385.847656 6.925781 384.890625 7.496094 384.097656 7.335938 C 382.839844 7.074219 372.175781 8.480469 368.785156 13.277344 C 366.460938 16.574219 366.699219 19.328125 366.976562 22.519531 C 367.101562 23.980469 367.234375 25.496094 367.140625 27.183594 C 366.984375 29.933594 365.554688 31.882812 364.289062 33.605469 C 362.898438 35.5 361.796875 37 362.34375 39.175781 C 363.425781 43.507812 368.621094 46.613281 368.828125 46.734375 Z M 368.828125 46.734375 " fill-opacity="1" fill-rule="nonzero"/><path fill="#ffffff" d="M 371.273438 31.167969 C 371.273438 31.167969 365.640625 44.125 367.488281 63.121094 C 367.488281 63.121094 363.890625 79.351562 365.550781 80.457031 C 367.210938 81.566406 373.578125 81.933594 373.578125 81.933594 C 373.578125 81.933594 374.8125 97.316406 383.871094 103.132812 C 384.472656 103.519531 385.101562 103.847656 385.753906 104.097656 L 385.152344 119.753906 C 385.152344 119.753906 391.015625 132.285156 405.226562 129.886719 C 419.433594 127.488281 429.472656 110.355469 429.472656 110.355469 L 426.867188 73.492188 C 426.867188 73.492188 435.378906 67.496094 431.710938 56.667969 C 429.769531 50.949219 423.648438 56.667969 423.648438 56.667969 C 423.648438 56.667969 414.453125 56.664062 417.40625 45.046875 C 417.40625 45.046875 421.097656 37.113281 419.066406 35.457031 C 417.035156 33.796875 416.480469 39.144531 410.207031 35.457031 C 403.933594 31.765625 406.007812 29.414062 400.820312 28.929688 C 395.628906 28.449219 389.914062 36.839844 371.273438 31.167969 Z M 371.273438 31.167969 " fill-opacity="1" fill-rule="nonzero"/><path fill="#000000" d="M 401.714844 130.980469 C 389.679688 130.980469 384.488281 120.210938 384.433594 120.089844 C 384.378906 119.972656 384.355469 119.851562 384.359375 119.722656 L 384.941406 104.617188 C 384.433594 104.390625 383.933594 104.117188 383.441406 103.800781 C 375.15625 98.480469 373.214844 85.804688 372.855469 82.679688 C 371.082031 82.550781 366.613281 82.121094 365.109375 81.121094 C 363.371094 79.964844 365 70.699219 366.683594 63.074219 C 364.878906 44.160156 370.3125 31.390625 370.546875 30.855469 C 370.703125 30.488281 371.113281 30.296875 371.507812 30.414062 C 384.140625 34.261719 390.542969 31.570312 395.21875 29.605469 C 397.390625 28.695312 399.09375 27.980469 400.898438 28.144531 C 404.066406 28.4375 404.914062 29.488281 405.992188 30.816406 C 406.839844 31.867188 407.894531 33.175781 410.613281 34.777344 C 414.054688 36.800781 415.433594 35.84375 416.539062 35.078125 C 417.300781 34.554688 418.339844 33.835938 419.570312 34.84375 C 421.898438 36.75 419.058594 43.394531 418.128906 45.386719 C 417.234375 48.960938 417.480469 51.773438 418.902344 53.609375 C 420.332031 55.441406 422.574219 55.796875 423.367188 55.863281 C 424.277344 55.078125 427.171875 52.804688 429.671875 53.445312 C 430.964844 53.769531 431.90625 54.769531 432.464844 56.417969 C 435.828125 66.347656 429.332031 72.496094 427.6875 73.855469 L 430.265625 110.304688 C 430.273438 110.460938 430.238281 110.625 430.15625 110.761719 C 429.742188 111.472656 419.769531 128.238281 405.359375 130.671875 C 404.082031 130.882812 402.867188 130.980469 401.714844 130.980469 Z M 385.953125 119.582031 C 386.710938 121.085938 392.367188 131.25 405.09375 129.101562 C 417.9375 126.9375 427.472656 112.089844 428.660156 110.160156 L 426.070312 73.546875 C 426.050781 73.269531 426.179688 73.003906 426.40625 72.84375 C 426.734375 72.613281 434.386719 67.039062 430.957031 56.921875 C 430.574219 55.804688 430.03125 55.167969 429.28125 54.980469 C 427.570312 54.550781 425.019531 56.46875 424.1875 57.25 C 424.039062 57.386719 423.847656 57.464844 423.644531 57.464844 C 423.492188 57.464844 419.863281 57.429688 417.644531 54.578125 C 415.902344 52.335938 415.5625 49.066406 416.632812 44.851562 C 418.339844 41.152344 419.488281 36.828125 418.5625 36.070312 C 418.289062 35.84375 418.242188 35.816406 417.4375 36.378906 C 416.199219 37.234375 414.125 38.679688 409.804688 36.140625 C 406.835938 34.394531 405.628906 32.902344 404.75 31.8125 C 403.75 30.574219 403.25 29.953125 400.742188 29.71875 C 399.34375 29.578125 397.792969 30.242188 395.824219 31.066406 C 391.285156 32.972656 384.472656 35.832031 371.738281 32.136719 C 370.667969 34.976562 366.699219 46.851562 368.273438 63.046875 C 368.28125 63.128906 368.277344 63.214844 368.257812 63.296875 C 366.675781 70.421875 365.390625 78.789062 366.066406 79.875 C 367.0625 80.519531 371.238281 81.003906 373.617188 81.144531 C 374.011719 81.167969 374.332031 81.476562 374.363281 81.871094 C 374.375 82.023438 375.675781 96.933594 384.296875 102.464844 C 384.867188 102.835938 385.453125 103.132812 386.035156 103.359375 C 386.351562 103.480469 386.558594 103.789062 386.546875 104.128906 Z M 385.953125 119.582031 " fill-opacity="1" fill-rule="nonzero"/><path fill="#f5f6f7" d="M 388.230469 283.171875 L 310.691406 283.171875 C 308.863281 283.171875 307.226562 281.695312 307.035156 279.875 L 301.621094 227.730469 C 301.429688 225.910156 302.761719 224.433594 304.589844 224.433594 L 382.128906 224.433594 C 383.957031 224.433594 385.59375 225.910156 385.785156 227.730469 L 391.199219 279.875 C 391.386719 281.695312 390.058594 283.171875 388.230469 283.171875 Z M 388.230469 283.171875 " fill-opacity="1" fill-rule="nonzero"/><path fill="#000000" d="M 388.230469 283.964844 L 310.691406 283.964844 C 308.46875 283.964844 306.476562 282.164062 306.246094 279.957031 L 300.828125 227.8125 C 300.714844 226.707031 301.042969 225.660156 301.757812 224.867188 C 302.472656 224.078125 303.476562 223.640625 304.589844 223.640625 L 382.125 223.640625 C 384.347656 223.640625 386.339844 225.441406 386.570312 227.648438 L 391.988281 279.792969 C 392.101562 280.902344 391.773438 281.945312 391.058594 282.738281 C 390.34375 283.527344 389.339844 283.964844 388.230469 283.964844 Z M 304.589844 225.226562 C 303.929688 225.226562 303.34375 225.476562 302.933594 225.925781 C 302.527344 226.382812 302.339844 226.992188 302.40625 227.644531 L 307.824219 279.792969 C 307.972656 281.214844 309.257812 282.375 310.6875 282.375 L 388.226562 282.375 C 388.882812 282.375 389.46875 282.125 389.878906 281.671875 C 390.289062 281.21875 390.472656 280.609375 390.40625 279.953125 L 384.992188 227.808594 C 384.84375 226.382812 383.558594 225.226562 382.125 225.226562 Z M 304.589844 225.226562 " fill-opacity="1" fill-rule="nonzero"/><path fill="#5c84f7" d="M 373.792969 244.472656 L 318.730469 244.472656 C 317.246094 244.472656 315.917969 243.273438 315.765625 241.800781 C 315.613281 240.324219 316.691406 239.128906 318.171875 239.128906 L 373.238281 239.128906 C 374.71875 239.128906 376.046875 240.324219 376.199219 241.800781 C 376.351562 243.277344 375.277344 244.472656 373.792969 244.472656 Z M 373.792969 244.472656 " fill-opacity="1" fill-rule="nonzero"/><path fill="#000000" d="M 373.792969 245.265625 L 318.730469 245.265625 C 316.855469 245.265625 315.171875 243.75 314.976562 241.882812 C 314.878906 240.941406 315.160156 240.050781 315.765625 239.378906 C 316.375 238.707031 317.230469 238.332031 318.175781 238.332031 L 373.238281 238.332031 C 375.113281 238.332031 376.796875 239.855469 376.992188 241.71875 C 377.089844 242.660156 376.808594 243.550781 376.199219 244.222656 C 375.589844 244.894531 374.738281 245.265625 373.792969 245.265625 Z M 318.175781 239.921875 C 317.683594 239.921875 317.25 240.105469 316.945312 240.4375 C 316.644531 240.777344 316.503906 241.230469 316.554688 241.71875 C 316.664062 242.78125 317.660156 243.679688 318.730469 243.679688 L 373.792969 243.679688 C 374.28125 243.679688 374.71875 243.496094 375.019531 243.160156 C 375.324219 242.824219 375.460938 242.371094 375.410156 241.882812 C 375.300781 240.800781 374.324219 239.921875 373.238281 239.921875 Z M 318.175781 239.921875 " fill-opacity="1" fill-rule="nonzero"/><path fill="#5c84f7" d="M 374.894531 255.089844 L 319.832031 255.089844 C 318.347656 255.089844 317.019531 253.890625 316.867188 252.414062 C 316.714844 250.941406 317.792969 249.742188 319.273438 249.742188 L 374.339844 249.742188 C 375.820312 249.742188 377.148438 250.941406 377.300781 252.414062 C 377.457031 253.890625 376.378906 255.089844 374.894531 255.089844 Z M 374.894531 255.089844 " fill-opacity="1" fill-rule="nonzero"/><path fill="#000000" d="M 374.894531 255.882812 L 319.832031 255.882812 C 317.957031 255.882812 316.273438 254.363281 316.078125 252.496094 C 315.980469 251.558594 316.261719 250.667969 316.871094 249.992188 C 317.476562 249.320312 318.332031 248.949219 319.277344 248.949219 L 374.339844 248.949219 C 376.214844 248.949219 377.898438 250.46875 378.09375 252.335938 C 378.191406 253.273438 377.910156 254.164062 377.300781 254.835938 C 376.695312 255.507812 375.839844 255.882812 374.894531 255.882812 Z M 319.277344 250.535156 C 318.785156 250.535156 318.351562 250.71875 318.046875 251.054688 C 317.746094 251.390625 317.609375 251.84375 317.65625 252.332031 C 317.769531 253.394531 318.761719 254.292969 319.832031 254.292969 L 374.898438 254.292969 C 375.386719 254.292969 375.820312 254.109375 376.125 253.773438 C 376.425781 253.4375 376.566406 252.984375 376.515625 252.496094 C 376.40625 251.433594 375.410156 250.535156 374.339844 250.535156 Z M 319.277344 250.535156 " fill-opacity="1" fill-rule="nonzero"/><path fill="#5c84f7" d="M 361.820312 265.703125 L 320.933594 265.703125 C 319.453125 265.703125 318.125 264.503906 317.972656 263.03125 C 317.816406 261.554688 318.898438 260.355469 320.378906 260.355469 L 361.265625 260.355469 C 362.75 260.355469 364.078125 261.554688 364.230469 263.03125 C 364.382812 264.503906 363.304688 265.703125 361.820312 265.703125 Z M 361.820312 265.703125 " fill-opacity="1" fill-rule="nonzero"/><path fill="#000000" d="M 361.820312 266.496094 L 320.933594 266.496094 C 319.0625 266.496094 317.378906 264.976562 317.183594 263.109375 C 317.085938 262.171875 317.367188 261.28125 317.972656 260.609375 C 318.578125 259.9375 319.433594 259.5625 320.378906 259.5625 L 361.265625 259.5625 C 363.144531 259.5625 364.828125 261.082031 365.023438 262.949219 C 365.117188 263.886719 364.839844 264.777344 364.230469 265.453125 C 363.621094 266.125 362.765625 266.496094 361.820312 266.496094 Z M 320.378906 261.152344 C 319.890625 261.152344 319.457031 261.335938 319.152344 261.671875 C 318.851562 262.007812 318.710938 262.460938 318.761719 262.945312 C 318.871094 264.011719 319.867188 264.910156 320.933594 264.910156 L 361.820312 264.910156 C 362.3125 264.910156 362.746094 264.726562 363.050781 264.390625 C 363.351562 264.054688 363.492188 263.601562 363.441406 263.113281 C 363.332031 262.046875 362.335938 261.152344 361.265625 261.152344 Z M 320.378906 261.152344 " fill-opacity="1" fill-rule="nonzero"/><path fill="#ffffff" d="M 414.058594 246.640625 C 414.058594 246.640625 410.566406 241.457031 407.238281 239.320312 C 401.9375 235.914062 386.445312 231.550781 386.445312 231.550781 L 387.539062 242.351562 L 370.492188 252.195312 C 370.492188 252.195312 352.308594 250.679688 350.417969 254.085938 C 349.476562 255.773438 353.824219 259.765625 353.824219 259.765625 C 353.824219 259.765625 349.65625 260.523438 350.792969 262.417969 C 351.929688 264.3125 354.0625 265.105469 354.0625 265.105469 C 354.0625 265.105469 352.765625 267.539062 354.660156 269.429688 C 356.554688 271.324219 357.640625 271.964844 357.640625 271.964844 C 357.640625 271.964844 358.746094 276.046875 362.535156 276.804688 C 366.320312 277.5625 372.574219 279.34375 376.742188 279.722656 C 380.910156 280.097656 404.332031 276.296875 409.003906 275.414062 C 413.679688 274.53125 416.707031 255.097656 414.058594 246.640625 Z M 414.058594 246.640625 " fill-opacity="1" fill-rule="nonzero"/><path fill="#000000" d="M 377.425781 280.535156 C 377.132812 280.535156 376.882812 280.527344 376.671875 280.507812 C 373.800781 280.25 370.011719 279.347656 366.667969 278.554688 C 365.082031 278.175781 363.601562 277.820312 362.382812 277.578125 C 358.746094 276.855469 357.332031 273.507812 356.972656 272.472656 C 356.523438 272.164062 355.523438 271.414062 354.097656 269.992188 C 352.640625 268.535156 352.695312 266.703125 353.050781 265.503906 C 352.242188 265.074219 350.949219 264.21875 350.113281 262.824219 C 349.664062 262.078125 349.78125 261.449219 349.960938 261.058594 C 350.347656 260.210938 351.382812 259.675781 352.277344 259.359375 C 350.820312 257.84375 348.820312 255.324219 349.71875 253.699219 C 351.710938 250.121094 366.683594 251.09375 370.308594 251.382812 L 386.699219 241.921875 L 385.652344 231.628906 C 385.625 231.371094 385.730469 231.113281 385.933594 230.941406 C 386.136719 230.777344 386.410156 230.710938 386.660156 230.789062 C 387.296875 230.964844 402.328125 235.222656 407.667969 238.652344 C 411.09375 240.851562 414.570312 245.980469 414.71875 246.199219 C 414.761719 246.261719 414.792969 246.332031 414.816406 246.402344 C 416.996094 253.355469 415.507812 267.910156 412.023438 273.722656 C 411.15625 275.167969 410.195312 275.996094 409.15625 276.195312 C 404.980469 276.984375 383.238281 280.535156 377.425781 280.535156 Z M 362.191406 252.644531 C 356.800781 252.644531 351.855469 253.128906 351.109375 254.472656 C 350.777344 255.066406 352.328125 257.3125 354.359375 259.183594 C 354.582031 259.386719 354.667969 259.695312 354.585938 259.988281 C 354.503906 260.277344 354.261719 260.492188 353.964844 260.546875 C 352.894531 260.742188 351.613281 261.257812 351.40625 261.714844 C 351.390625 261.75 351.359375 261.820312 351.472656 262.011719 C 352.449219 263.632812 354.320312 264.359375 354.339844 264.367188 C 354.554688 264.445312 354.722656 264.617188 354.804688 264.828125 C 354.886719 265.042969 354.871094 265.28125 354.761719 265.484375 C 354.722656 265.558594 353.777344 267.429688 355.21875 268.871094 C 357 270.648438 358.039062 271.28125 358.050781 271.289062 C 358.222656 271.390625 358.355469 271.566406 358.410156 271.761719 C 358.417969 271.796875 359.445312 275.378906 362.691406 276.027344 C 363.933594 276.277344 365.429688 276.632812 367.035156 277.015625 C 370.328125 277.800781 374.058594 278.683594 376.816406 278.933594 C 380.738281 279.324219 403.53125 275.648438 408.859375 274.640625 C 409.414062 274.535156 410.054688 273.921875 410.660156 272.914062 C 413.890625 267.527344 415.324219 253.546875 413.335938 246.996094 C 412.851562 246.292969 409.71875 241.863281 406.808594 239.996094 C 402.488281 237.21875 390.996094 233.714844 387.351562 232.644531 L 388.328125 242.277344 C 388.363281 242.585938 388.207031 242.886719 387.9375 243.046875 L 370.890625 252.890625 C 370.75 252.96875 370.59375 253.007812 370.425781 252.992188 C 367.914062 252.777344 364.992188 252.644531 362.191406 252.644531 Z M 362.191406 252.644531 " fill-opacity="1" fill-rule="nonzero"/><path fill="#000000" d="M 500.027344 254.246094 C 500.007812 254.246094 499.984375 254.242188 499.964844 254.242188 L 413.925781 247.332031 C 413.492188 247.296875 413.164062 246.914062 413.199219 246.480469 C 413.234375 246.042969 413.636719 245.722656 414.054688 245.753906 L 500.089844 252.664062 C 500.527344 252.699219 500.851562 253.078125 500.816406 253.515625 C 500.785156 253.929688 500.4375 254.246094 500.027344 254.246094 Z M 500.027344 254.246094 " fill-opacity="1" fill-rule="nonzero"/><path fill="#000000" d="M 474.058594 251.761719 C 473.660156 251.761719 473.316406 251.460938 473.269531 251.054688 L 465.808594 184.40625 C 465.761719 183.96875 466.074219 183.578125 466.507812 183.527344 C 466.933594 183.46875 467.335938 183.792969 467.386719 184.226562 L 474.847656 250.875 C 474.894531 251.3125 474.582031 251.703125 474.148438 251.753906 C 474.117188 251.757812 474.089844 251.761719 474.058594 251.761719 Z M 474.058594 251.761719 " fill-opacity="1" fill-rule="nonzero"/><path fill="#000000" d="M 479.507812 310.042969 C 479.390625 310.042969 479.277344 310.015625 479.164062 309.964844 L 408.664062 276.128906 C 408.269531 275.941406 408.101562 275.46875 408.292969 275.074219 C 408.480469 274.675781 408.957031 274.511719 409.347656 274.703125 L 479.851562 308.535156 C 480.246094 308.722656 480.410156 309.195312 480.222656 309.589844 C 480.085938 309.875 479.800781 310.042969 479.507812 310.042969 Z M 479.507812 310.042969 " fill-opacity="1" fill-rule="nonzero"/><path fill="#000000" d="M 339.34375 225.292969 C 339.316406 225.292969 339.289062 225.292969 339.261719 225.289062 C 338.828125 225.246094 338.507812 224.855469 338.554688 224.421875 L 342.976562 180.371094 C 343.019531 179.9375 343.394531 179.625 343.84375 179.660156 C 344.28125 179.707031 344.601562 180.09375 344.554688 180.53125 L 340.132812 224.578125 C 340.089844 224.988281 339.746094 225.292969 339.34375 225.292969 Z M 339.34375 225.292969 " fill-opacity="1" fill-rule="nonzero"/><path fill="#000000" d="M 371.320312 261.921875 C 371.300781 261.921875 371.28125 261.921875 371.261719 261.917969 L 353.789062 260.539062 C 353.351562 260.507812 353.027344 260.125 353.0625 259.691406 C 353.09375 259.25 353.5 258.925781 353.914062 258.960938 L 371.242188 260.328125 L 389.503906 255 C 389.925781 254.882812 390.363281 255.117188 390.488281 255.539062 C 390.609375 255.957031 390.367188 256.402344 389.949219 256.523438 L 371.546875 261.890625 C 371.472656 261.910156 371.398438 261.921875 371.320312 261.921875 Z M 371.320312 261.921875 " fill-opacity="1" fill-rule="nonzero"/><path fill="#000000" d="M 374.128906 268.453125 C 374.097656 268.453125 374.066406 268.449219 374.035156 268.445312 L 353.894531 266.003906 C 353.460938 265.949219 353.148438 265.550781 353.203125 265.117188 C 353.253906 264.683594 353.648438 264.371094 354.085938 264.425781 L 374.117188 266.855469 L 388.496094 264.660156 C 388.933594 264.601562 389.335938 264.890625 389.402344 265.324219 C 389.46875 265.757812 389.167969 266.164062 388.738281 266.226562 L 374.25 268.441406 C 374.210938 268.449219 374.167969 268.453125 374.128906 268.453125 Z M 374.128906 268.453125 " fill-opacity="1" fill-rule="nonzero"/><path fill="#000000" d="M 374.867188 275.183594 C 374.832031 275.183594 374.796875 275.179688 374.761719 275.175781 L 357.832031 272.917969 C 357.394531 272.859375 357.089844 272.460938 357.148438 272.027344 C 357.207031 271.589844 357.617188 271.296875 358.039062 271.34375 L 374.875 273.589844 L 389.628906 271.828125 C 390.058594 271.773438 390.460938 272.089844 390.511719 272.523438 C 390.5625 272.957031 390.253906 273.355469 389.820312 273.40625 L 374.964844 275.175781 C 374.929688 275.183594 374.898438 275.183594 374.867188 275.183594 Z M 374.867188 275.183594 " fill-opacity="1" fill-rule="nonzero"/><path fill="#000000" d="M 187.601562 79.828125 C 187.375 79.828125 187.160156 79.730469 187.011719 79.5625 L 178.636719 70.21875 C 178.34375 69.894531 178.371094 69.394531 178.695312 69.097656 C 179.023438 68.808594 179.523438 68.835938 179.816406 69.160156 L 187.453125 77.679688 L 196.046875 62.398438 C 196.261719 62.019531 196.746094 61.878906 197.128906 62.097656 C 197.511719 62.3125 197.648438 62.796875 197.429688 63.175781 L 188.292969 79.421875 C 188.171875 79.644531 187.941406 79.792969 187.6875 79.820312 C 187.65625 79.824219 187.628906 79.828125 187.601562 79.828125 Z M 187.601562 79.828125 " fill-opacity="1" fill-rule="nonzero"/><path fill="#000000" d="M 191.980469 107.761719 C 191.753906 107.761719 191.539062 107.667969 191.386719 107.5 L 183.011719 98.15625 C 182.722656 97.828125 182.75 97.328125 183.074219 97.035156 C 183.402344 96.746094 183.902344 96.769531 184.195312 97.097656 L 191.832031 105.617188 L 200.425781 90.335938 C 200.640625 89.957031 201.121094 89.820312 201.507812 90.035156 C 201.886719 90.25 202.023438 90.730469 201.808594 91.113281 L 192.671875 107.359375 C 192.546875 107.582031 192.320312 107.730469 192.066406 107.757812 C 192.035156 107.761719 192.007812 107.761719 191.980469 107.761719 Z M 191.980469 107.761719 " fill-opacity="1" fill-rule="nonzero"/><path fill="#000000" d="M 194.335938 135.699219 C 194.113281 135.699219 193.898438 135.605469 193.746094 135.4375 L 185.371094 126.09375 C 185.078125 125.765625 185.105469 125.265625 185.429688 124.972656 C 185.757812 124.683594 186.257812 124.707031 186.550781 125.035156 L 194.1875 133.554688 L 202.78125 118.273438 C 202.996094 117.894531 203.480469 117.753906 203.863281 117.972656 C 204.246094 118.183594 204.382812 118.667969 204.164062 119.050781 L 195.027344 135.296875 C 194.90625 135.519531 194.679688 135.667969 194.425781 135.695312 C 194.394531 135.699219 194.367188 135.699219 194.335938 135.699219 Z M 194.335938 135.699219 " fill-opacity="1" fill-rule="nonzero"/><path fill="#000000" d="M 197.03125 157.242188 C 196.804688 157.242188 196.59375 157.148438 196.441406 156.980469 L 188.0625 147.632812 C 187.773438 147.308594 187.800781 146.808594 188.125 146.515625 C 188.453125 146.226562 188.957031 146.25 189.246094 146.574219 L 196.882812 155.09375 L 205.476562 139.816406 C 205.6875 139.4375 206.171875 139.296875 206.554688 139.515625 C 206.9375 139.726562 207.074219 140.210938 206.859375 140.59375 L 197.722656 156.839844 C 197.597656 157.0625 197.371094 157.210938 197.117188 157.238281 C 197.089844 157.242188 197.058594 157.242188 197.03125 157.242188 Z M 197.03125 157.242188 " fill-opacity="1" fill-rule="nonzero"/></svg>